<?xml version="1.0" encoding="UTF-8"?>
<svg version="1.1" xmlns="http://www.w3.org/2000/svg" width="1500" height="1500">
<path d="M0 0 C1.35871216 0.46025574 1.35871216 0.46025574 2.74487305 0.92980957 C8.62519529 2.92965738 14.47625808 5.00020609 20.3125 7.125 C21.50724945 7.55117615 21.50724945 7.55117615 22.72613525 7.98596191 C39.34697784 13.97871632 39.34697784 13.97871632 44.3125 22.125 C45.11155762 23.40552246 45.11155762 23.40552246 45.92675781 24.71191406 C47.68691134 27.68313533 49.32442047 30.69650468 50.9375 33.75 C51.53723633 34.87809082 52.13697266 36.00618164 52.75488281 37.16845703 C90.27784111 108.59899588 107.2868668 192.33345562 107.515625 272.6796875 C107.52265114 274.21966071 107.52973792 275.75963365 107.53688049 277.29960632 C107.55628761 282.19974182 107.56131581 287.09982995 107.5625 292 C107.56294186 292.83654491 107.56338371 293.67308983 107.56383896 294.53498459 C107.57121298 321.17667682 107.07946215 347.60511163 104.3125 374.125 C104.22764343 374.96075562 104.14278687 375.79651123 104.05535889 376.65759277 C97.23744863 443.76659843 84.56999822 510.74256309 64.25292969 575.11767578 C63.45353668 577.67399019 62.68980228 580.23594261 61.9453125 582.80859375 C57.36289194 598.16014927 50.05701486 612.6216552 43.26672363 627.09155273 C42.35789731 629.02825849 41.45170578 630.96617777 40.54589844 632.90429688 C33.33264335 648.28753897 25.64475495 663.31947925 17.3125 678.125 C16.83490234 678.98222656 16.35730469 679.83945312 15.86523438 680.72265625 C-6.43108239 720.72930852 -32.2980701 759.41095233 -62.1796875 794.18359375 C-64.54643001 796.9595394 -66.84132031 799.78063193 -69.125 802.625 C-72.99140167 807.3799105 -77.07278868 811.89161645 -81.26342773 816.359375 C-83.85637388 819.12518422 -86.38680132 821.92554223 -88.85717773 824.80175781 C-92.72083072 829.22489825 -96.80746102 833.38936144 -100.96484375 837.53515625 C-101.73502335 838.30629257 -102.50520294 839.07742889 -103.29872131 839.87193298 C-104.91691373 841.49080153 -106.53635212 843.10842551 -108.15698242 844.72485352 C-110.61817232 847.18068718 -113.07397809 849.64181365 -115.52929688 852.10351562 C-117.11165867 853.68521653 -118.69433067 855.26660717 -120.27734375 856.84765625 C-121.00155014 857.57388687 -121.72575653 858.30011749 -122.47190857 859.0483551 C-127.05150542 863.60725717 -131.79035619 867.91117756 -136.6875 872.125 C-138.29518373 873.57945517 -139.89989715 875.03720895 -141.5 876.5 C-145.76360017 880.34306298 -150.13302273 884.01822734 -154.59765625 887.625 C-156.84710665 889.44503572 -159.08223792 891.27718882 -161.30859375 893.125 C-170.42763358 900.66391153 -179.81184483 907.71967066 -189.47021484 914.55175781 C-191.5991688 916.06232589 -193.71685757 917.58740515 -195.83203125 919.1171875 C-222.32578757 938.18839645 -250.53738095 954.49618848 -279.6875 969.125 C-280.79254883 969.68219727 -281.89759766 970.23939453 -283.03613281 970.81347656 C-304.71548167 981.68827217 -326.93276105 990.94519142 -349.875 998.8125 C-351.28011841 999.30327026 -351.28011841 999.30327026 -352.71362305 999.80395508 C-365.42006968 1004.01037738 -374.36124248 1003.07872786 -386.6875 998.125 C-387.30612915 997.87711731 -387.9247583 997.62923462 -388.56213379 997.37384033 C-393.01770781 995.56492835 -397.41870793 993.64086202 -401.8125 991.6875 C-402.49359833 991.38675568 -403.17469666 991.08601135 -403.87643433 990.77615356 C-425.89944574 981.04517404 -447.42832698 970.66114696 -468.24951172 958.53125 C-470.41363024 957.28297014 -472.59047006 956.06843888 -474.78515625 954.875 C-498.9659917 941.71245694 -521.86044103 925.87241901 -543.6875 909.125 C-544.69425781 908.361875 -545.70101563 907.59875 -546.73828125 906.8125 C-564.44568392 893.35203904 -581.51396932 879.10886399 -597.75610352 863.9128418 C-599.25843466 862.52217425 -600.77152216 861.14312315 -602.28881836 859.76879883 C-609.49182199 853.2422508 -616.45684059 846.51204115 -623.31665039 839.6262207 C-625.01269726 837.92476222 -626.71409821 836.22878737 -628.41601562 834.53320312 C-633.52332379 829.42900691 -638.55019574 824.31405175 -643.23999023 818.81762695 C-645.43993437 816.24515053 -647.75544032 813.7892983 -650.0625 811.3125 C-654.33145194 806.69200451 -658.36781294 801.93393248 -662.3125 797.03125 C-664.52546745 794.32327667 -666.78926598 791.67276383 -669.08032227 789.03125 C-674.76424865 782.47681236 -680.18090132 775.78259899 -685.39257812 768.84521484 C-686.74898111 767.04332656 -688.11612023 765.24993299 -689.484375 763.45703125 C-740.71413362 696.06071499 -782.28385155 620.96374186 -811.6875 514.125 C-811.85487671 513.4664502 -812.02225342 512.80790039 -812.19470215 512.12939453 C-833.29012635 428.8454831 -839.77676437 342.11064436 -797.6875 76.125 C-797.32156738 75.00270996 -796.95563477 73.88041992 -796.57861328 72.72412109 C-792.64229092 60.73441338 -788.37921032 48.9273228 -783.4375 37.3125 C-783.03732666 36.35746582 -782.63715332 35.40243164 -782.22485352 34.41845703 C-773.85268832 15.31430391 -746.93247237 9.28374104 -728.6875 2.125 C-718.75141332 -1.720587 -708.74270784 -5.35493819 -698.6875 -8.875 C-697.99420593 -9.11776672 -697.30091187 -9.36053345 -696.58660889 -9.61065674 C-617.12710251 -37.35537131 -533.98593291 -53.48789956 -426.6875 -60.875 C-425.60436523 -60.93284668 -424.52123047 -60.99069336 -423.40527344 -61.05029297 C-324.51418616 -66.19482777 -224.78541777 -56.08904946 0 0 Z " fill="#2E307A" transform="translate(1105.6875,278.875)"/>
<path d="M0 0 C5.38241152 0.0113864 10.76462511 0.00461215 16.14702988 -0.00686932 C40.3484193 -0.05082509 64.4002894 0.25853385 88.52856445 2.26074219 C89.6317099 2.35224548 90.73485535 2.44374878 91.87142944 2.5380249 C98.89080937 3.1377216 105.89775848 3.83302005 112.90356445 4.57324219 C113.93685883 4.68056671 114.9701532 4.78789124 116.03475952 4.89846802 C134.94450333 6.86901127 153.75238419 9.28092583 172.52856445 12.26074219 C173.25952332 12.37611328 173.99048218 12.49148438 174.74359131 12.61035156 C225.61824792 20.6525162 276.28899118 30.92792842 325.49438477 46.31225586 C327.70611434 47.0036438 329.91919259 47.6907217 332.13305664 48.37524414 C341.64815882 51.32181773 351.11756906 54.39497854 360.56713867 57.54516602 C362.92169731 58.32928079 365.27782782 59.10854491 367.6340332 59.88769531 C371.3145315 61.10742735 374.98299559 62.35915664 378.64758301 63.62579346 C380.30221848 64.18433628 381.97167427 64.69856243 383.64282227 65.20556641 C390.50498802 67.47457037 393.22592209 70.94312688 396.52856445 77.26074219 C396.96088379 78.06334473 397.39320313 78.86594727 397.83862305 79.69287109 C399.19025817 82.29475596 400.46360609 84.92222869 401.71606445 87.57324219 C402.41771729 89.05497925 402.41771729 89.05497925 403.13354492 90.56665039 C416.65993218 119.62375258 426.6603294 149.98313018 433.52856445 181.26074219 C433.78234863 182.3799707 434.03613281 183.49919922 434.29760742 184.65234375 C437.51125971 198.86237088 440.09848393 213.05986322 441.90356445 227.51074219 C441.98914612 228.18855743 442.07472778 228.86637268 442.16290283 229.56472778 C443.06762096 236.83607532 443.73658198 243.9321247 443.52856445 251.26074219 C435.82103002 249.82504716 428.19356313 248.09687278 420.60375977 246.13134766 C419.29604212 245.79901581 417.98501242 245.47947227 416.67114258 245.17236328 C414.74361029 244.72009047 412.82716563 244.22136478 410.91137695 243.72167969 C409.78103027 243.44114746 408.65068359 243.16061523 407.48608398 242.87158203 C404.16259899 241.06141578 404.08979118 240.6272785 402.82495117 237.29956055 C401.62043408 234.56071766 401.0088938 233.50023965 398.2986145 232.14886475 C395.34729071 231.32446966 392.41971071 230.720479 389.40356445 230.17871094 C388.30568604 229.95298904 387.20780762 229.72726715 386.07666016 229.4947052 C382.56622169 228.78014202 379.04868412 228.11329285 375.52856445 227.44824219 C373.1906841 226.98335408 370.8534334 226.5152875 368.5168457 226.04394531 C365.20033423 225.37527252 361.88376187 224.71093205 358.5612793 224.07255554 C353.39483955 223.07654782 348.3012925 221.97002954 343.20922852 220.64160156 C338.91017094 219.54416974 334.90481451 218.8581993 330.45043945 218.74902344 C329.27094727 218.71357422 328.09145508 218.678125 326.8762207 218.64160156 C325.68899414 218.61904297 324.50176758 218.59648437 323.27856445 218.57324219 C322.04493164 218.53908203 320.81129883 218.50492188 319.5402832 218.46972656 C316.53646808 218.3882277 313.5329089 218.31876463 310.52856445 218.26074219 C306.55975748 201.36301213 303.43875866 184.39930681 300.71606445 167.26074219 C300.56354218 166.30921265 300.4110199 165.35768311 300.25387573 164.37731934 C298.65522645 154.3622105 297.10183038 144.39849756 296.52856445 134.26074219 C297.51856445 134.26074219 298.50856445 134.26074219 299.52856445 134.26074219 C299.52856445 133.27074219 299.52856445 132.28074219 299.52856445 131.26074219 C298.53856445 130.93074219 297.54856445 130.60074219 296.52856445 130.26074219 C296.52856445 127.62074219 296.52856445 124.98074219 296.52856445 122.26074219 C295.29106445 122.11636719 294.05356445 121.97199219 292.77856445 121.82324219 C289.90374505 121.48784659 287.36784748 120.97056294 284.52856445 120.26074219 C284.52856445 110.03074219 284.52856445 99.80074219 284.52856445 89.26074219 C285.18856445 89.26074219 285.84856445 89.26074219 286.52856445 89.26074219 C283.69051545 83.35760026 281.48298395 81.02529409 275.52856445 78.26074219 C269.69852475 76.4915448 263.08761327 76.04793558 257.59106445 78.94824219 C254.55608378 81.23996229 253.03700068 82.80021201 251.52856445 86.26074219 C251.52856445 87.25074219 251.52856445 88.24074219 251.52856445 89.26074219 C252.51856445 89.92074219 253.50856445 90.58074219 254.52856445 91.26074219 C254.86914062 93.59912109 254.86914062 93.59912109 254.8215332 96.48730469 C254.80703125 98.03417969 254.80703125 98.03417969 254.79223633 99.61230469 C254.76709961 100.69253906 254.74196289 101.77277344 254.71606445 102.88574219 C254.7025293 103.97371094 254.68899414 105.06167969 254.67504883 106.18261719 C254.639612 108.87581627 254.59020776 111.56803593 254.52856445 114.26074219 C248.27128997 113.59027105 242.24980008 112.40552896 236.1184082 111.00292969 C235.12466187 110.77882919 234.13091553 110.5547287 233.10705566 110.32383728 C229.89256894 109.59805756 226.67931918 108.86695509 223.46606445 108.13574219 C221.25854339 107.6362843 219.05094206 107.13718109 216.84326172 106.63842773 C212.45404551 105.64623639 208.06530207 104.65199685 203.67700195 103.65576172 C198.25351218 102.42463122 192.82891725 101.19847772 187.40356445 99.97558594 C185.9401035 99.64567352 184.47664319 99.31575829 183.01318359 98.98583984 C182.33530792 98.83302551 181.65743225 98.68021118 180.95901489 98.52276611 C176.14835327 97.4376877 171.33850435 96.3490143 166.52856445 95.26074219 C166.52856445 88.99074219 166.52856445 82.72074219 166.52856445 76.26074219 C164.46348633 75.93783203 164.46348633 75.93783203 162.35668945 75.60839844 C156.71913883 74.58755926 151.23024559 73.17328886 145.70043945 71.69433594 C123.32173591 65.7673237 102.75443114 61.51039488 79.52856445 62.26074219 C79.52856445 66.22074219 79.52856445 70.18074219 79.52856445 74.26074219 C62.94961708 72.68179482 62.94961708 72.68179482 60.52856445 70.26074219 C60.38741284 67.59015368 60.48609338 64.93641981 60.52856445 62.26074219 C41.05458127 61.11773196 28.59735359 63.47114594 13.0847168 75.39160156 C10.53654016 77.25491009 7.94532131 78.83855233 5.2043457 80.40136719 C-3.47003709 84.8906751 -3.47003709 84.8906751 -8.4519043 92.65136719 C-8.51682453 96.04894802 -8.51682453 96.04894802 -8.22924805 99.33105469 C-8.47143555 102.26074219 -8.47143555 102.26074219 -10.58862305 104.56542969 C-13.15445648 106.31717433 -15.71612498 107.83026945 -18.47143555 109.26074219 C-19.95643555 110.25074219 -19.95643555 110.25074219 -21.47143555 111.26074219 C-24.26318047 111.40958564 -26.95264765 111.4447008 -29.7409668 111.38574219 C-31.4411597 111.36825329 -33.14135514 111.35101018 -34.84155273 111.33398438 C-35.73080444 111.32153687 -36.62005615 111.30908936 -37.53625488 111.29626465 C-56.72153905 111.04823419 -75.3239675 111.54459077 -94.22143555 115.13574219 C-95.00808594 115.28495117 -95.79473633 115.43416016 -96.60522461 115.58789062 C-108.41491344 118.05265283 -118.80492356 123.85551948 -129.40893555 129.38574219 C-130.89622495 130.15716302 -132.38369384 130.92823791 -133.87133789 131.69897461 C-140.72265504 135.2520989 -147.56717505 138.81870176 -154.39501953 142.41674805 C-155.85864926 143.18565278 -157.32561876 143.94823451 -158.79589844 144.7043457 C-162.87587768 146.81684303 -166.80431736 149.06695476 -170.70581055 151.49511719 C-182.74175793 158.7405694 -191.98328668 161.2129529 -206.03442383 161.0246582 C-219.97084804 160.92806912 -232.74416897 164.26858366 -246.19604492 167.53808594 C-250.2941596 168.44226151 -254.29104906 168.93215286 -258.47143555 169.26074219 C-258.55217757 166.63513109 -258.61179785 164.01198543 -258.65893555 161.38574219 C-258.68407227 160.639375 -258.70920898 159.89300781 -258.73510742 159.12402344 C-258.7644043 156.95605469 -258.7644043 156.95605469 -258.47143555 153.26074219 C-257.48143555 152.60074219 -256.49143555 151.94074219 -255.47143555 151.26074219 C-256.08702059 147.25943939 -258.10881413 144.48249866 -260.47143555 141.26074219 C-263.45858692 139.7671665 -266.5103149 140.03570784 -269.78393555 140.01074219 C-271.10006836 139.98496094 -272.41620117 139.95917969 -273.7722168 139.93261719 C-277.65263779 140.27681504 -279.4478855 140.86482437 -282.47143555 143.26074219 C-283.87106036 145.02593578 -283.87106036 145.02593578 -284.78393555 146.94824219 C-285.34081055 148.04136719 -285.89768555 149.13449219 -286.47143555 150.26074219 C-285.81143555 150.26074219 -285.15143555 150.26074219 -284.47143555 150.26074219 C-284.47143555 158.18074219 -284.47143555 166.10074219 -284.47143555 174.26074219 C-287.77143555 174.26074219 -291.07143555 174.26074219 -294.47143555 174.26074219 C-294.47143555 175.25074219 -294.47143555 176.24074219 -294.47143555 177.26074219 C-296.74092657 177.93229567 -299.01183164 178.59813849 -301.28393555 179.26074219 C-302.54850586 179.63199219 -303.81307617 180.00324219 -305.1159668 180.38574219 C-308.47143555 181.26074219 -308.47143555 181.26074219 -311.47143555 181.26074219 C-311.47143555 185.55074219 -311.47143555 189.84074219 -311.47143555 194.26074219 C-341.77706548 199.76214845 -372.09731897 205.15012106 -402.47143555 210.26074219 C-401.96946196 201.88546276 -400.78191657 193.88593996 -398.97143555 185.69824219 C-398.58483765 183.92574097 -398.58483765 183.92574097 -398.19042969 182.11743164 C-395.94454033 172.01582468 -393.46572189 161.97520109 -390.90893555 151.94824219 C-390.72556641 151.22369843 -390.54219727 150.49915466 -390.35327148 149.75265503 C-388.09566403 140.86774294 -385.52803853 132.17158227 -382.56298828 123.49682617 C-381.32907106 119.83867973 -380.29045316 116.17441148 -379.28393555 112.44824219 C-377.06905578 104.62239674 -374.24680418 97.04295182 -371.34643555 89.44824219 C-370.91435791 88.30830811 -370.48228027 87.16837402 -370.03710938 85.99389648 C-369.41292114 84.38381714 -369.41292114 84.38381714 -368.77612305 82.74121094 C-368.40471191 81.78110107 -368.03330078 80.82099121 -367.65063477 79.83178711 C-364.99444544 74.04041449 -361.87137357 72.19492585 -356.0534668 69.86230469 C-355.30061905 69.55065369 -354.5477713 69.23900269 -353.77210999 68.91790771 C-351.28150309 67.89321571 -348.78351512 66.88833089 -346.28393555 65.88574219 C-345.42552063 65.53747375 -344.56710571 65.18920532 -343.68267822 64.8303833 C-318.23538436 54.51521549 -292.3040884 44.95492007 -265.75170898 37.88623047 C-261.5905096 36.74479655 -257.47252458 35.45954043 -253.34643555 34.19824219 C-224.83445878 25.58207675 -195.77030449 19.48787872 -166.47143555 14.26074219 C-165.39651855 14.06738281 -164.32160156 13.87402344 -163.21411133 13.67480469 C-146.04713987 10.61056273 -128.78431868 8.32021266 -111.47143555 6.26074219 C-110.37327515 6.12992249 -110.37327515 6.12992249 -109.25292969 5.99645996 C-104.61006372 5.44600675 -99.96562069 4.91153963 -95.31918335 4.39208984 C-93.85457988 4.22779796 -92.39021793 4.06132978 -90.92617798 3.89208984 C-85.4482765 3.26264179 -79.96498709 2.73403059 -74.47143555 2.26074219 C-73.43185699 2.17107178 -72.39227844 2.08140137 -71.32119751 1.98901367 C-47.5607387 0.03383629 -23.82777501 -0.05082447 0 0 Z " fill="#D75427" transform="translate(723.471435546875,257.7392578125)"/>
<path d="M0 0 C1.35871216 0.46025574 1.35871216 0.46025574 2.74487305 0.92980957 C8.62519529 2.92965738 14.47625808 5.00020609 20.3125 7.125 C21.50724945 7.55117615 21.50724945 7.55117615 22.72613525 7.98596191 C39.34697784 13.97871632 39.34697784 13.97871632 44.3125 22.125 C45.11155762 23.40552246 45.11155762 23.40552246 45.92675781 24.71191406 C47.68691134 27.68313533 49.32442047 30.69650468 50.9375 33.75 C51.53723633 34.87809082 52.13697266 36.00618164 52.75488281 37.16845703 C90.27784111 108.59899588 107.2868668 192.33345562 107.515625 272.6796875 C107.52265114 274.21966071 107.52973792 275.75963365 107.53688049 277.29960632 C107.55628761 282.19974182 107.56131581 287.09982995 107.5625 292 C107.56294186 292.83654491 107.56338371 293.67308983 107.56383896 294.53498459 C107.57121298 321.17667682 107.07946215 347.60511163 104.3125 374.125 C104.22764343 374.96075562 104.14278687 375.79651123 104.05535889 376.65759277 C97.23744863 443.76659843 84.56999822 510.74256309 64.25292969 575.11767578 C63.45353668 577.67399019 62.68980228 580.23594261 61.9453125 582.80859375 C57.36289194 598.16014927 50.05701486 612.6216552 43.26672363 627.09155273 C42.35789731 629.02825849 41.45170578 630.96617777 40.54589844 632.90429688 C33.33264335 648.28753897 25.64475495 663.31947925 17.3125 678.125 C16.83490234 678.98222656 16.35730469 679.83945312 15.86523438 680.72265625 C-6.43108239 720.72930852 -32.2980701 759.41095233 -62.1796875 794.18359375 C-64.54643001 796.9595394 -66.84132031 799.78063193 -69.125 802.625 C-72.99140167 807.3799105 -77.07278868 811.89161645 -81.26342773 816.359375 C-83.85637388 819.12518422 -86.38680132 821.92554223 -88.85717773 824.80175781 C-92.72083072 829.22489825 -96.80746102 833.38936144 -100.96484375 837.53515625 C-101.73502335 838.30629257 -102.50520294 839.07742889 -103.29872131 839.87193298 C-104.91691373 841.49080153 -106.53635212 843.10842551 -108.15698242 844.72485352 C-110.61817232 847.18068718 -113.07397809 849.64181365 -115.52929688 852.10351562 C-117.11165867 853.68521653 -118.69433067 855.26660717 -120.27734375 856.84765625 C-121.00155014 857.57388687 -121.72575653 858.30011749 -122.47190857 859.0483551 C-127.05150542 863.60725717 -131.79035619 867.91117756 -136.6875 872.125 C-138.29518373 873.57945517 -139.89989715 875.03720895 -141.5 876.5 C-145.76360017 880.34306298 -150.13302273 884.01822734 -154.59765625 887.625 C-156.84710665 889.44503572 -159.08223792 891.27718882 -161.30859375 893.125 C-170.42763358 900.66391153 -179.81184483 907.71967066 -189.47021484 914.55175781 C-191.5991688 916.06232589 -193.71685757 917.58740515 -195.83203125 919.1171875 C-222.32578757 938.18839645 -250.53738095 954.49618848 -279.6875 969.125 C-280.79254883 969.68219727 -281.89759766 970.23939453 -283.03613281 970.81347656 C-304.71548167 981.68827217 -326.93276105 990.94519142 -349.875 998.8125 C-351.28011841 999.30327026 -351.28011841 999.30327026 -352.71362305 999.80395508 C-365.42006968 1004.01037738 -374.36124248 1003.07872786 -386.6875 998.125 C-387.30612915 997.87711731 -387.9247583 997.62923462 -388.56213379 997.37384033 C-393.01770781 995.56492835 -397.41870793 993.64086202 -401.8125 991.6875 C-402.49359833 991.38675568 -403.17469666 991.08601135 -403.87643433 990.77615356 C-425.89944574 981.04517404 -447.42832698 970.66114696 -468.24951172 958.53125 C-470.41363024 957.28297014 -472.59047006 956.06843888 -474.78515625 954.875 C-498.9659917 941.71245694 -521.86044103 925.87241901 -543.6875 909.125 C-544.69425781 908.361875 -545.70101563 907.59875 -546.73828125 906.8125 C-564.44568392 893.35203904 -581.51396932 879.10886399 -597.75610352 863.9128418 C-599.25843466 862.52217425 -600.77152216 861.14312315 -602.28881836 859.76879883 C-609.49182199 853.2422508 -616.45684059 846.51204115 -623.31665039 839.6262207 C-625.01269726 837.92476222 -626.71409821 836.22878737 -628.41601562 834.53320312 C-633.52332379 829.42900691 -638.55019574 824.31405175 -643.23999023 818.81762695 C-645.43993437 816.24515053 -647.75544032 813.7892983 -650.0625 811.3125 C-654.33145194 806.69200451 -658.36781294 801.93393248 -662.3125 797.03125 C-664.52546745 794.32327667 -666.78926598 791.67276383 -669.08032227 789.03125 C-674.76424865 782.47681236 -680.18090132 775.78259899 -685.39257812 768.84521484 C-686.74898111 767.04332656 -688.11612023 765.24993299 -689.484375 763.45703125 C-740.71413362 696.06071499 -782.28385155 620.96374186 -811.6875 514.125 C-811.85487671 513.4664502 -812.02225342 512.80790039 -812.19470215 512.12939453 C-833.29012635 428.8454831 -839.77676437 342.11064436 -797.6875 76.125 C-797.32156738 75.00270996 -796.95563477 73.88041992 -796.57861328 72.72412109 C-792.64229092 60.73441338 -788.37921032 48.9273228 -783.4375 37.3125 C-783.03732666 36.35746582 -782.63715332 35.40243164 -782.22485352 34.41845703 C-773.85268832 15.31430391 -746.93247237 9.28374104 -728.6875 2.125 C-718.75141332 -1.720587 -708.74270784 -5.35493819 -698.6875 -8.875 C-697.99420593 -9.11776672 -697.30091187 -9.36053345 -696.58660889 -9.61065674 C-617.12710251 -37.35537131 -533.98593291 -53.48789956 -426.6875 -60.875 C-425.60436523 -60.93284668 -424.52123047 -60.99069336 -423.40527344 -61.05029297 C-324.51418616 -66.19482777 -224.78541777 -56.08904946 0 0 Z M-447.6875 -39.875 C-449.18358721 -39.77740622 -450.6796809 -39.67991167 -452.17578125 -39.58251953 C-489.93602524 -37.07500435 -527.53346109 -32.01783575 -564.6875 -24.875 C-565.94691406 -24.63813477 -567.20632813 -24.40126953 -568.50390625 -24.15722656 C-600.76613035 -18.07678153 -632.37684862 -10.05687421 -663.66796875 -0.12890625 C-666.72359125 0.83418616 -669.79038106 1.75372085 -672.86328125 2.66015625 C-673.75692383 2.9243335 -674.65056641 3.18851074 -675.57128906 3.46069336 C-677.30525686 3.97162281 -679.04022589 4.47917162 -680.77636719 4.98266602 C-685.58278488 6.4009771 -690.08798489 8.11571009 -694.6875 10.125 C-697.13765768 10.96183116 -699.59634651 11.7740547 -702.0625 12.5625 C-706.93130388 14.14787127 -711.6184391 15.89185343 -716.2578125 18.05859375 C-719.29196743 19.39030484 -722.38474188 20.49547195 -725.5 21.625 C-732.93113616 24.37116868 -740.27453239 27.33351877 -747.58285522 30.38964844 C-748.85529105 30.91919369 -750.1300554 31.44317992 -751.40713501 31.96142578 C-753.22185032 32.69958697 -755.02714687 33.46077307 -756.83203125 34.22265625 C-757.88753174 34.66101807 -758.94303223 35.09937988 -760.03051758 35.55102539 C-779.59413132 47.14034982 -788.71381035 106.60574973 -794.17012024 127.87495422 C-809.98781719 189.96826346 -817.10482925 253.06538005 -816.94824219 317.09423828 C-816.93676567 321.83260637 -816.94367914 326.57075177 -816.95512676 331.30911255 C-817.0290131 358.70712341 -817.0290131 358.70712341 -814.93450928 386.00921631 C-814.58329974 389.01753815 -814.30272284 392.03221883 -814.01171875 395.046875 C-809.91790627 433.38626301 -803.70948496 471.27105542 -794.625 508.75 C-794.42339264 509.5871051 -794.22178528 510.42421021 -794.0140686 511.28668213 C-791.25155085 522.68958273 -787.99152123 533.86018584 -784.36621094 545.01715088 C-783.41031478 547.98584456 -782.50329137 550.96876862 -781.59765625 553.953125 C-775.26054385 574.60500132 -767.84372055 594.55145229 -758.6875 614.125 C-758.14577148 615.29063477 -757.60404297 616.45626953 -757.04589844 617.65722656 C-749.72065347 633.37880051 -741.84606772 648.66489267 -733.11132812 663.66064453 C-731.43369823 666.56427899 -729.81250668 669.49623758 -728.19628906 672.43432617 C-707.86811667 709.25944978 -682.54080083 743.82409043 -655.6875 776.125 C-655.19910645 776.71249023 -654.71071289 777.29998047 -654.20751953 777.90527344 C-648.91351795 784.25380741 -643.52419204 790.50484751 -637.953125 796.61328125 C-636.06180482 798.71003793 -634.20098146 800.82687895 -632.34765625 802.95703125 C-623.3737982 813.22945372 -613.8761793 823.02833037 -604.25 832.6875 C-603.51740967 833.42468262 -602.78481934 834.16186523 -602.0300293 834.92138672 C-598.00956082 838.93044767 -593.89260701 842.75921253 -589.59204102 846.46557617 C-586.61059647 849.06330449 -583.75115082 851.78702621 -580.875 854.5 C-575.87859017 859.17507368 -570.77535388 863.6297169 -565.4296875 867.90625 C-563.01504432 869.85997839 -560.65864608 871.86695902 -558.31201172 873.90136719 C-549.1533256 881.80892925 -539.43299361 888.9629427 -529.6875 896.125 C-528.89053711 896.7113623 -528.09357422 897.29772461 -527.27246094 897.90185547 C-517.25571201 905.25262099 -507.11882576 912.37471631 -496.6875 919.125 C-495.61943115 919.81843506 -495.61943115 919.81843506 -494.52978516 920.52587891 C-482.17125048 928.52194962 -469.55131209 935.97351755 -456.6875 943.125 C-455.72553711 943.66350586 -454.76357422 944.20201172 -453.77246094 944.75683594 C-435.17207785 955.13210661 -416.10907223 964.40137074 -396.6875 973.125 C-396.05021973 973.41193726 -395.41293945 973.69887451 -394.75634766 973.99450684 C-390.73390018 975.79894721 -386.68906475 977.54159841 -382.625 979.25 C-381.63943115 979.6821582 -380.6538623 980.11431641 -379.63842773 980.55957031 C-373.18966379 983.1766557 -369.22232001 983.40727997 -362.6875 981.125 C-361.3418396 980.70589355 -361.3418396 980.70589355 -359.96899414 980.27832031 C-288.59735974 957.6380049 -221.93502824 917.11165487 -165.33496094 868.53417969 C-163.6594121 867.10097461 -161.97523026 865.67850262 -160.2890625 864.2578125 C-146.46897094 852.57682695 -133.4668132 840.07530655 -120.69580078 827.26367188 C-118.664238 825.22667579 -116.62728164 823.19518049 -114.58984375 821.1640625 C-113.26790793 819.84146683 -111.94628183 818.51856151 -110.625 817.1953125 C-110.03009766 816.60243439 -109.43519531 816.00955627 -108.82226562 815.39871216 C-105.12813835 811.68421669 -101.62612137 807.8443105 -98.20297241 803.87858582 C-96.27947388 801.65286418 -94.29727871 799.48358935 -92.3125 797.3125 C-88.46699818 793.04619411 -84.79018734 788.673307 -81.1796875 784.20703125 C-79.38356391 781.98580631 -77.57741464 779.77599623 -75.7578125 777.57421875 C-43.70590851 738.6764705 -16.79221731 696.19367624 6.89306641 651.77148438 C8.13423929 649.45736087 9.39454342 647.15584233 10.66796875 644.859375 C17.47672507 632.47550994 23.05520329 619.53277302 28.75512695 606.61425781 C30.31320917 603.12341113 31.9116542 599.65383944 33.5234375 596.1875 C42.37186415 577.08034272 47.45957253 556.75213632 52.62719727 536.40112305 C53.56634 532.74600143 54.61114671 529.17202248 55.8359375 525.6015625 C57.24814372 521.44538598 58.28344807 517.29200893 59.1875 513 C59.53119606 511.40493629 59.87494874 509.80988478 60.21875 508.21484375 C60.39664063 507.38194824 60.57453125 506.54905273 60.7578125 505.69091797 C61.31253557 503.12483545 61.88785928 500.5641821 62.46875 498.00390625 C65.46471521 484.68702285 67.98172835 471.3079899 70.34521484 457.86694336 C70.5307341 456.8205368 70.5307341 456.8205368 70.72000122 455.75299072 C71.05850935 453.8412491 71.39314363 451.92882271 71.72753906 450.01635742 C72.3125 447.125 72.3125 447.125 73.3125 445.125 C73.73696225 442.38610145 74.11832458 439.65476407 74.46875 436.90625 C74.5759436 436.09256958 74.68313721 435.27888916 74.7935791 434.44055176 C75.13664121 431.83580246 75.47511562 429.23049044 75.8125 426.625 C76.25634333 423.19736778 76.70482704 419.77039125 77.15625 416.34375 C77.25732056 415.55101685 77.35839111 414.75828369 77.46252441 413.94152832 C78.19969819 408.35060362 78.19969819 408.35060362 79.3125 406.125 C79.53443155 404.57048591 79.70657355 403.00872139 79.85327148 401.4453125 C79.94684433 400.46828369 80.04041718 399.49125488 80.13682556 398.48461914 C80.23475906 397.41719482 80.33269257 396.34977051 80.43359375 395.25 C80.53841568 394.13810303 80.64323761 393.02620605 80.75123596 391.88061523 C80.97416912 389.50668897 81.19513038 387.13257685 81.41430664 384.75830078 C81.74098868 381.22253201 82.0740068 377.68740922 82.40820312 374.15234375 C82.95971113 368.28569955 83.48844125 362.41727441 84.00637817 356.5475769 C84.20396254 354.33849661 84.40692094 352.1298873 84.61642456 349.92190552 C86.37572796 331.37243994 86.5919454 312.95436654 86.50811768 294.34210205 C86.49716549 291.26651331 86.49765341 288.19096802 86.49825573 285.11536312 C86.49798294 282.11518629 86.49248841 279.11503752 86.48525429 276.11487007 C86.48210873 274.70164767 86.48011003 273.28842216 86.47936058 271.87519646 C86.47117527 264.53686154 86.26007548 257.40221544 85.3125 250.125 C85.19688802 248.41018822 85.09866862 246.69394432 85.03125 244.9765625 C84.99386719 244.11675781 84.95648437 243.25695312 84.91796875 242.37109375 C84.84671468 240.60029805 84.77642672 238.82946326 84.70703125 237.05859375 C84.65095703 235.78048828 84.65095703 235.78048828 84.59375 234.4765625 C84.56345703 233.71166504 84.53316406 232.94676758 84.50195312 232.15869141 C84.37126251 229.92317297 84.37126251 229.92317297 83.3125 227.125 C83.08652886 225.44946318 82.89907787 223.76860192 82.734375 222.0859375 C82.62794678 221.04590576 82.52151855 220.00587402 82.41186523 218.93432617 C82.29657471 217.80099854 82.18128418 216.6676709 82.0625 215.5 C80.88034432 204.39413897 79.41116981 193.35531529 77.75 182.3125 C77.59126404 181.23835846 77.59126404 181.23835846 77.42932129 180.14251709 C77.12441637 178.0875099 76.81167187 176.03386107 76.49609375 173.98046875 C76.31618896 172.80121826 76.13628418 171.62196777 75.95092773 170.40698242 C75.32349246 167.18150926 74.39469942 164.22296882 73.3125 161.125 C73.00339882 159.38135234 72.73353561 157.63036657 72.5 155.875 C70.59998505 143.88115562 66.73089999 132.24094654 63.05200195 120.69262695 C61.82787314 116.83834772 60.71082646 112.97459179 59.6875 109.0625 C58.57739129 104.8825376 57.05203009 101.0911286 55.3125 97.125 C54.65415348 95.14996044 54.00950481 93.17032753 53.375 91.1875 C51.96600247 86.87446175 50.356622 82.90993473 48.2421875 78.90234375 C46.3751329 75.33297466 44.87042785 71.58956061 43.4375 67.828125 C40.51121146 60.38330268 36.967302 53.29834674 33.3125 46.1875 C32.80211182 45.18009766 32.29172363 44.17269531 31.76586914 43.13476562 C26.11197476 32.27316921 20.74889616 29.06653362 9.3125 25.0625 C7.99273852 24.59075784 6.67316271 24.11849597 5.35375977 23.64575195 C-17.27241866 15.59868358 -40.169804 8.12093379 -63.33349609 1.77832031 C-65.81841679 1.08866591 -68.29428219 0.37200794 -70.76953125 -0.3515625 C-92.81575243 -6.78963816 -115.08461636 -11.9480298 -137.56651306 -16.59645081 C-141.92696786 -17.50032568 -146.27778591 -18.44020242 -150.625 -19.40625 C-170.47426936 -23.76045961 -190.50104134 -26.73803305 -210.60032654 -29.67210388 C-214.891162 -30.30082621 -219.17680071 -30.94592888 -223.45458984 -31.65844727 C-236.27620105 -33.79143093 -249.12764592 -35.1834215 -262.0625 -36.4375 C-263.70992187 -36.5994989 -263.70992187 -36.5994989 -265.390625 -36.76477051 C-278.14573972 -38.0175712 -290.90134534 -39.23410904 -303.6875 -40.125 C-304.65864746 -40.19275635 -305.62979492 -40.2605127 -306.63037109 -40.33032227 C-309.98183988 -40.54212616 -313.33314643 -40.71430867 -316.6875 -40.875 C-317.54738525 -40.91630035 -318.40727051 -40.95760071 -319.29321289 -41.00015259 C-337.25920908 -41.83823686 -355.20358111 -42.07658789 -373.1875 -42.0625 C-374.20972342 -42.06232061 -374.20972342 -42.06232061 -375.25259781 -42.0621376 C-399.44421788 -42.0567932 -423.54650265 -41.5107278 -447.6875 -39.875 Z " fill="#B58A4B" transform="translate(1105.6875,278.875)"/>
<path d="M0 0 C158.07 0 316.14 0 479 0 C477.02 2.31 475.04 4.62 473 7 C471.98292969 8.19109375 471.98292969 8.19109375 470.9453125 9.40625 C467.3029979 13.59569341 463.57000941 17.34425241 459.33203125 20.921875 C456.2605504 23.65894001 453.39027447 26.57386502 450.5 29.5 C445.82554325 34.21616933 441.07873445 38.71792977 436 43 C434.98729193 43.87515858 433.97567234 44.7515775 432.96484375 45.62890625 C400.92008212 73.38563057 366.58813667 97.93523784 329.53076172 118.58398438 C327.08562662 119.95209006 324.65335506 121.34082113 322.22265625 122.734375 C300.71014446 134.96105332 278.20799709 144.81272378 254.86962891 152.98681641 C252.33191823 153.8828092 249.81111675 154.81250687 247.29296875 155.76171875 C245.98739109 156.2381096 244.68144333 156.71348832 243.375 157.1875 C242.33085938 157.57292969 241.28671875 157.95835937 240.2109375 158.35546875 C231.07986133 160.188349 223.67062522 156.47917062 215.5 152.6875 C214.32091064 152.15060547 213.14182129 151.61371094 211.92700195 151.06054688 C208.27522005 149.39368232 204.63728965 147.69825879 201 146 C199.89833496 145.48904785 198.79666992 144.9780957 197.66162109 144.45166016 C175.703849 134.23540535 154.59328363 122.7368638 134 110 C133.10249023 109.44554199 132.20498047 108.89108398 131.28027344 108.31982422 C118.47143009 100.3720603 106.0882548 92.00320228 94 83 C93.30680664 82.48695312 92.61361328 81.97390625 91.89941406 81.4453125 C77.50011563 70.78617942 63.50852597 59.76993688 50 48 C49.23945312 47.34128906 48.47890625 46.68257812 47.6953125 46.00390625 C42.40357319 41.4028558 37.19357174 36.7113115 32 32 C31.05640625 31.15050781 30.1128125 30.30101562 29.140625 29.42578125 C22.13660422 23.07450539 15.38321676 16.48766438 8.6875 9.8125 C7.8322876 8.96187988 6.9770752 8.11125977 6.09594727 7.23486328 C5.30502686 6.44192871 4.51410645 5.64899414 3.69921875 4.83203125 C2.98596436 4.11764893 2.27270996 3.4032666 1.5378418 2.66723633 C0 1 0 1 0 0 Z " fill="#D75427" transform="translate(501,1079)"/>
<path d="M0 0 C278.85 0 557.7 0 845 0 C840 33 840 33 838 44 C563.77 44 289.54 44 7 44 C3.32783019 24.41509434 3.32783019 24.41509434 1.8125 15.8125 C1.63525391 14.82958984 1.45800781 13.84667969 1.27539062 12.83398438 C1.10845703 11.88458984 0.94152344 10.93519531 0.76953125 9.95703125 C0.62104736 9.12147705 0.47256348 8.28592285 0.31958008 7.42504883 C0 5 0 5 0 0 Z " fill="#D75427" transform="translate(316,695)"/>
<path d="M0 0 C210.87 0 421.74 0 639 0 C637.52707722 3.68230694 636.33377138 6.25139884 634.19921875 9.44921875 C633.3494043 10.72442383 633.3494043 10.72442383 632.48242188 12.02539062 C631.89009766 12.90388672 631.29777344 13.78238281 630.6875 14.6875 C630.13771484 15.51572266 629.58792969 16.34394531 629.02148438 17.19726562 C627.82540811 18.98275127 626.60096813 20.74949178 625.35203767 22.49841434 C623.56073792 25.06662393 622.05404 27.7082647 620.56566978 30.4619028 C613.69862506 42.39042423 613.69862506 42.39042423 607.59770137 45.04543759 C600.67200654 46.72077993 593.5905159 46.38749561 586.51617432 46.23860168 C584.12304703 46.25434247 581.72996085 46.27795463 579.33697963 46.30872554 C574.14721874 46.35736876 568.96063978 46.35048823 563.77108955 46.29373932 C556.05461206 46.20959128 548.34077085 46.22912749 540.62406061 46.26882462 C526.84166359 46.33640228 513.06094062 46.30238408 499.27867339 46.22611344 C487.22020876 46.1598522 475.16230721 46.13010646 463.10366058 46.13611412 C462.30316554 46.13647318 461.50267049 46.13683224 460.67791802 46.13720218 C457.42832364 46.13873394 454.17872945 46.14046684 450.92913534 46.14248192 C420.46236348 46.16104949 389.99658996 46.0804205 359.5301243 45.95108668 C332.46664642 45.83669747 305.40403773 45.7947821 278.34033203 45.81860352 C276.60198213 45.82011049 274.86363222 45.82161595 273.12528232 45.82311992 C272.26587086 45.82386495 271.4064594 45.82460998 270.52100517 45.82537759 C266.19477062 45.82909419 261.86853598 45.83266108 257.54230118 45.83606434 C256.688785 45.8367428 255.83526882 45.83742126 254.95588851 45.83812028 C232.33326144 45.85517564 209.71072642 45.81965879 187.08816314 45.76703948 C186.28343617 45.76517918 185.47870921 45.76331889 184.64959658 45.76140222 C183.84634626 45.75954533 183.04309593 45.75768843 182.21550469 45.75577527 C181.41373285 45.75392475 180.611961 45.75207424 179.78589304 45.75016765 C178.17122393 45.74642228 176.55655491 45.74263303 174.941886 45.73879958 C163.68727147 45.71244056 152.432795 45.70559248 141.17815412 45.71188709 C126.67691577 45.71986718 112.17650682 45.69159562 97.67553172 45.5997527 C90.00734861 45.55221419 82.34049944 45.53456644 74.67220415 45.56031068 C68.94818392 45.5760842 63.22573912 45.5343679 57.50211164 45.47005888 C55.18545994 45.45288879 52.86858223 45.45427581 50.55196813 45.47593305 C32.3314076 45.6300224 32.3314076 45.6300224 27.70222998 41.60644853 C25.38977722 38.8329707 23.68462453 36.18320511 22 33 C20.96994877 31.55143977 19.92324352 30.11429624 18.84765625 28.69921875 C17.91490538 27.36502049 16.98650829 26.02776784 16.0625 24.6875 C15.04872497 23.23138923 14.03439204 21.77566674 13.01953125 20.3203125 C12.52018066 19.60262695 12.02083008 18.88494141 11.50634766 18.14550781 C10.02698902 16.03844076 8.52505136 13.94995713 7.01171875 11.8671875 C6.54564209 11.22434814 6.07956543 10.58150879 5.59936523 9.91918945 C4.71827364 8.70683165 3.83381331 7.49691296 2.94555664 6.28979492 C0 2.22159907 0 2.22159907 0 0 Z " fill="#D65427" transform="translate(420,977)"/>
<path d="M0 0 C283.8 0 567.6 0 860 0 C860 3.3 860 6.6 860 10 C576.2 10 292.4 10 0 10 C0 6.7 0 3.4 0 0 Z " fill="#CF532B" transform="translate(310,567)"/>
<path d="M0 0 C2.1385485 2.1385485 2.42655063 3.13275314 3 6 C3.95261719 5.65066406 4.90523437 5.30132813 5.88671875 4.94140625 C7.15357779 4.48158334 8.4205087 4.02195838 9.6875 3.5625 C10.31333984 3.33240234 10.93917969 3.10230469 11.58398438 2.86523438 C20.86821745 -0.48875558 32.95561208 -2.08990344 42.5625 1.125 C51.58140889 6.04440485 55.76042854 12.28128561 59 22 C60.9107433 41.56697882 53.61370232 58.50871061 41.625 73.75 C27.72995942 90.05444997 6.52662993 102.68335879 -15.08251953 105.24707031 C-25.56974513 105.95350325 -25.56974513 105.95350325 -30 103 C-30.56737589 95.85106383 -30.56737589 95.85106383 -28 92 C-27.50653533 89.9077893 -27.09879898 87.79495089 -26.73828125 85.67578125 C-26.62684784 85.03373245 -26.51541443 84.39168365 -26.40060425 83.73017883 C-26.03110135 81.59205928 -25.67174002 79.45236587 -25.3125 77.3125 C-25.05511608 75.80831572 -24.79704592 74.30424873 -24.53833008 72.80029297 C-24.12734584 70.40962299 -23.71712631 68.01883875 -23.30967712 65.62756348 C-22.26510448 59.50271731 -21.18236786 53.38528663 -20.0859375 47.26953125 C-19.60851462 44.5934452 -19.13160533 41.91726815 -18.65487671 39.24105835 C-18.34645369 37.51471512 -18.03644862 35.7886537 -17.72476196 34.06289673 C-16.17486534 25.46757788 -14.68912698 17.03035069 -14.34472656 8.28149414 C-13.95587413 5.70796301 -13.35777544 4.66326931 -11.5625 2.8125 C-7.46398547 -0.0864493 -5.04706886 -0.27037869 0 0 Z " fill="#FBFBFC" transform="translate(704,767)"/>
<path d="M0 0 C2.39823393 3.5973509 2.37256502 5.70512437 2.72265625 9.9921875 C3.75348055 19.89955044 7.03239182 28.82048399 10.4375 38.125 C11.61411923 41.37366729 12.77993984 44.62591837 13.93359375 47.8828125 C14.34646133 49.0472287 14.34646133 49.0472287 14.76766968 50.23516846 C17.12884398 57.05284824 18.73883568 63.89030372 20 71 C22.5296353 67.86648001 24.94386683 64.70204999 27.24584961 61.39672852 C31.41447135 55.41751917 35.8013032 49.68643514 40.4375 44.0625 C55.64942788 27.14528032 55.64942788 27.14528032 63.5625 6.625 C64 3 64 3 65.4375 0.5 C69.37188138 -1.80305251 73.55135656 -1.82437299 78 -1 C79.79296875 0.26953125 79.79296875 0.26953125 81 2 C81.45086345 4.75885494 81.18192449 7.18017041 81 10 C80.67 10.33 80.34 10.66 80 11 C79.59142718 12.92905529 79.23874277 14.86997643 78.90844727 16.81396484 C78.58790123 18.68258682 78.58790123 18.68258682 78.26087952 20.58895874 C78.02932426 21.96294085 77.79783488 23.33693406 77.56640625 24.7109375 C77.32637107 26.11811482 77.08596348 27.52522867 76.84519958 28.93228149 C76.20953624 32.65275032 75.5786007 36.37400559 74.94873047 40.09545898 C74.1896653 44.57547886 73.42545202 49.05462258 72.66165829 53.53383827 C72.06563513 57.02949972 71.4704557 60.52529656 70.87806702 64.02157593 C69.75736372 70.62265235 68.61225212 77.21617434 67.37397766 83.79631042 C66.913756 86.50819882 66.73239446 89.19068007 66.625 91.9375 C66.34505105 95.44186101 66.21097195 96.70463927 64.125 99.625 C60.12524555 102.21307641 56.67345461 102.33381819 52 102 C50 100.9375 50 100.9375 49 99 C49.20554996 95.43713411 49.90772604 92.30916759 50.92700195 88.89404297 C52.25321447 84.30446894 53.10670671 79.63843065 53.98046875 74.9453125 C54.15757889 74.00315887 54.33468903 73.06100525 54.51716614 72.09030151 C54.88777145 70.11228297 55.25661361 68.13393334 55.6237793 66.15527344 C56.18979859 63.11264397 56.76554205 60.07195545 57.34179688 57.03125 C57.70111202 55.10688112 58.05985654 53.1824056 58.41796875 51.2578125 C58.59184616 50.34436066 58.76572357 49.43090881 58.94487 48.48977661 C59.34036655 46.33409311 59.67668302 44.16768425 60 42 C59.67 41.67 59.34 41.34 59 41 C38.00586472 67.3564407 38.00586472 67.3564407 22.88671875 97.07421875 C22 99 22 99 19 101 C17.0625 101.265625 17.0625 101.265625 15 101.25 C14.319375 101.25515625 13.63875 101.2603125 12.9375 101.265625 C11 101 11 101 8 99 C7.62890625 95.9375 7.62890625 95.9375 7.5625 92 C6.83074596 73.93036324 0.68348455 57.0214985 -5 40 C-7.25890016 49.28692736 -9.12557817 58.60382744 -10.78979492 68.01269531 C-11.18973815 70.26259077 -11.60156199 72.51011785 -12.01367188 74.7578125 C-13.62423581 83.49805423 -13.62423581 83.49805423 -14.05859375 92.359375 C-14 96 -14 96 -15.875 99 C-18.69966793 101.65851099 -19.4922781 101.97230608 -23.4375 102.1875 C-27 102 -27 102 -30 100 C-30.36328125 98.08203125 -30.36328125 98.08203125 -30.3125 95.8125 C-30.30863281 95.07644531 -30.30476562 94.34039063 -30.30078125 93.58203125 C-30 91 -30 91 -29.06700134 87.81164551 C-28.0065176 84.0232828 -27.27811298 80.31015474 -26.62719727 76.43164062 C-26.50492767 75.7103447 -26.38265808 74.98904877 -26.25668335 74.24589539 C-25.99368885 72.69226158 -25.73240774 71.13833693 -25.47268867 69.58415222 C-25.06023036 67.11934348 -24.64201353 64.65557455 -24.22215271 62.1920166 C-23.02986876 55.19176855 -21.84561159 48.19018901 -20.6706543 41.18701172 C-19.94960854 36.89179103 -19.22000142 32.59809575 -18.48512077 28.30522156 C-18.20797631 26.67598929 -17.9340891 25.04619929 -17.66360664 23.41584778 C-17.28449635 21.13190811 -16.89452032 18.85006119 -16.50219727 16.56835938 C-16.28394791 15.27265015 -16.06569855 13.97694092 -15.84083557 12.64196777 C-14.72501731 7.80894895 -13.5561074 3.38320658 -9.75 0 C-6.09465904 -1.32921489 -3.73079648 -0.98549341 0 0 Z " fill="#FAFAFC" transform="translate(876,769)"/>
<path d="M0 0 C0.7734375 -0.01675781 1.546875 -0.03351562 2.34375 -0.05078125 C5.00052926 0.3968283 5.88872529 1.18995543 7.5 3.3125 C7.5 3.9725 7.5 4.6325 7.5 5.3125 C12.10904847 4.93181388 16.71707344 4.54089106 21.32446289 4.140625 C22.89063175 4.00599823 24.45704026 3.87412893 26.02368164 3.74511719 C28.28080421 3.55875584 30.53686743 3.3623615 32.79296875 3.1640625 C33.48899704 3.10876373 34.18502533 3.05346497 34.90214539 2.99649048 C38.78837922 2.64388351 41.93753293 1.87666353 45.5 0.3125 C49.14656996 -0.13401877 50.82382784 -0.12094369 53.9375 1.875 C55.5 4.3125 55.5 4.3125 55.5625 7.75 C54.29209511 12.00959287 53.0660211 13.67674528 49.5 16.3125 C45.59538461 17.30779412 41.92445919 17.31853001 37.9296875 17.26171875 C32.50855789 17.25130018 27.19815139 17.73280807 21.8125 18.3125 C16.01057663 18.92892833 10.3376344 19.44027312 4.5 19.3125 C4.45101562 19.94414063 4.40203125 20.57578125 4.3515625 21.2265625 C3.88980767 26.75169787 3.25966972 32.22371205 2.4609375 37.7109375 C2.19095947 39.57371338 2.19095947 39.57371338 1.91552734 41.47412109 C1.77840332 42.41078613 1.6412793 43.34745117 1.5 44.3125 C2.71731812 44.13859741 2.71731812 44.13859741 3.95922852 43.96118164 C12.47281901 42.74495443 20.98640951 41.52872721 29.5 40.3125 C30.74515381 40.10810303 31.99030762 39.90370605 33.27319336 39.69311523 C36.5 39.3125 36.5 39.3125 38.9375 40.25 C40.92050676 42.86756892 41.12260562 45.06207411 40.94921875 48.30859375 C40.16526928 51.80569009 38.33712853 53.27716866 35.5 55.3125 C31.94871488 56.38614434 28.65554501 56.30346216 24.98828125 56.23046875 C19.35234135 56.21967882 13.93449756 56.94578058 8.375 57.8125 C7.41851563 57.95558594 6.46203125 58.09867188 5.4765625 58.24609375 C3.14997784 58.59508145 0.82460844 58.95062333 -1.5 59.3125 C-1.64622803 60.08440674 -1.79245605 60.85631348 -1.94311523 61.65161133 C-2.60577932 65.14314924 -3.2716015 68.63407757 -3.9375 72.125 C-4.16759766 73.33994141 -4.39769531 74.55488281 -4.63476562 75.80664062 C-4.85712891 76.97001953 -5.07949219 78.13339844 -5.30859375 79.33203125 C-5.61494751 80.94235229 -5.61494751 80.94235229 -5.92749023 82.58520508 C-6.5 85.3125 -6.5 85.3125 -7.5 88.3125 C-1.71508316 87.93319857 4.06888918 87.54231075 9.85229492 87.140625 C11.8201771 87.00559177 13.78828006 86.87373728 15.7565918 86.74511719 C18.58446179 86.55977658 21.41134281 86.36304904 24.23828125 86.1640625 C25.11962234 86.10876373 26.00096344 86.05346497 26.90901184 85.99649048 C28.1399482 85.90662369 28.1399482 85.90662369 29.39575195 85.81494141 C30.11745071 85.76608795 30.83914948 85.7172345 31.5827179 85.66690063 C33.82053158 85.38352768 33.82053158 85.38352768 36.5 83.3125 C39.92318917 83.45513288 41.82879221 83.72789967 44.4375 86 C45.90600038 89.19614788 45.47466859 90.97077911 44.5 94.3125 C43.35083008 96.42773438 43.35083008 96.42773438 41.5 98.3125 C38.6003418 99.08789062 38.6003418 99.08789062 35.01171875 99.46875 C34.35725266 99.54186401 33.70278656 99.61497803 33.02848816 99.69030762 C30.85398722 99.92316226 28.67867639 100.12279854 26.5 100.3125 C25.74317932 100.37856445 24.98635864 100.44462891 24.206604 100.51269531 C17.73728602 101.06147812 11.26245279 101.53540408 4.78588867 101.98974609 C2.34233774 102.16294662 -0.10027246 102.34643976 -2.54296875 102.53125 C-3.65541206 102.60478699 -3.65541206 102.60478699 -4.79032898 102.67980957 C-8.50334319 102.96661268 -11.26350654 103.48012418 -14.5 105.3125 C-18.43006023 105.73357788 -20.60803184 105.90714544 -23.9375 103.6875 C-25.99431002 100.56114876 -26.00752249 99.01016386 -25.5 95.3125 C-25.04109375 94.30960938 -24.5821875 93.30671875 -24.109375 92.2734375 C-22.04785437 87.59520592 -21.20007654 82.76247626 -20.3125 77.75 C-20.13525391 76.77780518 -19.95800781 75.80561035 -19.77539062 74.80395508 C-18.62481229 68.10650076 -18.38125135 61.97237422 -18.61328125 55.1875 C-18.46729458 51.48245894 -17.27765001 49.13199593 -15.58984375 45.89453125 C-11.44020802 36.06331542 -11.15536529 24.69687259 -11.58984375 14.19140625 C-11.5 11.3125 -11.5 11.3125 -9.5 9.3125 C-9.190625 8.1575 -8.88125 7.0025 -8.5625 5.8125 C-7.05422247 0.84405636 -4.88276883 0.02441384 0 0 Z " fill="#FAFAFC" transform="translate(789.5,767.6875)"/>
<path d="M0 0 C1.9375 1.125 1.9375 1.125 3 3 C3.29194919 6.21144105 3.0409242 8.82549735 2.3046875 11.96484375 C1.52367396 17.45060248 3.40707467 22.57134021 4.875 27.8125 C5.34232544 29.54681274 5.34232544 29.54681274 5.8190918 31.31616211 C6.50069092 33.84450274 7.18669384 36.37120545 7.87939453 38.89648438 C9.69559495 45.52893613 11.45473864 52.17666142 13.21710205 58.82357788 C13.8003029 61.0166343 14.38867605 63.2082477 14.97802734 65.3996582 C22.60795877 93.89072761 22.60795877 93.89072761 18.94921875 101.05859375 C17.21015434 103.19779687 15.47150205 104.76424897 13 106 C6.66769575 106.46053122 6.66769575 106.46053122 4.25 104.79296875 C2.5198943 102.31134839 2.9481223 101.01175853 3.4375 98.0625 C4.20659463 91.70074989 3.21577241 86.2414813 2 80 C1.61472961 77.58494938 1.23957519 75.1682613 0.875 72.75 C0.70742187 71.65171875 0.53984375 70.5534375 0.3671875 69.421875 C0.24601562 68.62265625 0.12484375 67.8234375 0 67 C-0.5576001 67.05534912 -1.1152002 67.11069824 -1.68969727 67.16772461 C-3.36135086 67.33274352 -5.03325042 67.49528029 -6.70532227 67.65600586 C-8.62488589 67.84512462 -10.54338661 68.0453306 -12.46069336 68.25610352 C-16.80740414 68.71309623 -20.95273092 69.11345445 -25.3125 68.6875 C-29.52587532 68.40660831 -32.07577518 68.38148331 -36 70 C-41.2119761 75.43419213 -44.6597456 82.31575239 -48 89 C-48.36641602 89.70656738 -48.73283203 90.41313477 -49.11035156 91.14111328 C-50.44926415 93.93872043 -50.81220693 96.84115251 -51.33984375 99.87890625 C-52.12554492 102.40337807 -52.88671403 103.4222728 -55 105 C-58.96401877 106.15343456 -62.69554849 106.50905425 -66.5625 105 C-68.76157762 101.94041374 -68.32501074 99.70738998 -68 96 C-66.79581641 93.35789695 -65.59769234 91.11969917 -64.0625 88.6875 C-63.62719971 87.97311768 -63.19189941 87.25873535 -62.7434082 86.52270508 C-56.41555025 76.25188185 -49.71331746 66.21027799 -43.0703125 56.14160156 C-38.52916739 49.25062807 -34.03014061 42.33242922 -29.55273438 35.39990234 C-28.48680155 33.75239925 -27.41761497 32.10699816 -26.34570312 30.46337891 C-24.70107611 27.93934661 -23.06817137 25.40806471 -21.4375 22.875 C-20.94854248 22.12935791 -20.45958496 21.38371582 -19.95581055 20.61547852 C-16.97775229 15.95663603 -14.78933276 11.33501059 -12.90966797 6.13183594 C-10.36195638 0.16119245 -6.03786255 -0.78268589 0 0 Z " fill="#FBFBFC" transform="translate(1054,765)"/>
<path d="M0 0 C3.6875 0.3125 3.6875 0.3125 6.1875 2 C7.6875 4.3125 7.6875 4.3125 7.5 6.6875 C7.231875 7.55375 6.96375 8.42 6.6875 9.3125 C5.64849138 13.8636617 5.81239234 16.98896434 7.0234375 21.484375 C7.34175537 22.6904541 7.66007324 23.8965332 7.98803711 25.13916016 C8.34602011 26.446987 8.70417896 27.75476573 9.0625 29.0625 C9.42506132 30.42075426 9.78644911 31.77932227 10.14672852 33.13818359 C10.91283235 36.01999903 11.68585209 38.8998301 12.46435547 41.77832031 C14.34553773 48.73878917 16.18331833 55.71077955 18.0269165 62.68127441 C18.61675067 64.90638002 19.20999129 67.130551 19.80419922 69.35449219 C19.98965805 70.05067657 20.17511688 70.74686096 20.36619568 71.46414185 C20.8681562 73.34824022 21.37140886 75.23199421 21.87475586 77.11572266 C23.18958466 82.28735627 23.86831725 86.96236733 23.9375 92.3125 C23.96328125 93.50875 23.9890625 94.705 24.015625 95.9375 C23.6613925 99.58103434 22.85489854 101.40320465 20.6875 104.3125 C17.4802364 106.63500123 14.57065586 106.7169954 10.6875 106.3125 C8.3125 105.1875 8.3125 105.1875 6.6875 103.3125 C6.36849668 100.18626745 6.27308126 98.14133747 7.6875 95.3125 C7.6433566 88.2164484 6.58889455 81.28080713 5.140625 74.35546875 C5.00092285 73.67303101 4.8612207 72.99059326 4.71728516 72.28747559 C4.37720504 70.628495 4.03281207 68.97039946 3.6875 67.3125 C2.27271362 67.44881836 2.27271362 67.44881836 0.8293457 67.58789062 C-2.68349952 67.92522756 -6.19653402 68.2604424 -9.7097168 68.59423828 C-11.22770125 68.73890069 -12.74560632 68.88439861 -14.26342773 69.03076172 C-16.45015251 69.24147856 -18.63714889 69.44914936 -20.82421875 69.65625 C-21.49837326 69.72187134 -22.17252777 69.78749268 -22.86711121 69.85510254 C-26.3623393 70.18297344 -29.80188159 70.38336194 -33.3125 70.3125 C-33.54066406 70.98023438 -33.76882813 71.64796875 -34.00390625 72.3359375 C-35.68691053 76.16414426 -37.94857506 79.45743769 -40.25 82.9375 C-43.92251392 88.59629505 -46.24340866 93.51933971 -47.69140625 100.16015625 C-48.3125 102.3125 -48.3125 102.3125 -50.5625 105 C-54.12563598 106.70058763 -56.40980031 106.88016541 -60.3125 106.3125 C-62.8125 104.75 -62.8125 104.75 -64.3125 102.3125 C-63.98459334 97.21780208 -62.76385505 93.68449644 -60.1875 89.3125 C-59.84404541 88.72911865 -59.50059082 88.1457373 -59.14672852 87.54467773 C-53.8209849 78.6413181 -48.02664964 70.01861334 -42.31787109 61.35888672 C-38.41746544 55.43372703 -34.54661861 49.48919844 -30.67993164 43.54199219 C-27.84412196 39.1822117 -24.99818446 34.8313852 -22.1015625 30.51171875 C-17.37294409 23.4164709 -13.38510988 16.74427957 -10.3671875 8.71484375 C-8.90042319 5.37388059 -7.13076667 3.58277037 -4.3125 1.3125 C-3.3125 0.3125 -3.3125 0.3125 0 0 Z " fill="#FBFBFC" transform="translate(468.3125,764.6875)"/>
<path d="M0 0 C1.9375 1.125 1.9375 1.125 3 3 C3.27875832 6.13603105 3.04907014 8.76255923 2.41235352 11.84350586 C1.97041436 15.22647293 2.30225867 17.40531427 3.15234375 20.69140625 C3.43045898 21.78694824 3.70857422 22.88249023 3.99511719 24.01123047 C4.46159668 25.76910889 4.46159668 25.76910889 4.9375 27.5625 C5.40978027 29.39772217 5.40978027 29.39772217 5.89160156 31.27001953 C8.54755885 41.5067931 11.3533402 51.70483948 14.24584961 61.87719727 C23.01165464 92.97669072 23.01165464 92.97669072 18.9453125 101.109375 C17.2208873 103.25215188 15.46277962 104.76861019 13 106 C9.77778996 106.28019218 7.67280675 106.348207 4.7734375 104.84765625 C3 103 3 103 2.96875 100.41796875 C3.1440625 99.35191406 3.319375 98.28585937 3.5 97.1875 C4.61617449 86.88185011 2.14203766 77.05078474 0 67 C-0.5576001 67.05534912 -1.1152002 67.11069824 -1.68969727 67.16772461 C-3.36135086 67.33274352 -5.03325042 67.49528029 -6.70532227 67.65600586 C-8.62488589 67.84512462 -10.54338661 68.0453306 -12.46069336 68.25610352 C-16.80740414 68.71309623 -20.95273092 69.11345445 -25.3125 68.6875 C-29.5004116 68.40830589 -32.08983463 68.42419433 -36 70 C-43.85244516 77.68193239 -48.83935187 88.94540708 -51.25390625 99.53125 C-52.0760466 102.25163065 -52.703192 103.3518276 -55 105 C-58.96020635 106.15232524 -62.70287005 106.43237665 -66.625 105.125 C-68.58028536 102.10319535 -68.05950067 99.98591204 -67.59814453 96.49755859 C-66.53035409 92.0389887 -64.13048893 88.53936447 -61.625 84.75 C-61.05845703 83.86449463 -60.49191406 82.97898926 -59.90820312 82.06665039 C-57.95767194 79.03177104 -55.98030551 76.01552792 -54 73 C-53.24392616 71.84068402 -52.48840836 70.68100524 -51.73339844 69.52099609 C-46.92456086 62.13343671 -42.08838717 54.76414561 -37.24023438 47.40234375 C-23.59479321 28.35155877 -23.59479321 28.35155877 -13.375 7.5 C-10.75806668 0.83871519 -7.00797887 -0.90844171 0 0 Z " fill="#FBFBFC" transform="translate(644,765)"/>
<path d="M0 0 C4.53198451 4.53198451 6.696783 9.61216609 7.5 15.9375 C6.84660271 32.58492668 -2.70737519 48.44329412 -14.46582031 59.65429688 C-24.1931884 68.18664138 -36.16858884 73.15859599 -49 74 C-48.48925702 62.33829395 -46.15846644 50.95622554 -44.0625 39.5 C-43.51909452 36.50075001 -42.97726021 33.50122334 -42.43658447 30.5014801 C-42.08904844 28.58186232 -41.73816296 26.66284754 -41.38372803 24.74449158 C-40.66717342 20.84656036 -39.96554558 16.96261064 -39.47167969 13.02954102 C-39.3327832 11.95889404 -39.19388672 10.88824707 -39.05078125 9.78515625 C-38.95837158 8.90996338 -38.86596191 8.03477051 -38.77075195 7.13305664 C-37.67098094 4.08943948 -35.94955601 3.37026533 -33.125 1.9375 C-31.10462725 1.227854 -29.06033377 0.58354795 -27 0 C-25.45892578 -0.47179687 -25.45892578 -0.47179687 -23.88671875 -0.953125 C-15.2695153 -3.36200017 -8.16298755 -4.55243536 0 0 Z " fill="#2F317B" transform="translate(741,783)"/>
<path d="M0 0 C2.94099592 2.01130093 4.90542874 3.81517436 6.890625 6.79296875 C7.56289391 13.73974746 7.56289391 13.73974746 5.015625 17.73046875 C2.43015715 20.23989343 1.54912998 20.73692577 -2.046875 21.04296875 C-5.109375 20.79296875 -5.109375 20.79296875 -6.921875 19.60546875 C-8.109375 17.79296875 -8.109375 17.79296875 -8.546875 15.23046875 C-8.83815105 12.69556793 -8.83815105 12.69556793 -10.79296875 11.671875 C-16.22388655 9.61124008 -22.38058346 9.78699915 -27.80078125 11.78515625 C-44.05075838 20.787491 -53.08196585 39.62346873 -58.109375 56.79296875 C-60.39747976 66.27015105 -60.23469347 76.29573023 -55.109375 84.79296875 C-52.24181786 87.57859569 -49.78994683 87.99211925 -45.921875 88.23046875 C-38.02674493 87.9541392 -31.41516182 84.25315943 -25.109375 79.79296875 C-24.119375 79.46296875 -23.129375 79.13296875 -22.109375 78.79296875 C-21.67625 77.43171875 -21.67625 77.43171875 -21.234375 76.04296875 C-19.86356483 72.08285047 -18.44842178 70.3158041 -15.109375 67.79296875 C-11.56237873 67.30372788 -9.30859633 67.09664669 -6.171875 68.91796875 C-4.56361047 71.75608262 -4.66747247 73.57339314 -5.109375 76.79296875 C-10.55436364 87.93044551 -23.26097919 95.58528098 -34.33984375 100.11328125 C-43.28212924 103.16882922 -53.33001511 104.92520687 -62.296875 100.96484375 C-68.22651324 97.13102592 -71.91645947 91.37171534 -74.109375 84.79296875 C-78.37302226 63.23452695 -70.90702579 41.98011248 -58.97949219 24.09912109 C-45.78068843 5.24291376 -23.76413131 -13.59836403 0 0 Z " fill="#FBFBFC" transform="translate(579.109375,770.20703125)"/>
<path d="M0 0 C1.71171597 3.22205359 1.66333973 6.48921098 1.0625 10 C0.58902634 11.06115524 0.11555267 12.12231049 -0.37226868 13.21562195 C-1.89970049 16.71847988 -2.70917961 20.10473483 -3.37963867 23.87817383 C-3.4971196 24.52637589 -3.61460052 25.17457794 -3.73564148 25.84242249 C-4.11747606 27.96253326 -4.48690391 30.08457668 -4.85546875 32.20703125 C-5.11972517 33.69773561 -5.38448927 35.18835005 -5.6497345 36.67887878 C-6.20231387 39.79546716 -6.74873177 42.91305597 -7.29077148 46.03149414 C-7.98179895 50.00416605 -8.68810594 53.97393683 -9.39911938 57.94307423 C-9.94842188 61.01942689 -10.48946826 64.09718905 -11.02813148 67.17542076 C-11.28515606 68.63850798 -11.5446705 70.10116029 -11.80684471 71.56333351 C-13.08933558 78.74083416 -14.28053796 85.69300094 -13.83686829 93.01322937 C-13.95794604 95.40366597 -14.5114634 96.60576655 -15.875 98.5625 C-19.31608772 101.30132492 -21.4408602 102.09735071 -25.7734375 102.29296875 C-27.9375 102 -27.9375 102 -31.0625 100 C-32.9375 97 -32.9375 97 -32.875 93.4375 C-31.9375 90 -31.9375 90 -30.93502808 88.04890442 C-29.89605121 85.91486494 -29.44581454 84.1124549 -29.03955078 81.7800293 C-28.89232071 80.95287415 -28.74509064 80.12571899 -28.59339905 79.27349854 C-28.44140549 78.38273621 -28.28941193 77.49197388 -28.1328125 76.57421875 C-27.9686937 75.64244812 -27.80457489 74.71067749 -27.63548279 73.75067139 C-27.10505086 70.73064547 -26.58353555 67.70915996 -26.0625 64.6875 C-25.70222986 62.62174095 -25.34147121 60.55606703 -24.98022461 58.49047852 C-24.27560471 54.45706464 -23.57432247 50.42309195 -22.87548828 46.38867188 C-22.11947947 42.03207515 -21.34598644 37.67915364 -20.55859375 33.328125 C-18.5365174 22.16203903 -18.5365174 22.16203903 -17.4375 10.875 C-17.21454477 7.30771638 -16.97801977 6.06986167 -15.125 2.875 C-10.69700782 -0.92042187 -5.66152493 -2.92207738 0 0 Z " fill="#FAFAFB" transform="translate(991.9375,769)"/>
<path d="M0 0 C3.10576982 1.72612765 5.38503832 3.77007663 7 7 C7.99139514 19.6615322 6.95876479 30.14305837 -1.25 40.4375 C-6.9809342 46.37885727 -13.40278104 49.73862771 -21.69921875 50.203125 C-25.34174815 49.88154346 -27.36085755 48.44120676 -30 46 C-33.45932787 40.71557845 -32.51057593 34.02872346 -32 28 C-29.56637483 17.1411029 -21.87129124 7.11974748 -12.5859375 1.19140625 C-8.31645375 -0.77565197 -4.56143998 -1.14624826 0 0 Z " fill="#F7F7F9" transform="translate(705,894)"/>
<path d="M0 0 C2.82424288 2.19022918 4.41508603 3.83017207 6 7 C6.89440593 19.41904621 5.8621712 30.20134792 -2.30078125 40.21484375 C-7.53456278 45.71332228 -13.18844679 49.8218681 -21.0390625 50.0625 C-24.92402446 49.82969329 -26.90745972 49.0748198 -29.9375 46.625 C-34.24389042 41.14413947 -33.52717412 34.66989862 -33 28 C-30.61857105 17.54901564 -23.43301887 8.10917754 -14.76171875 2.0234375 C-10.19057906 -0.63208045 -5.13007033 -0.75273759 0 0 Z " fill="#F7F7FA" transform="translate(974,894)"/>
<path d="M0 0 C1.5 1.875 1.5 1.875 2.0625 4.6875 C1.29707766 9.02489329 -0.48785325 10.71224592 -3.5 13.875 C-2.9946875 14.22691406 -2.489375 14.57882812 -1.96875 14.94140625 C3.31656528 18.95782639 3.31656528 18.95782639 4.1875 23.3125 C2.74615809 30.78127169 -0.80853547 34.82792661 -6.79296875 39.234375 C-14.22319238 43.73754084 -23.03882714 47.08620632 -31.8125 46.9375 C-33.6378125 46.9065625 -33.6378125 46.9065625 -35.5 46.875 C-36.30169125 44.06908062 -36.73615618 42.45180223 -35.61108398 39.70385742 C-34.21195759 36.14163428 -33.66947198 32.5621642 -33.09765625 28.80078125 C-32.8448084 27.23105412 -32.59154082 25.66139455 -32.33789062 24.09179688 C-31.94665537 21.63024423 -31.55952745 19.16820974 -31.17993164 16.70483398 C-30.80970728 14.31817947 -30.42356356 11.93453409 -30.03515625 9.55078125 C-29.92567154 8.81120682 -29.81618683 8.07163239 -29.7033844 7.30964661 C-29.35961914 5.2355957 -29.35961914 5.2355957 -28.5 1.875 C-25.5 -0.125 -25.5 -0.125 -22.875 0.375 C-19.65716742 0.85171594 -18.18285607 0.70196402 -15.125 -0.0625 C-9.94770071 -1.33718077 -5.04120378 -2.2685417 0 0 Z " fill="#F7F7FA" transform="translate(839.5,896.125)"/>
<path d="M0 0 C0 13.53 0 27.06 0 41 C-4.38388861 40.3737302 -8.69058893 39.72135737 -13.03515625 38.9140625 C-27.65295828 36.23135176 -42.25335929 33.85085389 -57 32 C-54.54912878 29.25545475 -51.89605299 27.67897627 -48.6796875 25.91796875 C-47.5980835 25.32185791 -46.51647949 24.72574707 -45.40209961 24.11157227 C-44.22646539 23.47009452 -43.05076398 22.82873989 -41.875 22.1875 C-40.05667559 21.18922911 -38.23926206 20.18931411 -36.42192078 19.18925476 C-35.17233848 18.50174147 -33.92242593 17.8148281 -32.67219543 17.12849426 C-28.33915507 14.7472808 -24.02564604 12.33348759 -19.72265625 9.8984375 C-18.01070068 8.93127808 -18.01070068 8.93127808 -16.26416016 7.94458008 C-14.07338627 6.7051352 -11.88421358 5.46285517 -9.69677734 4.2175293 C-8.71273926 3.66234619 -7.72870117 3.10716309 -6.71484375 2.53515625 C-5.84980225 2.044104 -4.98476074 1.55305176 -4.09350586 1.04711914 C-2 0 -2 0 0 0 Z " fill="#1C1D4B" transform="translate(769,339)"/>
<path d="M0 0 C7.61871714 1.3138539 15.08257608 2.91820244 22.57421875 4.8203125 C23.62406448 5.08383514 24.67391022 5.34735779 25.75556946 5.61886597 C29.06706615 6.45089597 32.37729228 7.28785833 35.6875 8.125 C37.94978718 8.69433876 40.21215627 9.26335221 42.47460938 9.83203125 C47.984026 11.21759847 53.49230979 12.60758677 59 14 C59 19.94 59 25.88 59 32 C52.1229918 31.40169325 45.73083262 30.06516009 39.0625 28.3125 C29.90151445 25.96000292 20.71948224 23.73698836 11.5 21.625 C10.354104 21.36243408 9.20820801 21.09986816 8.02758789 20.8293457 C5.35213412 20.21777238 2.67613079 19.60860394 0 19 C0 12.73 0 6.46 0 0 Z " fill="#1D1D4A" transform="translate(831,320)"/>
<path d="M0 0 C1.67542976 0.28604898 3.34385343 0.61781233 5 1 C5 1.99 5 2.98 5 4 C5.52207031 3.7834375 6.04414062 3.566875 6.58203125 3.34375 C12.62349132 1.05836405 18.55223552 -0.0357039 25 1 C27.296875 2.3125 27.296875 2.3125 29 4 C29.65868759 9.08130425 28.93864937 11.88198136 26 16 C20.34768369 20.42798787 13.87589037 23.10663888 7 25 C7.4846875 25.42410156 7.969375 25.84820313 8.46875 26.28515625 C9.1390625 26.87167969 9.809375 27.45820312 10.5 28.0625 C11.22832031 28.69800781 11.95664062 29.33351563 12.70703125 29.98828125 C14.19077726 31.29003456 15.66783679 32.59946593 17.13671875 33.91796875 C20.59518703 37.00753375 23.87588464 39.80906371 28 42 C27.125 46.875 27.125 46.875 26 48 C23.80078125 48.41015625 23.80078125 48.41015625 21 48 C18.85502045 46.19821718 17.0633038 44.48548489 15.1875 42.4375 C14.13611092 41.33533176 13.0827222 40.23506758 12.02734375 39.13671875 C11.5154248 38.59966309 11.00350586 38.06260742 10.47607422 37.50927734 C7.50160749 34.46790234 4.26238922 31.72505453 1 29 C0.81824219 30.20398438 0.63648438 31.40796875 0.44921875 32.6484375 C0.19599246 34.22406776 -0.05795109 35.79958287 -0.3125 37.375 C-0.48942383 38.56609375 -0.48942383 38.56609375 -0.66992188 39.78125 C-0.79560547 40.54179688 -0.92128906 41.30234375 -1.05078125 42.0859375 C-1.16075439 42.7876709 -1.27072754 43.4894043 -1.3840332 44.21240234 C-2 46 -2 46 -5 48 C-7.1875 47.625 -7.1875 47.625 -9 47 C-9.99520855 43.8636256 -9.95907583 41.75127104 -9.2578125 38.55078125 C-9.07863281 37.70193359 -8.89945313 36.85308594 -8.71484375 35.97851562 C-8.52019531 35.09873047 -8.32554687 34.21894531 -8.125 33.3125 C-5.71492341 22.29199396 -5.71492341 22.29199396 -5.0625 11.0625 C-5 9 -5 9 -3 7 C-2.30899447 5.00827818 -1.64097297 3.00838196 -1 1 C-0.67 0.67 -0.34 0.34 0 0 Z " fill="#F7F7FA" transform="translate(612,895)"/>
<path d="M0 0 C2.5 0.3125 2.5 0.3125 5 1 C5.33 1.66 5.66 2.32 6 3 C7.0725 2.505 8.145 2.01 9.25 1.5 C14.63212838 -0.52190869 20.32601046 -0.85740286 26 0 C27.82421875 1.3203125 27.82421875 1.3203125 29 3 C29.67058066 7.35877428 29.22204516 9.57122313 27.1875 13.5 C20.56642428 21.75774612 11.08699917 25.15159701 1 27 C0.89042969 28.27617188 0.78085937 29.55234375 0.66796875 30.8671875 C0.50853738 32.53652772 0.34834145 34.20579505 0.1875 35.875 C0.11724609 36.71675781 0.04699219 37.55851563 -0.02539062 38.42578125 C-0.10595703 39.23144531 -0.18652344 40.03710938 -0.26953125 40.8671875 C-0.33760986 41.61081543 -0.40568848 42.35444336 -0.47583008 43.12060547 C-1 45 -1 45 -4 47 C-6.6875 46.625 -6.6875 46.625 -9 46 C-10.16098844 42.51703469 -9.52428379 40.66839567 -8.58300781 37.20703125 C-7.64973256 33.67402944 -7.01680366 30.0954103 -6.375 26.5 C-6.2409375 25.79230469 -6.106875 25.08460938 -5.96875 24.35546875 C-5.31912339 20.72949164 -4.94636475 17.34393504 -5.0390625 13.65625 C-5 10 -5 10 -3 7 C-2.32136945 5.0040278 -1.65358081 3.00431449 -1 1 C-0.67 0.67 -0.34 0.34 0 0 Z " fill="#F6F6F9" transform="translate(498,896)"/>
<path d="M0 0 C0.99 0.33 1.98 0.66 3 1 C2.23816406 2.27230469 2.23816406 2.27230469 1.4609375 3.5703125 C-10.2185099 23.35043541 -16.13623072 43.53180476 -20 66 C-20.33 66 -20.66 66 -21 66 C-21.03963867 65.42258057 -21.07927734 64.84516113 -21.12011719 64.25024414 C-22.46373591 45.51195925 -24.75712765 29.52072459 -34 13 C-34.33 12.34 -34.66 11.68 -35 11 C-33.87464844 10.69707031 -32.74929688 10.39414062 -31.58984375 10.08203125 C-15.43158636 6.04978224 -15.43158636 6.04978224 0 0 Z " fill="#1C1D4B" transform="translate(510,431)"/>
<path d="M0 0 C0.94875 0.04125 1.8975 0.0825 2.875 0.125 C2.875 0.785 2.875 1.445 2.875 2.125 C4.52048828 1.9084375 4.52048828 1.9084375 6.19921875 1.6875 C7.65362452 1.49983474 9.10805281 1.31234394 10.5625 1.125 C11.28373047 1.02960937 12.00496094 0.93421875 12.74804688 0.8359375 C16.48492871 0.35816265 20.09791531 0.00580206 23.875 0.125 C24.37 2.6 24.37 2.6 24.875 5.125 C23.01307717 7.11767584 21.48507042 8.05346769 18.76367188 8.37255859 C16.21188446 8.42013603 13.67615255 8.38598224 11.125 8.3125 C10.23683594 8.29896484 9.34867188 8.28542969 8.43359375 8.27148438 C6.24677422 8.23621309 4.06120034 8.18692752 1.875 8.125 C1.81441406 8.82367187 1.75382813 9.52234375 1.69140625 10.2421875 C1.60761719 11.15226563 1.52382813 12.06234375 1.4375 13 C1.35628906 13.90492188 1.27507813 14.80984375 1.19140625 15.7421875 C0.875 18.125 0.875 18.125 -0.125 20.125 C1.77100369 19.81353528 3.66679587 19.50078283 5.5625 19.1875 C6.61824219 19.01347656 7.67398438 18.83945312 8.76171875 18.66015625 C10.75192953 18.31804975 12.73565528 17.93387517 14.70703125 17.49609375 C15.42246094 17.37363281 16.13789062 17.25117187 16.875 17.125 C17.875 18.125 17.875 18.125 18.0625 20.5625 C17.875 23.125 17.875 23.125 15.875 25.125 C12.97532243 25.43175232 10.15716822 25.63673371 7.25 25.75 C6.04730469 25.80800781 6.04730469 25.80800781 4.8203125 25.8671875 C2.83892444 25.96153931 0.85699355 26.04436215 -1.125 26.125 C-1.785 30.745 -2.445 35.365 -3.125 40.125 C-2.135 39.63 -2.135 39.63 -1.125 39.125 C0.3945764 38.97376169 1.91972502 38.87618307 3.4453125 38.80859375 C4.34121094 38.76669922 5.23710938 38.72480469 6.16015625 38.68164062 C7.09730469 38.64232422 8.03445313 38.60300781 9 38.5625 C9.94488281 38.51931641 10.88976562 38.47613281 11.86328125 38.43164062 C14.20037092 38.32540928 16.5375683 38.22336824 18.875 38.125 C19.5 40.5 19.5 40.5 19.875 43.125 C17.37137926 45.62862074 16.29726637 45.47026425 12.82421875 45.72265625 C11.31118164 45.84157227 11.31118164 45.84157227 9.76757812 45.96289062 C8.70990234 46.03701172 7.65222656 46.11113281 6.5625 46.1875 C4.48288427 46.34254221 2.4034478 46.50001194 0.32421875 46.66015625 C-0.60044189 46.725979 -1.52510254 46.79180176 -2.4777832 46.85961914 C-5.15712978 47.06760875 -5.15712978 47.06760875 -7.84057617 47.77905273 C-8.59443604 47.89321533 -9.3482959 48.00737793 -10.125 48.125 C-10.785 47.465 -11.445 46.805 -12.125 46.125 C-11.8125 43.40625 -11.8125 43.40625 -11.125 40.125 C-10.78850631 37.9588219 -10.45523111 35.79214166 -10.125 33.625 C-9.33818951 28.46155614 -8.4935501 23.31038693 -7.625 18.16015625 C-7.46 17.17917969 -7.295 16.19820312 -7.125 15.1875 C-6.86203125 13.63095703 -6.86203125 13.63095703 -6.59375 12.04296875 C-6.2167341 9.69604479 -5.90204476 7.35982766 -5.625 5 C-4.91558846 0.92088363 -4.16011452 0.16640458 0 0 Z " fill="#F6F6F9" transform="translate(577.125,895.875)"/>
<path d="M0 0 C0.94875 0.04125 1.8975 0.0825 2.875 0.125 C2.875 0.785 2.875 1.445 2.875 2.125 C4.52048828 1.9084375 4.52048828 1.9084375 6.19921875 1.6875 C7.65362452 1.49983474 9.10805281 1.31234394 10.5625 1.125 C11.28373047 1.02960937 12.00496094 0.93421875 12.74804688 0.8359375 C16.48492871 0.35816265 20.09791531 0.00580206 23.875 0.125 C24.5 2.5 24.5 2.5 24.875 5.125 C20.7633931 9.2366069 12.85304455 8.18094314 7.3125 8.1875 C5.49994948 8.17165998 3.68740959 8.15260015 1.875 8.125 C1.81441406 8.82367187 1.75382813 9.52234375 1.69140625 10.2421875 C1.60761719 11.15226563 1.52382813 12.06234375 1.4375 13 C1.35628906 13.90492188 1.27507813 14.80984375 1.19140625 15.7421875 C0.875 18.125 0.875 18.125 -0.125 20.125 C1.77100369 19.81353528 3.66679587 19.50078283 5.5625 19.1875 C6.61824219 19.01347656 7.67398438 18.83945312 8.76171875 18.66015625 C10.75192953 18.31804975 12.73565528 17.93387517 14.70703125 17.49609375 C15.42246094 17.37363281 16.13789062 17.25117187 16.875 17.125 C17.875 18.125 17.875 18.125 18.0625 20.5625 C17.875 23.125 17.875 23.125 15.875 25.125 C12.97532243 25.43175232 10.15716822 25.63673371 7.25 25.75 C6.04730469 25.80800781 6.04730469 25.80800781 4.8203125 25.8671875 C2.83892444 25.96153931 0.85699355 26.04436215 -1.125 26.125 C-1.785 30.745 -2.445 35.365 -3.125 40.125 C-2.135 39.63 -2.135 39.63 -1.125 39.125 C0.3945764 38.97376169 1.91972502 38.87618307 3.4453125 38.80859375 C4.34121094 38.76669922 5.23710938 38.72480469 6.16015625 38.68164062 C7.09730469 38.64232422 8.03445313 38.60300781 9 38.5625 C9.94488281 38.51931641 10.88976562 38.47613281 11.86328125 38.43164062 C14.20037092 38.32540928 16.5375683 38.22336824 18.875 38.125 C19.5 40.5 19.5 40.5 19.875 43.125 C17.37137926 45.62862074 16.29726637 45.47026425 12.82421875 45.72265625 C11.31118164 45.84157227 11.31118164 45.84157227 9.76757812 45.96289062 C8.70990234 46.03701172 7.65222656 46.11113281 6.5625 46.1875 C4.48288427 46.34254221 2.4034478 46.50001194 0.32421875 46.66015625 C-0.60044189 46.725979 -1.52510254 46.79180176 -2.4777832 46.85961914 C-5.15712978 47.06760875 -5.15712978 47.06760875 -7.84057617 47.77905273 C-8.59443604 47.89321533 -9.3482959 48.00737793 -10.125 48.125 C-10.785 47.465 -11.445 46.805 -12.125 46.125 C-11.8125 43.40625 -11.8125 43.40625 -11.125 40.125 C-10.78850631 37.9588219 -10.45523111 35.79214166 -10.125 33.625 C-9.33818951 28.46155614 -8.4935501 23.31038693 -7.625 18.16015625 C-7.46 17.17917969 -7.295 16.19820312 -7.125 15.1875 C-6.86203125 13.63095703 -6.86203125 13.63095703 -6.59375 12.04296875 C-6.2167341 9.69604479 -5.90204476 7.35982766 -5.625 5 C-4.91558846 0.92088363 -4.16011452 0.16640458 0 0 Z " fill="#F6F6F9" transform="translate(857.125,895.875)"/>
<path d="M0 0 C0.07476563 0.74378906 0.14953125 1.48757813 0.2265625 2.25390625 C1.32523331 11.37718245 3.44785602 19.99819025 5.96728516 28.82641602 C7.51446322 34.41068718 8.42889467 39.20002442 8 45 C6.8125 47.0625 6.8125 47.0625 5 48 C2.3125 47.6875 2.3125 47.6875 0 47 C0.01160156 46.443125 0.02320313 45.88625 0.03515625 45.3125 C0.09676433 40.10221657 -0.25000656 35.1562049 -1 30 C-2.7015625 30.2475 -2.7015625 30.2475 -4.4375 30.5 C-8.97060294 31.07576084 -13.43747238 31.09505266 -18 31 C-18.4021875 32.0828125 -18.4021875 32.0828125 -18.8125 33.1875 C-19.99207262 35.98122462 -21.4421974 38.40366234 -23 41 C-23.350625 41.886875 -23.70125 42.77375 -24.0625 43.6875 C-25 46 -25 46 -27 48 C-29.625 47.625 -29.625 47.625 -32 47 C-31.85548515 39.6090978 -27.93985141 34.69988747 -23.875 28.75 C-22.55930312 26.78685544 -21.24419701 24.82331481 -19.9296875 22.859375 C-19.27991943 21.89499512 -18.63015137 20.93061523 -17.96069336 19.93701172 C-12.14850347 11.40590471 -12.14850347 11.40590471 -7.1875 2.375 C-5.27287842 -1.45424317 -3.76252094 -1.12875628 0 0 Z " fill="#F7F7FA" transform="translate(791,895)"/>
<path d="M0 0 C0.598125 0.20625 1.19625 0.4125 1.8125 0.625 C1.47967271 8.51300681 0.33284498 16.22763905 -1 24 C-1.15307617 24.95084473 -1.30615234 25.90168945 -1.46386719 26.88134766 C-3.00750276 35.54251872 -6.07976379 40.40298972 -13.1875 45.625 C-17.10501041 47.54350681 -20.40376947 47.94963812 -24.75 48 C-25.86503906 48.02835938 -26.98007812 48.05671875 -28.12890625 48.0859375 C-31.1875 47.625 -31.1875 47.625 -33.58984375 46.2265625 C-38.06302343 38.94260732 -34.53320632 28.17507766 -33.16113281 20.21801758 C-32.80925648 18.16860897 -32.47420722 16.11691036 -32.140625 14.06445312 C-30.44406665 4.00984998 -30.44406665 4.00984998 -28.1875 0.625 C-26.5375 0.955 -24.8875 1.285 -23.1875 1.625 C-23.08391873 6.96979355 -23.39908117 11.89448701 -24.28125 17.1875 C-24.39223022 17.86425781 -24.50321045 18.54101562 -24.61755371 19.23828125 C-24.96823075 21.36822828 -25.32769197 23.49657854 -25.6875 25.625 C-25.92897185 27.08193418 -26.16986238 28.53896482 -26.41015625 29.99609375 C-26.99589953 33.5402009 -27.58952192 37.08293411 -28.1875 40.625 C-22.09969941 40.77792322 -17.6641683 40.08851906 -12.578125 36.48461914 C-10.47673761 33.67453 -10.20198514 30.57040168 -9.6875 27.18359375 C-9.56568359 26.46011246 -9.44386719 25.73663116 -9.31835938 24.9912262 C-8.79811847 21.90044083 -8.30592693 18.80536687 -7.8125 15.71020508 C-7.44793454 13.449472 -7.06820533 11.19165538 -6.6875 8.93359375 C-6.58115234 8.23149277 -6.47480469 7.52939178 -6.36523438 6.80601501 C-6.03125 4.83374023 -6.03125 4.83374023 -5.1875 1.625 C-2.1875 -0.375 -2.1875 -0.375 0 0 Z " fill="#F5F5F9" transform="translate(562.1875,895.375)"/>
<path d="M0 0 C2.39670554 2.35127037 2.97022628 3.78460993 3.43359375 7.13671875 C3.44608069 18.4873429 1.28398597 24.99204219 -6.31640625 33.37109375 C-9.09874026 36.06305032 -11.17271827 37.31427313 -15 37.4375 C-18.08334994 37.33547739 -18.70245876 37.28824307 -21 35.0625 C-23.30323557 28.00884108 -22.22278846 22.12755552 -19.265625 15.421875 C-15.51928377 8.25295042 -9.19245003 -1.83849001 0 0 Z " fill="#2F317C" transform="translate(970,900)"/>
<path d="M0 0 C2.98223687 3.04583908 3.43191463 5.36788513 3.4375 9.5625 C3.15782398 19.12975052 0.22487216 26.39735566 -6.21875 33.44140625 C-9.28728677 36.12637593 -11.49010163 36.94632649 -15.5625 37.375 C-19 37 -19 37 -20.6875 35.30078125 C-23.08956404 31.09002017 -22.56878571 26.69727521 -22 22 C-21.06065279 18.73616648 -19.69081497 15.93805194 -18 13 C-17.31164062 11.80310547 -17.31164062 11.80310547 -16.609375 10.58203125 C-12.66134494 4.21323538 -8.25278465 -1.46716171 0 0 Z " fill="#2F317C" transform="translate(702,900)"/>
<path d="M0 0 C2.0625 1.625 2.0625 1.625 4.0625 3.625 C3.50694444 8.18055556 3.50694444 8.18055556 2.0625 9.625 C0.39632885 9.66563832 -1.27138095 9.667721 -2.9375 9.625 C-3.2675 8.305 -3.5975 6.985 -3.9375 5.625 C-7.85616466 5.31150683 -10.41194249 5.37830974 -14 7.0625 C-20.47292103 12.70909069 -24.67471362 20.08856405 -25.9375 28.625 C-25.88083696 32.34587285 -25.51721578 35.95113856 -24.9375 39.625 C-18.51377739 40.07578755 -15.20083305 39.41459979 -9.9375 35.625 C-8.76175289 33.52510348 -8.76175289 33.52510348 -7.9375 31.625 C-5.9375 30.75 -5.9375 30.75 -3.9375 30.625 C-1.9375 32.625 -1.9375 32.625 -1.875 34.875 C-4.11853444 40.68179503 -9.38458447 43.60536959 -14.875 46.0625 C-19.78240162 47.83751761 -22.9055162 48.07489364 -27.9375 46.625 C-31.1161241 44.0550486 -32.64478109 42.50315673 -33.9375 38.625 C-35.05476757 27.78200983 -31.9579859 18.60314331 -25.71875 9.76953125 C-19.00400571 1.68533253 -10.69758671 -5.00738102 0 0 Z " fill="#F6F7F9" transform="translate(759.9375,896.375)"/>
<path d="M0 0 C0.35747622 2.34651057 0.60866631 4.63911314 0.8125 7 C0.96332031 8.299375 1.11414063 9.59875 1.26953125 10.9375 C0.871865 14.13421362 0.09576858 14.92237765 -2.45068359 16.98632812 C-5.30086405 18.74682298 -8.16830014 20.39105231 -11.11831665 21.97412109 C-14.18424382 23.64564038 -17.15390561 25.47332253 -20.140625 27.28125 C-21.3234031 27.98574619 -22.50699748 28.68887377 -23.69140625 29.390625 C-26.11242847 30.82520589 -28.53144536 32.26307589 -30.94921875 33.703125 C-32.11706123 34.3960462 -33.28502504 35.08876294 -34.453125 35.78125 C-35.49629883 36.40064453 -36.53947266 37.02003906 -37.61425781 37.65820312 C-40 39 -40 39 -41 39 C-41.95920116 34.06899554 -42.19458284 29.90705795 -41 25 C-37.3559486 21.21536019 -33.12761401 18.97546009 -28.54833984 16.46630859 C-23.45140638 13.53354538 -18.63305939 10.14708219 -13.75 6.875 C-11.77104312 5.55175672 -9.78700183 4.23607118 -7.796875 2.9296875 C-6.51828613 2.08253174 -6.51828613 2.08253174 -5.21386719 1.21826172 C-3 0 -3 0 0 0 Z " fill="#1E1E4B" transform="translate(757,321)"/>
<path d="M0 0 C0.125 2.375 0.125 2.375 0 5 C-2.77042109 7.77042109 -4.76533805 7.39796106 -8.625 7.625 C-9.81351563 7.69976563 -11.00203125 7.77453125 -12.2265625 7.8515625 C-13.14179687 7.90054688 -14.05703125 7.94953125 -15 8 C-14.9796167 9.00772461 -14.9592334 10.01544922 -14.93823242 11.05371094 C-15.02899883 16.85271547 -16.02235055 22.4739078 -16.97143555 28.18066406 C-17.3135882 30.25660242 -17.63654581 32.33498255 -17.95898438 34.4140625 C-18.17591781 35.73977458 -18.39397719 37.06530301 -18.61328125 38.390625 C-18.80704346 39.58719727 -19.00080566 40.78376953 -19.20043945 42.01660156 C-19.9996035 44.99852056 -20.45953373 46.28517546 -23 48 C-25.6875 47.6875 -25.6875 47.6875 -28 47 C-27.37947744 38.84489702 -25.97159759 30.9021549 -24.4375 22.875 C-24.20353516 21.63234375 -23.96957031 20.3896875 -23.72851562 19.109375 C-23.15612525 16.07220156 -22.57859042 13.03599841 -22 10 C-27.94 10.495 -27.94 10.495 -34 11 C-34 6 -34 6 -32 4 C-29.69677734 3.40576172 -29.69677734 3.40576172 -26.8359375 2.9296875 C-25.79566406 2.75566406 -24.75539063 2.58164062 -23.68359375 2.40234375 C-22.59175781 2.22832031 -21.49992188 2.05429687 -20.375 1.875 C-19.30636719 1.69324219 -18.23773437 1.51148438 -17.13671875 1.32421875 C-11.34537872 0.37680396 -5.86679426 -0.21307969 0 0 Z " fill="#F4F4F8" transform="translate(679,895)"/>
<path d="M0 0 C2.625 -0.1875 2.625 -0.1875 5 0 C6.29774614 4.51708077 5.64389261 8.40620126 4.78515625 12.92578125 C4.65056503 13.67337204 4.51597382 14.42096283 4.37730408 15.19120789 C3.94761854 17.56662928 3.50526084 19.93948468 3.0625 22.3125 C2.76803945 23.92758131 2.47441039 25.54281446 2.18164062 27.15820312 C1.46558505 31.10766547 0.73242426 35.05340087 0 39 C7.92 38.505 7.92 38.505 16 38 C16.33 39.65 16.66 41.3 17 43 C14.18620531 45.81379469 11.8553815 45.63085278 7.9375 46.125 C6.92901001 46.25237549 6.92901001 46.25237549 5.90014648 46.38232422 C0.88823383 46.98059985 -3.96199206 47.17677221 -9 47 C-8.38735456 41.15238009 -7.63871473 35.36713946 -6.66015625 29.5703125 C-6.53313828 28.81330048 -6.4061203 28.05628845 -6.2752533 27.27633667 C-6.0085797 25.69472513 -5.74046531 24.11335587 -5.47094727 22.53222656 C-5.06015096 20.11115566 -4.65990768 17.68847659 -4.25976562 15.265625 C-3.99804166 13.72124458 -3.73569432 12.17696964 -3.47265625 10.6328125 C-3.3548732 9.91094757 -3.23709015 9.18908264 -3.11573792 8.44534302 C-2.51992873 5.01861145 -1.96054012 2.94081018 0 0 Z " fill="#F5F5F9" transform="translate(891,896)"/>
<path d="M0 0 C3.125 -0.1875 3.125 -0.1875 6 0 C5.40884251 8.68339686 4.02026777 17.13523382 2.4375 25.6875 C2.20353516 26.97333984 1.96957031 28.25917969 1.72851562 29.58398438 C1.15664405 32.72344262 0.57892629 35.86183501 0 39 C7.92 38.505 7.92 38.505 16 38 C16.33 39.65 16.66 41.3 17 43 C14.1759671 45.8240329 11.8056711 45.63268931 7.875 46.125 C6.86264282 46.25237549 6.86264282 46.25237549 5.82983398 46.38232422 C1.17612546 46.93891022 -3.32245315 47.19092028 -8 47 C-9.31603774 42.920283 -8.57222371 39.94366255 -7.61474609 35.86010742 C-6.88734745 32.47588377 -6.3291363 29.08194323 -5.78125 25.6640625 C-5.67678558 25.01322189 -5.57232117 24.36238129 -5.46469116 23.69181824 C-5.03042259 20.97843651 -4.59945367 18.26460298 -4.17724609 15.54931641 C-3.86429195 13.54479523 -3.54220982 11.54191137 -3.21875 9.5390625 C-3.03248047 8.35521973 -2.84621094 7.17137695 -2.65429688 5.95166016 C-2 3 -2 3 0 0 Z " fill="#F7F7F9" transform="translate(921,896)"/>
<path d="M0 0 C1.94650023 2.91975035 2.53646204 4.64590046 3.2890625 8 C3.50820312 8.969375 3.72734375 9.93875 3.953125 10.9375 C4.17484375 11.948125 4.3965625 12.95875 4.625 14 C4.96917969 15.5159375 4.96917969 15.5159375 5.3203125 17.0625 C7 24.58110119 7 24.58110119 7 28 C-1.0125322 29.03387512 -8.92905177 29.10466648 -17 29 C-15.5753483 25.10242667 -13.73606674 21.76817356 -11.5234375 18.26171875 C-10.853125 17.19501953 -10.1828125 16.12832031 -9.4921875 15.02929688 C-8.79351563 13.92650391 -8.09484375 12.82371094 -7.375 11.6875 C-6.66108421 10.55427206 -5.94753875 9.42081074 -5.234375 8.28710938 C-3.49321083 5.52242302 -1.74830945 2.76017131 0 0 Z " fill="#32347E" transform="translate(1044,792)"/>
<path d="M0 0 C2.35950558 2.35950558 2.56628471 3.65009476 3.2890625 6.8671875 C3.50820313 7.83527344 3.72734375 8.80335938 3.953125 9.80078125 C4.17484375 10.81527344 4.3965625 11.82976563 4.625 12.875 C4.96917969 14.38513672 4.96917969 14.38513672 5.3203125 15.92578125 C6.24909106 20.08869943 7 23.71291558 7 28 C-1.0125322 29.03387512 -8.92905177 29.10466648 -17 29 C-15.72344032 25.58583156 -14.2512571 22.59773796 -12.28515625 19.53125 C-11.76373047 18.71269531 -11.24230469 17.89414062 -10.70507812 17.05078125 C-10.16302734 16.20902344 -9.62097656 15.36726562 -9.0625 14.5 C-7.99043103 12.8232071 -6.91880332 11.14613197 -5.84765625 9.46875 C-5.35023926 8.69144531 -4.85282227 7.91414062 -4.34033203 7.11328125 C-2.85180805 4.76634799 -1.40888038 2.39558754 0 0 Z " fill="#32347D" transform="translate(462,792)"/>
<path d="M0 0 C1.94650023 2.91975035 2.53646204 4.64590046 3.2890625 8 C3.50820313 8.969375 3.72734375 9.93875 3.953125 10.9375 C4.17484375 11.948125 4.3965625 12.95875 4.625 14 C4.96917969 15.5159375 4.96917969 15.5159375 5.3203125 17.0625 C7 24.58110119 7 24.58110119 7 28 C-1.0125322 29.03387512 -8.92905177 29.10466648 -17 29 C-15.5753483 25.10242667 -13.73606674 21.76817356 -11.5234375 18.26171875 C-10.853125 17.19501953 -10.1828125 16.12832031 -9.4921875 15.02929688 C-8.79351563 13.92650391 -8.09484375 12.82371094 -7.375 11.6875 C-6.66108421 10.55427206 -5.94753875 9.42081074 -5.234375 8.28710938 C-3.49321083 5.52242302 -1.74830945 2.76017131 0 0 Z " fill="#31337D" transform="translate(634,792)"/>
<path d="M0 0 C8.58 0 17.16 0 26 0 C25 8 25 8 23.57421875 9.6640625 C22.95160156 9.98117187 22.32898437 10.29828125 21.6875 10.625 C20.62595703 11.19154297 20.62595703 11.19154297 19.54296875 11.76953125 C18.70378906 12.17558594 17.86460938 12.58164062 17 13 C15.41638672 13.81017578 15.41638672 13.81017578 13.80078125 14.63671875 C10.88011729 16.11951737 7.9471044 17.57065437 5 19 C4.53722836 17.52221589 4.08008966 16.04266785 3.625 14.5625 C3.36976562 13.73878906 3.11453125 12.91507812 2.8515625 12.06640625 C1.74567232 8.08418701 0.89655716 4.03450721 0 0 Z " fill="#231F4A" transform="translate(1035,476)"/>
<path d="M0 0 C1.12019531 0.00386719 2.24039063 0.00773438 3.39453125 0.01171875 C6.1875 0.3125 6.1875 0.3125 8.1875 2.3125 C8.33959287 5.58249671 7.7938654 7.56583197 5.71875 10.12109375 C-0.24525272 15.80400618 -7.51106959 19.3125 -15.8125 19.3125 C-15.66520669 16.70029828 -15.4718372 14.1060269 -15.25 11.5 C-15.21326172 10.76201172 -15.17652344 10.02402344 -15.13867188 9.26367188 C-14.93359375 7.10546875 -14.93359375 7.10546875 -13.8125 3.3125 C-9.2788148 0.45795747 -5.28882956 -0.08004049 0 0 Z " fill="#32347D" transform="translate(827.8125,916.6875)"/>
<path d="M0 0 C25.75367816 -1.0292762 49.0574575 0.55246988 74.03662109 7.00244141 C79.98235344 8.5251088 85.98932491 9.76200162 92 11 C92 11.33 92 11.66 92 12 C82.79654329 11.43351332 73.69910748 10.54580755 64.5625 9.3125 C62.59492341 9.05273252 60.62734202 8.79300041 58.65965271 8.53408813 C57.22010833 8.34458722 55.78062626 8.15461244 54.34120178 7.96420288 C44.49747511 6.66401035 34.64700548 5.41613788 24.79733276 4.16195679 C20.56491838 3.62295772 16.33263181 3.08295866 12.1003418 2.54298401 C8.06692478 2.02841867 4.0334639 1.51419774 0 1 C0 0.67 0 0.34 0 0 Z " fill="#1D1E4E" transform="translate(1070,499)"/>
<path d="M0 0 C0.33 0 0.66 0 1 0 C3.01510964 23.07193351 3.22613082 46.15007769 3.24676514 69.29256439 C3.2499965 71.68490741 3.2571187 74.07721209 3.26513672 76.46954346 C3.27693147 80.30118229 3.27723288 84.13266182 3.26863861 87.96430779 C3.26665382 89.39507908 3.26780011 90.82585868 3.27231598 92.25662422 C3.29104557 99.48774158 3.21546006 106.08136243 1 113 C0.67 113 0.34 113 0 113 C0 75.71 0 38.42 0 0 Z " fill="#1C1D4B" transform="translate(769,403)"/>
<path d="M0 0 C3.3 0 6.6 0 10 0 C10 6.6 10 13.2 10 20 C5.05 20.495 5.05 20.495 0 21 C0 14.07 0 7.14 0 0 Z " fill="#1D1E4E" transform="translate(454,408)"/>
<path d="M0 0 C0.66 1.32 1.32 2.64 2 4 C-1.55645779 9.33468668 -6.04476961 12.19281013 -12.296875 13.46875 C-14.19077651 13.71052466 -16.09558046 13.86397003 -18 14 C-17.84343258 10.73343421 -17.38469527 7.9785891 -16 5 C-11.33023691 1.28117048 -6.00701262 -0.7903964 0 0 Z " fill="#34367F" transform="translate(518,902)"/>
<path d="M0 0 C0.33 1.32 0.66 2.64 1 4 C-4.36305908 9.21811154 -11.35778056 13 -19 13 C-18.98700137 9.89982745 -18.82032068 6.99896456 -18 4 C-12.48918992 -0.00786187 -6.61596779 -0.12972486 0 0 Z " fill="#31337D" transform="translate(633,902)"/>
<path d="M0 0 C0.33 1.32 0.66 2.64 1 4 C-3.77127633 8.45319125 -10.36945122 12 -17 12 C-17.0865869 6.80478589 -17.0865869 6.80478589 -16 4 C-11.23012541 0.28215342 -5.86761885 -0.49937182 0 0 Z " fill="#383A81" transform="translate(833,901)"/>
<path d="M0 0 C0 6.27 0 12.54 0 19 C-4 17 -4 17 -5.5 15.3125 C-6.2425 14.6628125 -6.2425 14.6628125 -7 14 C-8.32 14.33 -9.64 14.66 -11 15 C-11.66 12.36 -12.32 9.72 -13 7 C-10.69 7 -8.38 7 -6 7 C-5.731875 6.21625 -5.46375 5.4325 -5.1875 4.625 C-3.0952381 0 -3.0952381 0 0 0 Z " fill="#1C1D4A" transform="translate(1008,353)"/>
<path d="M0 0 C2.2344598 4.03292745 2.54496743 7.44967434 3 12 C-0.21451269 13.60725635 -3.43612536 13.05748185 -7 13 C-5.35821735 8.22390502 -2.73453298 4.20617096 0 0 Z " fill="#3C3E84" transform="translate(785,907)"/>
<path d="M0 0 C1.32 0 2.64 0 4 0 C4 3.63 4 7.26 4 11 C2.68 11 1.36 11 0 11 C0 7.37 0 3.74 0 0 Z " fill="#1E1F50" transform="translate(898,400)"/>
</svg>
