<?xml version="1.0" encoding="UTF-8"?>
<svg version="1.1" xmlns="http://www.w3.org/2000/svg" width="150" height="150">
<path d="M0 0 C2.26685452 1.68622161 4.37461281 3.45620684 6.4765625 5.34375 C7.70826172 6.43623047 7.70826172 6.43623047 8.96484375 7.55078125 C22.24806842 20.02774039 31.07984821 37.58848816 31.8125 55.9453125 C32.13371051 77.23647878 28.10626638 96.0522542 13.4765625 112.34375 C12.74824219 113.16488281 12.01992187 113.98601562 11.26953125 114.83203125 C-1.20742789 128.11525592 -18.76817566 136.94703571 -37.125 137.6796875 C-58.41616628 138.00089801 -77.2319417 133.97345388 -93.5234375 119.34375 C-94.34457031 118.61542969 -95.16570312 117.88710937 -96.01171875 117.13671875 C-109.29494342 104.65975961 -118.12672321 87.09901184 -118.859375 68.7421875 C-119.18058551 47.45102122 -115.15314138 28.6352458 -100.5234375 12.34375 C-99.79511719 11.52261719 -99.06679687 10.70148437 -98.31640625 9.85546875 C-72.64852592 -17.47107913 -30.68115209 -20.13747444 0 0 Z " fill="#FEDF00" transform="translate(118.5234375,12.65625)"/>
<path d="M0 0 C46.86 0 93.72 0 142 0 C135.58124025 19.25627924 123.12775367 33.75377298 105 43 C87.07217835 51.06648822 66.36266928 53.36855165 47.390625 47.328125 C37.70833463 43.53552278 28.79330925 38.99836332 21 32 C20.17886719 31.27167969 19.35773437 30.54335937 18.51171875 29.79296875 C9.28069346 21.12224848 3.99768103 11.99304309 0 0 Z " fill="#007733" transform="translate(4,100)"/>
<path d="M0 0 C2.26685452 1.68622161 4.37461281 3.45620684 6.4765625 5.34375 C7.70826172 6.43623047 7.70826172 6.43623047 8.96484375 7.55078125 C18.19586904 16.22150152 23.47888147 25.35070691 27.4765625 37.34375 C-19.3834375 37.34375 -66.2434375 37.34375 -114.5234375 37.34375 C-108.10467775 18.08747076 -95.65119117 3.58997702 -77.5234375 -5.65625 C-51.91977915 -17.17642309 -23.57942655 -15.47627996 0 0 Z " fill="#D42B1E" transform="translate(118.5234375,12.65625)"/>
<path d="M0 0 C2.26685452 1.68622161 4.37461281 3.45620684 6.4765625 5.34375 C7.70826172 6.43623047 7.70826172 6.43623047 8.96484375 7.55078125 C17.83498933 15.88252649 24.27939133 25.55418131 27.4765625 37.34375 C25.8265625 37.34375 24.1765625 37.34375 22.4765625 37.34375 C22.02667969 36.32796875 21.57679688 35.3121875 21.11328125 34.265625 C12.39616947 15.32813263 -0.99595816 2.92026737 -20.5234375 -4.65625 C-38.58166107 -11.1334075 -58.69198684 -8.81993474 -75.7734375 -0.90625 C-81.61899045 2.18753999 -86.58871944 5.96198846 -91.5234375 10.34375 C-92.21050781 10.92511719 -92.89757812 11.50648437 -93.60546875 12.10546875 C-101.08982345 18.91076957 -106.18095487 28.29310199 -110.5234375 37.34375 C-111.8434375 37.34375 -113.1634375 37.34375 -114.5234375 37.34375 C-110.2595011 20.85652926 -98.19025466 7.0085536 -84.0859375 -2.09375 C-57.47227981 -17.42449173 -25.74171521 -16.8954911 0 0 Z " fill="#BB2A1F" transform="translate(118.5234375,12.65625)"/>
<path d="M0 0 C0.5625 1.9375 0.5625 1.9375 1 4 C0.67 4.33 0.34 4.66 0 5 C2.52475462 6.26237731 4.31200466 6.09856404 7.125 6.0625 C8.03507812 6.05347656 8.94515625 6.04445313 9.8828125 6.03515625 C10.58148438 6.02355469 11.28015625 6.01195312 12 6 C11.67 4.02 11.34 2.04 11 0 C14.875 2.625 14.875 2.625 16 6 C17.49985609 7.66710346 17.49985609 7.66710346 19 9 C17.68 9 16.36 9 15 9 C13.22240124 13.96920684 13.22240124 13.96920684 14 19 C14.99 19.33 15.98 19.66 17 20 C17 23.3 17 26.6 17 30 C16.34 30 15.68 30 15 30 C14.88205078 30.93005859 14.88205078 30.93005859 14.76171875 31.87890625 C14 34 14 34 12.14453125 35.15234375 C8.01125225 36.54395025 5.83570665 37.25830933 1.5625 35.9375 C-0.9416301 34.04413334 -1.9898352 32.92947793 -3 30 C-3.66 30 -4.32 30 -5 30 C-5.76681614 21.37757848 -5.76681614 21.37757848 -3.88671875 18 C-2.5 16.375 -2.5 16.375 0 14 C-0.495 13.54625 -0.99 13.0925 -1.5 12.625 C-3 11 -3 11 -3 9 C-3.99 9 -4.98 9 -6 9 C-6 7 -6 7 -4.6875 5.625 C-4.130625 5.08875 -3.57375 4.5525 -3 4 C-1.98199424 2.68036291 -0.97751635 1.34990354 0 0 Z " fill="#218148" transform="translate(69,53)"/>
<path d="M0 0 C0.5625 1.9375 0.5625 1.9375 1 4 C0.67 4.33 0.34 4.66 0 5 C2.52475462 6.26237731 4.31200466 6.09856404 7.125 6.0625 C8.03507812 6.05347656 8.94515625 6.04445313 9.8828125 6.03515625 C10.58148438 6.02355469 11.28015625 6.01195312 12 6 C11.67 4.02 11.34 2.04 11 0 C14.875 2.625 14.875 2.625 16 6 C17.49985609 7.66710346 17.49985609 7.66710346 19 9 C17.68 9 16.36 9 15 9 C14.566875 10.11375 14.566875 10.11375 14.125 11.25 C13.17697356 13.56739797 12.15154089 15.77917115 11 18 C11.66 18.99 12.32 19.98 13 21 C13 22.32 13 23.64 13 25 C12.29875 24.649375 11.5975 24.29875 10.875 23.9375 C6.52406501 22.51871685 3.24433571 23.58522143 -1 25 C-0.6875 22.125 -0.6875 22.125 0 19 C3.4352048 16.70986347 4.985331 16.82157027 9 17 C9 16.01 9 15.02 9 14 C7.7625 14.2475 6.525 14.495 5.25 14.75 C1.35121394 15.25463011 1.35121394 15.25463011 -1.5 13.1875 C-3 11 -3 11 -3 9 C-3.99 9 -4.98 9 -6 9 C-6 7 -6 7 -4.6875 5.625 C-4.130625 5.08875 -3.57375 4.5525 -3 4 C-1.98199424 2.68036291 -0.97751635 1.34990354 0 0 Z " fill="#483522" transform="translate(69,53)"/>
<path d="M0 0 C0.99 0.33 1.98 0.66 3 1 C3 1.99 3 2.98 3 4 C2.34 4 1.68 4 1 4 C1.33 9.61 1.66 15.22 2 21 C4.97 20.67 7.94 20.34 11 20 C11 20.66 11 21.32 11 22 C11.99 21.67 12.98 21.34 14 21 C14 23.64 14 26.28 14 29 C13.34 29 12.68 29 12 29 C11.67 28.01 11.34 27.02 11 26 C9.35 26.66 7.7 27.32 6 28 C5.67 27.01 5.34 26.02 5 25 C4.37351562 24.96261719 3.74703125 24.92523438 3.1015625 24.88671875 C2.28429688 24.82097656 1.46703125 24.75523438 0.625 24.6875 C-0.18710937 24.62949219 -0.99921875 24.57148437 -1.8359375 24.51171875 C-4 24 -4 24 -6 21 C-6.22705078 19.09887695 -6.22705078 19.09887695 -6.1953125 16.98828125 C-6.18886719 16.23095703 -6.18242188 15.47363281 -6.17578125 14.69335938 C-6.15902344 13.90767578 -6.14226563 13.12199219 -6.125 12.3125 C-6.11597656 11.51521484 -6.10695312 10.71792969 -6.09765625 9.89648438 C-6.07411585 7.930861 -6.03824547 5.96539225 -6 4 C-5.360625 3.87625 -4.72125 3.7525 -4.0625 3.625 C-3.0415625 3.315625 -3.0415625 3.315625 -2 3 C-1.67 2.34 -1.34 1.68 -1 1 C-0.67 0.67 -0.34 0.34 0 0 Z " fill="#D2361B" transform="translate(60,67)"/>
<path d="M0 0 C1.65 0.33 3.3 0.66 5 1 C5 1.66 5 2.32 5 3 C5.99 2.67 6.98 2.34 8 2 C8.05401695 4.91691525 8.09368066 7.83282724 8.125 10.75 C8.15013672 11.9875 8.15013672 11.9875 8.17578125 13.25 C8.18222656 14.04921875 8.18867187 14.8484375 8.1953125 15.671875 C8.20578613 16.4050293 8.21625977 17.13818359 8.22705078 17.89355469 C7.96300141 20.34325148 7.31823173 21.92521788 6 24 C3.8359375 24.609375 3.8359375 24.609375 1.375 24.75 C0.55773437 24.80671875 -0.25953125 24.8634375 -1.1015625 24.921875 C-1.72804688 24.94765625 -2.35453125 24.9734375 -3 25 C-3.33 25.99 -3.66 26.98 -4 28 C-5.98 27.34 -7.96 26.68 -10 26 C-10 26.99 -10 27.98 -10 29 C-10.66 29 -11.32 29 -12 29 C-12 26.36 -12 23.72 -12 21 C-11.01 21.33 -10.02 21.66 -9 22 C-8.67 21.34 -8.34 20.68 -8 20 C-5.69 20.66 -3.38 21.32 -1 22 C1.11925604 19.88074396 0.41831017 15.3803907 0.5625 12.4375 C0.60568359 11.63119141 0.64886719 10.82488281 0.69335938 9.99414062 C0.79975262 7.99631195 0.90040888 5.9981793 1 4 C0.34 4 -0.32 4 -1 4 C-0.67 2.68 -0.34 1.36 0 0 Z " fill="#D1371B" transform="translate(88,67)"/>
<path d="M0 0 C1.32 0 2.64 0 4 0 C3.67515625 1.15048828 3.67515625 1.15048828 3.34375 2.32421875 C1.43813901 9.9201959 0.69857153 16.99945711 0.6875 24.8125 C0.68234375 25.68285889 0.6771875 26.55321777 0.671875 27.44995117 C0.7256617 32.50446072 1.28579738 37.13601461 2.51245117 42.04150391 C3.16675895 44.66987495 3.58836956 47.32440212 4 50 C2.35 49.67 0.7 49.34 -1 49 C-6.19988629 34.88602292 -6.6414341 15.05973992 -1 1 C-0.67 0.67 -0.34 0.34 0 0 Z " fill="#DFC405" transform="translate(4,50)"/>
<path d="M0 0 C2.475 0.495 2.475 0.495 5 1 C10.30819998 15.40797138 10.30819998 34.59202862 5 49 C2.525 49.495 2.525 49.495 0 50 C0.2165625 49.25621094 0.433125 48.51242188 0.65625 47.74609375 C4.58012826 32.35940448 4.90199639 15.20202451 0 0 Z " fill="#DEC406" transform="translate(142,50)"/>
<path d="M0 0 C0.66 0.33 1.32 0.66 2 1 C1.67 1.99 1.34 2.98 1 4 C1.66 4 2.32 4 3 4 C3 5.65 3 7.3 3 9 C3.66 9 4.32 9 5 9 C5 14.61 5 20.22 5 26 C3.02 26.99 3.02 26.99 1 28 C0.01 27.01 -0.98 26.02 -2 25 C-1.34 23.68 -0.68 22.36 0 21 C0.66 21 1.32 21 2 21 C1.89937511 14.22120153 1.89937511 14.22120153 -1.0625 8.375 C-2.0215625 7.694375 -2.0215625 7.694375 -3 7 C-1.125 2.25 -1.125 2.25 0 0 Z " fill="#DCCC09" transform="translate(84,62)"/>
<path d="M0 0 C0.99 0 1.98 0 3 0 C3 0.66 3 1.32 3 2 C3.99 2.33 4.98 2.66 6 3 C4.625 5 4.625 5 3 7 C2.34 7 1.68 7 1 7 C0.67 10.96 0.34 14.92 0 19 C0.66 19 1.32 19 2 19 C3.625 21.5 3.625 21.5 5 24 C2.6739143 24.38063221 0.33944736 24.71269945 -2 25 C-3 24 -3 24 -3.09765625 20.18359375 C-3.09098089 18.60153318 -3.07901875 17.01948841 -3.0625 15.4375 C-3.05798828 14.63119141 -3.05347656 13.82488281 -3.04882812 12.99414062 C-3.03700518 10.99606244 -3.01906914 8.99802217 -3 7 C-2.34 7 -1.68 7 -1 7 C-0.67 4.69 -0.34 2.38 0 0 Z " fill="#D79A15" transform="translate(64,64)"/>
<path d="M0 0 C0.99 0.33 1.98 0.66 3 1 C3 1.99 3 2.98 3 4 C2.34 4 1.68 4 1 4 C1 8.29 1 12.58 1 17 C0.67 17 0.34 17 0 17 C-0.33 15.35 -0.66 13.7 -1 12 C-3.22189824 14.22189824 -3.92598892 16.08482708 -5 19 C-5.33 19 -5.66 19 -6 19 C-6 14.05 -6 9.1 -6 4 C-4.68 3.67 -3.36 3.34 -2 3 C-1.67 2.34 -1.34 1.68 -1 1 C-0.67 0.67 -0.34 0.34 0 0 Z " fill="#CF3C19" transform="translate(60,67)"/>
<path d="M0 0 C0 0.99 0 1.98 0 3 C-2.01822917 3.42317708 -4.03645833 3.84635417 -6.0546875 4.26953125 C-8.37046549 4.92308838 -8.37046549 4.92308838 -10 8 C-10.53946183 12.85515649 -9.39966487 15.80058648 -7 20 C-7.99 20 -8.98 20 -10 20 C-10.66 18.68 -11.32 17.36 -12 16 C-12.66 16 -13.32 16 -14 16 C-14.78530425 7.01262916 -14.78530425 7.01262916 -11.625 2.9375 C-7.48255724 -0.12001727 -5.13784377 -0.09514525 0 0 Z " fill="#319070" transform="translate(78,67)"/>
<path d="M0 0 C1.32 0.66 2.64 1.32 4 2 C4 2.66 4 3.32 4 4 C4.99 4.33 5.98 4.66 7 5 C7 8.3 7 11.6 7 15 C6.34 15 5.68 15 5 15 C4.92523438 15.62261719 4.85046875 16.24523437 4.7734375 16.88671875 C4 19 4 19 2.0390625 20.08203125 C1.24242188 20.32308594 0.44578125 20.56414062 -0.375 20.8125 C-1.16648437 21.06644531 -1.95796875 21.32039063 -2.7734375 21.58203125 C-5 22 -5 22 -8 21 C-8 20.34 -8 19.68 -8 19 C-7.06027344 18.85304688 -7.06027344 18.85304688 -6.1015625 18.703125 C-5.28429687 18.55359375 -4.46703125 18.4040625 -3.625 18.25 C-2.81289062 18.11078125 -2.00078125 17.9715625 -1.1640625 17.828125 C1.13094279 17.18079332 1.13094279 17.18079332 2.3046875 15.14453125 C3.36175137 11.88426121 2.72040525 9.30185742 2 6 C1.34 5.01 0.68 4.02 0 3 C0 2.01 0 1.02 0 0 Z " fill="#208D7B" transform="translate(79,68)"/>
<path d="M0 0 C0.5625 1.9375 0.5625 1.9375 1 4 C0.67 4.33 0.34 4.66 0 5 C2.28705831 6.14352916 3.59264762 6.10334439 6.125 6.0625 C7.40375 6.041875 8.6825 6.02125 10 6 C10 6.66 10 7.32 10 8 C9.01 8 8.02 8 7 8 C7 8.66 7 9.32 7 10 C6.01 10.33 5.02 10.66 4 11 C4 11.99 4 12.98 4 14 C3.01 14.33 2.02 14.66 1 15 C-0.37562854 13.71034824 -1.70766393 12.37310707 -3 11 C-3 10.34 -3 9.68 -3 9 C-3.99 9 -4.98 9 -6 9 C-6 7 -6 7 -4.6875 5.625 C-4.130625 5.08875 -3.57375 4.5525 -3 4 C-1.98199424 2.68036291 -0.97751635 1.34990354 0 0 Z " fill="#6D6634" transform="translate(69,53)"/>
<path d="M0 0 C2.375 1.75 2.375 1.75 4 4 C4 5.32 4 6.64 4 8 C3.29875 7.649375 2.5975 7.29875 1.875 6.9375 C-2.47593499 5.51871685 -5.75566429 6.58522143 -10 8 C-9.6875 5.125 -9.6875 5.125 -9 2 C-5.50875983 -0.32749345 -4.10777749 -0.50299316 0 0 Z " fill="#D17414" transform="translate(78,70)"/>
<path d="M0 0 C0.99 0 1.98 0 3 0 C3 0.66 3 1.32 3 2 C3.99 2.33 4.98 2.66 6 3 C4.625 5 4.625 5 3 7 C2.34 7 1.68 7 1 7 C0.67 10.63 0.34 14.26 0 18 C-0.33 18 -0.66 18 -1 18 C-1.2165625 16.39125 -1.2165625 16.39125 -1.4375 14.75 C-1.83749442 12.08337051 -2.27591924 9.58600271 -3 7 C-2.34 7 -1.68 7 -1 7 C-0.67 4.69 -0.34 2.38 0 0 Z " fill="#D5A429" transform="translate(64,64)"/>
<path d="M0 0 C2 3.875 2 3.875 2 5 C4.97 5.495 4.97 5.495 8 6 C8 6.66 8 7.32 8 8 C8.66 8 9.32 8 10 8 C10 9.32 10 10.64 10 12 C7.25 12.375 7.25 12.375 4 12 C1.13981943 8.83874779 0.06611198 6.89251171 -0.25 2.625 C-0.12625 1.325625 -0.12625 1.325625 0 0 Z " fill="#21814B" transform="translate(67,75)"/>
<path d="M0 0 C1.65 0.33 3.3 0.66 5 1 C6.15941038 4.47823115 5.70820884 6.45895578 5 10 C4.01 9.67 3.02 9.34 2 9 C2 11.97 2 14.94 2 18 C1.67 18 1.34 18 1 18 C1 13.38 1 8.76 1 4 C0.34 4 -0.32 4 -1 4 C-0.67 2.68 -0.34 1.36 0 0 Z " fill="#D35415" transform="translate(88,67)"/>
<path d="M0 0 C0.33 0.66 0.66 1.32 1 2 C1.99 1.67 2.98 1.34 4 1 C4 3.64 4 6.28 4 9 C3.34 9 2.68 9 2 9 C1.67 8.01 1.34 7.02 1 6 C-0.65 6.66 -2.3 7.32 -4 8 C-4 6.68 -4 5.36 -4 4 C-3.01 3.67 -2.02 3.34 -1 3 C-0.67 2.01 -0.34 1.02 0 0 Z " fill="#9F692B" transform="translate(70,87)"/>
<path d="M0 0 C0.33 0 0.66 0 1 0 C1.33 1.98 1.66 3.96 2 6 C3.32 5.01 4.64 4.02 6 3 C7 4 7 4 7.09765625 6.06640625 C7.08605469 6.89011719 7.07445312 7.71382813 7.0625 8.5625 C7.05347656 9.38878906 7.04445313 10.21507813 7.03515625 11.06640625 C7.01775391 12.02353516 7.01775391 12.02353516 7 13 C6.67 13 6.34 13 6 13 C5.67 11.35 5.34 9.7 5 8 C2.77810176 10.22189824 2.07401108 12.08482708 1 15 C0.67 15 0.34 15 0 15 C0 10.05 0 5.1 0 0 Z " fill="#D55017" transform="translate(54,71)"/>
<path d="M0 0 C0.99 0 1.98 0 3 0 C4.76462683 3.08809695 5 4.23312136 5 8 C3.02 7.34 1.04 6.68 -1 6 C-1 6.99 -1 7.98 -1 9 C-1.66 9 -2.32 9 -3 9 C-3 6.36 -3 3.72 -3 1 C-2.01 1.33 -1.02 1.66 0 2 C0 1.34 0 0.68 0 0 Z " fill="#96602E" transform="translate(79,87)"/>
<path d="M0 0 C0.66 0.33 1.32 0.66 2 1 C2.73075648 3.3140622 3.40138258 5.64828869 4 8 C3.34 8 2.68 8 2 8 C2 7.34 2 6.68 2 6 C0.02 6 -1.96 6 -4 6 C-4 5.01 -4 4.02 -4 3 C-2 1.3125 -2 1.3125 0 0 Z " fill="#067230" transform="translate(73,75)"/>
<path d="M0 0 C0.33 0.66 0.66 1.32 1 2 C-0.65 4.31 -2.3 6.62 -4 9 C-4.33 7.68 -4.66 6.36 -5 5 C-6.32 4.67 -7.64 4.34 -9 4 C-6.02819057 2.10134397 -3.48539917 0.64544429 0 0 Z " fill="#62872F" transform="translate(83,62)"/>
<path d="M0 0 C0.99 0.33 1.98 0.66 3 1 C2.938125 1.86625 2.87625 2.7325 2.8125 3.625 C3.02455502 7.44199033 4.12044307 9.71077536 6 13 C3 13 3 13 1.3125 11.5625 C-0.62888504 7.77217682 -0.24113824 4.17972943 0 0 Z " fill="#1C9DB7" transform="translate(65,74)"/>
<path d="M0 0 C2.475 0.99 2.475 0.99 5 2 C4.67 3.32 4.34 4.64 4 6 C2.68 6 1.36 6 0 6 C-0.66 5.34 -1.32 4.68 -2 4 C-1.34 2.68 -0.68 1.36 0 0 Z " fill="#DD9A0F" transform="translate(84,83)"/>
<path d="M0 0 C2.82378039 1.03538614 3.8243145 1.66619755 5.25 4.375 C6 7 6 7 6 11 C5.34 11 4.68 11 4 11 C3.32591692 9.73308493 2.66099503 8.46129251 2 7.1875 C1.62875 6.47980469 1.2575 5.77210937 0.875 5.04296875 C0 3 0 3 0 0 Z " fill="#1AA0BF" transform="translate(79,68)"/>
<path d="M0 0 C2.97 0 5.94 0 9 0 C8 4 8 4 6 6 C3.30274481 4.11192137 1.86783571 2.80175356 0 0 Z " fill="#E0A90C" transform="translate(84,91)"/>
<path d="M0 0 C3.3 0 6.6 0 10 0 C7.88929795 3.16605307 6.26460973 4.19587357 3 6 C2.814375 5.071875 2.814375 5.071875 2.625 4.125 C2.12802644 1.80879168 2.12802644 1.80879168 0 0 Z " fill="#DEA80C" transform="translate(56,91)"/>
<path d="M0 0 C0.66 0.99 1.32 1.98 2 3 C-1.96 4.98 -1.96 4.98 -6 7 C-6 6.01 -6 5.02 -6 4 C-6.66 3.67 -7.32 3.34 -8 3 C-6.35 3 -4.7 3 -3 3 C-3 2.34 -3 1.68 -3 1 C-2.01 0.67 -1.02 0.34 0 0 Z " fill="#3F2922" transform="translate(79,60)"/>
<path d="M0 0 C0.33 0 0.66 0 1 0 C1 3.96 1 7.92 1 12 C0.01 11.67 -0.98 11.34 -2 11 C-1.85892253 9.54119891 -1.71197585 8.08296449 -1.5625 6.625 C-1.48128906 5.81289062 -1.40007812 5.00078125 -1.31640625 4.1640625 C-1 2 -1 2 0 0 Z " fill="#FCDD00" transform="translate(88,73)"/>
<path d="M0 0 C0.99 0.495 0.99 0.495 2 1 C2.4140625 3.06640625 2.4140625 3.06640625 2.625 5.5625 C2.69976562 6.38878906 2.77453125 7.21507813 2.8515625 8.06640625 C2.92503906 9.02353516 2.92503906 9.02353516 3 10 C2.01 10.66 1.02 11.32 0 12 C0 8.04 0 4.08 0 0 Z " fill="#FBDB00" transform="translate(61,74)"/>
<path d="M0 0 C0.66 0.33 1.32 0.66 2 1 C1.67 1.99 1.34 2.98 1 4 C1.66 4 2.32 4 3 4 C3 4.66 3 5.32 3 6 C2.01 6 1.02 6 0 6 C0 6.66 0 7.32 0 8 C-0.99 7.67 -1.98 7.34 -3 7 C-1.125 2.25 -1.125 2.25 0 0 Z " fill="#DBCF86" transform="translate(84,62)"/>
<path d="M0 0 C0.66 0.66 1.32 1.32 2 2 C-3.29230769 5.07692308 -3.29230769 5.07692308 -6.875 4.6875 C-7.57625 4.460625 -8.2775 4.23375 -9 4 C-9 3.34 -9 2.68 -9 2 C-7.54536519 1.61090015 -6.08608793 1.23911971 -4.625 0.875 C-3.40683594 0.56175781 -3.40683594 0.56175781 -2.1640625 0.2421875 C-1.44992188 0.16226563 -0.73578125 0.08234375 0 0 Z " fill="#09A0C5" transform="translate(80,85)"/>
<path d="M0 0 C2.31 0 4.62 0 7 0 C7 0.99 7 1.98 7 3 C4.69 3 2.38 3 0 3 C0 2.01 0 1.02 0 0 Z " fill="#2599AA" transform="translate(71,67)"/>
<path d="M0 0 C2.8325479 1.41627395 5.36691729 3.24461153 8 5 C6.35 5.33 4.7 5.66 3 6 C3 5.34 3 4.68 3 4 C2.01 4.33 1.02 4.66 0 5 C-0.5625 3.0625 -0.5625 3.0625 -1 1 C-0.67 0.67 -0.34 0.34 0 0 Z " fill="#E6CE48" transform="translate(90,64)"/>
<path d="M0 0 C0.99 0 1.98 0 3 0 C3.66 0.66 4.32 1.32 5 2 C5.66 2 6.32 2 7 2 C7 2.99 7 3.98 7 5 C6.01 5.33 5.02 5.66 4 6 C2.62437146 4.71034824 1.29233607 3.37310707 0 2 C0 1.34 0 0.68 0 0 Z " fill="#5F791A" transform="translate(66,62)"/>
<path d="M0 0 C2.475 0.99 2.475 0.99 5 2 C4.34 3.98 3.68 5.96 3 8 C1 7 1 7 -0.125 3.9375 C-0.41375 2.968125 -0.7025 1.99875 -1 1 C-0.67 0.67 -0.34 0.34 0 0 Z " fill="#167E3A" transform="translate(75,75)"/>
<path d="M0 0 C0.99 0.33 1.98 0.66 3 1 C3.33 2.98 3.66 4.96 4 7 C2.68 6.34 1.36 5.68 0 5 C0 3.35 0 1.7 0 0 Z " fill="#E09E12" transform="translate(78,71)"/>
<path d="M0 0 C3.81538462 2.46153846 3.81538462 2.46153846 4.75 5.1875 C4.8325 5.785625 4.915 6.38375 5 7 C3.68 6.67 2.36 6.34 1 6 C0.67 4.02 0.34 2.04 0 0 Z " fill="#5A832B" transform="translate(80,53)"/>
<path d="M0 0 C0.33 0.66 0.66 1.32 1 2 C1.66 2 2.32 2 3 2 C3 3.32 3 4.64 3 6 C2.34 6 1.68 6 1 6 C0.34 5.34 -0.32 4.68 -1 4 C-1.66 4 -2.32 4 -3 4 C-3 3.34 -3 2.68 -3 2 C-2.01 1.34 -1.02 0.68 0 0 Z " fill="#89A766" transform="translate(74,81)"/>
</svg>
