<?xml version="1.0" encoding="UTF-8"?>
<svg version="1.1" xmlns="http://www.w3.org/2000/svg" width="150" height="150">
<path d="M0 0 C1.71388916 0.01353516 1.71388916 0.01353516 3.46240234 0.02734375 C12.00549211 0.20256166 19.20612575 1.02998441 27.125 4.4375 C27.7658252 4.71126465 28.40665039 4.9850293 29.06689453 5.26708984 C48.55992236 13.78346123 61.87853285 27.22896927 70.6875 46.4765625 C74.28549083 55.75688897 75.66147719 64.83449612 75.5625 74.75 C75.55347656 75.84304443 75.54445312 76.93608887 75.53515625 78.06225586 C75.12798046 97.15569006 67.77905016 115.824453 54.125 129.4375 C46.02897437 136.89824427 37.51844029 142.61674358 27.125 146.4375 C26.03445312 146.84871094 24.94390625 147.25992188 23.8203125 147.68359375 C3.50776985 154.2207038 -18.29850536 151.33976753 -37.08984375 141.85131836 C-44.03863132 138.07684775 -49.41572344 133.09291823 -54.875 127.4375 C-55.61234375 126.73109375 -56.3496875 126.0246875 -57.109375 125.296875 C-63.55233415 118.75402501 -67.29870986 110.78561838 -70.875 102.4375 C-71.33390625 101.37144531 -71.7928125 100.30539063 -72.265625 99.20703125 C-77.66421016 83.90470359 -77.28772393 63.34030914 -70.875 48.4375 C-70.60123535 47.7966748 -70.3274707 47.15584961 -70.04541016 46.49560547 C-61.52903877 27.00257764 -48.08353073 13.68396715 -28.8359375 4.875 C-19.35077083 1.20198309 -10.12976547 -0.0963163 0 0 Z " fill="#009C3A" transform="translate(74.875,-0.4375)"/>
<path d="M0 0 C3.72557162 1.24980764 6.69031725 3.14342452 9.86328125 5.3984375 C11.19445372 6.31505052 12.52651918 7.23036774 13.859375 8.14453125 C14.54757324 8.62003418 15.23577148 9.09553711 15.94482422 9.58544922 C19.39649429 11.94231645 22.91041118 14.20065109 26.42578125 16.4609375 C27.8568189 17.38404008 29.28780815 18.30721767 30.71875 19.23046875 C31.43208496 19.69018066 32.14541992 20.14989258 32.88037109 20.62353516 C35.78488404 22.49692967 38.68575576 24.37592234 41.58666992 26.25488281 C49.7298468 31.52905206 57.8859168 36.78291436 66.05078125 42.0234375 C64.68508052 46.12053968 61.97039124 47.17659577 58.42578125 49.2734375 C56.95822656 50.16565552 55.49216835 51.06033808 54.02734375 51.95703125 C53.22844727 52.4454248 52.42955078 52.93381836 51.60644531 53.43701172 C46.95391451 56.32506533 42.38089713 59.33486744 37.80078125 62.3359375 C36.83060059 62.97023682 35.86041992 63.60453613 34.86083984 64.25805664 C31.9234638 66.17879823 28.98704722 68.10099947 26.05078125 70.0234375 C22.38598349 72.42214618 18.71915327 74.81769929 15.05078125 77.2109375 C13.84180176 78.00334839 13.84180176 78.00334839 12.60839844 78.81176758 C8.16674825 81.70786259 3.68302492 84.44244003 -0.94921875 87.0234375 C-11.80846298 80.13091594 -22.66162729 73.23086439 -33.44824219 66.22509766 C-40.42415682 61.70121204 -47.44278494 57.24479885 -54.46484375 52.79296875 C-56.20013115 51.6916801 -57.93380741 50.58784688 -59.66552734 49.48095703 C-61.08007959 48.57814787 -62.49889944 47.68194243 -63.92431641 46.79638672 C-65.30041144 45.92420247 -66.63208588 44.98234518 -67.94921875 44.0234375 C-67.94921875 43.3634375 -67.94921875 42.7034375 -67.94921875 42.0234375 C-65.87468094 40.60017113 -63.79807653 39.30502538 -61.63671875 38.0234375 C-53.76163715 33.23691021 -46.09736105 28.16049786 -38.44921875 23.0234375 C-29.75159396 17.18876589 -21.01536695 11.44492184 -12.0859375 5.96875 C-8.89638426 4.06030086 -8.89638426 4.06030086 -5.90625 1.703125 C-2.94921875 0.0234375 -2.94921875 0.0234375 0 0 Z " fill="#F9DC01" transform="translate(75.94921875,31.9765625)"/>
<path d="M0 0 C1.71388916 0.01353516 1.71388916 0.01353516 3.46240234 0.02734375 C12.00549211 0.20256166 19.20612575 1.02998441 27.125 4.4375 C27.7658252 4.71126465 28.40665039 4.9850293 29.06689453 5.26708984 C48.55992236 13.78346123 61.87853285 27.22896927 70.6875 46.4765625 C74.28549083 55.75688897 75.66147719 64.83449612 75.5625 74.75 C75.55347656 75.84304443 75.54445312 76.93608887 75.53515625 78.06225586 C75.12798046 97.15569006 67.77905016 115.824453 54.125 129.4375 C46.02897437 136.89824427 37.51844029 142.61674358 27.125 146.4375 C26.03445312 146.84871094 24.94390625 147.25992188 23.8203125 147.68359375 C3.50776985 154.2207038 -18.29850536 151.33976753 -37.08984375 141.85131836 C-44.03863132 138.07684775 -49.41572344 133.09291823 -54.875 127.4375 C-55.61234375 126.73109375 -56.3496875 126.0246875 -57.109375 125.296875 C-63.55233415 118.75402501 -67.29870986 110.78561838 -70.875 102.4375 C-71.33390625 101.37144531 -71.7928125 100.30539063 -72.265625 99.20703125 C-77.66421016 83.90470359 -77.28772393 63.34030914 -70.875 48.4375 C-70.60123535 47.7966748 -70.3274707 47.15584961 -70.04541016 46.49560547 C-61.52903877 27.00257764 -48.08353073 13.68396715 -28.8359375 4.875 C-19.35077083 1.20198309 -10.12976547 -0.0963163 0 0 Z M-57.1875 32.1875 C-69.96506198 48.9580501 -72.69565803 68.62318757 -70.4765625 89.1171875 C-68.07800811 101.60836035 -61.38976115 114.05619236 -52.875 123.4375 C-52.27171875 124.12070313 -51.6684375 124.80390625 -51.046875 125.5078125 C-39.4993218 137.85336735 -22.58034243 145.9119513 -5.71484375 146.7578125 C5.20345872 147.08597629 14.92083878 146.62595222 25.125 142.4375 C25.76630859 142.17437012 26.40761719 141.91124023 27.06835938 141.64013672 C37.44917761 137.25188174 45.41387603 131.62120406 53.125 123.4375 C53.87394531 122.64601563 54.62289062 121.85453125 55.39453125 121.0390625 C68.7174949 105.70364353 72.29502784 86.81568016 71.32763672 67.04785156 C69.93928409 49.16319331 60.62382438 34.63286278 48.125 22.4375 C47.55394531 21.84582031 46.98289062 21.25414063 46.39453125 20.64453125 C33.30848605 8.09672955 14.78983438 3.77780128 -2.74462891 3.96875 C-25.41279878 4.72187141 -42.66285791 15.43685912 -57.1875 32.1875 Z " fill="#048C36" transform="translate(74.875,-0.4375)"/>
<path d="M0 0 C16.59623238 0.27757783 31.10088199 7.76451893 43.4921875 18.3894043 C39.94252113 27.73063158 35.35467083 32.01910309 26.4921875 36.3894043 C25.5021875 36.8844043 25.5021875 36.8844043 24.4921875 37.3894043 C7.47197384 38.57731395 7.47197384 38.57731395 0.4921875 33.3894043 C-0.5596875 32.6675293 -1.6115625 31.9456543 -2.6953125 31.2019043 C-6.23704771 27.66016909 -8.30797812 23.85042302 -10.5078125 19.3894043 C-10.8378125 18.7294043 -11.1678125 18.0694043 -11.5078125 17.3894043 C-11.60572273 14.69111356 -11.646875 12.02455968 -11.6328125 9.3269043 C-11.63667969 8.58118164 -11.64054687 7.83545898 -11.64453125 7.06713867 C-11.6287449 -1.62324796 -7.45199133 0.04389651 0 0 Z " fill="#082E79" transform="translate(58.5078125,65.610595703125)"/>
<path d="M0 0 C1.77734375 1.12109375 1.77734375 1.12109375 3.375 2.3125 C4.426875 3.055 5.47875 3.7975 6.5625 4.5625 C11.19983717 9.09678523 15.24918666 14.55319754 15.47265625 21.23046875 C15.46105469 22.30941406 15.44945312 23.38835937 15.4375 24.5 C15.42847656 25.58667969 15.41945312 26.67335938 15.41015625 27.79296875 C15.39855469 28.62441406 15.38695312 29.45585938 15.375 30.3125 C14.66214844 29.85359375 13.94929688 29.3946875 13.21484375 28.921875 C8.00245204 25.58257695 2.78656426 22.31892459 -2.625 19.3125 C-2.625 18.3225 -2.625 17.3325 -2.625 16.3125 C-3.5840625 16.6528125 -3.5840625 16.6528125 -4.5625 17 C-8.34950441 17.38642902 -10.82715613 16.42647639 -14.34375 15.1015625 C-19.28622477 13.39200787 -24.24799327 13.05292814 -29.4375 12.75 C-30.47680664 12.68522461 -30.47680664 12.68522461 -31.53710938 12.61914062 C-33.23288686 12.51388547 -34.92892052 12.41277137 -36.625 12.3125 C-35.29724975 8.18724387 -33.76980915 6.21071861 -30.3125 3.625 C-29.55324219 3.04363281 -28.79398438 2.46226563 -28.01171875 1.86328125 C-20.50434516 -3.01466853 -8.22042054 -3.94260946 0 0 Z " fill="#042A74" transform="translate(87.625,48.6875)"/>
<path d="M0 0 C8.87163043 -0.30397718 16.8150717 -0.22478485 25.42578125 2.265625 C28.61423462 3.1752293 31.7113439 3.62628908 35 4 C35 4.99 35 5.98 35 7 C35.85851562 7.23460938 36.71703125 7.46921875 37.6015625 7.7109375 C41.37194049 9.14108088 44.2459223 11.15264231 47.375 13.625 C47.92027344 14.04523438 48.46554688 14.46546875 49.02734375 14.8984375 C50.35721778 15.92500693 51.67942793 16.96149187 53 18 C52.505 20.475 52.505 20.475 52 23 C51.15179688 22.42765625 50.30359375 21.8553125 49.4296875 21.265625 C46.04521547 19.00931031 42.59584801 16.87020127 39.125 14.75 C38.53203125 14.38648437 37.9390625 14.02296875 37.328125 13.6484375 C35.88605256 12.76458665 34.4431177 11.88214316 33 11 C32.67 11.66 32.34 12.32 32 13 C32 12.01 32 11.02 32 10 C20.60855101 6.66326767 9.85903943 5.2745148 -2 5 C-1.34 3.35 -0.68 1.7 0 0 Z " fill="#A6CEC2" transform="translate(50,61)"/>
<path d="M0 0 C2.52113092 -0.05447822 5.0410585 -0.09389852 7.5625 -0.125 C8.26697266 -0.14175781 8.97144531 -0.15851562 9.69726562 -0.17578125 C14.51891822 -0.22022044 18.42297438 0.47231996 23 2 C23.33 3.32 23.66 4.64 24 6 C24.99 5.67 25.98 5.34 27 5 C27.33 5.99 27.66 6.98 28 8 C20.43953006 7.11794517 20.43953006 7.11794517 18.13671875 6.5 C15.94445904 5.98700321 13.91868222 5.79593411 11.671875 5.68359375 C10.87265625 5.64169922 10.0734375 5.59980469 9.25 5.55664062 C8.0125 5.49766602 8.0125 5.49766602 6.75 5.4375 C5.90953125 5.39431641 5.0690625 5.35113281 4.203125 5.30664062 C2.13559329 5.20091457 0.06781719 5.09998705 -2 5 C-1.34 3.35 -0.68 1.7 0 0 Z " fill="#CDE6DA" transform="translate(50,61)"/>
<path d="M0 0 C3.11257569 0 5.10765685 0.17361624 8 1 C5.07519591 6.94019945 2.40010722 11.10689944 -3 15 C-5 13 -5 13 -5.1953125 11.0546875 C-5.13020833 9.03645833 -5.06510417 7.01822917 -5 5 C-3.02 4.67 -1.04 4.34 1 4 C0.67 2.68 0.34 1.36 0 0 Z " fill="#204281" transform="translate(94,84)"/>
<path d="M0 0 C5.03985731 0.44469329 7.37634988 2.71343362 11 6 C10.67 7.65 10.34 9.3 10 11 C6.1626772 8.50127818 2.54039134 5.9156164 -1 3 C-0.67 2.01 -0.34 1.02 0 0 Z " fill="#A9D2C1" transform="translate(92,73)"/>
<path d="M0 0 C1.65 0 3.3 0 5 0 C5.33 1.32 5.66 2.64 6 4 C6.99 3.67 7.98 3.34 9 3 C9.33 3.99 9.66 4.98 10 6 C2.25 5.125 2.25 5.125 0 4 C0 2.68 0 1.36 0 0 Z " fill="#D2E5E1" transform="translate(68,63)"/>
<path d="M0 0 C7.75 -0.125 7.75 -0.125 10 1 C9.67 1.99 9.34 2.98 9 4 C5.04 4 1.08 4 -3 4 C-2.67 3.34 -2.34 2.68 -2 2 C-1.34 2.33 -0.68 2.66 0 3 C0 2.01 0 1.02 0 0 Z " fill="#7DBAA3" transform="translate(51,62)"/>
<path d="M0 0 C2.97 0.33 5.94 0.66 9 1 C8.01 1.33 7.02 1.66 6 2 C6 3.32 6 4.64 6 6 C5.34 6 4.68 6 4 6 C3.34 5.01 2.68 4.02 2 3 C1.34 3 0.68 3 0 3 C0 2.01 0 1.02 0 0 Z " fill="#7CB7A5" transform="translate(62,61)"/>
<path d="M0 0 C4.75 0.75 4.75 0.75 7 3 C5.68 3.99 4.36 4.98 3 6 C2.34 5.67 1.68 5.34 1 5 C0.375 2.4375 0.375 2.4375 0 0 Z " fill="#87C4A9" transform="translate(87,70)"/>
<path d="M0 0 C2.475 0.495 2.475 0.495 5 1 C5.33 2.98 5.66 4.96 6 7 C4 6 4 6 3 4 C2.34 4 1.68 4 1 4 C0.67 2.68 0.34 1.36 0 0 Z " fill="#7EBCA4" transform="translate(73,63)"/>
</svg>
