<?xml version="1.0" encoding="UTF-8"?>
<svg version="1.1" xmlns="http://www.w3.org/2000/svg" width="1500" height="1500">
<path d="M0 0 C0.91949684 0.00026688 1.83899368 0.00053375 2.78635406 0.00080872 C30.5677131 0.01092269 58.29520921 0.1746681 86.02722168 2.00390625 C89.00385644 2.20011341 91.98090912 2.38909551 94.95800781 2.578125 C180.13201536 8.06574585 264.62218683 20.09859761 347.8125 39.1875 C348.60817383 39.3698822 349.40384766 39.5522644 350.22363281 39.74017334 C354.76369402 40.78626189 359.29137918 41.87425647 363.8125 43 C364.8128125 43.24121582 365.813125 43.48243164 366.84375 43.73095703 C379.0328447 46.91304689 389.0762588 52.86060123 396.16796875 63.3359375 C402.59291047 74.47657278 402.96302651 86.29956166 402.94113445 98.80618954 C402.94288749 100.07323067 402.94464053 101.3402718 402.94644669 102.64570811 C402.9511663 106.16205809 402.94967838 109.6783821 402.94716892 113.19473334 C402.9455339 117.02066854 402.9496783 120.84659823 402.95307809 124.67253166 C402.95823042 131.37807682 402.95964958 138.08361475 402.95862198 144.78916168 C402.95709757 154.76097311 402.96125771 164.73277655 402.9664966 174.70458642 C402.97617161 193.55184801 402.97898092 212.39910689 402.97955366 231.24637067 C402.98001313 245.80314897 402.98207109 260.35992622 402.98525429 274.91670418 C402.98615183 279.10629036 402.98704165 283.29587654 402.98792917 287.48546273 C402.98815021 288.52700541 402.98837126 289.56854809 402.98859901 290.64165267 C402.99475412 319.94277251 402.99869949 349.24389197 402.99825573 378.54501247 C402.99824015 379.64993511 402.99822457 380.75485774 402.99820852 381.89326287 C402.99812541 387.49349976 402.99802637 393.09373665 402.99792381 398.69397353 C402.9978939 400.36231823 402.9978939 400.36231823 402.99786337 402.06436686 C402.99782294 404.31356859 402.99778114 406.56277031 402.99773798 408.81197204 C402.9971254 443.79612028 403.00462831 478.78025883 403.01831055 513.7644043 C403.03367597 553.06850653 403.04227646 592.37260238 403.04134732 631.6767078 C403.04127269 635.86912318 403.04122399 640.06153856 403.04119301 644.25395393 C403.04117553 645.80237148 403.04117553 645.80237148 403.04115769 647.38207019 C403.04112694 663.98509649 403.04750949 680.58811436 403.05612527 697.19113815 C403.06460828 713.88379121 403.06558666 730.57643197 403.05901595 747.269086 C403.05532441 757.18139248 403.05714082 767.09366155 403.06695829 777.00596406 C403.07296782 783.6346442 403.07165201 790.2632973 403.06448779 796.89197621 C403.06061446 800.66391232 403.0598069 804.43577614 403.06794515 808.2077071 C403.1632412 855.54538265 392.56276949 894.65208692 358.8125 929.1875 C358.26867676 929.7532373 357.72485352 930.31897461 357.16455078 930.90185547 C319.29779819 969.70860079 257.24075389 987.19661162 207.8125 1006.1875 C206.80775635 1006.57355408 205.8030127 1006.95960815 204.76782227 1007.35736084 C199.37685525 1009.42836797 193.98554852 1011.49849009 188.59423828 1013.56860352 C186.37531383 1014.42070523 184.1564011 1015.27283748 181.9375 1016.125 C180.83758728 1016.5473996 179.73767456 1016.96979919 178.60443115 1017.40499878 C108.66739685 1043.64415893 108.66739685 1043.64415893 41.05859375 1075.2265625 C40.08449303 1075.73778656 40.08449303 1075.73778656 39.0907135 1076.25933838 C35.96604295 1077.9026614 32.85159604 1079.5614406 29.75219727 1081.25195312 C16.50907113 1088.31697737 4.88585288 1091.08682763 -9.70410156 1087.33398438 C-15.70806089 1085.35791254 -21.15435692 1082.37406214 -26.70571899 1079.38299561 C-30.34574278 1077.42544476 -34.01186015 1075.51780477 -37.67578125 1073.60546875 C-38.40756088 1073.22251648 -39.13934052 1072.83956421 -39.89329529 1072.44500732 C-84.19404841 1049.33405663 -132.12807222 1032.55964864 -178.69555664 1014.67895508 C-313.53600276 962.90128665 -313.53600276 962.90128665 -344.1875 936.1875 C-345.16332031 935.34574219 -346.13914062 934.50398438 -347.14453125 933.63671875 C-373.79625726 910.22798403 -392.95432836 875.59157049 -395.41648638 839.86483069 C-395.75957213 831.31257996 -395.73373672 822.75650913 -395.70137022 814.199118 C-395.69110715 810.29543507 -395.7043084 806.39181349 -395.71434355 802.48813957 C-395.72871163 795.66481392 -395.72840091 788.84161514 -395.71815491 782.01828384 C-395.70296046 771.87176609 -395.71079307 761.72535441 -395.72298814 751.57883725 C-395.74400298 733.45416235 -395.74224515 715.329544 -395.73067249 697.20486378 C-395.72059765 681.34772538 -395.71798936 665.49060767 -395.72276306 649.63346672 C-395.7230686 648.58033189 -395.72337414 647.52719706 -395.72368894 646.44214905 C-395.72493435 642.16686763 -395.72620795 637.89158621 -395.727528 633.61630481 C-395.73975305 593.54481167 -395.72868639 553.47335449 -395.70714041 513.40186689 C-395.68814949 477.81159319 -395.68986588 442.22137673 -395.70898438 406.63110352 C-395.73040551 366.62084527 -395.73889562 326.61061875 -395.72653532 286.60035557 C-395.72525249 282.33517802 -395.72400112 278.07000048 -395.72276306 273.80482292 C-395.72244675 272.75466876 -395.72213044 271.7045146 -395.72180455 270.62253759 C-395.7172567 254.77167592 -395.72257175 238.9208372 -395.73268127 223.06997871 C-395.74411686 205.05041903 -395.74126159 187.0309246 -395.7195583 169.01137305 C-395.70781539 158.92927384 -395.70704327 148.84731594 -395.722143 138.7652204 C-395.73111871 132.02888123 -395.7255192 125.29265525 -395.70812392 118.55633283 C-395.69861961 114.71978617 -395.69533238 110.88352008 -395.70974785 107.04698236 C-395.7251397 102.90831983 -395.70943671 98.77034128 -395.69086456 94.63169193 C-395.70022923 93.44904883 -395.70959389 92.26640573 -395.71924233 91.04792497 C-395.60261477 78.04645596 -392.12173368 66.79516838 -383.1875 57.1875 C-371.14336099 46.49360079 -356.88271964 43.6452442 -341.625 40.125 C-340.61241119 39.88961517 -339.59982239 39.65423035 -338.55654907 39.41171265 C-249.82040814 18.8600547 -158.37947321 5.37529712 -67.34140015 1.2875061 C-65.81615285 1.2166885 -64.29112062 1.14116652 -62.76626587 1.06234741 C-41.8505971 -0.01538544 -20.93719137 -0.01361776 0 0 Z " fill="#FEFDFD" transform="translate(748.1875,208.8125)"/>
<path d="M0 0 C1.96863323 -0.00688788 3.93726624 -0.01383718 5.90589905 -0.02084351 C12.22893424 -0.04004229 18.5519394 -0.0445112 24.875 -0.046875 C25.94831951 -0.04775871 27.02163902 -0.04864243 28.12748337 -0.04955292 C55.75851541 -0.06977983 83.34108795 0.11172283 110.9375 1.578125 C112.72522827 1.67281067 112.72522827 1.67281067 114.54907227 1.76940918 C128.77257755 2.54731163 142.95961892 3.65250644 157.14413452 4.95355225 C159.81939279 5.19804308 162.49512862 5.43630014 165.17114258 5.67236328 C196.25286121 8.4198321 227.23195666 11.55412509 258.04150391 16.57861328 C260.84002173 17.03451753 263.63903638 17.48604342 266.43896484 17.93310547 C298.52579937 23.06383277 330.4679166 28.81383767 362.0625 36.453125 C362.72919708 36.61384491 363.39589417 36.77456482 364.08279419 36.94015503 C388.54641717 42.87454217 388.54641717 42.87454217 391.875 46.203125 C392.12454766 48.30344778 392.12454766 48.30344778 392.12388897 50.95984745 C392.13078716 52.47494753 392.13078716 52.47494753 392.13782471 54.02065569 C392.13010937 55.69762007 392.13010937 55.69762007 392.12223816 57.40846252 C392.12465257 58.58961244 392.12706699 59.77076236 392.12955457 60.98770469 C392.13423095 64.27639434 392.12988296 67.56485259 392.12179029 70.85352123 C392.11523014 74.39614636 392.12015806 77.93875742 392.12367249 81.48138428 C392.12872225 88.42511088 392.12306326 95.36878998 392.11382218 102.31251068 C392.10345609 110.39084914 392.10350789 118.46917724 392.10399476 126.54752111 C392.10449576 140.95608858 392.09532334 155.36463389 392.08081055 169.77319336 C392.06671975 183.76994226 392.05963985 197.76667164 392.06030273 211.76342773 C392.06034269 212.62557861 392.06038265 213.48772948 392.06042381 214.37600613 C392.06046417 215.23663397 392.06050452 216.0972618 392.0605461 216.98396927 C392.06123514 232.8973169 392.05535079 248.8106562 392.04639288 264.72400113 C392.04337081 270.36163561 392.04231265 275.99926856 392.04186058 281.63690376 C392.04117991 288.50184907 392.03673574 295.36678034 392.02752777 302.23171968 C392.02289657 305.73759869 392.01986912 309.24345969 392.02112198 312.74934196 C392.02241136 316.54116592 392.01599545 320.33295337 392.00871277 324.12477112 C392.01103567 325.80508158 392.01103567 325.80508158 392.0134055 327.51933771 C392.01018106 328.52679669 392.00695661 329.53425566 392.00363445 330.57224369 C392.00293003 331.44869323 392.0022256 332.32514277 392.00149983 333.22815138 C391.875 335.203125 391.875 335.203125 390.875 336.203125 C389.31683768 336.30088554 387.75422546 336.32835488 386.19299936 336.32847416 C385.17184866 336.33097768 384.15069797 336.3334812 383.09860331 336.33606058 C381.96082656 336.33371942 380.82304981 336.33137825 379.65079498 336.32896614 C378.44950705 336.33041958 377.24821911 336.33187302 376.0105285 336.33337051 C372.64605237 336.33641225 369.28163131 336.33491836 365.91715889 336.33159255 C362.26827578 336.32907177 358.61939725 336.3323094 354.97051477 336.33483589 C348.56545213 336.3384606 342.1603979 336.33833005 335.75533485 336.33578873 C326.23108158 336.33202 316.70683546 336.33393279 307.18258224 336.33699703 C290.17633377 336.3422744 273.17008905 336.34180177 256.16384022 336.33891812 C241.28177788 336.33640691 226.39971692 336.33574383 211.51765442 336.33694077 C210.03943637 336.33705534 210.03943637 336.33705534 208.53135534 336.33717224 C204.53141836 336.33748355 200.53148138 336.33780195 196.5315444 336.338132 C158.97538417 336.34119402 121.41922633 336.33841275 83.86306647 336.3330351 C50.46453652 336.32828916 17.06601039 336.32871378 -16.33251953 336.33349609 C-53.81806385 336.33884563 -91.30360606 336.34097691 -128.78915071 336.33788383 C-132.78198528 336.33756309 -136.77481985 336.33725025 -140.76765442 336.33694077 C-142.24246352 336.33682215 -142.24246352 336.33682215 -143.74706675 336.33670114 C-158.6232231 336.33556156 -173.49937792 336.33689786 -188.37553406 336.33942032 C-205.28293546 336.34227284 -222.19033252 336.34157919 -239.09773338 336.33613957 C-248.57122255 336.33319258 -258.04470231 336.33302697 -267.51819125 336.33678575 C-273.83419464 336.3390163 -280.15019044 336.33765418 -286.46619269 336.33328098 C-290.07277326 336.33088613 -293.67933505 336.33012183 -297.28591508 336.33368696 C-301.15755193 336.33747537 -305.02915856 336.33365044 -308.90079498 336.32896614 C-310.6074601 336.33247789 -310.6074601 336.33247789 -312.34860331 336.33606058 C-313.36975401 336.33355707 -314.3909047 336.33105355 -315.44299936 336.32847416 C-316.32983743 336.3284064 -317.2166755 336.32833865 -318.13038746 336.32826883 C-320.125 336.203125 -320.125 336.203125 -321.125 335.203125 C-321.22639245 333.66308721 -321.25790775 332.11840344 -321.26201439 330.575037 C-321.26708893 329.56819473 -321.27216347 328.56135246 -321.27739179 327.52399981 C-321.27788955 326.40447495 -321.27838731 325.2849501 -321.27890015 324.13150024 C-321.2832824 322.95261588 -321.28766465 321.77373152 -321.2921797 320.5591234 C-321.30327333 317.27210779 -321.30980111 313.98513997 -321.31436086 310.69811249 C-321.32030464 307.15883413 -321.33191745 303.61957346 -321.34265137 300.08030701 C-321.36720248 291.52595355 -321.38180594 282.97159422 -321.39471143 274.41721636 C-321.39842122 272.00278359 -321.40239462 269.58835139 -321.4064641 267.1739192 C-321.43169707 252.19384107 -321.45375916 237.21376207 -321.46619225 222.23366737 C-321.46912214 218.76189801 -321.47208378 215.29012867 -321.47509766 211.81835938 C-321.47584371 210.95542414 -321.47658976 210.0924889 -321.47735842 209.20340411 C-321.49002005 195.21510232 -321.52325237 181.2269274 -321.56489949 167.23868497 C-321.60726849 152.8908705 -321.63088139 138.54312108 -321.63611281 124.19524419 C-321.63953254 116.13386676 -321.65135352 108.07268764 -321.68421555 100.01137161 C-321.71214816 93.14786767 -321.72324546 86.28460266 -321.71202008 79.42104627 C-321.70681592 75.91676563 -321.70983237 72.41298586 -321.73448563 68.90877724 C-321.76095274 65.11521738 -321.74897756 61.32234893 -321.73300171 57.52871704 C-321.75382484 55.85612192 -321.75382484 55.85612192 -321.77506864 54.149737 C-321.74641831 51.40702527 -321.69158271 48.88640696 -321.125 46.203125 C-318.74259377 44.04956627 -318.74259377 44.04956627 -316.125 43.203125 C-315.30346436 42.91646973 -314.48192871 42.62981445 -313.63549805 42.33447266 C-310.36507279 41.48106566 -307.09365952 40.63960145 -303.8125 39.828125 C-303.15816986 39.6651593 -302.50383972 39.5021936 -301.8296814 39.33428955 C-263.53731085 29.8669963 -224.38666164 22.17138063 -185.35174561 16.52813721 C-183.01735953 16.18741397 -180.68462836 15.83677031 -178.35205078 15.48388672 C-132.72279599 8.59608087 -86.85801929 3.87650897 -40.76594543 1.62069702 C-36.24699271 1.39496766 -31.75209933 1.08246847 -27.24511719 0.68188477 C-18.17240095 -0.02842921 -9.09497116 0.01975673 0 0 Z " fill="#592022" transform="translate(716.125,249.796875)"/>
<path d="M0 0 C0.91949684 0.00026688 1.83899368 0.00053375 2.78635406 0.00080872 C30.5677131 0.01092269 58.29520921 0.1746681 86.02722168 2.00390625 C89.00385644 2.20011341 91.98090912 2.38909551 94.95800781 2.578125 C180.13201536 8.06574585 264.62218683 20.09859761 347.8125 39.1875 C348.60817383 39.3698822 349.40384766 39.5522644 350.22363281 39.74017334 C354.76369402 40.78626189 359.29137918 41.87425647 363.8125 43 C364.8128125 43.24121582 365.813125 43.48243164 366.84375 43.73095703 C379.0328447 46.91304689 389.0762588 52.86060123 396.16796875 63.3359375 C402.59291047 74.47657278 402.96302651 86.29956166 402.94113445 98.80618954 C402.94288749 100.07323067 402.94464053 101.3402718 402.94644669 102.64570811 C402.9511663 106.16205809 402.94967838 109.6783821 402.94716892 113.19473334 C402.9455339 117.02066854 402.9496783 120.84659823 402.95307809 124.67253166 C402.95823042 131.37807682 402.95964958 138.08361475 402.95862198 144.78916168 C402.95709757 154.76097311 402.96125771 164.73277655 402.9664966 174.70458642 C402.97617161 193.55184801 402.97898092 212.39910689 402.97955366 231.24637067 C402.98001313 245.80314897 402.98207109 260.35992622 402.98525429 274.91670418 C402.98615183 279.10629036 402.98704165 283.29587654 402.98792917 287.48546273 C402.98815021 288.52700541 402.98837126 289.56854809 402.98859901 290.64165267 C402.99475412 319.94277251 402.99869949 349.24389197 402.99825573 378.54501247 C402.99824015 379.64993511 402.99822457 380.75485774 402.99820852 381.89326287 C402.99812541 387.49349976 402.99802637 393.09373665 402.99792381 398.69397353 C402.9978939 400.36231823 402.9978939 400.36231823 402.99786337 402.06436686 C402.99782294 404.31356859 402.99778114 406.56277031 402.99773798 408.81197204 C402.9971254 443.79612028 403.00462831 478.78025883 403.01831055 513.7644043 C403.03367597 553.06850653 403.04227646 592.37260238 403.04134732 631.6767078 C403.04127269 635.86912318 403.04122399 640.06153856 403.04119301 644.25395393 C403.04117553 645.80237148 403.04117553 645.80237148 403.04115769 647.38207019 C403.04112694 663.98509649 403.04750949 680.58811436 403.05612527 697.19113815 C403.06460828 713.88379121 403.06558666 730.57643197 403.05901595 747.269086 C403.05532441 757.18139248 403.05714082 767.09366155 403.06695829 777.00596406 C403.07296782 783.6346442 403.07165201 790.2632973 403.06448779 796.89197621 C403.06061446 800.66391232 403.0598069 804.43577614 403.06794515 808.2077071 C403.1632412 855.54538265 392.56276949 894.65208692 358.8125 929.1875 C358.26867676 929.7532373 357.72485352 930.31897461 357.16455078 930.90185547 C319.29779819 969.70860079 257.24075389 987.19661162 207.8125 1006.1875 C206.80775635 1006.57355408 205.8030127 1006.95960815 204.76782227 1007.35736084 C199.37685525 1009.42836797 193.98554852 1011.49849009 188.59423828 1013.56860352 C186.37531383 1014.42070523 184.1564011 1015.27283748 181.9375 1016.125 C180.83758728 1016.5473996 179.73767456 1016.96979919 178.60443115 1017.40499878 C108.66739685 1043.64415893 108.66739685 1043.64415893 41.05859375 1075.2265625 C40.08449303 1075.73778656 40.08449303 1075.73778656 39.0907135 1076.25933838 C35.96604295 1077.9026614 32.85159604 1079.5614406 29.75219727 1081.25195312 C16.50907113 1088.31697737 4.88585288 1091.08682763 -9.70410156 1087.33398438 C-15.70806089 1085.35791254 -21.15435692 1082.37406214 -26.70571899 1079.38299561 C-30.34574278 1077.42544476 -34.01186015 1075.51780477 -37.67578125 1073.60546875 C-38.40756088 1073.22251648 -39.13934052 1072.83956421 -39.89329529 1072.44500732 C-84.19404841 1049.33405663 -132.12807222 1032.55964864 -178.69555664 1014.67895508 C-313.53600276 962.90128665 -313.53600276 962.90128665 -344.1875 936.1875 C-345.16332031 935.34574219 -346.13914062 934.50398438 -347.14453125 933.63671875 C-373.79625726 910.22798403 -392.95432836 875.59157049 -395.41648638 839.86483069 C-395.75957213 831.31257996 -395.73373672 822.75650913 -395.70137022 814.199118 C-395.69110715 810.29543507 -395.7043084 806.39181349 -395.71434355 802.48813957 C-395.72871163 795.66481392 -395.72840091 788.84161514 -395.71815491 782.01828384 C-395.70296046 771.87176609 -395.71079307 761.72535441 -395.72298814 751.57883725 C-395.74400298 733.45416235 -395.74224515 715.329544 -395.73067249 697.20486378 C-395.72059765 681.34772538 -395.71798936 665.49060767 -395.72276306 649.63346672 C-395.7230686 648.58033189 -395.72337414 647.52719706 -395.72368894 646.44214905 C-395.72493435 642.16686763 -395.72620795 637.89158621 -395.727528 633.61630481 C-395.73975305 593.54481167 -395.72868639 553.47335449 -395.70714041 513.40186689 C-395.68814949 477.81159319 -395.68986588 442.22137673 -395.70898438 406.63110352 C-395.73040551 366.62084527 -395.73889562 326.61061875 -395.72653532 286.60035557 C-395.72525249 282.33517802 -395.72400112 278.07000048 -395.72276306 273.80482292 C-395.72244675 272.75466876 -395.72213044 271.7045146 -395.72180455 270.62253759 C-395.7172567 254.77167592 -395.72257175 238.9208372 -395.73268127 223.06997871 C-395.74411686 205.05041903 -395.74126159 187.0309246 -395.7195583 169.01137305 C-395.70781539 158.92927384 -395.70704327 148.84731594 -395.722143 138.7652204 C-395.73111871 132.02888123 -395.7255192 125.29265525 -395.70812392 118.55633283 C-395.69861961 114.71978617 -395.69533238 110.88352008 -395.70974785 107.04698236 C-395.7251397 102.90831983 -395.70943671 98.77034128 -395.69086456 94.63169193 C-395.70022923 93.44904883 -395.70959389 92.26640573 -395.71924233 91.04792497 C-395.60261477 78.04645596 -392.12173368 66.79516838 -383.1875 57.1875 C-371.14336099 46.49360079 -356.88271964 43.6452442 -341.625 40.125 C-340.61241119 39.88961517 -339.59982239 39.65423035 -338.55654907 39.41171265 C-249.82040814 18.8600547 -158.37947321 5.37529712 -67.34140015 1.2875061 C-65.81615285 1.2166885 -64.29112062 1.14116652 -62.76626587 1.06234741 C-41.8505971 -0.01538544 -20.93719137 -0.01361776 0 0 Z M-93.375 26.4375 C-94.3044342 26.49963684 -95.23386841 26.56177368 -96.19146729 26.62579346 C-127.44376182 28.732169 -158.60591855 32.01784143 -189.6875 35.875 C-190.93185822 36.02869049 -190.93185822 36.02869049 -192.20135498 36.18548584 C-199.84416188 37.13668373 -207.43979334 38.12568344 -214.97705078 39.73852539 C-218.91428703 40.53823573 -222.89452085 41.0296556 -226.875 41.5625 C-237.34439011 43.01642603 -247.74645181 44.76644979 -258.14794922 46.64160156 C-261.22350124 47.19396577 -264.30110279 47.73377576 -267.37890625 48.2734375 C-291.72774929 52.6017913 -315.85566045 58.06435185 -339.875 63.9375 C-340.99575928 64.20675293 -342.11651855 64.47600586 -343.27124023 64.75341797 C-352.43397236 67.0411094 -362.54810248 69.66505988 -368.30735296 77.76187984 C-371.80960166 83.98862691 -371.7456659 89.80470821 -371.68807125 96.82180691 C-371.69358542 98.09053641 -371.69909958 99.35926592 -371.70478085 100.66644177 C-371.71951529 104.18767183 -371.70937871 107.70845656 -371.69516886 111.22967255 C-371.68411644 115.06076059 -371.69627717 118.89178672 -371.70547634 122.72286993 C-371.71838674 129.43746952 -371.71641287 136.15193718 -371.70469666 142.86653709 C-371.68732135 152.85177943 -371.69281086 162.83691791 -371.70286357 172.8221656 C-371.72006627 190.65753714 -371.71450724 208.49284726 -371.69950638 226.32821754 C-371.68645887 241.94177909 -371.68125779 257.55531933 -371.68382454 273.16888618 C-371.68398495 274.20424289 -371.68414537 275.23959959 -371.68431065 276.30633073 C-371.68497423 280.50919269 -371.68567664 284.71205463 -371.68643599 288.91491657 C-371.69346303 328.35787606 -371.67796047 367.80079803 -371.65181253 407.24374796 C-371.62871222 442.2748965 -371.6233033 477.30600377 -371.63354492 512.3371582 C-371.636147 521.30255348 -371.63873204 530.26794875 -371.64114285 539.23334408 C-371.64144029 540.33713661 -371.64173774 541.44092915 -371.6420442 542.57816995 C-371.64966407 571.8546732 -371.64324209 601.1311731 -371.63244683 630.40767485 C-371.63129903 633.55919795 -371.63015585 636.71072105 -371.62902 639.86224415 C-371.62826475 641.95285595 -371.6274991 644.04346775 -371.62672299 646.13407955 C-371.6210691 661.73034489 -371.62239175 677.32659954 -371.62695122 692.92286491 C-371.63206488 710.66701183 -371.62618072 728.41111881 -371.60605692 746.15525579 C-371.59508908 756.08090458 -371.59226013 766.00647484 -371.60134545 775.93212598 C-371.60658005 782.56970957 -371.60082782 789.2072262 -371.58629211 795.84479576 C-371.5783182 799.62183436 -371.57491413 803.39871473 -371.58486467 807.17575227 C-371.75340753 834.29517232 -371.75340753 834.29517232 -364.5625 860.25 C-364.04308838 861.49632202 -364.04308838 861.49632202 -363.51318359 862.76782227 C-357.8035624 876.12220473 -350.56326983 888.10289787 -341.1875 899.1875 C-340.75179687 899.70296387 -340.31609375 900.21842773 -339.8671875 900.74951172 C-325.38767395 917.64756974 -307.4073985 929.67992935 -287.40185547 939.12890625 C-285.06680329 940.24520021 -282.75417239 941.40078156 -280.44140625 942.5625 C-253.64603363 955.88293337 -225.50897432 966.41022236 -197.54052734 976.96655273 C-181.73183358 982.93942235 -166.02226114 989.15146367 -150.31884766 995.39501953 C-139.27717446 999.78390263 -128.21980319 1004.12241019 -117.125 1008.375 C-91.02315242 1018.42260271 -65.09403542 1028.90167751 -39.83691406 1040.93261719 C-37.38711326 1042.0929541 -34.92783776 1043.22813844 -32.4609375 1044.3515625 C-31.03599704 1045.00420212 -29.61149686 1045.6578041 -28.1875 1046.3125 C-27.19447876 1046.76882813 -27.19447876 1046.76882813 -26.18139648 1047.234375 C-21.69792952 1049.34554629 -17.47298971 1051.76413749 -13.22021484 1054.3046875 C-3.85472455 1059.96646713 -3.85472455 1059.96646713 6.8203125 1061.015625 C12.72875894 1059.38038917 17.89966743 1056.51115903 23.24121094 1053.57861328 C42.88909792 1042.9487557 63.19738725 1033.75800203 83.8125 1025.1875 C84.49082886 1024.90537659 85.16915771 1024.62325317 85.86804199 1024.33258057 C116.47634694 1011.62438812 147.43536857 999.79177388 178.36630249 987.8974762 C232.57811763 967.22012547 232.57811763 967.22012547 285.8125 944.1875 C287.72262041 943.32023355 289.63277618 942.45304499 291.54296875 941.5859375 C326.61895486 925.48431891 357.05021295 900.99534917 370.85546875 863.86328125 C375.65701018 850.2090486 378.12061722 837.49892613 378.06976891 822.97339249 C378.07502802 821.04920037 378.07502802 821.04920037 378.08039337 819.08613569 C378.0897858 815.5442887 378.08687223 812.00254545 378.08183783 808.4606936 C378.07855571 804.60031873 378.08686651 800.73996532 378.09365618 796.87959743 C378.10394099 790.12006279 378.10680262 783.36055678 378.10474396 776.60101509 C378.10169017 766.54946637 378.11002611 756.49794927 378.12049321 746.4464067 C378.13982157 727.45124883 378.14546092 708.45610176 378.14660732 689.46093521 C378.14752659 674.79643164 378.1516442 660.13193231 378.15800858 645.46743011 C378.15980365 641.24561525 378.16158328 637.02380038 378.16335833 632.8019855 C378.16380043 631.75243842 378.16424252 630.70289133 378.16469802 629.62153979 C378.17700324 600.10749202 378.18489942 570.59344573 378.18401146 541.07939529 C378.1839803 539.96699546 378.18394914 538.85459562 378.18391704 537.7084867 C378.18375083 532.07039871 378.18355275 526.43231073 378.18334763 520.79422274 C378.18330774 519.67447683 378.18326785 518.55473092 378.18322675 517.40105331 C378.18314587 515.13665839 378.18306228 512.87226347 378.18297596 510.60786855 C378.18174966 475.35461073 378.19677958 440.10139135 378.22412109 404.84814453 C378.25482484 365.24341855 378.27205476 325.63871782 378.27019465 286.03397918 C378.27004538 281.81342173 378.26994797 277.59286428 378.26988602 273.37230682 C378.26986271 272.3330919 378.2698394 271.29387698 378.26981538 270.22317069 C378.26975379 253.48468005 378.28253622 236.74622273 378.29975055 220.00774201 C378.31668216 203.19697959 378.31870014 186.38626607 378.3055319 169.57549986 C378.29812736 159.58347714 378.30184562 149.59160271 378.32141658 139.59959562 C378.33337985 132.92940713 378.3308664 126.25932651 378.31647559 119.58914305 C378.30868181 115.78612724 378.3072487 111.98339924 378.32339029 108.18040326 C378.34061651 104.0861223 378.326997 99.99252572 378.31027794 95.89824295 C378.3202143 94.71461711 378.33015066 93.53099127 378.34038812 92.31149799 C378.27783613 85.10761735 377.59305141 78.91873943 372.25952806 73.6547844 C367.52037542 69.72067265 361.72318286 68.34467731 355.875 66.8125 C354.78654785 66.51923828 353.6980957 66.22597656 352.57666016 65.92382812 C329.30857603 59.7835938 305.73769868 55.33534261 282.05099487 51.18067932 C281.25557281 51.04113327 280.46015076 50.90158722 279.640625 50.7578125 C278.47250778 50.55290443 278.47250778 50.55290443 277.28079224 50.34385681 C271.27097194 49.28325998 265.28761454 48.1167222 259.3125 46.875 C252.79608323 45.52918845 246.299843 44.49237551 239.69140625 43.6796875 C235.19846773 43.10958654 230.7266 42.43483517 226.25 41.75 C216.48884837 40.27027811 206.71532033 38.90562994 196.92871094 37.60546875 C193.63080718 37.16313005 190.33504646 36.70640983 187.0390625 36.25 C149.24238713 31.09729584 111.23438889 28.46341583 73.18359375 26.01953125 C72.10054962 25.94990677 71.01750549 25.88028229 69.90164185 25.80854797 C66.53892924 25.59571947 63.17577251 25.39128164 59.8125 25.1875 C59.13321379 25.14423584 58.45392757 25.10097168 57.75405693 25.05639648 C46.73482455 24.35662972 35.77075344 24.03748268 24.73046875 24.0546875 C23.14089442 24.05400913 21.5513202 24.05303476 19.96174622 24.05178833 C16.64660647 24.05032817 13.33149395 24.05240545 10.01635742 24.05712891 C5.89154672 24.06273721 1.76680181 24.05949075 -2.35800648 24.05369568 C-32.70903081 24.01745547 -63.08580886 24.35018538 -93.375 26.4375 Z " fill="#592123" transform="translate(748.1875,208.8125)"/>
<path d="M0 0 C2.63912546 0.42428928 5.28426365 0.79568383 7.93066406 1.171875 C21.11545687 3.12482708 33.62055668 6.07721702 46.23535156 10.359375 C46.99557617 10.61025879 47.75580078 10.86114258 48.5390625 11.11962891 C75.34860005 20.03893376 100.37331179 33.45947869 122.23535156 51.359375 C122.76290039 51.79072754 123.29044922 52.22208008 123.83398438 52.66650391 C164.41557458 86.00572873 195.93446815 129.90913963 209.23535156 181.359375 C209.42935547 182.08946777 209.62335938 182.81956055 209.82324219 183.57177734 C216.01765776 207.10026369 217.23535156 228.49490885 217.23535156 253.359375 C163.11535156 253.359375 108.99535156 253.359375 53.23535156 253.359375 C52.90535156 233.559375 52.57535156 213.759375 52.23535156 193.359375 C49.92535156 193.029375 47.61535156 192.699375 45.23535156 192.359375 C44.23535156 191.359375 44.23535156 191.359375 44.11230373 189.19045162 C44.11322553 188.22533437 44.11414732 187.26021711 44.11509705 186.26585388 C44.11303505 184.61041061 44.11303505 184.61041061 44.1109314 182.92152405 C44.11452667 181.70017258 44.11812195 180.47882111 44.12182617 179.22045898 C44.12168015 177.94259521 44.12153412 176.66473145 44.12138367 175.34814453 C44.12109571 171.83383909 44.12699216 168.3195675 44.13395762 164.80526996 C44.14019144 161.13638144 44.14079498 157.46749223 44.14198303 153.79859924 C44.14509627 146.84647065 44.15330955 139.8943577 44.16333252 132.94223601 C44.17449391 125.0294272 44.18000417 117.11661766 44.18502796 109.20380294 C44.19549217 92.92231779 44.21309145 76.64084839 44.23535156 60.359375 C43.43097656 60.38 42.62660156 60.400625 41.79785156 60.421875 C39.23535156 60.359375 39.23535156 60.359375 38.23535156 59.359375 C38.14849553 57.79764755 38.12832937 56.23208156 38.13769531 54.66796875 C38.14019287 53.81775146 38.14269043 52.96753418 38.14526367 52.09155273 C38.15891968 50.46068726 38.15891968 50.46068726 38.17285156 48.796875 C38.19347656 45.3525 38.21410156 41.908125 38.23535156 38.359375 C29.65535156 38.689375 21.07535156 39.019375 12.23535156 39.359375 C11.90535156 44.969375 11.57535156 50.579375 11.23535156 56.359375 C0.53526623 51.98206736 -4.04937268 47.88421331 -8.82714844 37.421875 C-13.2412768 27.68150585 -13.2412768 27.68150585 -20.52636719 20.0078125 C-24.18074677 18.94912662 -27.79212463 18.99052451 -31.57714844 18.984375 C-32.35896484 18.95988281 -33.14078125 18.93539063 -33.94628906 18.91015625 C-39.2443339 18.88359963 -43.8435906 19.49493679 -47.76464844 23.359375 C-50.10272734 26.96578469 -51.89896944 30.77593765 -53.70214844 34.671875 C-58.33749299 44.65520891 -63.20002247 52.08321687 -73.76464844 56.359375 C-74.42464844 56.359375 -75.08464844 56.359375 -75.76464844 56.359375 C-76.09464844 50.749375 -76.42464844 45.139375 -76.76464844 39.359375 C-85.01464844 39.359375 -93.26464844 39.359375 -101.76464844 39.359375 C-102.0538853 45.89614045 -102.0538853 45.89614045 -102.33276367 52.43334961 C-102.37087158 53.24296143 -102.40897949 54.05257324 -102.44824219 54.88671875 C-102.50322876 56.13569946 -102.50322876 56.13569946 -102.55932617 57.40991211 C-102.76464844 59.359375 -102.76464844 59.359375 -103.76464844 60.359375 C-105.43081959 60.40001332 -107.09852939 60.402096 -108.76464844 60.359375 C-108.76326575 61.37070071 -108.76326575 61.37070071 -108.76185513 62.40245724 C-108.73980026 78.78443591 -108.72323706 95.16640989 -108.71283627 111.54839993 C-108.70767323 119.47050445 -108.70063039 127.39259909 -108.68920898 135.31469727 C-108.67926237 142.21712137 -108.67279507 149.11953831 -108.67055994 156.02196938 C-108.6692528 159.67898161 -108.6661667 163.33597336 -108.65891838 166.99297905 C-108.65090496 171.06881506 -108.65065728 175.14461513 -108.65112305 179.22045898 C-108.64752777 180.44181046 -108.6439325 181.66316193 -108.64022827 182.92152405 C-108.64160294 184.02515289 -108.6429776 185.12878174 -108.64439392 186.26585388 C-108.64301123 187.71352976 -108.64301123 187.71352976 -108.64160061 189.19045162 C-108.76464844 191.359375 -108.76464844 191.359375 -109.76464844 192.359375 C-112.09762277 192.40030437 -114.43170068 192.40179223 -116.76464844 192.359375 C-116.76242783 193.10883896 -116.76020721 193.85830292 -116.75791931 194.63047791 C-116.73791664 201.67919791 -116.72267443 208.72790815 -116.71283627 215.77664852 C-116.70760842 219.4008346 -116.70051257 223.0249973 -116.68920898 226.64916992 C-116.6783766 230.14397475 -116.67237086 233.63875704 -116.66977119 237.13357735 C-116.66701293 239.12176889 -116.65920156 241.10995131 -116.65135193 243.09812927 C-116.6512764 244.29929886 -116.65120087 245.50046844 -116.65112305 246.73803711 C-116.64890244 247.80171005 -116.64668182 248.865383 -116.64439392 249.96128845 C-116.76464844 252.359375 -116.76464844 252.359375 -117.76464844 253.359375 C-119.86328328 253.45843948 -121.96531261 253.48569843 -124.06628418 253.48635864 C-124.73205207 253.48791863 -125.39781997 253.48947862 -126.08376265 253.49108589 C-128.3309289 253.49509776 -130.57802847 253.49190554 -132.82519531 253.48876953 C-134.42961161 253.49012349 -136.0340276 253.49190339 -137.63844299 253.49407959 C-142.00815397 253.49865457 -146.37784146 253.4968641 -150.74755287 253.4937005 C-155.31017752 253.49117724 -159.87280008 253.49351435 -164.4354248 253.49508667 C-172.09904341 253.49690846 -179.76265239 253.4945018 -187.42626953 253.48974609 C-196.29958794 253.48430345 -205.17288338 253.4860661 -214.04620123 253.4915725 C-221.65042236 253.49610335 -229.25463655 253.49675432 -236.85885859 253.49413383 C-241.40675896 253.4925709 -245.95464853 253.49237772 -250.50254822 253.49567032 C-254.77717609 253.49854863 -259.05177421 253.49657408 -263.32639885 253.49077606 C-264.89983508 253.48944825 -266.4732738 253.48984294 -268.04670906 253.49203873 C-270.18551132 253.49474941 -272.3242167 253.49137015 -274.4630127 253.48635864 C-275.66281013 253.48598162 -276.86260757 253.48560459 -278.09876251 253.48521614 C-280.76464844 253.359375 -280.76464844 253.359375 -281.76464844 252.359375 C-283.32551856 234.89915889 -280.95703773 217.48600582 -277.76464844 200.359375 C-277.58272949 199.38339355 -277.40081055 198.40741211 -277.21337891 197.40185547 C-269.38433189 156.88531279 -250.43305832 118.77619741 -223.76464844 87.359375 C-223.15234375 86.63621094 -222.54003906 85.91304688 -221.90917969 85.16796875 C-210.07655481 71.6416993 -197.30560184 58.94306051 -182.76464844 48.359375 C-181.61470013 47.50288434 -180.46496255 46.64611067 -179.31542969 45.7890625 C-171.12567059 39.74984752 -162.61398263 34.37590458 -153.76464844 29.359375 C-153.10625977 28.98425781 -152.44787109 28.60914063 -151.76953125 28.22265625 C-106.95698594 2.93603945 -51.06697725 -8.28513006 0 0 Z " fill="#E8B329" transform="translate(783.7646484375,309.640625)"/>
<path d="M0 0 C0.87493103 -0.00563965 1.74986206 -0.0112793 2.65130615 -0.01708984 C4.0945224 -0.01101715 4.0945224 -0.01101715 5.56689453 -0.00482178 C7.08407074 -0.01007874 7.08407074 -0.01007874 8.63189697 -0.01544189 C11.9879027 -0.02427165 15.34369902 -0.01840562 18.69970703 -0.01165771 C21.02376343 -0.01300401 23.34781956 -0.01494423 25.671875 -0.01745605 C30.54771602 -0.02040901 35.42348387 -0.01610415 40.29931641 -0.0067749 C46.56104354 0.00461967 52.82259923 -0.00193888 59.08432007 -0.01391983 C63.88486023 -0.02113379 68.68535951 -0.01885263 73.48590088 -0.01366425 C75.79526795 -0.01232646 78.10463868 -0.01397993 80.41400146 -0.01862335 C83.63694142 -0.02368094 86.85960058 -0.01598907 90.08251953 -0.00482178 C91.0446637 -0.00887024 92.00680786 -0.0129187 92.99810791 -0.01708984 C94.31050446 -0.00863037 94.31050446 -0.00863037 95.64941406 0 C96.4119046 0.00075405 97.17439514 0.0015081 97.95999146 0.002285 C99.82470703 0.25396729 99.82470703 0.25396729 101.82470703 2.25396729 C102.02066369 4.65759127 102.09070009 6.94581874 102.073596 9.35050201 C102.07620329 10.09340656 102.07881057 10.8363111 102.08149686 11.6017279 C102.08784509 14.11695458 102.07980413 16.63193614 102.07194519 19.14715576 C102.0735319 20.95824479 102.07599411 22.76933324 102.0792616 24.58042002 C102.08570331 29.57735955 102.07958525 34.57421864 102.07149732 39.57115293 C102.06494172 44.95225877 102.06986412 50.3333553 102.07337952 55.71446228 C102.07843134 66.26402798 102.07276758 76.81356243 102.06352922 87.36312425 C102.05316625 99.63619447 102.05321485 111.90925785 102.0537018 124.18233162 C102.05420289 146.07356705 102.04502804 167.9647879 102.03051758 189.85601807 C102.01642921 211.12132025 102.00934677 232.38660959 102.01000977 253.6519165 C102.0100697 255.61636871 102.0100697 255.61636871 102.01013085 257.62050682 C102.0101712 258.92782767 102.01021155 260.23514851 102.01025313 261.58208513 C102.01094225 285.75761001 102.00505704 309.9331294 101.99609992 334.1086525 C101.99307809 342.67331103 101.99201971 351.23796856 101.99156761 359.80262756 C101.99088681 370.23326585 101.98644088 380.66389491 101.9772348 391.09452927 C101.97260465 396.42124507 101.96957577 401.74794903 101.97082901 407.07466698 C101.97191907 411.94378184 101.96843631 416.81287045 101.96118049 421.68197984 C101.95935796 423.45044907 101.95924572 425.21892099 101.96094777 426.98739034 C101.96299461 429.37743615 101.95898127 431.76739441 101.95334148 434.15743256 C101.9553968 434.85591448 101.95745212 435.55439641 101.95956972 436.27404445 C101.93886197 441.02565741 101.93886197 441.02565741 100.82470703 443.25396729 C94.4201474 444.07617427 89.46691822 441.13263428 83.82470703 438.50396729 C74.60985578 434.33550465 65.34966003 430.36187703 55.94970703 426.62896729 C54.74789795 426.1504834 53.54608887 425.67199951 52.30786133 425.17901611 C45.35854271 422.41920776 38.39575504 419.69429657 31.42919922 416.97833252 C27.47737862 415.43642029 23.52779641 413.88881722 19.57830811 412.34094238 C16.67273142 411.20535134 13.76370485 410.07893474 10.85449219 408.95269775 C9.05923615 408.25017337 7.2641437 407.54723074 5.46923828 406.84381104 C4.63937912 406.52553848 3.80951996 406.20726593 2.95451355 405.87934875 C2.1895607 405.57750168 1.42460785 405.2756546 0.63647461 404.96466064 C-0.03026779 404.70551376 -0.69701019 404.44636688 -1.38395691 404.17936707 C-3.55935186 403.05556341 -4.67937317 402.21823413 -6.17529297 400.25396729 C-6.55018979 397.33168548 -6.55018979 397.33168548 -6.55002308 393.67469692 C-6.5540838 392.99986186 -6.55814453 392.32502679 -6.56232831 391.62974218 C-6.5723318 389.35196874 -6.56081464 387.07480317 -6.54951477 384.79704285 C-6.55225338 383.1542059 -6.55630374 381.5113707 -6.56155843 379.86853987 C-6.57218323 375.34128452 -6.56399184 370.8142255 -6.55280793 366.2869786 C-6.5439916 361.409638 -6.55240195 356.53232381 -6.55867004 351.65498352 C-6.5681749 342.09548398 -6.56154358 332.53605974 -6.5494071 322.97656577 C-6.5358105 311.85420381 -6.53742287 300.73185993 -6.53954043 289.60949177 C-6.54273275 269.77083465 -6.53104843 249.93221339 -6.51147461 230.09356689 C-6.49246685 210.82369901 -6.48538743 191.55387317 -6.4909668 172.28399658 C-6.49701837 151.32107418 -6.49685913 130.35817029 -6.48548096 109.39524943 C-6.48427362 107.16194793 -6.48306763 104.92864643 -6.48186302 102.69534492 C-6.48125948 101.59639543 -6.48065594 100.49744593 -6.48003412 99.36519493 C-6.47614754 91.6040308 -6.47655144 83.84287354 -6.47844887 76.08170891 C-6.48056636 66.63007468 -6.47538065 57.17847735 -6.46083532 47.72685354 C-6.45356914 42.90035842 -6.44953315 38.07391716 -6.45407867 33.24741745 C-6.45813296 28.83536465 -6.45305324 24.42342345 -6.4404526 20.01138765 C-6.43750672 18.40916693 -6.43798351 16.80693579 -6.44209567 15.20471763 C-6.4471529 13.03880805 -6.44008196 10.87327912 -6.42976856 8.70739651 C-6.42890179 7.50075263 -6.42803501 6.29410876 -6.42714196 5.05089992 C-6.01530099 0.47716132 -4.15211017 0.00410615 0 0 Z " fill="#592123" transform="translate(603.17529296875,783.7460327148438)"/>
<path d="M0 0 C1.32512352 -0.00422974 1.32512352 -0.00422974 2.67701721 -0.00854492 C4.14200905 -0.00550858 4.14200905 -0.00550858 5.63659668 -0.00241089 C7.17059364 -0.00503937 7.17059364 -0.00503937 8.73558044 -0.00772095 C12.13424347 -0.01214163 15.53285495 -0.00920071 18.93151855 -0.00582886 C21.28181976 -0.00650183 23.63212091 -0.00747181 25.98242188 -0.00872803 C30.91549337 -0.01020529 35.84854681 -0.00804952 40.78161621 -0.00338745 C47.12077523 0.00230985 53.45989191 -0.000969 59.79904938 -0.00695992 C64.65444256 -0.01056475 69.50982563 -0.0094273 74.36521912 -0.00683212 C76.70332341 -0.00616264 79.04142862 -0.00699202 81.37953186 -0.00931168 C84.64102632 -0.01183693 87.90245118 -0.0079994 91.16394043 -0.00241089 C92.14060165 -0.00443512 93.11726288 -0.00645935 94.1235199 -0.00854492 C95.00693558 -0.0057251 95.89035126 -0.00290527 96.80053711 0 C97.95866535 0.00056554 97.95866535 0.00056554 99.14019012 0.0011425 C100.90026855 0.12698364 100.90026855 0.12698364 101.90026855 1.12698364 C102.00278343 3.24553527 102.03320796 5.36757321 102.03728294 7.48859978 C102.04126068 8.50200657 102.04126068 8.50200657 102.04531878 9.53588623 C102.05305456 11.82813703 102.05357257 14.12033464 102.0541687 16.41259766 C102.0581805 18.06124384 102.06261825 19.70988903 102.06744826 21.35853302 C102.07945094 25.91111065 102.08507072 30.46367765 102.08962941 35.01626801 C102.09557148 39.91751955 102.10718469 44.81875829 102.11791992 49.72000122 C102.14247474 61.56693355 102.15707492 73.41387013 102.16997999 85.26082009 C102.17368946 88.60421713 102.17766288 91.94761376 102.18173265 95.29101038 C102.20696499 116.03208599 102.22902838 136.77316222 102.2414608 157.5142498 C102.24439072 162.32152178 102.24735236 167.12879374 102.25036621 171.93606567 C102.25111226 173.13095915 102.25185831 174.32585263 102.25262697 175.55695499 C102.26529003 194.9286228 102.29852412 214.30019901 102.34016804 233.67182396 C102.38252809 253.53861875 102.40614891 273.40536657 102.41138136 293.27220643 C102.41480207 304.43552997 102.4266347 315.59871036 102.4594841 326.76198959 C102.48740432 336.26600768 102.49851938 345.76985327 102.48728864 355.2739092 C102.48208145 360.12696421 102.48512147 364.97965757 102.50975418 369.83266068 C102.53209156 374.27029682 102.53162903 378.70730828 102.51255031 383.14495422 C102.50972834 384.75533892 102.51546936 386.36576461 102.53036325 387.97608291 C102.54930249 390.15605769 102.53779889 392.3337663 102.51830101 394.51368523 C102.5203358 396.33382096 102.5203358 396.33382096 102.5224117 398.19072711 C101.90026855 401.12698364 101.90026855 401.12698364 99.49950373 402.97941411 C98.21288232 403.54746103 98.21288232 403.54746103 96.90026855 404.12698364 C96.17235611 404.44853928 95.44444366 404.77009491 94.69447327 405.10139465 C93.94971237 405.3840065 93.20495148 405.66661835 92.43762207 405.95779419 C91.14864014 406.45143463 91.14864014 406.45143463 89.83361816 406.95504761 C88.90815186 407.30440369 87.98268555 407.65375977 87.0291748 408.01370239 C85.0070506 408.78752623 82.98499964 409.56154148 80.9630127 410.33572388 C79.90212433 410.7400766 78.84123596 411.14442932 77.74819946 411.56103516 C57.48369962 419.29229092 37.4097055 427.3811746 17.4666748 435.90432739 C14.94519102 436.98009029 12.42290023 438.05391107 9.90026855 439.12698364 C8.8765918 439.56413696 7.85291504 440.00129028 6.79821777 440.45169067 C5.91279297 440.82020142 5.02736816 441.18871216 4.1151123 441.56838989 C3.38284424 441.87591187 2.65057617 442.18343384 1.89611816 442.50027466 C-0.09973145 443.12698364 -0.09973145 443.12698364 -4.09973145 443.12698364 C-5.56842781 440.18959091 -5.23633486 437.23162891 -5.22557259 434.01203823 C-5.22702603 433.26714572 -5.22847947 432.5222532 -5.22997695 431.75478819 C-5.23365641 429.23287284 -5.23014157 426.71101719 -5.22671509 424.18910217 C-5.22786614 422.37317628 -5.22945355 420.55725061 -5.23144233 418.74132544 C-5.23563785 413.73107601 -5.23354397 408.72084549 -5.23045611 403.71059597 C-5.22820315 398.31519557 -5.2316811 392.91979854 -5.23443604 387.5243988 C-5.23889375 376.94710407 -5.23791728 366.36981642 -5.23502339 355.79252141 C-5.23276949 347.20037524 -5.23245678 338.60823105 -5.23354721 330.01608467 C-5.23370044 328.79548543 -5.23385368 327.57488619 -5.23401155 326.31729909 C-5.23433126 323.83806788 -5.23465548 321.35883668 -5.23498414 318.87960548 C-5.23783891 295.60623244 -5.2345519 272.33286333 -5.22918378 249.05949093 C-5.22471518 229.06660503 -5.22549214 209.07372696 -5.23010254 189.08084106 C-5.2354474 165.89197032 -5.23756481 142.70310302 -5.23449028 119.51423174 C-5.23417171 117.04417678 -5.23385734 114.57412181 -5.23354721 112.10406685 C-5.23339294 110.88858902 -5.23323866 109.67311119 -5.23307971 108.4208007 C-5.23221433 99.83312937 -5.23367787 91.24546022 -5.23602676 82.65778923 C-5.23882396 72.20077352 -5.23808819 61.74376533 -5.23274602 51.28675049 C-5.230108 45.94598075 -5.22910565 40.60522355 -5.23239517 35.26445389 C-5.23535604 30.38367375 -5.23376886 25.5029179 -5.22841762 20.62214 C-5.22729254 18.84830432 -5.2278866 17.07446663 -5.23029341 15.30063223 C-5.23329577 12.90575417 -5.23025462 10.51096137 -5.22557259 8.11608791 C-5.22791375 7.41337463 -5.23025492 6.71066134 -5.23266703 5.98665372 C-5.21220579 0.81773853 -5.17847015 0.00252876 0 0 Z " fill="#592022" transform="translate(804.0997314453125,783.8730163574219)"/>
<path d="M0 0 C0.76249054 0.00054477 1.52498108 0.00108953 2.31057739 0.00165081 C3.18550842 -0.00254368 4.06043945 -0.00673817 4.96188354 -0.01105976 C5.92402771 -0.00544025 6.88617188 0.00017925 7.87747192 0.00596905 C9.39464813 0.00312153 9.39464813 0.00312153 10.94247437 0.00021648 C14.29848896 -0.00349965 17.65428894 0.00722487 21.01028442 0.01842022 C23.33434015 0.01961166 25.65839637 0.02006526 27.98245239 0.01980877 C32.85829676 0.02137509 37.73406786 0.02967606 42.6098938 0.04307842 C48.87158178 0.06006844 55.13318914 0.06389284 61.39489746 0.06313324 C66.19543228 0.06340469 70.99594934 0.06888192 75.79647827 0.07613468 C78.10584377 0.07932526 80.41521128 0.08128966 82.72457886 0.08202839 C85.94745334 0.08418782 89.17024098 0.09292352 92.39309692 0.1036253 C93.35524109 0.10317211 94.31738525 0.10271893 95.3086853 0.10225201 C96.18361633 0.10651699 97.05854736 0.11078197 97.95999146 0.1151762 C98.72248199 0.11685205 99.48497253 0.11852789 100.27056885 0.12025452 C102.13528442 0.24888897 102.13528442 0.24888897 104.13528442 1.24888897 C104.18101897 47.07671255 104.21628179 92.90453373 104.23741508 138.73237561 C104.23991663 144.13745693 104.24250526 149.54253819 104.24514771 154.94761944 C104.24567233 156.02371614 104.24619695 157.09981283 104.24673747 158.20851852 C104.25545035 175.65386274 104.27122516 193.09919383 104.28959002 210.54453026 C104.30826453 228.43263539 104.31939595 246.32073363 104.32346141 264.20884812 C104.32621157 275.25505316 104.33491111 286.30122112 104.35111736 297.34741475 C104.36165405 304.91261768 104.36489261 312.47780131 104.36228718 320.04301105 C104.36100069 324.41380941 104.3630323 328.78454278 104.37369537 333.1553297 C104.38337299 337.15114897 104.38395541 341.14685905 104.37708221 345.14268316 C104.37623178 346.59358617 104.37881524 348.04449578 104.38505079 349.49538563 C104.39299618 351.45708801 104.38758969 353.41883125 104.38138008 355.38053989 C104.38251924 357.01979256 104.38251924 357.01979256 104.38368142 358.69216144 C104.13528442 361.24888897 104.13528442 361.24888897 102.13528442 363.24888897 C97.21785316 362.93080575 93.10015026 361.08922674 88.70950317 359.00279522 C88.00876678 358.67609844 87.3080304 358.34940166 86.58605957 358.01280499 C84.32710407 356.95498679 82.0744546 355.88461941 79.82278442 354.81138897 C79.05650726 354.44818554 78.2902301 354.08498211 77.50073242 353.71077251 C61.89068894 346.29897587 47.15992114 338.81262646 34.13528442 327.24888897 C33.30899536 326.56568584 32.4827063 325.88248272 31.63137817 325.17857647 C17.30468035 313.02666689 6.74024664 296.7899769 0.69778442 279.06138897 C0.34526611 278.0303001 0.34526611 278.0303001 -0.01437378 276.97838116 C-4.62736146 262.382266 -4.15099412 247.52713923 -4.12350464 232.39659405 C-4.12621787 229.88563721 -4.12978066 227.37468116 -4.13412476 224.86372662 C-4.14226591 218.78010082 -4.14111943 212.6965398 -4.13529947 206.61291323 C-4.13076844 201.67092141 -4.13017627 196.72894342 -4.13234711 191.78695011 C-4.13265357 191.08157181 -4.13296004 190.37619351 -4.13327579 189.64944011 C-4.13391527 188.21627651 -4.1345637 186.78311291 -4.13522097 185.34994932 C-4.14090892 171.94769654 -4.13438817 158.54547123 -4.12362024 145.14322295 C-4.11466467 133.63993844 -4.1162562 122.13669425 -4.12545776 110.63341045 C-4.13615068 97.25951861 -4.14038226 83.88565069 -4.13423324 70.51175517 C-4.13359615 69.08745492 -4.13296741 67.66315467 -4.13234711 66.23885441 C-4.13203856 65.53812255 -4.13173 64.8373907 -4.1314121 64.11542455 C-4.12968382 59.17293086 -4.13260269 54.23045234 -4.13730621 49.28796101 C-4.1434863 42.64850413 -4.13911468 36.00911201 -4.1275177 29.36965847 C-4.124863 26.92746451 -4.12564991 24.48526415 -4.13004303 22.0430727 C-4.13546735 18.72286183 -4.12870271 15.40290027 -4.11868286 12.0827055 C-4.1231443 11.10520692 -4.12760575 10.12770835 -4.13220239 9.1205886 C-4.12698689 8.23635772 -4.1217714 7.35212683 -4.11639786 6.44110107 C-4.11607315 5.67427799 -4.11574845 4.9074549 -4.1154139 4.11739475 C-3.75190152 1.40806278 -2.71083359 0.36182278 0 0 Z " fill="#592022" transform="translate(398.8647155761719,783.7511110305786)"/>
<path d="M0 0 C0.87355637 -0.00281982 1.74711273 -0.00563965 2.6471405 -0.00854492 C3.61287994 -0.00652069 4.57861938 -0.00449646 5.57362366 -0.00241089 C6.58492844 -0.00416321 7.59623322 -0.00591553 8.63818359 -0.00772095 C11.99957467 -0.01214199 15.36091363 -0.00920037 18.7223053 -0.00582886 C21.04779063 -0.00650188 23.3732759 -0.00747188 25.69876099 -0.00872803 C30.58055794 -0.01020539 35.46233663 -0.00804942 40.34413147 -0.00338745 C46.61368992 0.00230669 52.88320554 -0.00096695 59.15276241 -0.00695992 C63.95758387 -0.0105672 68.76239511 -0.00942611 73.56721687 -0.00683212 C75.87937487 -0.00616315 78.19153379 -0.00699023 80.50369072 -0.00931168 C83.73145389 -0.01184057 86.95914698 -0.00799405 90.18690491 -0.00241089 C91.15062012 -0.00443512 92.11433533 -0.00645935 93.10725403 -0.00854492 C94.42181831 -0.00431519 94.42181831 -0.00431519 95.76293945 0 C96.90862349 0.00056554 96.90862349 0.00056554 98.07745266 0.0011425 C99.94496155 0.12698364 99.94496155 0.12698364 101.94496155 1.12698364 C102.01369105 34.29996177 102.06652248 67.47292137 102.09815754 100.6459545 C102.10190947 104.56606329 102.10579245 108.48617194 102.10975647 112.40628052 C102.1105434 113.18667386 102.11133033 113.96706721 102.11214111 114.77110884 C102.12518011 127.39215007 102.14882562 140.01315014 102.17641994 152.63416699 C102.2045161 165.59320457 102.2211467 178.55222066 102.22722703 191.51128745 C102.23133476 199.50190623 102.24428894 207.49240861 102.26871095 215.48299155 C102.28650615 221.61952068 102.28831656 227.75596186 102.28428459 233.89251328 C102.28510787 236.40306946 102.29104777 238.91363017 102.30257797 241.42416 C102.31758887 244.86206491 102.31388357 248.29947905 102.3057251 251.73739624 C102.31446362 252.7218706 102.32320215 253.70634495 102.33220547 254.72065187 C102.16471089 280.98248595 87.28354619 304.34226473 69.75746155 322.68948364 C54.31225929 337.74962545 34.60509159 347.2597057 15.16517639 356.11184692 C13.02786027 357.08908031 10.90237942 358.08897902 8.7769928 359.09182739 C7.52118847 359.66758871 6.26471982 360.24190419 5.00746155 360.81448364 C3.92593811 361.31335083 2.84441467 361.81221802 1.7301178 362.32620239 C-1.05503845 363.12698364 -1.05503845 363.12698364 -3.22911072 362.17703247 C-3.83166687 361.83051636 -4.43422302 361.48400024 -5.05503845 361.12698364 C-5.07790281 315.28213431 -5.09553565 269.43728558 -5.10610378 223.59243167 C-5.10735456 218.18606161 -5.10864888 212.77969157 -5.10997009 207.37332153 C-5.1102324 206.29696253 -5.11049471 205.22060352 -5.11076497 204.11162757 C-5.11512211 186.65914649 -5.12300989 169.20666869 -5.13219125 151.75418956 C-5.14152658 133.86043858 -5.1470938 115.96668932 -5.14912695 98.072936 C-5.15050243 87.02213376 -5.15485436 75.97134079 -5.16295492 64.9205414 C-5.16822089 57.35347995 -5.16984309 49.78642333 -5.16853983 42.21936018 C-5.16789622 37.84667957 -5.16891658 33.47401519 -5.17424393 29.10133743 C-5.17907753 25.10497977 -5.17937736 21.10864942 -5.17593735 17.11229055 C-5.17551161 15.66006109 -5.17680768 14.20782999 -5.17992163 12.7556038 C-5.18388509 10.7945014 -5.18119505 8.83338882 -5.17808628 6.87228489 C-5.178466 5.77907006 -5.17884572 4.68585523 -5.17923695 3.55951267 C-4.97490222 -0.44254987 -3.596797 0.00177635 0 0 Z " fill="#592022" transform="translate(1006.0550384521484,783.8730163574219)"/>
<path d="M0 0 C1.24974609 -0.03931641 2.49949219 -0.07863281 3.78710938 -0.11914062 C12.73239114 -0.0668846 12.73239114 -0.0668846 16.41479492 3.05981445 C18.16121568 5.3189918 19.61173467 7.6077006 21.0625 10.0625 C25.18717175 13.97565012 28.62720864 15.34485432 34.0625 18.0625 C34.0625 56.3425 34.0625 94.6225 34.0625 134.0625 C30.5975 135.0525 30.5975 135.0525 27.0625 136.0625 C26.7325 155.8625 26.4025 175.6625 26.0625 196.0625 C17.503125 196.083125 8.94375 196.10375 0.125 196.125 C-3.93349243 196.13865601 -3.93349243 196.13865601 -8.07397461 196.15258789 C-10.20426382 196.15550685 -12.33455358 196.15805545 -14.46484375 196.16015625 C-15.58250122 196.16527222 -16.70015869 196.17038818 -17.85168457 196.17565918 C-18.90730591 196.17578003 -19.96292725 196.17590088 -21.05053711 196.17602539 C-22.43286781 196.17935631 -22.43286781 196.17935631 -23.84312439 196.18275452 C-25.9375 196.0625 -25.9375 196.0625 -26.9375 195.0625 C-27.06087174 193.22218011 -27.11541308 191.37720589 -27.14282227 189.53295898 C-27.16276749 188.35181015 -27.18271271 187.17066132 -27.20326233 185.95372009 C-27.21997482 184.6683284 -27.23668732 183.38293671 -27.25390625 182.05859375 C-27.2850779 180.0963662 -27.2850779 180.0963662 -27.31687927 178.09449768 C-27.372163 174.61094553 -27.42154431 171.1273334 -27.46972656 167.64367676 C-27.51989574 164.0911727 -27.57560567 160.5387561 -27.63085938 156.98632812 C-27.73851791 150.01179454 -27.83994567 143.03718202 -27.9375 136.0625 C-28.906875 135.753125 -29.87625 135.44375 -30.875 135.125 C-33.9375 134.0625 -33.9375 134.0625 -34.9375 133.0625 C-35.05048586 131.59420038 -35.09485423 130.12055552 -35.11158752 128.64801025 C-35.12452347 127.69464783 -35.13745941 126.7412854 -35.15078735 125.7590332 C-35.15976044 124.70449951 -35.16873352 123.64996582 -35.17797852 122.56347656 C-35.19097488 121.45945496 -35.20397125 120.35543335 -35.21736145 119.21795654 C-35.32914983 109.02843709 -35.38991013 98.83818894 -35.43412876 88.64816666 C-35.46736926 81.11405245 -35.52691103 73.58114086 -35.62163979 66.04754281 C-35.69372961 60.11398561 -35.72208546 54.18069079 -35.73545647 48.24669647 C-35.74773517 45.72199882 -35.77383825 43.19732978 -35.81390572 40.67292023 C-35.86716651 37.14065864 -35.87039394 33.61167747 -35.86157227 30.07910156 C-35.88876343 29.03266479 -35.91595459 27.98622803 -35.94396973 26.90808105 C-35.85454524 19.97516833 -35.85454524 19.97516833 -33.22190666 17.35509491 C-31.17494347 16.06185645 -29.14290696 15.05503431 -26.9375 14.0625 C-22.68039424 11.4562488 -20.04988095 9.3512514 -17.59765625 4.9609375 C-13.17468833 -1.05059017 -6.88456875 -0.14512459 0 0 Z " fill="#E8B329" transform="translate(751.9375,366.9375)"/>
<path d="M0 0 C4.05257753 -0.10034954 8.10465479 -0.1721497 12.15820312 -0.21972656 C13.53137844 -0.23959978 14.90447196 -0.26670858 16.27734375 -0.30175781 C27.25598391 -0.57461875 38.50769472 0.30681026 47.47265625 7.38671875 C57.43938257 17.91423274 57.69157841 30.18733139 57.44921875 43.8671875 C57.03216403 52.56876463 54.29522216 58.86637924 48.125 65.125 C47.42375 65.74375 46.7225 66.3625 46 67 C46 67.66 46 68.32 46 69 C46.721875 69.70125 47.44375 70.4025 48.1875 71.125 C57.5881732 80.39251919 59.23434782 92.76321186 59.5 105.5 C59.46006513 116.1178341 56.67012318 127.19372955 49.65234375 135.42578125 C39.82845599 144.78518259 27.90287868 145.45651673 14.9375 145.25 C13.59440662 145.24351084 12.25130646 145.23829409 10.90820312 145.234375 C1.1545497 145.1545497 1.1545497 145.1545497 0 144 C-0.09650437 142.13971966 -0.12187292 140.27572971 -0.12025452 138.41294861 C-0.12162918 137.19993576 -0.12300385 135.98692291 -0.12442017 134.7371521 C-0.12088056 133.38067603 -0.11724575 132.0242002 -0.11352539 130.66772461 C-0.11324352 129.24887596 -0.11340124 127.83002716 -0.1139679 126.41117859 C-0.11425589 122.54771199 -0.1083589 118.68427617 -0.10139394 114.82081676 C-0.09516067 110.78757427 -0.09455662 106.75433115 -0.09336853 102.72108459 C-0.09025514 95.07834532 -0.08204164 87.43562027 -0.07201904 79.79288727 C-0.06085816 71.09411981 -0.05534752 62.39535169 -0.05032361 53.69657886 C-0.03985903 35.79771116 -0.02225943 17.89885672 0 0 Z " fill="#5A2123" transform="translate(682,611)"/>
<path d="M0 0 C8.07202741 4.9420576 11.93361112 10.93774919 14.55883789 19.92868042 C16.47550456 28.29147675 15.94547303 37.10484113 15.90625 45.62890625 C15.90895077 47.71150391 15.91283803 49.79410034 15.91784668 51.87669373 C15.9237129 56.22122313 15.91527116 60.56542148 15.89648438 64.90991211 C15.87368254 70.44974109 15.88684446 75.98879521 15.91077423 81.52859592 C15.92529808 85.82258334 15.92059636 90.11639007 15.91026306 94.41038322 C15.90761469 96.45191479 15.91079816 98.49346333 15.92018127 100.53497505 C15.97089809 114.66540091 15.8314269 128.20458669 5.375 139 C-1.62870055 144.6625664 -8.56381391 145.54238251 -17.33984375 145.37109375 C-25.46232114 144.45357252 -31.20997771 140.32945737 -36.22265625 134.04296875 C-41.5683052 126.25529633 -41.77323257 117.71766153 -41.80200195 108.56738281 C-41.80857315 107.64768707 -41.81514435 106.72799133 -41.82191467 105.78042603 C-41.84152996 102.75465802 -41.85328307 99.72893933 -41.86328125 96.703125 C-41.86735678 95.66414818 -41.8714323 94.62517136 -41.87563133 93.55471039 C-41.89644055 88.05665795 -41.91076523 82.55863009 -41.92016602 77.06054688 C-41.93122793 71.40395276 -41.9656405 65.74775224 -42.00533772 60.09129715 C-42.03156595 55.7210419 -42.0398633 51.3508797 -42.04344749 46.98055267 C-42.04829626 44.89630216 -42.059861 42.81205532 -42.07848549 40.72788239 C-42.18922901 27.51561646 -42.27764215 15.41147558 -33.3515625 4.7265625 C-24.7966185 -3.8283815 -10.92164633 -4.91724965 0 0 Z " fill="#5B2325" transform="translate(793.625,612)"/>
<path d="M0 0 C4.49994472 -0.05845252 8.99979063 -0.09374855 13.5 -0.125 C14.7684375 -0.14175781 16.036875 -0.15851562 17.34375 -0.17578125 C28.83645066 -0.23563907 40.19405965 1.09612426 48.875 9.375 C57.74575849 19.04474136 57.55164355 31.58818752 57.3125 44.00390625 C56.84461123 54.53335311 52.21240409 60.78759591 45 68 C45.77923828 68.76570312 45.77923828 68.76570312 46.57421875 69.546875 C56.79248825 80.19956261 59.34863953 91.48324151 59.1484375 105.85546875 C58.81091804 117.92593926 56.00879907 129.391592 47 138 C36.43279656 144.56336684 26.74848026 145.30556916 14.5625 145.1875 C13.27150391 145.18685547 11.98050781 145.18621094 10.65039062 145.18554688 C1.14047619 145.14047619 1.14047619 145.14047619 0 144 C-0.09650437 142.13971966 -0.12187292 140.27572971 -0.12025452 138.41294861 C-0.12162918 137.19993576 -0.12300385 135.98692291 -0.12442017 134.7371521 C-0.12088056 133.38067603 -0.11724575 132.0242002 -0.11352539 130.66772461 C-0.11324352 129.24887596 -0.11340124 127.83002716 -0.1139679 126.41117859 C-0.11425589 122.54771199 -0.1083589 118.68427617 -0.10139394 114.82081676 C-0.09516067 110.78757427 -0.09455662 106.75433115 -0.09336853 102.72108459 C-0.09025514 95.07834532 -0.08204164 87.43562027 -0.07201904 79.79288727 C-0.06085816 71.09411981 -0.05534752 62.39535169 -0.05032361 53.69657886 C-0.03985903 35.79771116 -0.02225943 17.89885672 0 0 Z " fill="#5A2123" transform="translate(823,611)"/>
<path d="M0 0 C7.86233376 4.77880388 11.66117351 11.26128407 14.3125 19.9375 C14.82673728 23.3881094 14.87124255 26.76106242 14.84594727 30.24560547 C14.85887062 31.71117889 14.85887062 31.71117889 14.87205505 33.20635986 C14.8945832 36.40607922 14.88799955 39.60491321 14.87890625 42.8046875 C14.88414808 45.04851539 14.8904266 47.29234107 14.89768982 49.53616333 C14.90807017 54.22815351 14.90356705 58.91983998 14.88891602 63.61181641 C14.87174271 69.59910014 14.89521903 75.58542285 14.93040562 81.57259941 C14.95245811 86.20372778 14.95091892 90.83462906 14.9426403 95.46579361 C14.94182489 97.67200906 14.9486092 99.87824187 14.96341133 102.08440781 C15.10750527 127.44787491 15.10750527 127.44787491 6.125 137.9375 C-0.75246316 143.98670953 -8.49349235 145.70766381 -17.5078125 145.37890625 C-25.57412087 144.25913617 -31.26880594 140.26366527 -36.28515625 133.984375 C-41.48888607 126.38895877 -41.83721199 118.34092453 -41.86450195 109.41894531 C-41.87107315 108.47828217 -41.87764435 107.53761902 -41.88441467 106.56845093 C-41.90406229 103.46750802 -41.91579059 100.36661333 -41.92578125 97.265625 C-41.92985678 96.20241783 -41.9339323 95.13921066 -41.93813133 94.0437851 C-41.95895467 88.4172129 -41.9732731 82.79066483 -41.98266602 77.1640625 C-41.99372867 71.36946197 -42.02813804 65.5752456 -42.06783772 59.78078079 C-42.0940449 55.30933951 -42.10236146 50.83798929 -42.10594749 46.36647797 C-42.11080199 44.23116203 -42.12238331 42.09584986 -42.14098549 39.96060944 C-42.1654664 36.96464455 -42.16439558 33.96966815 -42.1574707 30.97363281 C-42.17028076 30.10263947 -42.18309082 29.23164612 -42.19628906 28.33425903 C-42.11474817 18.59157097 -38.33617479 10.04583626 -31.6875 2.9375 C-23.54002011 -3.8685062 -9.55263436 -4.45497474 0 0 Z " fill="#592123" transform="translate(934.6875,612.0625)"/>
<path d="M0 0 C4.07088917 -0.10018279 8.14128401 -0.17207471 12.21313477 -0.21972656 C13.593145 -0.2396267 14.97307337 -0.2667574 16.3527832 -0.30175781 C28.03448136 -0.59029958 38.01386519 0.72862183 47.28515625 8.3125 C54.15651938 15.07429697 57.0405151 24.33351007 57.3984375 33.8046875 C57.41111676 35.82810036 57.40283271 37.85173885 57.375 39.875 C57.36557373 40.93203125 57.35614746 41.9890625 57.34643555 43.078125 C57.12052545 54.74264639 55.56718502 65.43281498 47 74 C47.07835991 77.21401936 47.07835991 77.21401936 47.66015625 80.9921875 C47.75684097 81.7009201 47.8535257 82.40965271 47.95314026 83.13986206 C49.14236894 91.52453417 50.77904926 99.82307862 52.4375 108.125 C52.74070996 109.66787536 53.04344543 111.21084405 53.34570312 112.75390625 C54.94651078 120.88823651 56.62570928 128.99419646 58.46899414 137.07763672 C59 140 59 140 59 145 C52.07 145 45.14 145 38 145 C35.12049924 133.21034595 33.00036062 121.31925544 30.875 109.375 C30.33635094 106.35442551 29.79673997 103.334036 29.25442505 100.31411743 C28.91941868 98.44812101 28.58654643 96.58173986 28.256073 94.7149353 C28.10566559 93.8762088 27.95525818 93.0374823 27.80029297 92.17333984 C27.66944305 91.43755707 27.53859314 90.70177429 27.40377808 89.94369507 C26.99743024 87.79785711 26.99743024 87.79785711 26 85 C24.35 84.67 22.7 84.34 21 84 C21.00222061 84.74946396 21.00444122 85.49892792 21.00672913 86.27110291 C21.02673179 93.31982291 21.041974 100.36853315 21.05181217 107.41727352 C21.05704002 111.0414596 21.06413587 114.6656223 21.07543945 118.28979492 C21.08627184 121.78459975 21.09227758 125.27938204 21.09487724 128.77420235 C21.09763551 130.76239389 21.10544688 132.75057631 21.11329651 134.73875427 C21.11340981 136.54050865 21.11340981 136.54050865 21.11352539 138.37866211 C21.115746 139.44233505 21.11796661 140.506008 21.12025452 141.60191345 C21 144 21 144 20 145 C18.59651265 145.09860131 17.18819523 145.13078937 15.78125 145.1328125 C14.50701172 145.13474609 14.50701172 145.13474609 13.20703125 145.13671875 C12.31371094 145.13285156 11.42039062 145.12898437 10.5 145.125 C9.16001953 145.13080078 9.16001953 145.13080078 7.79296875 145.13671875 C6.94347656 145.13542969 6.09398437 145.13414062 5.21875 145.1328125 C4.43435547 145.13168457 3.64996094 145.13055664 2.84179688 145.12939453 C1 145 1 145 0 144 C-0.09650437 142.13971966 -0.12187292 140.27572971 -0.12025452 138.41294861 C-0.12162918 137.19993576 -0.12300385 135.98692291 -0.12442017 134.7371521 C-0.12088056 133.38067603 -0.11724575 132.0242002 -0.11352539 130.66772461 C-0.11324352 129.24887596 -0.11340124 127.83002716 -0.1139679 126.41117859 C-0.11425589 122.54771199 -0.1083589 118.68427617 -0.10139394 114.82081676 C-0.09516067 110.78757427 -0.09455662 106.75433115 -0.09336853 102.72108459 C-0.09025514 95.07834532 -0.08204164 87.43562027 -0.07201904 79.79288727 C-0.06085816 71.09411981 -0.05534752 62.39535169 -0.05032361 53.69657886 C-0.03985903 35.79771116 -0.02225943 17.89885672 0 0 Z " fill="#5A2224" transform="translate(538,611)"/>
<path d="M0 0 C1.5631897 0.00785522 1.5631897 0.00785522 3.15795898 0.01586914 C4.28266602 0.0190918 5.40737305 0.02231445 6.56616211 0.02563477 C7.75016602 0.03401367 8.93416992 0.04239258 10.15405273 0.05102539 C11.34192383 0.05553711 12.52979492 0.06004883 13.75366211 0.06469727 C16.69967499 0.07652864 19.64558954 0.09301252 22.59155273 0.11352539 C24.26161597 3.08499202 24.93778015 5.53044804 25.30249023 8.91040039 C25.41077148 9.8567334 25.51905273 10.80306641 25.63061523 11.77807617 C25.74147461 12.79627441 25.85233398 13.81447266 25.96655273 14.86352539 C26.95622807 23.36725913 28.13275628 31.80254552 29.59155273 40.23852539 C30.93430613 48.0146976 32.13115269 55.7887481 33.15405273 63.61352539 C34.14266193 71.15632124 35.38967148 78.57570188 36.84545898 86.04321289 C38.21746081 93.30465298 39.15296307 100.6392725 40.15600586 107.95874023 C40.65172558 111.54937376 41.16050842 115.13805627 41.66967773 118.72680664 C42.03971515 121.35567831 42.40950844 123.98458436 42.77905273 126.61352539 C42.95815186 127.87253662 43.13725098 129.13154785 43.32177734 130.42871094 C43.48685791 131.61376221 43.65193848 132.79881348 43.82202148 134.01977539 C43.97050537 135.07487305 44.11898926 136.1299707 44.27197266 137.21704102 C44.59155273 140.11352539 44.59155273 140.11352539 44.59155273 145.11352539 C37.99155273 145.11352539 31.39155273 145.11352539 24.59155273 145.11352539 C22.34333515 137.24476384 22.34333515 137.24476384 21.99389648 133.63305664 C21.91461914 132.86155273 21.8353418 132.09004883 21.75366211 131.29516602 C21.67954102 130.51334961 21.60541992 129.7315332 21.52905273 128.92602539 C21.3740357 127.34895124 21.21656747 125.77211569 21.05639648 124.19555664 C20.99057373 123.50695557 20.92475098 122.81835449 20.85693359 122.10888672 C20.58232368 119.75781112 20.58232368 119.75781112 19.59155273 116.11352539 C13.32155273 116.11352539 7.05155273 116.11352539 0.59155273 116.11352539 C0.3144043 118.12317383 0.03725586 120.13282227 -0.24829102 122.20336914 C-0.5193919 124.14278314 -0.79052191 126.0821932 -1.0625 128.02148438 C-1.25118545 129.37251119 -1.43836464 130.72374925 -1.62402344 132.07519531 C-1.8906768 134.01429856 -2.16314439 135.95259949 -2.43579102 137.89086914 C-2.59813232 139.0586792 -2.76047363 140.22648926 -2.92773438 141.4296875 C-3.40844727 144.11352539 -3.40844727 144.11352539 -4.40844727 145.11352539 C-5.81193462 145.2121267 -7.22025204 145.24431476 -8.62719727 145.24633789 C-9.90143555 145.24827148 -9.90143555 145.24827148 -11.20141602 145.25024414 C-12.09473633 145.24637695 -12.98805664 145.24250977 -13.90844727 145.23852539 C-15.24842773 145.24432617 -15.24842773 145.24432617 -16.61547852 145.25024414 C-17.4649707 145.24895508 -18.31446289 145.24766602 -19.18969727 145.24633789 C-19.9740918 145.24520996 -20.75848633 145.24408203 -21.56665039 145.24291992 C-23.40844727 145.11352539 -23.40844727 145.11352539 -24.40844727 144.11352539 C-24.20975325 135.89146145 -22.83666503 127.71819913 -21.53344727 119.61352539 C-21.17245021 117.31930488 -20.81177627 115.02503351 -20.45141602 112.73071289 C-20.27400879 111.60890625 -20.09660156 110.48709961 -19.91381836 109.33129883 C-19.2027132 104.8035858 -18.52122623 100.27169849 -17.84594727 95.73852539 C-17.72477539 94.92794678 -17.60360352 94.11736816 -17.47875977 93.28222656 C-17.23848653 91.67475343 -16.99841168 90.06725063 -16.75854492 88.4597168 C-15.80105782 82.04308426 -14.83878262 75.62717609 -13.8737793 69.21166992 C-13.43320914 66.27838804 -12.99429405 63.34486106 -12.55548096 60.41131592 C-10.36969773 45.81264648 -8.16147057 31.22262142 -5.66455078 16.6730957 C-4.97358514 12.62795287 -4.32780835 8.60144027 -3.86157227 4.52368164 C-3.28103737 0.1546561 -3.28103737 0.1546561 0 0 Z " fill="#5B2325" transform="translate(627.408447265625,610.886474609375)"/>
<path d="M0 0 C2.52197266 -0.34057617 2.52197266 -0.34057617 5.6640625 -0.29296875 C6.78554688 -0.28330078 7.90703125 -0.27363281 9.0625 -0.26367188 C10.238125 -0.23853516 11.41375 -0.21339844 12.625 -0.1875 C13.80835938 -0.17396484 14.99171875 -0.16042969 16.2109375 -0.14648438 C19.14107539 -0.11103916 22.07031459 -0.06162769 25 0 C27.26764586 5.78399539 27.96043606 11.6994624 28.8125 17.8125 C29.16340531 20.2540008 29.51499819 22.69540284 29.8671875 25.13671875 C30.05120117 26.4211084 30.23521484 27.70549805 30.42480469 29.02880859 C31.29161629 35.0440512 32.2082062 41.05176911 33.12313843 47.05984497 C33.44066958 49.14582213 33.75721854 51.23194618 34.07348633 53.31811523 C35.02610156 59.60025475 35.98135653 65.88198127 36.94197083 72.16290283 C37.46239787 75.56677015 37.98140352 78.97085336 38.5 82.375 C38.60170502 83.04188843 38.70341003 83.70877686 38.80819702 84.39587402 C40.04352111 92.50822342 41.24052389 100.62510828 42.390625 108.75 C42.5050293 109.55740631 42.61943359 110.36481262 42.73730469 111.19668579 C43.29241472 115.12056053 43.84340654 119.04496011 44.38867188 122.97021484 C44.58719113 124.38379587 44.78575639 125.79737043 44.984375 127.2109375 C45.15678711 128.45149902 45.32919922 129.69206055 45.50683594 130.97021484 C45.92288872 134.03484428 45.92288872 134.03484428 47 137 C47.125 140.625 47.125 140.625 47 144 C45.44393249 145.55606751 43.94042629 145.12970769 41.78125 145.1328125 C40.50701172 145.13474609 40.50701172 145.13474609 39.20703125 145.13671875 C38.31371094 145.13285156 37.42039062 145.12898437 36.5 145.125 C35.16001953 145.13080078 35.16001953 145.13080078 33.79296875 145.13671875 C32.94347656 145.13542969 32.09398437 145.13414062 31.21875 145.1328125 C30.43435547 145.13168457 29.64996094 145.13055664 28.84179688 145.12939453 C27 145 27 145 26 144 C25.62985776 141.93348217 25.31640959 139.85675284 25.02734375 137.77734375 C24.85009766 136.51728516 24.67285156 135.25722656 24.49023438 133.95898438 C24.30589961 132.61850195 24.12165601 131.27800699 23.9375 129.9375 C23.74973242 128.59304535 23.56158629 127.24864351 23.37304688 125.90429688 C22.91162903 122.6033846 22.45534158 119.30175594 22 116 C15.73 116 9.46 116 3 116 C2.80664062 117.33933594 2.61328125 118.67867187 2.4140625 120.05859375 C2.15121518 121.85158795 1.88818455 123.64455527 1.625 125.4375 C1.43550781 126.75524414 1.43550781 126.75524414 1.2421875 128.09960938 C0.40022482 133.80390654 -0.68625829 139.38518218 -2 145 C-5.14581423 145.02888514 -8.29159469 145.04675923 -11.4375 145.0625 C-12.33533203 145.07087891 -13.23316406 145.07925781 -14.15820312 145.08789062 C-15.01220703 145.09111328 -15.86621094 145.09433594 -16.74609375 145.09765625 C-17.53685303 145.10289307 -18.3276123 145.10812988 -19.14233398 145.11352539 C-21 145 -21 145 -22 144 C-21.94921875 142.3125 -21.94921875 142.3125 -21.6875 140 C-21.58695312 139.10023438 -21.48640625 138.20046875 -21.3828125 137.2734375 C-21.25648438 136.19320312 -21.13015625 135.11296875 -21 134 C-20.8511387 132.65890114 -20.70272863 131.31775214 -20.5546875 129.9765625 C-20.39113865 128.52598366 -20.22707425 127.07546286 -20.0625 125.625 C-19.98797607 124.9546875 -19.91345215 124.284375 -19.83666992 123.59375 C-19.1113314 117.35835772 -18.06509938 111.18521614 -17 105 C-14.59304087 91.01445809 -12.40571865 77.02579307 -10.50488281 62.96166992 C-9.36904819 54.58740005 -8.16021108 46.22766411 -6.875 37.875 C-6.63716797 36.32159912 -6.63716797 36.32159912 -6.39453125 34.73681641 C-5.63810191 29.86372698 -4.82557111 25.01066051 -3.9140625 20.1640625 C-3.0116119 15.28417688 -2.60442553 10.48408515 -2.34375 5.53125 C-2 3 -2 3 0 0 Z " fill="#5B2325" transform="translate(481,611)"/>
<path d="M0 0 C7.25095033 4.66727837 11.70370192 11.68792868 14.25 19.86181641 C14.81247597 22.65646604 14.8290031 25.28571504 14.83203125 28.13671875 C14.83396484 29.87018555 14.83396484 29.87018555 14.8359375 31.63867188 C14.83207031 32.84072266 14.82820313 34.04277344 14.82421875 35.28125 C14.83001953 37.10172852 14.83001953 37.10172852 14.8359375 38.95898438 C14.83464844 40.11076172 14.83335938 41.26253906 14.83203125 42.44921875 C14.83090332 43.50778076 14.82977539 44.56634277 14.82861328 45.65698242 C14.69921875 48.09375 14.69921875 48.09375 13.69921875 49.09375 C12.3687825 49.1921221 11.03328531 49.22453592 9.69921875 49.2265625 C8.89484375 49.22785156 8.09046875 49.22914063 7.26171875 49.23046875 C6.41609375 49.22660156 5.57046875 49.22273437 4.69921875 49.21875 C3.85359375 49.22261719 3.00796875 49.22648438 2.13671875 49.23046875 C1.33234375 49.22917969 0.52796875 49.22789062 -0.30078125 49.2265625 C-1.04328125 49.22543457 -1.78578125 49.22430664 -2.55078125 49.22314453 C-4.30078125 49.09375 -4.30078125 49.09375 -5.30078125 48.09375 C-5.40992464 46.3722526 -5.45661636 44.64671346 -5.4765625 42.921875 C-5.51233398 41.33632813 -5.51233398 41.33632813 -5.54882812 39.71875 C-5.59149487 37.48456385 -5.62290817 35.25013195 -5.64257812 33.015625 C-5.76588918 26.63994597 -5.76588918 26.63994597 -8.18359375 20.8515625 C-10.17907267 18.88443854 -10.17907267 18.88443854 -12.86328125 18.71875 C-15.43176198 19.04391221 -15.43176198 19.04391221 -18.30078125 20.09375 C-19.29781242 22.75481364 -19.42893475 25.2882097 -19.44122314 28.10972595 C-19.44693329 28.89892929 -19.45264343 29.68813263 -19.45852661 30.50125122 C-19.45964447 31.35798431 -19.46076233 32.21471741 -19.46191406 33.09741211 C-19.46687897 34.00680038 -19.47184387 34.91618866 -19.47695923 35.85313416 C-19.49155543 38.8591284 -19.49837778 41.86506991 -19.50390625 44.87109375 C-19.50965874 46.96090191 -19.51541646 49.05071006 -19.5211792 51.14051819 C-19.53168121 55.52100877 -19.53752947 59.90148103 -19.54101562 64.28198242 C-19.54650598 69.89546339 -19.57054902 75.50870249 -19.59898758 81.12210751 C-19.61760603 85.43808197 -19.62281909 89.753998 -19.6243515 94.07000923 C-19.62737913 96.13966765 -19.63541135 98.20932501 -19.64853668 100.27894402 C-19.6655843 103.17304837 -19.66372028 106.06655922 -19.65722656 108.96069336 C-19.66644135 109.81540222 -19.67565613 110.67011108 -19.68515015 111.55072021 C-19.65275688 116.15756468 -19.45180786 119.44518542 -16.30078125 123.09375 C-12.80078125 123.84375 -12.80078125 123.84375 -9.30078125 123.09375 C-6.27107302 120.07148685 -5.90912828 117.67887706 -5.82421875 113.48828125 C-5.79328125 112.42287109 -5.76234375 111.35746094 -5.73046875 110.25976562 C-5.71242188 109.15310547 -5.694375 108.04644531 -5.67578125 106.90625 C-5.6250166 104.70433315 -5.57053813 102.50249766 -5.51171875 100.30078125 C-5.48537354 98.83862183 -5.48537354 98.83862183 -5.45849609 97.34692383 C-5.30078125 95.09375 -5.30078125 95.09375 -4.30078125 94.09375 C-2.88508002 94.00723389 -1.46518625 93.98670096 -0.046875 93.99609375 C1.23413086 94.00092773 1.23413086 94.00092773 2.54101562 94.00585938 C3.43884766 94.01423828 4.33667969 94.02261719 5.26171875 94.03125 C6.16341797 94.03576172 7.06511719 94.04027344 7.99414062 94.04492188 C10.22923189 94.05674775 12.46419312 94.0732278 14.69921875 94.09375 C14.81664374 98.38518157 14.88687871 102.67619273 14.94921875 106.96875 C14.99949219 108.77472656 14.99949219 108.77472656 15.05078125 110.6171875 C15.16180894 120.83173506 13.12246431 128.97023356 6.69921875 137.09375 C0.46181288 143.18939665 -5.27706813 145.24210792 -13.80078125 145.46875 C-21.86138179 145.24536153 -27.70572837 143.46181224 -33.69921875 137.9609375 C-40.62435568 129.88724127 -42.60221264 119.94982628 -42.59130859 109.66113281 C-42.59802582 108.74143707 -42.60474304 107.82174133 -42.61166382 106.87417603 C-42.63058566 103.8483533 -42.63456525 100.82275313 -42.63671875 97.796875 C-42.64315128 95.68088695 -42.64987998 93.56489979 -42.65689087 91.44891357 C-42.66884953 87.01735372 -42.6725732 82.58587172 -42.67138672 78.15429688 C-42.67118375 72.49767271 -42.69847012 66.84155215 -42.73293114 61.18504715 C-42.75525647 56.81477603 -42.75922251 52.44462496 -42.75816727 48.07430267 C-42.76051535 45.99006161 -42.76929377 43.90581685 -42.784832 41.82163239 C-42.96682192 14.88692085 -42.96682192 14.88692085 -32.703125 4.47265625 C-24.31894994 -3.21130199 -10.4336685 -4.8886603 0 0 Z " fill="#5C2426" transform="translate(1093.30078125,611.90625)"/>
<path d="M0 0 C0.71196533 0.00491455 1.42393066 0.0098291 2.1574707 0.01489258 C8.94838917 0.16656239 13.45078619 1.09706501 18.8125 5.4375 C27.65550663 16.14219224 29.51802086 23.94244295 29.375 37.6875 C29.37435547 38.88761719 29.37371094 40.08773437 29.37304688 41.32421875 C29.32795603 50.17204397 29.32795603 50.17204397 28.1875 51.3125 C26.85706375 51.4108721 25.52156656 51.44328592 24.1875 51.4453125 C23.383125 51.44660156 22.57875 51.44789063 21.75 51.44921875 C20.904375 51.44535156 20.05875 51.44148437 19.1875 51.4375 C18.341875 51.44136719 17.49625 51.44523438 16.625 51.44921875 C15.820625 51.44792969 15.01625 51.44664062 14.1875 51.4453125 C13.445 51.44418457 12.7025 51.44305664 11.9375 51.44189453 C10.1875 51.3125 10.1875 51.3125 9.1875 50.3125 C9.07835661 48.5910026 9.03166489 46.86546346 9.01171875 45.140625 C8.97594727 43.55507813 8.97594727 43.55507813 8.93945312 41.9375 C8.89678638 39.70331385 8.86537308 37.46888195 8.84570312 35.234375 C8.72239207 28.85869597 8.72239207 28.85869597 6.3046875 23.0703125 C4.30920858 21.10318854 4.30920858 21.10318854 1.625 20.9375 C-0.94348073 21.26266221 -0.94348073 21.26266221 -3.8125 22.3125 C-4.80953117 24.97356364 -4.9406535 27.5069597 -4.95294189 30.32847595 C-4.95865204 31.11767929 -4.96436218 31.90688263 -4.97024536 32.72000122 C-4.97136322 33.57673431 -4.97248108 34.43346741 -4.97363281 35.31616211 C-4.97859772 36.22555038 -4.98356262 37.13493866 -4.98867798 38.07188416 C-5.00327418 41.0778784 -5.01009653 44.08381991 -5.015625 47.08984375 C-5.02137749 49.17965191 -5.02713521 51.26946006 -5.03289795 53.35926819 C-5.04339996 57.73975877 -5.04924822 62.12023103 -5.05273438 66.50073242 C-5.05822473 72.11421339 -5.08226777 77.72745249 -5.11070633 83.34085751 C-5.12932478 87.65683197 -5.13453784 91.972748 -5.13607025 96.28875923 C-5.13909788 98.35841765 -5.1471301 100.42807501 -5.16025543 102.49769402 C-5.17730305 105.39179837 -5.17543903 108.28530922 -5.16894531 111.17944336 C-5.1781601 112.03415222 -5.18737488 112.88886108 -5.1968689 113.76947021 C-5.16446104 118.37838908 -4.96068482 121.65997699 -1.8125 125.3125 C1.6875 126.14583333 1.6875 126.14583333 5.1875 125.3125 C7.92852573 121.76928089 8.58098795 118.9960505 8.69921875 114.57421875 C8.73466797 113.50751953 8.77011719 112.44082031 8.80664062 111.34179688 C8.82919922 110.23900391 8.85175781 109.13621094 8.875 108 C8.90916016 106.87787109 8.94332031 105.75574219 8.97851562 104.59960938 C9.06078865 101.83758643 9.12582623 99.07505967 9.1875 96.3125 C15.7875 96.3125 22.3875 96.3125 29.1875 96.3125 C29.94015568 129.20634086 29.94015568 129.20634086 21.1875 139.3125 C13.78031802 146.16873456 6.73560855 147.85629719 -3.265625 147.6875 C-10.12428551 146.96235528 -15.44685745 144.10149541 -20.1875 139.125 C-26.58860187 130.8380211 -27.95757146 121.32877052 -27.98950195 111.19873047 C-27.99607315 110.28908035 -28.00264435 109.37943024 -28.00941467 108.44221497 C-28.02909003 105.43803821 -28.04079861 102.43391136 -28.05078125 99.4296875 C-28.05485678 98.3999091 -28.0589323 97.37013069 -28.06313133 96.30914688 C-28.0839694 90.85649061 -28.09827986 85.40385932 -28.10766602 79.95117188 C-28.11871429 74.33935837 -28.15310272 68.72794311 -28.19283772 63.11627007 C-28.21907276 58.78375548 -28.22736406 54.45133473 -28.23094749 50.11874771 C-28.2357971 48.0512435 -28.24736427 45.98374302 -28.26598549 43.91631699 C-28.37604399 30.88519504 -28.47384837 18.95358515 -19.8125 8.3125 C-13.697054 2.24094476 -8.74785343 -0.07053896 0 0 Z " fill="#5C2426" transform="translate(422.8125,609.6875)"/>
<path d="M0 0 C16.5 0 33 0 50 0 C50 7.26 50 14.52 50 22 C40.76 22.33 31.52 22.66 22 23 C22 34.88 22 46.76 22 59 C27.8785388 59.28920906 27.8785388 59.28920906 33.75756836 59.56811523 C34.48596924 59.60622314 35.21437012 59.64433105 35.96484375 59.68359375 C37.08814087 59.73858032 37.08814087 59.73858032 38.23413086 59.79467773 C40 60 40 60 41 61 C41.09880797 62.47652664 41.13079245 63.95767236 41.1328125 65.4375 C41.13474609 66.77941406 41.13474609 66.77941406 41.13671875 68.1484375 C41.13285156 69.08945312 41.12898438 70.03046875 41.125 71 C41.13080078 72.41152344 41.13080078 72.41152344 41.13671875 73.8515625 C41.13542969 74.74617187 41.13414063 75.64078125 41.1328125 76.5625 C41.13168457 77.38878906 41.13055664 78.21507812 41.12939453 79.06640625 C41 81 41 81 40 82 C38.58429877 82.08651611 37.164405 82.10704904 35.74609375 82.09765625 C34.89208984 82.09443359 34.03808594 82.09121094 33.15820312 82.08789062 C32.26037109 82.07951172 31.36253906 82.07113281 30.4375 82.0625 C29.53580078 82.05798828 28.63410156 82.05347656 27.70507812 82.04882812 C25.46998686 82.03700225 23.23502563 82.0205222 21 82 C21.00222061 82.77452011 21.00444122 83.54904022 21.00672913 84.34703064 C21.02673134 91.63121021 21.04197377 98.91537655 21.05181217 106.19957638 C21.05704014 109.94483037 21.06413622 113.69006176 21.07543945 117.43530273 C21.08627141 121.04681687 21.09227749 124.65830921 21.09487724 128.26983833 C21.09673094 129.65060329 21.10035049 131.031367 21.10573006 132.41212273 C21.11294447 134.33975952 21.11340809 136.26741807 21.11352539 138.19506836 C21.115746 139.29427109 21.11796661 140.39347382 21.12025452 141.52598572 C21 144 21 144 20 145 C18.59651265 145.09860131 17.18819523 145.13078937 15.78125 145.1328125 C14.50701172 145.13474609 14.50701172 145.13474609 13.20703125 145.13671875 C12.31371094 145.13285156 11.42039062 145.12898437 10.5 145.125 C9.16001953 145.13080078 9.16001953 145.13080078 7.79296875 145.13671875 C6.94347656 145.13542969 6.09398437 145.13414062 5.21875 145.1328125 C4.43435547 145.13168457 3.64996094 145.13055664 2.84179688 145.12939453 C1 145 1 145 0 144 C-0.09650437 142.13971966 -0.12187292 140.27572971 -0.12025452 138.41294861 C-0.12162918 137.19993576 -0.12300385 135.98692291 -0.12442017 134.7371521 C-0.12088056 133.38067603 -0.11724575 132.0242002 -0.11352539 130.66772461 C-0.11324352 129.24887596 -0.11340124 127.83002716 -0.1139679 126.41117859 C-0.11425589 122.54771199 -0.1083589 118.68427617 -0.10139394 114.82081676 C-0.09516067 110.78757427 -0.09455662 106.75433115 -0.09336853 102.72108459 C-0.09025514 95.07834532 -0.08204164 87.43562027 -0.07201904 79.79288727 C-0.06085816 71.09411981 -0.05534752 62.39535169 -0.05032361 53.69657886 C-0.03985903 35.79770952 -0.02151345 17.8988597 0 0 Z " fill="#5A2123" transform="translate(994,611)"/>
<path d="M0 0 C3.11811723 2.84082031 4.25378029 5.09373879 4.50793457 9.2121582 C4.53162797 10.90820344 4.53333045 12.60464367 4.51757812 14.30078125 C4.52809204 15.69434341 4.52809204 15.69434341 4.53881836 17.11605835 C4.55639911 20.18184447 4.54477509 23.24670477 4.53125 26.3125 C4.53394488 28.4457212 4.53782727 30.5789412 4.54284668 32.7121582 C4.54874185 37.1809459 4.54017794 41.64941359 4.52148438 46.11816406 C4.49869508 51.84499077 4.51181803 57.57106763 4.53577423 63.29786682 C4.55023153 67.70224655 4.54562647 72.10644864 4.53526306 76.51083374 C4.5325956 78.62234587 4.53586619 80.73387416 4.54518127 82.84536743 C4.55534549 85.79708549 4.53984708 88.74759096 4.51757812 91.69921875 C4.52567505 92.57105804 4.53377197 93.44289734 4.54211426 94.34115601 C4.48558683 98.38756124 4.29375782 100.51330595 2.15905762 104.05004883 C0 106 0 106 -3.0625 106.5 C-6 106 -6 106 -7.8125 104.6875 C-10.71475368 100.56324476 -10.15487431 95.9265418 -10.16113281 91.10986328 C-10.16858017 89.74599991 -10.16858017 89.74599991 -10.17617798 88.35458374 C-10.19079719 85.34315233 -10.19760092 82.33177358 -10.203125 79.3203125 C-10.20887629 77.2290751 -10.21463402 75.13783771 -10.22039795 73.04660034 C-10.230907 68.6601334 -10.23675042 64.27368479 -10.24023438 59.88720703 C-10.2457214 54.26585029 -10.26975439 48.64473549 -10.29820633 43.02345467 C-10.31682653 38.703189 -10.32203797 34.3829817 -10.32357025 30.06267929 C-10.32659828 27.99022981 -10.33463186 25.91778139 -10.34775543 23.84537125 C-10.36480415 20.94636851 -10.36293857 18.04795826 -10.35644531 15.14892578 C-10.3656601 14.29264587 -10.37487488 13.43636597 -10.3843689 12.55413818 C-10.35160215 7.88567728 -10.04768934 4.78544163 -7 1 C-4.37869511 -0.31065245 -2.90828303 -0.415469 0 0 Z " fill="#FDFAFA" transform="translate(924,630)"/>
<path d="M0 0 C2.625 0.4375 2.625 0.4375 4.75869751 2.3825531 C7.32823389 6.58862218 7.1730931 9.91630292 7.11083984 14.75415039 C7.11463654 15.68479813 7.11843323 16.61544586 7.12234497 17.57429504 C7.12974347 20.64492692 7.10837901 23.71460873 7.0859375 26.78515625 C7.08355274 28.92077015 7.08264782 31.05638617 7.0831604 33.19200134 C7.08003368 37.66499997 7.06347677 42.13767777 7.03662109 46.6105957 C7.00262107 52.34631759 6.9949932 58.08168735 6.99651146 63.81749821 C6.99596785 68.22610337 6.98500246 72.63463145 6.97050858 77.04321098 C6.96414143 79.15833388 6.96020187 81.27346552 6.95872116 83.38859749 C6.9543885 86.34263137 6.93688859 89.29629066 6.91552734 92.25024414 C6.91643372 93.12567871 6.91734009 94.00111328 6.91827393 94.90307617 C6.90547897 96.11212364 6.90547897 96.11212364 6.89242554 97.34559631 C6.88907385 98.04335206 6.88572216 98.74110781 6.88226891 99.46000767 C6.57549375 101.81802878 5.86503799 103.41595836 4.625 105.4375 C1.79616253 106.85191874 -0.24876745 106.75650332 -3.375 106.4375 C-7.88012213 101.93237787 -7.5281733 96.72361124 -7.53613281 90.73095703 C-7.54109772 89.84122192 -7.54606262 88.95148682 -7.55117798 88.03479004 C-7.56579585 85.08828969 -7.57260071 82.14184317 -7.578125 79.1953125 C-7.58387641 77.14891559 -7.58963414 75.1025187 -7.59539795 73.05612183 C-7.60590663 68.76381173 -7.61175029 64.47152037 -7.61523438 60.17919922 C-7.62072125 54.67890846 -7.64475406 49.17886498 -7.67320633 43.67865181 C-7.69182794 39.45103227 -7.69703804 35.22347237 -7.69857025 30.99581528 C-7.70159798 28.96802289 -7.70963053 26.94023158 -7.72275543 24.9124794 C-7.73980711 22.07573864 -7.73793788 19.23960322 -7.73144531 16.40283203 C-7.7406601 15.5652536 -7.74987488 14.72767517 -7.7593689 13.86471558 C-7.71858844 8.17772189 -6.60926833 1.2174968 0 0 Z " fill="#FCFBFB" transform="translate(780.375,629.5625)"/>
<path d="M0 0 C5.25181916 0.30298957 8.39424547 1.09376593 12 5 C16.63326095 13.14814857 15.98388379 23.85892537 14.53125 32.92578125 C13.02499411 38.26043751 10.76427823 41.15975721 6 44 C3.6679132 44.07626022 1.33176099 44.08564525 -1 44 C-1.02464513 37.8944529 -1.04283371 31.78893449 -1.05493164 25.68334961 C-1.05997288 23.60456844 -1.06680574 21.52579084 -1.07543945 19.44702148 C-1.08751422 16.46597414 -1.09323024 13.48497351 -1.09765625 10.50390625 C-1.10539818 9.10078941 -1.10539818 9.10078941 -1.11329651 7.66932678 C-1.11337204 6.80850998 -1.11344757 5.94769318 -1.11352539 5.06079102 C-1.115746 4.29912125 -1.11796661 3.53745148 -1.12025452 2.75270081 C-1 1 -1 1 0 0 Z " fill="#F8F6F6" transform="translate(704,690)"/>
<path d="M0 0 C4.28602114 0.16484697 6.46146021 0.55720062 9.8125 3.3125 C15.88786038 10.77651419 15.58839473 19.71643875 15 29 C14.19040665 34.07711086 13.04739069 38.49006453 9.25 42.125 C5.46971207 44.30593534 3.28354941 44.15225887 -1 44 C-1.02464513 37.8944529 -1.04283371 31.78893449 -1.05493164 25.68334961 C-1.05997288 23.60456844 -1.06680574 21.52579084 -1.07543945 19.44702148 C-1.08751422 16.46597414 -1.09323024 13.48497351 -1.09765625 10.50390625 C-1.10539818 9.10078941 -1.10539818 9.10078941 -1.11329651 7.66932678 C-1.11337204 6.80850998 -1.11344757 5.94769318 -1.11352539 5.06079102 C-1.115746 4.29912125 -1.11796661 3.53745148 -1.12025452 2.75270081 C-1 1 -1 1 0 0 Z " fill="#F9F8F8" transform="translate(845,690)"/>
<path d="M0 0 C4.10401722 0.15784682 6.43509829 0.57632372 9.75 3.0625 C15.61696686 10.72215118 15.9474178 18.61003695 15 28 C13.78049013 33.00916957 12.13852471 36.77159176 8.625 40.5625 C5.68289804 42.17365108 3.33889459 42.7723481 0 43 C-1.92257175 41.07742825 -1.12908424 38.21914892 -1.13894653 35.66125488 C-1.1369223 34.77272827 -1.13489807 33.88420166 -1.1328125 32.96875 C-1.13376923 32.06249878 -1.13472595 31.15624756 -1.13571167 30.22253418 C-1.13639353 28.30248953 -1.13453882 26.38244259 -1.13037109 24.46240234 C-1.12502292 21.51264296 -1.13031588 18.56303586 -1.13671875 15.61328125 C-1.13605797 13.75260383 -1.13477681 11.8919265 -1.1328125 10.03125 C-1.13483673 9.14272339 -1.13686096 8.25419678 -1.13894653 7.33874512 C-1.11494988 1.11494988 -1.11494988 1.11494988 0 0 Z " fill="#F8F7F7" transform="translate(560,632)"/>
<path d="M0 0 C5.26026623 0.3034769 8.34536162 1.14232615 12 5 C16.22183364 11.84228211 16.04937428 20.00297964 14.42578125 27.734375 C13.24145161 31.56934717 12.21574771 34.448293 9 37 C6.7734375 37.765625 6.7734375 37.765625 4.375 38.25 C3.57835937 38.42015625 2.78171875 38.5903125 1.9609375 38.765625 C1.31382812 38.84296875 0.66671875 38.9203125 0 39 C-1.81565436 37.18434564 -1.12861899 34.68730038 -1.13894653 32.27111816 C-1.1369223 31.47008667 -1.13489807 30.66905518 -1.1328125 29.84375 C-1.13376923 29.02628296 -1.13472595 28.20881592 -1.13571167 27.36657715 C-1.13639345 25.63484622 -1.13453929 23.90311276 -1.13037109 22.17138672 C-1.12502279 19.51133518 -1.13031612 16.8514525 -1.13671875 14.19140625 C-1.13605797 12.51302046 -1.1347768 10.83463477 -1.1328125 9.15625 C-1.13483673 8.35521851 -1.13686096 7.55418701 -1.13894653 6.72888184 C-1.11495079 1.11495079 -1.11495079 1.11495079 0 0 Z " fill="#F8F6F6" transform="translate(704,632)"/>
<path d="M0 0 C5.25181916 0.30298957 8.39424547 1.09376593 12 5 C15.78432394 12.30766002 16.12385988 19.84014018 14.37890625 27.8515625 C12.84586637 32.47112268 11.34596788 35.31181233 7 37.6875 C3.86476211 39.07753711 2.25075824 38.91300593 -1 38 C-1.02464928 32.74894558 -1.04283568 27.49792455 -1.05493164 22.24682617 C-1.05997218 20.45905979 -1.06680454 18.67129755 -1.07543945 16.88354492 C-1.0875173 14.31948832 -1.09323094 11.75548603 -1.09765625 9.19140625 C-1.10281754 8.3872377 -1.10797882 7.58306915 -1.11329651 6.75453186 C-1.11349215 4.83598285 -1.06201983 2.91754632 -1 1 C-0.67 0.67 -0.34 0.34 0 0 Z " fill="#F8F7F7" transform="translate(845,632)"/>
<path d="M0 0 C3.0732758 5.22930201 3.38075643 11.41520854 4.28710938 17.31445312 C4.61987865 19.46687401 4.9693111 21.61611222 5.3203125 23.765625 C6.61076268 31.90202275 7.24672992 39.74104048 7 48 C2.71 48 -1.58 48 -6 48 C-6.31687385 38.9081581 -5.25687423 30.28986036 -3.91870117 21.32641602 C-3.55872361 18.91217307 -3.21111636 16.49637699 -2.86523438 14.08007812 C-2.64133427 12.54156328 -2.41675048 11.00314774 -2.19140625 9.46484375 C-2.08719864 8.74409164 -1.98299103 8.02333954 -1.87562561 7.28074646 C-1.11640328 2.23280656 -1.11640328 2.23280656 0 0 Z " fill="#F5F2F2" transform="translate(493,656)"/>
<path d="M0 0 C0.66 0.33 1.32 0.66 2 1 C2.5379949 3.79699909 2.94924829 6.52467602 3.2890625 9.34765625 C3.45128799 10.61554237 3.45128799 10.61554237 3.61679077 11.90904236 C3.84460271 13.70500702 4.06790785 15.50154809 4.28710938 17.29858398 C4.62078209 20.02799789 4.96930459 22.75518926 5.3203125 25.48242188 C5.53995608 27.22905453 5.75873287 28.97579644 5.9765625 30.72265625 C6.07965729 31.5313063 6.18275208 32.33995636 6.28897095 33.17311096 C6.889385 38.15459763 7.09384366 42.98222988 7 48 C2.71 48 -1.58 48 -6 48 C-6.37177154 39.73523274 -5.12879519 31.73624114 -3.91870117 23.5871582 C-3.56092094 21.1768622 -3.2123015 18.76537536 -2.86523438 16.35351562 C-2.64115135 14.81242337 -2.41656006 13.27140492 -2.19140625 11.73046875 C-2.08719864 11.01376511 -1.98299103 10.29706146 -1.87562561 9.55863953 C-1.39407746 6.32655815 -0.88342952 3.14902331 0 0 Z " fill="#F7F6F6" transform="translate(637,655)"/>
</svg>
