<?xml version="1.0" encoding="UTF-8"?>
<svg version="1.1" xmlns="http://www.w3.org/2000/svg" width="150" height="150">
<path d="M0 0 C2.26685452 1.68622161 4.37461281 3.45620684 6.4765625 5.34375 C7.70826172 6.43623047 7.70826172 6.43623047 8.96484375 7.55078125 C22.24806842 20.02774039 31.07984821 37.58848816 31.8125 55.9453125 C32.13371051 77.23647878 28.10626638 96.0522542 13.4765625 112.34375 C12.74824219 113.16488281 12.01992187 113.98601562 11.26953125 114.83203125 C-1.20742789 128.11525592 -18.76817566 136.94703571 -37.125 137.6796875 C-58.41616628 138.00089801 -77.2319417 133.97345388 -93.5234375 119.34375 C-94.34457031 118.61542969 -95.16570312 117.88710937 -96.01171875 117.13671875 C-109.29494342 104.65975961 -118.12672321 87.09901184 -118.859375 68.7421875 C-119.18058551 47.45102122 -115.15314138 28.6352458 -100.5234375 12.34375 C-99.79511719 11.52261719 -99.06679687 10.70148437 -98.31640625 9.85546875 C-72.64852592 -17.47107913 -30.68115209 -20.13747444 0 0 Z " fill="#D42A1E" transform="translate(118.5234375,12.65625)"/>
<path d="M0 0 C19.07310128 0 35.61886954 5.08579724 50 18 C50.82113281 18.72832031 51.64226562 19.45664062 52.48828125 20.20703125 C64.54025547 31.52747441 72.46416794 46.6323567 75 63 C75 66.96 75 70.92 75 75 C50.25 75 25.5 75 0 75 C0 50.25 0 25.5 0 0 Z " fill="#FEFEFE" transform="translate(75,0)"/>
<path d="M0 0 C0 24.75 0 49.5 0 75 C-24.75 75 -49.5 75 -75 75 C-75 55.92689872 -69.91420276 39.38113046 -57 25 C-56.27167969 24.17886719 -55.54335938 23.35773437 -54.79296875 22.51171875 C-39.93253296 6.69099631 -21.30167314 0 0 0 Z " fill="#0039A6" transform="translate(75,0)"/>
<path d="M0 0 C1.32 0 2.64 0 4 0 C4.00257813 0.65742187 4.00515625 1.31484375 4.0078125 1.9921875 C4.8697565 23.1960099 15.0966936 40.78917874 30.18359375 55.06640625 C42.54508304 65.51174786 58.83992744 70.60006415 74.8125 70.4375 C75.86276367 70.42992676 76.91302734 70.42235352 77.99511719 70.41455078 C95.36635824 70.04740175 110.04030254 63.51471377 123 52 C123.95519531 51.16855469 123.95519531 51.16855469 124.9296875 50.3203125 C138.83748961 37.40150965 144.94562873 18.46967599 146 0 C147.32 0 148.64 0 150 0 C151.16007896 17.3045112 145.05325478 34.55678087 133.92578125 47.85546875 C133.29027344 48.56316406 132.65476563 49.27085938 132 50 C131.27167969 50.82113281 130.54335937 51.64226562 129.79296875 52.48828125 C117.31600961 65.77150592 99.75526184 74.60328571 81.3984375 75.3359375 C60.10727122 75.65714801 41.2914958 71.62970388 25 57 C24.17886719 56.27167969 23.35773437 55.54335937 22.51171875 54.79296875 C10.13776833 43.17009271 0.49570293 26.08480047 -0.11328125 8.78125 C-0.12355217 5.85061303 -0.08921201 2.92912754 0 0 Z " fill="#BA2A1F" transform="translate(0,75)"/>
<path d="M0 0 C17.3045112 -1.16007896 34.55678087 4.94674522 47.85546875 16.07421875 C48.56316406 16.70972656 49.27085938 17.34523438 50 18 C50.82113281 18.72832031 51.64226562 19.45664062 52.48828125 20.20703125 C64.86223167 31.82990729 74.50429707 48.91519953 75.11328125 66.21875 C75.12355217 69.14938697 75.08921201 72.07087246 75 75 C73.68 75 72.36 75 71 75 C70.86464844 73.741875 70.72929687 72.48375 70.58984375 71.1875 C68.58421258 54.53929015 63.97947565 40.96073441 53 28 C52.33484375 27.21109375 51.6696875 26.4221875 50.984375 25.609375 C37.87863695 11.33868246 18.79249192 5.49084487 0 4 C0 2.68 0 1.36 0 0 Z " fill="#DFDFDF" transform="translate(75,0)"/>
<path d="M0 0 C0 1.32 0 2.64 0 4 C-1.29292969 4.15855469 -2.58585937 4.31710938 -3.91796875 4.48046875 C-24.40302531 7.15389203 -41.39722881 13.78336298 -55 30 C-65.06642548 43.69359904 -69.54921297 58.17087042 -71 75 C-72.32 75 -73.64 75 -75 75 C-76.16007896 57.6954888 -70.05325478 40.44321913 -58.92578125 27.14453125 C-58.29027344 26.43683594 -57.65476562 25.72914062 -57 25 C-56.27167969 24.17886719 -55.54335938 23.35773437 -54.79296875 22.51171875 C-40.24072623 7.01910515 -21.00494562 -0.63974454 0 0 Z " fill="#053693" transform="translate(75,0)"/>
<path d="M0 0 C2.91562667 4.37344001 3.68432959 8.91672797 5 14 C9.62 14 14.24 14 19 14 C16.06110085 16.93889915 13.3253877 19.54971433 10 22 C9.34 22 8.68 22 8 22 C8.30035156 22.91523437 8.60070312 23.83046875 8.91015625 24.7734375 C9.29042969 25.96195313 9.67070313 27.15046875 10.0625 28.375 C10.44535156 29.55835937 10.82820313 30.74171875 11.22265625 31.9609375 C12 35 12 35 11 37 C10.39671875 36.48308594 9.7934375 35.96617188 9.171875 35.43359375 C8.37265625 34.77488281 7.5734375 34.11617187 6.75 33.4375 C5.96109375 32.77621094 5.1721875 32.11492188 4.359375 31.43359375 C2.17444119 29.80517394 2.17444119 29.80517394 0 30.09375 C-2.43942935 31.19911643 -4.54671515 32.53964135 -6.75 34.0625 C-7.54921875 34.61035156 -8.3484375 35.15820312 -9.171875 35.72265625 C-10.07679687 36.35494141 -10.07679687 36.35494141 -11 37 C-10.52229477 35.06213915 -10.04278429 33.12472326 -9.5625 31.1875 C-9.29566406 30.10855469 -9.02882813 29.02960937 -8.75390625 27.91796875 C-8.23922588 25.9259157 -7.65062825 23.95188476 -7 22 C-7.515625 21.773125 -8.03125 21.54625 -8.5625 21.3125 C-11.90966116 19.51018245 -15.03890492 17.38717496 -18 15 C-18 14.67 -18 14.34 -18 14 C-13.38 14 -8.76 14 -4 14 C-3.525625 12.06125 -3.05125 10.1225 -2.5625 8.125 C-1.125 2.25 -1.125 2.25 0 0 Z " fill="#F5F7FB" transform="translate(37,19)"/>
</svg>
