<?xml version="1.0" encoding="UTF-8"?>
<svg version="1.1" xmlns="http://www.w3.org/2000/svg" width="150" height="150">
<path d="M0 0 C2.26685452 1.68622161 4.37461281 3.45620684 6.4765625 5.34375 C7.70826172 6.43623047 7.70826172 6.43623047 8.96484375 7.55078125 C22.24806842 20.02774039 31.07984821 37.58848816 31.8125 55.9453125 C32.13371051 77.23647878 28.10626638 96.0522542 13.4765625 112.34375 C12.74824219 113.16488281 12.01992187 113.98601562 11.26953125 114.83203125 C-1.20742789 128.11525592 -18.76817566 136.94703571 -37.125 137.6796875 C-58.41616628 138.00089801 -77.2319417 133.97345388 -93.5234375 119.34375 C-94.34457031 118.61542969 -95.16570312 117.88710937 -96.01171875 117.13671875 C-109.29494342 104.65975961 -118.12672321 87.09901184 -118.859375 68.7421875 C-119.18058551 47.45102122 -115.15314138 28.6352458 -100.5234375 12.34375 C-99.79511719 11.52261719 -99.06679687 10.70148437 -98.31640625 9.85546875 C-72.64852592 -17.47107913 -30.68115209 -20.13747444 0 0 Z " fill="#00148D" transform="translate(118.5234375,12.65625)"/>
<path d="M0 0 C2.26685452 1.68622161 4.37461281 3.45620684 6.4765625 5.34375 C7.70826172 6.43623047 7.70826172 6.43623047 8.96484375 7.55078125 C21.01681797 18.87122441 28.94073044 33.9761067 31.4765625 50.34375 C31.4765625 54.30375 31.4765625 58.26375 31.4765625 62.34375 C-18.0234375 62.34375 -67.5234375 62.34375 -118.5234375 62.34375 C-118.5234375 43.27064872 -113.43764026 26.72488046 -100.5234375 12.34375 C-99.79511719 11.52261719 -99.06679687 10.70148437 -98.31640625 9.85546875 C-72.64852592 -17.47107913 -30.68115209 -20.13747444 0 0 Z " fill="#FEE700" transform="translate(118.5234375,12.65625)"/>
<path d="M0 0 C42.9 0 85.8 0 130 0 C123.93452727 15.16368182 110.16280442 25.96328113 95.59765625 32.53515625 C76.7660458 40.07219521 55.09356289 41.11776687 36.16601562 33.23632812 C21.43534987 26.81763678 7.69264762 16.35960889 0 2 C0 1.34 0 0.68 0 0 Z " fill="#D90010" transform="translate(10,112)"/>
<path d="M0 0 C2.26685452 1.68622161 4.37461281 3.45620684 6.4765625 5.34375 C7.70826172 6.43623047 7.70826172 6.43623047 8.96484375 7.55078125 C21.33879417 19.17365729 30.98085957 36.25894953 31.58984375 53.5625 C31.60011467 56.49313697 31.56577451 59.41462246 31.4765625 62.34375 C30.1565625 62.34375 28.8365625 62.34375 27.4765625 62.34375 C27.31800781 61.05082031 27.15945312 59.75789063 26.99609375 58.42578125 C24.2610949 37.46890307 17.26659996 20.0618672 0.4765625 6.34375 C-16.57149694 -5.54395373 -37.30915938 -10.82042304 -57.93505859 -7.23730469 C-62.64191862 -6.12385393 -67.05928074 -4.50524857 -71.5234375 -2.65625 C-72.46445313 -2.27210937 -73.40546875 -1.88796875 -74.375 -1.4921875 C-80.86374418 1.46089422 -86.18613192 5.66482915 -91.5234375 10.34375 C-92.2246875 10.93800781 -92.9259375 11.53226563 -93.6484375 12.14453125 C-107.66251445 24.92690222 -113.2235005 44.04200533 -114.5234375 62.34375 C-115.8434375 62.34375 -117.1634375 62.34375 -118.5234375 62.34375 C-119.68351646 45.0392388 -113.57669228 27.78696913 -102.44921875 14.48828125 C-101.81371094 13.78058594 -101.17820312 13.07289062 -100.5234375 12.34375 C-99.79511719 11.52261719 -99.06679687 10.70148437 -98.31640625 9.85546875 C-72.64852592 -17.47107913 -30.68115209 -20.13747444 0 0 Z " fill="#DECA06" transform="translate(118.5234375,12.65625)"/>
<path d="M0 0 C42.9 0 85.8 0 130 0 C123.93452727 15.16368182 110.16280442 25.96328113 95.59765625 32.53515625 C76.7660458 40.07219521 55.09356289 41.11776687 36.16601562 33.23632812 C21.43534987 26.81763678 7.69264762 16.35960889 0 2 C0 1.34 0 0.68 0 0 Z M5 1 C11.45418874 12.29483029 19.72707873 19.68716409 31 26 C31.65226562 26.38671875 32.30453125 26.7734375 32.9765625 27.171875 C34.94689284 28.26184497 36.91474316 29.14909835 39 30 C39.91136719 30.37253906 40.82273438 30.74507812 41.76171875 31.12890625 C59.30170351 37.20125321 78.25283414 35.47317388 95 28 C96.03253906 27.55527344 97.06507812 27.11054688 98.12890625 26.65234375 C108.34397147 21.66832189 117.11819586 12.92774591 124 4 C124.33 3.01 124.66 2.02 125 1 C85.4 1 45.8 1 5 1 Z " fill="#B0051C" transform="translate(10,112)"/>
<path d="M0 0 C1.32 0 2.64 0 4 0 C4.08636719 0.90878906 4.17273438 1.81757812 4.26171875 2.75390625 C5.62832057 14.9780968 9.06546421 25.72106104 14 37 C11.525 37.495 11.525 37.495 9 38 C2.85035556 25.87713534 -0.91714226 13.6807054 0 0 Z " fill="#04157E" transform="translate(0,75)"/>
<path d="M0 0 C1.32 0 2.64 0 4 0 C4.91714226 13.6807054 1.14964444 25.87713534 -5 38 C-6.65 37.67 -8.3 37.34 -10 37 C-9.51789063 35.87722656 -9.03578125 34.75445312 -8.5390625 33.59765625 C-3.70803801 22.21333051 -0.87975593 12.38603741 0 0 Z " fill="#05167E" transform="translate(146,75)"/>
</svg>
