<?xml version="1.0" encoding="UTF-8"?>
<svg version="1.1" xmlns="http://www.w3.org/2000/svg" width="150" height="150">
<path d="M0 0 C2.26685452 1.68622161 4.37461281 3.45620684 6.4765625 5.34375 C7.70826172 6.43623047 7.70826172 6.43623047 8.96484375 7.55078125 C22.24806842 20.02774039 31.07984821 37.58848816 31.8125 55.9453125 C32.13371051 77.23647878 28.10626638 96.0522542 13.4765625 112.34375 C12.74824219 113.16488281 12.01992187 113.98601562 11.26953125 114.83203125 C-1.20742789 128.11525592 -18.76817566 136.94703571 -37.125 137.6796875 C-58.41616628 138.00089801 -77.2319417 133.97345388 -93.5234375 119.34375 C-94.34457031 118.61542969 -95.16570312 117.88710937 -96.01171875 117.13671875 C-109.29494342 104.65975961 -118.12672321 87.09901184 -118.859375 68.7421875 C-119.18058551 47.45102122 -115.15314138 28.6352458 -100.5234375 12.34375 C-99.79511719 11.52261719 -99.06679687 10.70148437 -98.31640625 9.85546875 C-72.64852592 -17.47107913 -30.68115209 -20.13747444 0 0 Z " fill="#00148C" transform="translate(118.5234375,12.65625)"/>
<path d="M0 0 C2.26685452 1.68622161 4.37461281 3.45620684 6.4765625 5.34375 C7.70826172 6.43623047 7.70826172 6.43623047 8.96484375 7.55078125 C21.01681797 18.87122441 28.94073044 33.9761067 31.4765625 50.34375 C31.4765625 54.30375 31.4765625 58.26375 31.4765625 62.34375 C15.9665625 62.34375 0.4565625 62.34375 -15.5234375 62.34375 C-16.1834375 64.98375 -16.8434375 67.62375 -17.5234375 70.34375 C-19.2109375 73.34375 -19.2109375 73.34375 -21.5234375 75.34375 C-25.1484375 75.78125 -25.1484375 75.78125 -28.5234375 75.34375 C-29.1834375 74.68375 -29.8434375 74.02375 -30.5234375 73.34375 C-29.2034375 73.34375 -27.8834375 73.34375 -26.5234375 73.34375 C-26.4409375 72.8075 -26.3584375 72.27125 -26.2734375 71.71875 C-25.5234375 69.34375 -25.5234375 69.34375 -23.5859375 66.53125 C-19.80248012 60.68408859 -19.21448853 54.98154012 -19.3359375 48.21875 C-19.33658203 47.52910156 -19.33722656 46.83945312 -19.33789062 46.12890625 C-19.36983453 42.41631495 -19.64559959 38.95341947 -20.5234375 35.34375 C-21.5134375 35.83875 -21.5134375 35.83875 -22.5234375 36.34375 C-23.01171875 34.32552083 -23.5 32.30729167 -23.98828125 30.2890625 C-24.47190742 28.2851843 -24.47190742 28.2851843 -25.5234375 26.34375 C-26.8434375 26.67375 -28.1634375 27.00375 -29.5234375 27.34375 C-30.7281251 30.64202466 -30.7281251 30.64202466 -31.5234375 34.34375 C-31.22179687 34.92382812 -30.92015625 35.50390625 -30.609375 36.1015625 C-28.08645596 41.31075506 -28.68661544 48.68322634 -29.5234375 54.34375 C-31.46280472 59.70710349 -34.26143144 63.2394947 -38.5234375 66.96875 C-42.03741671 68.57932381 -43.70817075 69.03049802 -47.5234375 68.34375 C-53.65125547 65.65986073 -56.77990306 62.37952578 -59.5234375 56.34375 C-62.15870932 48.15683887 -61.35460217 38.00607935 -57.5234375 30.34375 C-57.1934375 30.01375 -56.8634375 29.68375 -56.5234375 29.34375 C-57.668125 29.158125 -57.668125 29.158125 -58.8359375 28.96875 C-61.5234375 28.34375 -61.5234375 28.34375 -64.5234375 26.34375 C-65.5134375 27.33375 -66.5034375 28.32375 -67.5234375 29.34375 C-68.6484375 22.71875 -68.6484375 22.71875 -67.5234375 19.34375 C-68.1834375 19.34375 -68.8434375 19.34375 -69.5234375 19.34375 C-69.5028125 20.395625 -69.4821875 21.4475 -69.4609375 22.53125 C-69.51240552 25.67079904 -69.78860937 28.31258396 -70.5234375 31.34375 C-71.5134375 30.84875 -71.5134375 30.84875 -72.5234375 30.34375 C-72.5234375 29.35375 -72.5234375 28.36375 -72.5234375 27.34375 C-73.1834375 27.34375 -73.8434375 27.34375 -74.5234375 27.34375 C-74.5234375 28.33117188 -74.5234375 29.31859375 -74.5234375 30.3359375 C-74.5234375 34.671875 -74.5234375 39.0078125 -74.5234375 43.34375 C-74.23082031 43.89675781 -73.93820313 44.44976562 -73.63671875 45.01953125 C-72.16166692 48.09902541 -71.50595987 51.21245449 -70.7109375 54.53125 C-68.79191177 62.1264357 -66.32686066 68.89357869 -60.5234375 74.34375 C-61.5234375 75.34375 -61.5234375 75.34375 -64.8359375 75.78125 C-68.5234375 75.34375 -68.5234375 75.34375 -70.8984375 72.78125 C-72.5234375 69.34375 -72.5234375 69.34375 -73.5234375 62.34375 C-88.3734375 62.34375 -103.2234375 62.34375 -118.5234375 62.34375 C-118.5234375 43.27064872 -113.43764026 26.72488046 -100.5234375 12.34375 C-99.79511719 11.52261719 -99.06679687 10.70148437 -98.31640625 9.85546875 C-72.64852592 -17.47107913 -30.68115209 -20.13747444 0 0 Z " fill="#FEE700" transform="translate(118.5234375,12.65625)"/>
<path d="M0 0 C43.23 0 86.46 0 131 0 C124.93452727 15.16368182 111.16280442 25.96328113 96.59765625 32.53515625 C77.7660458 40.07219521 56.09356289 41.11776687 37.16601562 33.23632812 C20.73873032 26.07835741 9.18859651 15.31432752 0 0 Z " fill="#D90010" transform="translate(9,112)"/>
<path d="M0 0 C0.66 0 1.32 0 2 0 C1.979375 0.94875 1.95875 1.8975 1.9375 2.875 C1.77448174 5.90666283 1.77448174 5.90666283 3 8 C3.66 7.34 4.32 6.68 5 6 C5.495 6.515625 5.99 7.03125 6.5 7.5625 C10.24714452 9.7171081 12.80844613 8.76845154 17 8 C15 11 15 11 12 13 C8.87521575 20.40080481 8.64466745 29.88595026 11.1875 37.5 C13.65034455 42.25583776 16.77659103 46.25886368 22 48 C25.70817933 48.48367556 27.66138263 48.15894285 31.0625 46.5625 C36.25170954 42.03574275 38.70885457 38.02250977 39.37890625 31.06640625 C39.52115609 25.78735678 39.59438344 20.78315032 37.90625 15.71875 C37 13 37 13 38.0625 9.6875 C40 7 40 7 45 6 C45.99 9.3 46.98 12.6 48 16 C48.66 15.67 49.32 15.34 50 15 C52.10912667 26.06005449 52.5338267 37.87624346 47 48 C46.00987583 49.00977924 45.01101827 50.01114103 44 51 C43.67 51.99 43.34 52.98 43 54 C40.6875 54.625 40.6875 54.625 38 55 C37.01 54.34 36.02 53.68 35 53 C35.495 56.465 35.495 56.465 36 60 C34.125 60.625 34.125 60.625 32 61 C31.34 60.34 30.68 59.68 30 59 C30 58.01 30 57.02 30 56 C29.01 56 28.02 56 27 56 C27.28317926 57.60568666 27.57687791 59.20952047 27.875 60.8125 C28.03742188 61.70582031 28.19984375 62.59914062 28.3671875 63.51953125 C28.91188449 66.22727846 28.91188449 66.22727846 31 69 C27.04 69 23.08 69 19 69 C19.66 67.68 20.32 66.36 21 65 C21.44811137 62.64435404 21.44811137 62.64435404 21.625 60.25 C21.69976562 59.45078125 21.77453125 58.6515625 21.8515625 57.828125 C21.90054688 57.22484375 21.94953125 56.6215625 22 56 C21.34 56 20.68 56 20 56 C19.01 58.475 19.01 58.475 18 61 C16.35 60.67 14.7 60.34 13 60 C13.33 58.02 13.66 56.04 14 54 C12.02 54.66 10.04 55.32 8 56 C1.44690808 47.7306221 -1.93050744 38.23854215 -4 28 C-4.99 28.99 -5.98 29.98 -7 31 C-6.34 23.41 -5.68 15.82 -5 8 C-4.34 8 -3.68 8 -3 8 C-2.34 9.32 -1.68 10.64 -1 12 C-0.67 8.04 -0.34 4.08 0 0 Z " fill="#883C1E" transform="translate(49,32)"/>
<path d="M0 0 C2.26685452 1.68622161 4.37461281 3.45620684 6.4765625 5.34375 C7.70826172 6.43623047 7.70826172 6.43623047 8.96484375 7.55078125 C21.33879417 19.17365729 30.98085957 36.25894953 31.58984375 53.5625 C31.60011467 56.49313697 31.56577451 59.41462246 31.4765625 62.34375 C30.1565625 62.34375 28.8365625 62.34375 27.4765625 62.34375 C27.31800781 61.05082031 27.15945312 59.75789063 26.99609375 58.42578125 C24.2610949 37.46890307 17.26659996 20.0618672 0.4765625 6.34375 C-12.14014593 -2.45394878 -26.7030825 -8.07194836 -42.1484375 -7.96875 C-43.46122681 -7.96137817 -43.46122681 -7.96137817 -44.80053711 -7.95385742 C-63.68513947 -7.61641607 -80.42011356 -0.54761359 -94.2109375 12.40625 C-107.40903816 26.13227469 -113.1971537 43.67107015 -114.5234375 62.34375 C-115.8434375 62.34375 -117.1634375 62.34375 -118.5234375 62.34375 C-119.68351646 45.0392388 -113.57669228 27.78696913 -102.44921875 14.48828125 C-101.81371094 13.78058594 -101.17820312 13.07289062 -100.5234375 12.34375 C-99.79511719 11.52261719 -99.06679687 10.70148437 -98.31640625 9.85546875 C-72.64852592 -17.47107913 -30.68115209 -20.13747444 0 0 Z " fill="#DECA06" transform="translate(118.5234375,12.65625)"/>
<path d="M0 0 C5.89856569 6.55396188 6.91002177 12.34619553 6.63671875 21.1484375 C5.95350947 27.06958459 3.92779028 30.63578858 0 35 C-3.64188687 36.98648375 -6.74377825 37.25559389 -10.75 36.5 C-15.54544352 34.28671837 -17.95231075 31.48800468 -20.06640625 26.77734375 C-21.29925458 22.67019759 -21.08319292 18.73432669 -20.75 14.5 C-20.688125 13.283125 -20.62625 12.06625 -20.5625 10.8125 C-19.3573943 5.89937674 -16.90817047 2.21165244 -12.9375 -0.9375 C-8.13515128 -2.17238967 -4.32450085 -2.35881865 0 0 Z " fill="#9EC5E8" transform="translate(80.75,41.5)"/>
<path d="M0 0 C43.23 0 86.46 0 131 0 C124.93452727 15.16368182 111.16280442 25.96328113 96.59765625 32.53515625 C77.7660458 40.07219521 56.09356289 41.11776687 37.16601562 33.23632812 C20.73873032 26.07835741 9.18859651 15.31432752 0 0 Z M6 1 C15.25752625 17.20067094 29.28699333 26.61950775 47 32 C48.52173828 32.53753906 48.52173828 32.53753906 50.07421875 33.0859375 C55.24483967 34.54286439 60.54598513 34.28942551 65.875 34.25 C67.43154297 34.26160156 67.43154297 34.26160156 69.01953125 34.2734375 C90.0148458 34.22048589 106.29564962 24.15940134 120.7578125 9.67578125 C123.45787808 6.66346429 123.45787808 6.66346429 126 1 C86.4 1 46.8 1 6 1 Z " fill="#B0061D" transform="translate(9,112)"/>
<path d="M0 0 C0.66 0.66 1.32 1.32 2 2 C3.0725 2 4.145 2 5.25 2 C8.9928001 2 11.54245702 2.65071494 15 4 C15 2.68 15 1.36 15 0 C23.27449001 0.42799086 30.33299888 3.04444196 38 6 C38 6.66 38 7.32 38 8 C33.38 8 28.76 8 24 8 C24 8.66 24 9.32 24 10 C22.453125 9.9690625 22.453125 9.9690625 20.875 9.9375 C17.44847031 9.99276661 14.35427586 10.34550715 11 11 C11.66 12.98 12.32 14.96 13 17 C10.03 17.495 10.03 17.495 7 18 C7.33 16.35 7.66 14.7 8 13 C7.34 13 6.68 13 6 13 C5.67 14.65 5.34 16.3 5 18 C4.34 18 3.68 18 3 18 C2.34 16.02 1.68 14.04 1 12 C-3.6270575 10.95728282 -7.99007093 10 -12.75 10 C-16.23974551 10 -18.76776623 9.26135952 -22 8 C-21 5 -21 5 -18.33984375 3.61328125 C-6.60658637 -0.87256801 -6.60658637 -0.87256801 0 0 Z " fill="#974300" transform="translate(67,20)"/>
<path d="M0 0 C0.66 0 1.32 0 2 0 C2.495 5.445 2.495 5.445 3 11 C3.33 10.01 3.66 9.02 4 8 C5.32 8 6.64 8 8 8 C8 7.34 8 6.68 8 6 C8.99 6 9.98 6 11 6 C10.34 7.98 9.68 9.96 9 12 C8.34 12 7.68 12 7 12 C6.87931529 18.39628979 7.34513908 24.63849395 8 31 C7.34 30.01 6.68 29.02 6 28 C5.01 29.32 4.02 30.64 3 32 C2.34 26.72 1.68 21.44 1 16 C0.01 16.495 0.01 16.495 -1 17 C-1.48828125 14.98177083 -1.9765625 12.96354167 -2.46484375 10.9453125 C-2.94846992 8.9414343 -2.94846992 8.9414343 -4 7 C-5.32 7.33 -6.64 7.66 -8 8 C-9.2046876 11.29827466 -9.2046876 11.29827466 -10 15 C-9.69835937 15.58007812 -9.39671875 16.16015625 -9.0859375 16.7578125 C-6.56301846 21.96700506 -7.16317794 29.33947634 -8 35 C-9.93936722 40.36335349 -12.73799394 43.8957447 -17 47.625 C-20.51397921 49.23557381 -22.18473325 49.68674802 -26 49 C-32.12781797 46.31611073 -35.25646556 43.03577578 -38 37 C-40.63527182 28.81308887 -39.83116467 18.66232935 -36 11 C-33.9375 9.875 -33.9375 9.875 -32 9 C-32 7.35 -32 5.7 -32 4 C-31.01 3.67 -30.02 3.34 -29 3 C-28.34 3.66 -27.68 4.32 -27 5 C-26.34 5.33 -25.68 5.66 -25 6 C-24.67 4.35 -24.34 2.7 -24 1 C-23.34 1 -22.68 1 -22 1 C-22 2.32 -22 3.64 -22 5 C-20.3603125 5.433125 -20.3603125 5.433125 -18.6875 5.875 C-15 7 -15 7 -12 9 C-11.01 6.36 -10.02 3.72 -9 1 C-8.34 2.32 -7.68 3.64 -7 5 C-4.55519921 4.81171228 -4.55519921 4.81171228 -2 4 C-0.63979849 2.03241727 -0.63979849 2.03241727 0 0 Z M-34.8125 14.3125 C-36.28114799 17.6362823 -36.70243781 20.36974128 -37 24 C-37.07605469 24.77730469 -37.15210938 25.55460937 -37.23046875 26.35546875 C-37.6142426 33.04558039 -36.07396562 37.66558093 -32 43 C-28.57547955 46.05430202 -25.38900441 46.54976524 -20.921875 46.33984375 C-17.02627073 45.6509869 -15.13253686 43.47786777 -12.80859375 40.4453125 C-8.93755643 34.15993483 -9.17589976 27.14220211 -10 20 C-11.24966153 15.65625673 -13.24943853 12.83395719 -16.25 9.5 C-23.53392913 5.52694775 -29.90657364 8.05321464 -34.8125 14.3125 Z " fill="#D4C302" transform="translate(97,32)"/>
<path d="M0 0 C5.17576869 5.7508541 6.25 9.62790769 6.25 17.5 C-2.66 17.5 -11.57 17.5 -20.75 17.5 C-19.53886311 5.38863109 -19.53886311 5.38863109 -14.75 0.5 C-10.46553699 -2.89802239 -4.57876572 -2.49750858 0 0 Z " fill="#A7CAEE" transform="translate(80.75,41.5)"/>
<path d="M0 0 C2.18975773 3.28463659 2.99806563 6.20696275 4 10 C4.66 9.67 5.32 9.34 6 9 C8.08426313 19.92967251 8.64457749 32.03488172 3 42 C1.09375 44.28125 1.09375 44.28125 -1 46 C-4.75 46.25 -4.75 46.25 -8 46 C-8.495 44.515 -8.495 44.515 -9 43 C-7.906875 42.525625 -6.81375 42.05125 -5.6875 41.5625 C-1.8380672 39.30271151 -0.59140698 37.10962537 0.578125 32.859375 C1.45185382 26.93743522 1.21223692 20.96621574 1 15 C0.01 15.66 -0.98 16.32 -2 17 C-2.10957031 16.36191406 -2.21914062 15.72382812 -2.33203125 15.06640625 C-2.49058594 14.24011719 -2.64914063 13.41382813 -2.8125 12.5625 C-3.03873047 11.32693359 -3.03873047 11.32693359 -3.26953125 10.06640625 C-3.51058594 9.38449219 -3.75164062 8.70257813 -4 8 C-4.99 7.67 -5.98 7.34 -7 7 C-5.75 4.0625 -5.75 4.0625 -4 1 C-1.8125 0.125 -1.8125 0.125 0 0 Z " fill="#0807B3" transform="translate(93,38)"/>
<path d="M0 0 C0.66 0 1.32 0 2 0 C1.979375 0.94875 1.95875 1.8975 1.9375 2.875 C1.77448174 5.90666283 1.77448174 5.90666283 3 8 C3.66 7.34 4.32 6.68 5 6 C5.495 6.515625 5.99 7.03125 6.5 7.5625 C10.24714452 9.7171081 12.80844613 8.76845154 17 8 C15 11 15 11 12 13 C11.67 13.99 11.34 14.98 11 16 C8.4375 17.1875 8.4375 17.1875 6 18 C6.33 16.02 6.66 14.04 7 12 C6.01 12 5.02 12 4 12 C4 14.31 4 16.62 4 19 C2.35 18.01 0.7 17.02 -1 16 C-1 22.27 -1 28.54 -1 35 C-3 31 -3 31 -4 28 C-4.99 28.99 -5.98 29.98 -7 31 C-6.34 23.41 -5.68 15.82 -5 8 C-4.34 8 -3.68 8 -3 8 C-2.34 9.32 -1.68 10.64 -1 12 C-0.67 8.04 -0.34 4.08 0 0 Z " fill="#C1890D" transform="translate(49,32)"/>
<path d="M0 0 C0.99 0 1.98 0 3 0 C3.99 2.64 4.98 5.28 6 8 C6.99 7.34 7.98 6.68 9 6 C9.63089556 25.04369941 9.63089556 25.04369941 6 31 C3.1875 33.625 3.1875 33.625 0 35 C-3.19921875 34.5859375 -3.19921875 34.5859375 -6 34 C-5.50628906 33.22914062 -5.01257813 32.45828125 -4.50390625 31.6640625 C-3.54291016 30.15972656 -3.54291016 30.15972656 -2.5625 28.625 C-1.92441406 27.62726563 -1.28632812 26.62953125 -0.62890625 25.6015625 C2.05523605 21.31465897 2.18307613 18.15550349 2.1875 13.1875 C2.19974609 12.47529297 2.21199219 11.76308594 2.22460938 11.02929688 C2.23607389 6.8982511 1.84522492 3.71232998 0 0 Z " fill="#CF0407" transform="translate(86,46)"/>
<path d="M0 0 C0.99 0 1.98 0 3 0 C3 3.3 3 6.6 3 10 C2.34 9.67 1.68 9.34 1 9 C0.48220857 22.29934785 0.48220857 22.29934785 4 35 C3.505 35.495 3.505 35.495 3 36 C3.66 36.33 4.32 36.66 5 37 C5 37.66 5 38.32 5 39 C1.96237289 38.69575892 0.45142289 38.52908025 -1.57104492 36.15869141 C-5.12180978 29.09121497 -5.62178012 23.20692431 -5.3125 15.375 C-5.28994141 14.27542969 -5.26738281 13.17585938 -5.24414062 12.04296875 C-5.18582612 9.36050164 -5.10405184 6.68101567 -5 4 C-3.02 4.99 -3.02 4.99 -1 6 C-0.67 4.02 -0.34 2.04 0 0 Z " fill="#0703B4" transform="translate(53,44)"/>
<path d="M0 0 C0.94488281 0.07863281 1.88976562 0.15726563 2.86328125 0.23828125 C5.76385642 0.69964521 8.07194773 1.35179982 10.6875 2.6875 C11.5 5.3125 11.5 5.3125 11.6875 7.6875 C10.6975 8.1825 10.6975 8.1825 9.6875 8.6875 C9.6875 7.6975 9.6875 6.7075 9.6875 5.6875 C8.6975 6.1825 8.6975 6.1825 7.6875 6.6875 C7.6875 8.0075 7.6875 9.3275 7.6875 10.6875 C5.25394121 12.21974072 4.03028436 12.72094238 1.125 12.4375 C-1.3125 11.6875 -1.3125 11.6875 -4.3125 9.6875 C-5.3025 10.6775 -6.2925 11.6675 -7.3125 12.6875 C-8.4375 6.0625 -8.4375 6.0625 -7.3125 2.6875 C-7.9725 2.6875 -8.6325 2.6875 -9.3125 2.6875 C-9.3125 3.3475 -9.3125 4.0075 -9.3125 4.6875 C-13.1875 2.9375 -13.1875 2.9375 -14.3125 0.6875 C-13.19875 0.708125 -12.085 0.72875 -10.9375 0.75 C-6.8949014 0.68030002 -4.13502724 -0.37489422 0 0 Z " fill="#E4D208" transform="translate(58.3125,29.3125)"/>
<path d="M0 0 C0.66 0.33 1.32 0.66 2 1 C1.67 1.99 1.34 2.98 1 4 C0.45990329 11.59251337 0.46542457 18.17461296 4 25 C6.56197123 27.81356892 6.56197123 27.81356892 9 30 C9 30.66 9 31.32 9 32 C6.9375 32.8125 6.9375 32.8125 4 33 C0.14208045 31.22833738 -2.40262679 29.29398432 -4.19921875 25.40234375 C-5.21826851 21.07262501 -5.21680569 17.05285926 -5.125 12.625 C-5.11597656 11.79355469 -5.10695312 10.96210937 -5.09765625 10.10546875 C-5.0742622 8.07018663 -5.03839725 6.03505436 -5 4 C-4.01 4.495 -4.01 4.495 -3 5 C-2.87625 4.360625 -2.7525 3.72125 -2.625 3.0625 C-2.41875 2.381875 -2.2125 1.70125 -2 1 C-1.34 0.67 -0.68 0.34 0 0 Z " fill="#D80501" transform="translate(58,48)"/>
<path d="M0 0 C3.3 0 6.6 0 10 0 C10.66 1.32 11.32 2.64 12 4 C10.02 4.99 10.02 4.99 8 6 C8 5.34 8 4.68 8 4 C5.48916886 5.25541557 5.12874554 6.50063488 4 9 C1.625 9.1875 1.625 9.1875 -1 9 C-1.66 8.01 -2.32 7.02 -3 6 C-3.99 8.64 -4.98 11.28 -6 14 C-9.465 12.02 -9.465 12.02 -13 10 C-12.34 9.67 -11.68 9.34 -11 9 C-11.66 7.02 -12.32 5.04 -13 3 C-8.23947038 1.02612187 -5.03511899 0.9929762 0 2 C0 1.34 0 0.68 0 0 Z " fill="#F4DC08" transform="translate(91,28)"/>
<path d="M0 0 C0.33 0 0.66 0 1 0 C4.03296513 10.70458282 3.44134703 21.11175901 -2 31 C-3.41015625 32.7578125 -3.41015625 32.7578125 -5 34 C-8.5625 34.3125 -8.5625 34.3125 -12 34 C-12.66 33.34 -13.32 32.68 -14 32 C-12.68 32 -11.36 32 -10 32 C-9.9175 31.46375 -9.835 30.9275 -9.75 30.375 C-9 28 -9 28 -7.08984375 25.31640625 C-4.82882751 21.72836366 -3.84118717 18.6646525 -2.8125 14.5625 C-2.48894531 13.30566406 -2.16539063 12.04882812 -1.83203125 10.75390625 C-1.03534421 7.1594638 -0.46599462 3.6479377 0 0 Z " fill="#F0D102" transform="translate(102,54)"/>
<path d="M0 0 C0.99 0 1.98 0 3 0 C3.91714226 13.6807054 0.14964444 25.87713534 -6 38 C-7.65 37.67 -9.3 37.34 -11 37 C-10.60167969 36.20078125 -10.20335937 35.4015625 -9.79296875 34.578125 C-4.35045847 23.29584092 -1.85787597 12.3275535 0 0 Z " fill="#05167E" transform="translate(147,75)"/>
<path d="M0 0 C0.99 0 1.98 0 3 0 C3.21914063 1.26972656 3.43828125 2.53945312 3.6640625 3.84765625 C5.47369028 13.82785074 7.75314248 22.92672615 11.828125 32.2265625 C13 35 13 35 13 37 C10.6640625 36.83203125 10.6640625 36.83203125 8 36 C1.3015427 25.56245674 -0.58009835 12.11760998 0 0 Z " fill="#07177D" transform="translate(0,75)"/>
<path d="M0 0 C2.04056579 3.5687428 2.85886299 7.20657275 3.8125 11.1875 C5.73152573 18.7826857 8.19657684 25.54982869 14 31 C13 32 13 32 9.6875 32.4375 C6 32 6 32 3.75 29.5625 C-1.07427336 19.7416578 -2.34189812 10.83127879 0 0 Z " fill="#EFD102" transform="translate(44,56)"/>
<path d="M0 0 C1.96875 0.3984375 1.96875 0.3984375 4.34375 2.8359375 C8.13057103 6.53259612 11.85057945 6.28911735 16.96875 6.3984375 C16.96875 7.3884375 16.96875 8.3784375 16.96875 9.3984375 C8.05875 9.3984375 -0.85125 9.3984375 -10.03125 9.3984375 C-9.70125 7.0884375 -9.37125 4.7784375 -9.03125 2.3984375 C-5.81830239 0.25647243 -3.82291933 -0.06925579 0 0 Z " fill="#F6FBFE" transform="translate(70.03125,49.6015625)"/>
<path d="M0 0 C5.61 0 11.22 0 17 0 C17 7 17 7 15 10 C14.01 9.34 13.02 8.68 12 8 C10.34450469 7.61500109 8.6777567 7.27206865 7 7 C7.33 8.32 7.66 9.64 8 11 C9.32 11.33 10.64 11.66 12 12 C11.67 12.99 11.34 13.98 11 15 C3.49230769 15.36923077 3.49230769 15.36923077 1 13.5 C0.67 13.005 0.34 12.51 0 12 C0.99 12 1.98 12 3 12 C3.33 11.01 3.66 10.02 4 9 C4 9.99 4 10.98 4 12 C4.67958603 9.60280568 4.67958603 9.60280568 5 7 C4.34 6.34 3.68 5.68 3 5 C3.99 5 4.98 5 6 5 C6 4.34 6 3.68 6 3 C5.195625 2.87625 4.39125 2.7525 3.5625 2.625 C2.716875 2.41875 1.87125 2.2125 1 2 C0.67 1.34 0.34 0.68 0 0 Z " fill="#9ED67D" transform="translate(70,59)"/>
<path d="M0 0 C0.66 0 1.32 0 2 0 C2.33 3.63 2.66 7.26 3 11 C3.33 10.01 3.66 9.02 4 8 C5.32 8 6.64 8 8 8 C8 7.34 8 6.68 8 6 C8.99 6 9.98 6 11 6 C10.34 7.98 9.68 9.96 9 12 C8.34 12 7.68 12 7 12 C6.87931529 18.39628979 7.34513908 24.63849395 8 31 C7.34 30.01 6.68 29.02 6 28 C5.01 29.32 4.02 30.64 3 32 C2.91697632 31.12263184 2.91697632 31.12263184 2.83227539 30.22753906 C2.57882735 27.56804892 2.32071175 24.90903168 2.0625 22.25 C1.97548828 21.32960938 1.88847656 20.40921875 1.79882812 19.4609375 C1.71181641 18.57148437 1.62480469 17.68203125 1.53515625 16.765625 C1.456604 15.94868164 1.37805176 15.13173828 1.29711914 14.29003906 C1.0165449 12.12751945 0.54286396 10.10864514 0 8 C-0.12205329 5.32459184 -0.04467313 2.68038762 0 0 Z " fill="#A17D2F" transform="translate(97,32)"/>
<path d="M0 0 C2.31 0.33 4.62 0.66 7 1 C7.75 2.6875 7.75 2.6875 8 5 C5.91882331 8.12176503 4.13348366 9.91101089 1 12 C-7.2173913 12.52173913 -7.2173913 12.52173913 -11 10 C-10.6875 8.0625 -10.6875 8.0625 -10 6 C-9.01 5.67 -8.02 5.34 -7 5 C-6.01 5.66 -5.02 6.32 -4 7 C-1.94290404 7.24055468 -1.94290404 7.24055468 0.1875 7.125 C1.445625 7.08375 2.70375 7.0425 4 7 C4.33 6.34 4.66 5.68 5 5 C3.68 4.67 2.36 4.34 1 4 C0.67 4.66 0.34 5.32 0 6 C0 4.02 0 2.04 0 0 Z " fill="#A5CAF2" transform="translate(77,66)"/>
<path d="M0 0 C0 3 0 3 -1.9375 5.75 C-4.29025474 9.45737111 -4.7094988 11.64248197 -5 16 C-5.07476562 16.77601562 -5.14953125 17.55203125 -5.2265625 18.3515625 C-5.6189505 25.02215856 -4.09410117 29.69449355 0 35 C3.1874839 37.54998712 5.98296051 38.42613722 10 39 C10 39.33 10 39.66 10 40 C5.96385598 40.32289152 3.48204325 40.23629571 -0.1875 38.4375 C-4.4054729 34.78192348 -6.9628228 30.55488172 -8 25 C-8.43663809 17.23190367 -8.53513793 10.07027585 -5 3 C-3.35857037 1.9590934 -1.69287785 0.95495674 0 0 Z " fill="#F0D304" transform="translate(66,40)"/>
<path d="M0 0 C1.90318884 2.85478326 2.4619099 4.41941308 3.125 7.6875 C3.29257813 8.49574219 3.46015625 9.30398437 3.6328125 10.13671875 C3.75398438 10.75160156 3.87515625 11.36648437 4 12 C1.03 14.475 1.03 14.475 -2 17 C-2.10957031 16.36191406 -2.21914062 15.72382812 -2.33203125 15.06640625 C-2.49058594 14.24011719 -2.64914063 13.41382813 -2.8125 12.5625 C-3.03873047 11.32693359 -3.03873047 11.32693359 -3.26953125 10.06640625 C-3.63111328 9.04353516 -3.63111328 9.04353516 -4 8 C-4.99 7.67 -5.98 7.34 -7 7 C-5.75 4.0625 -5.75 4.0625 -4 1 C-1.8125 0.125 -1.8125 0.125 0 0 Z " fill="#194405" transform="translate(93,38)"/>
<path d="M0 0 C1.98 0.66 3.96 1.32 6 2 C6 1.34 6 0.68 6 0 C7.32 0.33 8.64 0.66 10 1 C10.5625 2.9375 10.5625 2.9375 11 5 C10 6 10 6 8.15234375 6.09765625 C6.1015625 6.06510417 4.05078125 6.03255208 2 6 C1.67 6.66 1.34 7.32 1 8 C-0.97888961 8.72693904 -2.97954558 9.39816251 -5 10 C-4.38545304 6.00544473 -2.29353263 3.25533664 0 0 Z " fill="#9EC4C3" transform="translate(66,42)"/>
<path d="M0 0 C3.17280351 0.43762807 6.05667611 1.77361505 9 3 C8.67 4.65 8.34 6.3 8 8 C8.66 8.33 9.32 8.66 10 9 C8.68 9.33 7.36 9.66 6 10 C6 9.34 6 8.68 6 8 C4.02 8.66 2.04 9.32 0 10 C-0.99 8.68 -1.98 7.36 -3 6 C-1.68 5.67 -0.36 5.34 1 5 C1 4.34 1 3.68 1 3 C0.01 2.67 -0.98 2.34 -2 2 C-1.34 1.34 -0.68 0.68 0 0 Z " fill="#7D7665" transform="translate(57,78)"/>
<path d="M0 0 C2.64 0 5.28 0 8 0 C8.33 0.99 8.66 1.98 9 3 C7.02 3.99 7.02 3.99 5 5 C5.33 5.99 5.66 6.98 6 8 C6 9.66666667 6 11.33333333 6 13 C5.34 13.66 4.68 14.32 4 15 C0.95842058 9.77228537 -0.50610724 6.07328688 0 0 Z " fill="#A8ED76" transform="translate(60,59)"/>
<path d="M0 0 C0.33 0 0.66 0 1 0 C2.22780867 6.49622405 2.82234385 11.60949253 -0.5625 17.5 C-3.21813739 21.31479551 -5.70124005 24.02973502 -10 26 C-13.375 26.25 -13.375 26.25 -16 26 C-16 25.01 -16 24.02 -16 23 C-14.4221875 22.9071875 -14.4221875 22.9071875 -12.8125 22.8125 C-7.30027859 21.63776429 -5.29165223 18.93747835 -2.25 14.375 C-0.50113123 9.65305431 -0.25806517 5.00112501 0 0 Z " fill="#DEC30C" transform="translate(87,55)"/>
<path d="M0 0 C0.33 0.99 0.66 1.98 1 3 C3.31 3.33 5.62 3.66 8 4 C8 4.66 8 5.32 8 6 C5.6875 6.625 5.6875 6.625 3 7 C2.01 6.34 1.02 5.68 0 5 C0.33 7.31 0.66 9.62 1 12 C-0.875 12.625 -0.875 12.625 -3 13 C-3.66 12.34 -4.32 11.68 -5 11 C-5 10.01 -5 9.02 -5 8 C-3.68 8 -2.36 8 -1 8 C-1 5.69 -1 3.38 -1 1 C-2.65 1.66 -4.3 2.32 -6 3 C-6.33 2.01 -6.66 1.02 -7 0 C-4.3333581 -1.33332095 -2.83319697 -0.67102033 0 0 Z " fill="#9E5E26" transform="translate(84,80)"/>
<path d="M0 0 C0.66 0.515625 1.32 1.03125 2 1.5625 C6.14659826 3.54941167 8.53020565 2.83335149 13 2 C11 5 11 5 8 7 C7.67 7.99 7.34 8.98 7 10 C4.4375 11.1875 4.4375 11.1875 2 12 C2.33 10.02 2.66 8.04 3 6 C1.68 5.67 0.36 5.34 -1 5 C-0.67 3.35 -0.34 1.7 0 0 Z " fill="#543717" transform="translate(53,38)"/>
<path d="M0 0 C0.66 0 1.32 0 2 0 C1.95875 0.94875 1.9175 1.8975 1.875 2.875 C1.65026182 6.10244856 1.65026182 6.10244856 4 8 C4.1953125 10.6015625 4.1953125 10.6015625 4.125 13.625 C4.10695313 14.62789062 4.08890625 15.63078125 4.0703125 16.6640625 C4.03550781 17.82035156 4.03550781 17.82035156 4 19 C2.02 17.68 0.04 16.36 -2 15 C-1.34 10.05 -0.68 5.1 0 0 Z " fill="#AD8514" transform="translate(49,32)"/>
<path d="M0 0 C3 2 3 2 5 4 C4.67 5.32 4.34 6.64 4 8 C1.625 7.75 1.625 7.75 -1 7 C-2.125 5 -2.125 5 -3 3 C-3.99 2.67 -4.98 2.34 -6 2 C-6 2.66 -6 3.32 -6 4 C-7.65 4 -9.3 4 -11 4 C-10.67 3.01 -10.34 2.02 -10 1 C-6.80261338 -0.59869331 -3.469833 -0.51085495 0 0 Z " fill="#A1C5CC" transform="translate(78,40)"/>
<path d="M0 0 C1.3921875 0.2784375 1.3921875 0.2784375 2.8125 0.5625 C6.01343771 1.24123881 6.01343771 1.24123881 9 0 C9 2.31 9 4.62 9 7 C6.03 7 3.06 7 0 7 C0 4.69 0 2.38 0 0 Z " fill="#7A624D" transform="translate(74,81)"/>
<path d="M0 0 C0.33 0 0.66 0 1 0 C1.66 4.62 2.32 9.24 3 14 C2.01 14.66 1.02 15.32 0 16 C-0.48828125 13.98177083 -0.9765625 11.96354167 -1.46484375 9.9453125 C-1.94846992 7.9414343 -1.94846992 7.9414343 -3 6 C-3.99 6.495 -3.99 6.495 -5 7 C-5.99 6.67 -6.98 6.34 -8 6 C-7.67 4.68 -7.34 3.36 -7 2 C-6.67 2.66 -6.34 3.32 -6 4 C-4.35 3.67 -2.7 3.34 -1 3 C-0.67 2.01 -0.34 1.02 0 0 Z " fill="#D2A902" transform="translate(96,33)"/>
<path d="M0 0 C0 3 0 3 -1.875 5.375 C-5.30872769 10.14812502 -5.35956205 16.32032664 -6 22 C-6.33 22 -6.66 22 -7 22 C-8.06107259 14.87360705 -8.28632068 9.57264136 -5 3 C-3.35857037 1.9590934 -1.69287785 0.95495674 0 0 Z " fill="#E9CE0D" transform="translate(66,40)"/>
<path d="M0 0 C0.66 0 1.32 0 2 0 C1.67 2.31 1.34 4.62 1 7 C-1.31 7.66 -3.62 8.32 -6 9 C-8 6 -8 6 -7.625 3.8125 C-7.41875 3.214375 -7.2125 2.61625 -7 2 C-6.34 2 -5.68 2 -5 2 C-4.34 2.66 -3.68 3.32 -3 4 C-2.34 4.33 -1.68 4.66 -1 5 C-0.67 3.35 -0.34 1.7 0 0 Z " fill="#D0BE07" transform="translate(73,33)"/>
<path d="M0 0 C4.32233741 3.26576604 7.26601668 5.70171762 9 11 C9.23127172 15.01384923 9.17541905 18.9848528 9 23 C8.67 23 8.34 23 8 23 C7.85304688 21.948125 7.85304688 21.948125 7.703125 20.875 C6.70622575 14.54984611 5.1609268 9.54396927 2 4 C1.32679633 2.66995525 0.65842367 1.33742308 0 0 Z " fill="#F5D504" transform="translate(80,40)"/>
<path d="M0 0 C0.66 0 1.32 0 2 0 C2.12117188 0.68707031 2.24234375 1.37414062 2.3671875 2.08203125 C2.53476563 2.98308594 2.70234375 3.88414063 2.875 4.8125 C3.03742188 5.70582031 3.19984375 6.59914063 3.3671875 7.51953125 C3.91188449 10.22727846 3.91188449 10.22727846 6 13 C4.02 13 2.04 13 0 13 C0 8.71 0 4.42 0 0 Z " fill="#D00003" transform="translate(74,88)"/>
<path d="M0 0 C0.99 0 1.98 0 3 0 C5.49977543 3.33303391 6 4.73303602 6 9 C4.02 8.34 2.04 7.68 0 7 C0 4.69 0 2.38 0 0 Z " fill="#0E05AC" transform="translate(76,88)"/>
<path d="M0 0 C2.1519437 3.22791555 2.20086443 4.28400809 2 8 C0.35 8 -1.3 8 -3 8 C-3.33 5.69 -3.66 3.38 -4 1 C-2.68 0.67 -1.36 0.34 0 0 Z " fill="#07490C" transform="translate(93,38)"/>
<path d="M0 0 C0.66 0 1.32 0 2 0 C2 2.31 2 4.62 2 7 C0.02 7.99 -1.96 8.98 -4 10 C-4.1875 7.6875 -4.1875 7.6875 -4 5 C-2.5625 3.3125 -2.5625 3.3125 -1 2 C-0.67 1.34 -0.34 0.68 0 0 Z " fill="#0302BA" transform="translate(69,88)"/>
<path d="M0 0 C1.32 0.33 2.64 0.66 4 1 C4.5625 2.9375 4.5625 2.9375 5 5 C4 6 4 6 1.4375 6.0625 C0.2309375 6.0315625 0.2309375 6.0315625 -1 6 C-1.33 4.68 -1.66 3.36 -2 2 C-1.34 2 -0.68 2 0 2 C0 1.34 0 0.68 0 0 Z " fill="#918D3D" transform="translate(72,42)"/>
<path d="M0 0 C2.31 0 4.62 0 7 0 C6.67 1.65 6.34 3.3 6 5 C6.66 5.33 7.32 5.66 8 6 C6.68 6.33 5.36 6.66 4 7 C4 6.34 4 5.68 4 5 C2.68 4.34 1.36 3.68 0 3 C0 2.01 0 1.02 0 0 Z " fill="#4D3B5C" transform="translate(59,81)"/>
<path d="M0 0 C0.66 0 1.32 0 2 0 C2.33 0.99 2.66 1.98 3 3 C2.67 3.33 2.34 3.66 2 4 C1.79874525 5.32713344 1.6536871 6.66293715 1.53515625 8 C1.45716797 8.804375 1.37917969 9.60875 1.29882812 10.4375 C1.14130858 12.14548051 0.98766038 13.85382249 0.83789062 15.5625 C0.75861328 16.366875 0.67933594 17.17125 0.59765625 18 C0.53070557 18.7425 0.46375488 19.485 0.39477539 20.25 C0.19936157 21.11625 0.19936157 21.11625 0 22 C-0.66 22.33 -1.32 22.66 -2 23 C-1.34 15.41 -0.68 7.82 0 0 Z " fill="#5E443E" transform="translate(44,40)"/>
<path d="M0 0 C0.33 0 0.66 0 1 0 C1 4.29 1 8.58 1 13 C-0.65 13 -2.3 13 -4 13 C-3.79503906 12.39671875 -3.59007813 11.7934375 -3.37890625 11.171875 C-2.97478516 9.97304687 -2.97478516 9.97304687 -2.5625 8.75 C-2.29566406 7.96109375 -2.02882813 7.1721875 -1.75390625 6.359375 C-1.08045292 4.25178012 -0.50849405 2.15246027 0 0 Z " fill="#CF0005" transform="translate(72,88)"/>
<path d="M0 0 C0.99 0 1.98 0 3 0 C3.99 3.3 4.98 6.6 6 10 C5.67 10.33 5.34 10.66 5 11 C4.63239269 13.32817964 4.29758419 15.6618385 4 18 C3.67 18 3.34 18 3 18 C2.92652344 16.67935547 2.92652344 16.67935547 2.8515625 15.33203125 C2.77679688 14.17058594 2.70203125 13.00914063 2.625 11.8125 C2.55539063 10.66394531 2.48578125 9.51539063 2.4140625 8.33203125 C2.02490426 5.20040883 1.3190149 2.84714191 0 0 Z " fill="#BA2901" transform="translate(86,46)"/>
<path d="M0 0 C0 1.65 0 3.3 0 5 C-2.31 4.67 -4.62 4.34 -7 4 C-7 3.01 -7 2.02 -7 1 C-4 0 -4 0 0 0 Z " fill="#8E5927" transform="translate(76,22)"/>
<path d="M0 0 C0.66 0.33 1.32 0.66 2 1 C1.67 1.99 1.34 2.98 1 4 C0.77820215 5.89212737 0.59385985 7.78884472 0.4375 9.6875 C0.31181641 11.17830078 0.31181641 11.17830078 0.18359375 12.69921875 C0.12300781 13.45847656 0.06242187 14.21773437 0 15 C-0.33 15 -0.66 15 -1 15 C-1.144375 13.88625 -1.28875 12.7725 -1.4375 11.625 C-1.78372035 8.17857953 -1.78372035 8.17857953 -3 6 C-2.6875 3.4375 -2.6875 3.4375 -2 1 C-1.34 0.67 -0.68 0.34 0 0 Z " fill="#B61502" transform="translate(58,48)"/>
<path d="M0 0 C1.65 0 3.3 0 5 0 C4.67 1.65 4.34 3.3 4 5 C2.35 4.67 0.7 4.34 -1 4 C-0.67 2.68 -0.34 1.36 0 0 Z " fill="#D4BA0D" transform="translate(63,88)"/>
<path d="M0 0 C0.99 0 1.98 0 3 0 C3 3.3 3 6.6 3 10 C1.68 9.01 0.36 8.02 -1 7 C-0.67 4.69 -0.34 2.38 0 0 Z " fill="#0C117D" transform="translate(53,44)"/>
<path d="M0 0 C1.65 0 3.3 0 5 0 C5 1.65 5 3.3 5 5 C3.68 4.67 2.36 4.34 1 4 C0.67 4.66 0.34 5.32 0 6 C0 4.02 0 2.04 0 0 Z " fill="#9DC2EB" transform="translate(77,66)"/>
<path d="M0 0 C1.65 0 3.3 0 5 0 C5.33 1.32 5.66 2.64 6 4 C4.125 4.625 4.125 4.625 2 5 C1.34 4.34 0.68 3.68 0 3 C0 2.01 0 1.02 0 0 Z " fill="#E1C504" transform="translate(79,88)"/>
<path d="M0 0 C1.32 0.33 2.64 0.66 4 1 C3.67 1.99 3.34 2.98 3 4 C0.36 4 -2.28 4 -5 4 C-5 3.34 -5 2.68 -5 2 C-3.35 2 -1.7 2 0 2 C0 1.34 0 0.68 0 0 Z " fill="#9F5115" transform="translate(78,70)"/>
<path d="M0 0 C0.66 0.33 1.32 0.66 2 1 C2 5.29 2 9.58 2 14 C1.67 14 1.34 14 1 14 C1 10.7 1 7.4 1 4 C0.34 4 -0.32 4 -1 4 C-1.33 3.01 -1.66 2.02 -2 1 C-1.34 0.67 -0.68 0.34 0 0 Z " fill="#CBBF44" transform="translate(42,40)"/>
<path d="M0 0 C2.0625 0.25 2.0625 0.25 4 1 C4.33 1.66 4.66 2.32 5 3 C4.01 3 3.02 3 2 3 C1.67 3.99 1.34 4.98 1 6 C1 5.01 1 4.02 1 3 C0.01 2.67 -0.98 2.34 -2 2 C-1.34 1.34 -0.68 0.68 0 0 Z M-1 6 C1 7 1 7 1 7 Z " fill="#867B7A" transform="translate(57,78)"/>
<path d="M0 0 C1.875 0.3125 1.875 0.3125 4 1 C4.66 1.99 5.32 2.98 6 4 C5.01 4.99 4.02 5.98 3 7 C2.01 4.69 1.02 2.38 0 0 Z " fill="#9AD37F" transform="translate(61,67)"/>
<path d="M0 0 C0.33 0.66 0.66 1.32 1 2 C2.65 2 4.3 2 6 2 C5.67 3.32 5.34 4.64 5 6 C4.67 5.34 4.34 4.68 4 4 C3.01 4.495 3.01 4.495 2 5 C1.01 4.67 0.02 4.34 -1 4 C-0.67 2.68 -0.34 1.36 0 0 Z " fill="#7E8D03" transform="translate(89,35)"/>
<path d="M0 0 C0 3 0 3 -2 6 C-2.66 6 -3.32 6 -4 6 C-4 5.34 -4 4.68 -4 4 C-4.66 3.67 -5.32 3.34 -6 3 C-4.02 2.01 -2.04 1.02 0 0 Z " fill="#0E088B" transform="translate(70,95)"/>
<path d="M0 0 C0.268125 0.61875 0.53625 1.2375 0.8125 1.875 C1.95556848 4.2995233 1.95556848 4.2995233 5 6 C4.67 6.99 4.34 7.98 4 9 C2.35 7.68 0.7 6.36 -1 5 C-0.67 3.35 -0.34 1.7 0 0 Z " fill="#576213" transform="translate(48,42)"/>
<path d="M0 0 C-0.99 1.485 -0.99 1.485 -2 3 C-4.625 3.1875 -4.625 3.1875 -7 3 C-6.67 2.01 -6.34 1.02 -6 0 C-3.50907189 -1.24546405 -2.58919267 -0.7767578 0 0 Z " fill="#A3C9F5" transform="translate(74,41)"/>
<path d="M0 0 C3.39914975 1.13304992 4.05254451 2.12518475 6 5 C4.35 5 2.7 5 1 5 C0.67 3.35 0.34 1.7 0 0 Z " fill="#974B12" transform="translate(75,83)"/>
<path d="M0 0 C2.31 0 4.62 0 7 0 C7.33 0.66 7.66 1.32 8 2 C7.34 2.66 6.68 3.32 6 4 C4.02 3.01 2.04 2.02 0 1 C0 0.67 0 0.34 0 0 Z " fill="#E0C50B" transform="translate(73,38)"/>
<path d="M0 0 C6.15234375 0.5859375 6.15234375 0.5859375 8 1 C8.33 1.66 8.66 2.32 9 3 C6.03 2.67 3.06 2.34 0 2 C0 1.34 0 0.68 0 0 Z " fill="#8E3B00" transform="translate(60,28)"/>
</svg>
