<?xml version="1.0" encoding="UTF-8"?>
<svg version="1.1" xmlns="http://www.w3.org/2000/svg" width="150" height="150">
<path d="M0 0 C2.26685452 1.68622161 4.37461281 3.45620684 6.4765625 5.34375 C7.70826172 6.43623047 7.70826172 6.43623047 8.96484375 7.55078125 C22.24806842 20.02774039 31.07984821 37.58848816 31.8125 55.9453125 C32.13371051 77.23647878 28.10626638 96.0522542 13.4765625 112.34375 C12.74824219 113.16488281 12.01992187 113.98601562 11.26953125 114.83203125 C-1.20742789 128.11525592 -18.76817566 136.94703571 -37.125 137.6796875 C-58.41616628 138.00089801 -77.2319417 133.97345388 -93.5234375 119.34375 C-94.34457031 118.61542969 -95.16570312 117.88710937 -96.01171875 117.13671875 C-109.29494342 104.65975961 -118.12672321 87.09901184 -118.859375 68.7421875 C-119.18058551 47.45102122 -115.15314138 28.6352458 -100.5234375 12.34375 C-99.79511719 11.52261719 -99.06679687 10.70148437 -98.31640625 9.85546875 C-72.64852592 -17.47107913 -30.68115209 -20.13747444 0 0 Z " fill="#FEFEFE" transform="translate(118.5234375,12.65625)"/>
<path d="M0 0 C46.86 0 93.72 0 142 0 C135.58124025 19.25627924 123.12775367 33.75377298 105 43 C87.07217835 51.06648822 66.36266928 53.36855165 47.390625 47.328125 C37.70833463 43.53552278 28.79330925 38.99836332 21 32 C20.17886719 31.27167969 19.35773437 30.54335937 18.51171875 29.79296875 C9.28069346 21.12224848 3.99768103 11.99304309 0 0 Z " fill="#0037A7" transform="translate(4,100)"/>
<path d="M0 0 C2.26685452 1.68622161 4.37461281 3.45620684 6.4765625 5.34375 C7.70826172 6.43623047 7.70826172 6.43623047 8.96484375 7.55078125 C18.19586904 16.22150152 23.47888147 25.35070691 27.4765625 37.34375 C-19.3834375 37.34375 -66.2434375 37.34375 -114.5234375 37.34375 C-108.10467775 18.08747076 -95.65119117 3.58997702 -77.5234375 -5.65625 C-51.91977915 -17.17642309 -23.57942655 -15.47627996 0 0 Z " fill="#D42B1E" transform="translate(118.5234375,12.65625)"/>
<path d="M0 0 C0 0.66 0 1.32 0 2 C0.66 2 1.32 2 2 2 C8.52341799 13.36938564 8.52341799 13.36938564 7 20 C4.90033274 26.27010728 2.18372582 30.99882196 -3.75390625 34.1640625 C-9.97574975 36.47967034 -15.87718796 36.73915276 -22 34 C-18.43954823 32.81318274 -15.56191663 32.90310168 -11.8125 32.9375 C-10.54019531 32.94652344 -9.26789063 32.95554688 -7.95703125 32.96484375 C-6.49330078 32.98224609 -6.49330078 32.98224609 -5 33 C-4.69320312 32.05898437 -4.38640625 31.11796875 -4.0703125 30.1484375 C-3.20612999 27.60635319 -2.26796465 25.35479149 -1 23 C-1.66 23 -2.32 23 -3 23 C-3.33 23.99 -3.66 24.98 -4 26 C-4.66 25.67 -5.32 25.34 -6 25 C-6.66 25 -7.32 25 -8 25 C-8.33 25.33 -8.66 25.66 -9 26 C-10.93622765 26.073231 -12.87500272 26.08358522 -14.8125 26.0625 C-15.87082031 26.05347656 -16.92914063 26.04445313 -18.01953125 26.03515625 C-19.00308594 26.02355469 -19.98664063 26.01195313 -21 26 C-22.32 26 -23.64 26 -25 26 C-27.44396038 24.33081494 -27.95278472 23.17446928 -28.73046875 20.30078125 C-28.95669922 18.82158203 -28.95669922 18.82158203 -29.1875 17.3125 C-29.42533203 15.82169922 -29.42533203 15.82169922 -29.66796875 14.30078125 C-29.83232422 13.16189453 -29.83232422 13.16189453 -30 12 C-30.20413361 17.73842251 -30.27141454 22.60539047 -28 28 C-31.4821773 25.30922663 -32.17095955 22.21428896 -33 18 C-33.12712302 11.52943813 -31.03865314 6.23552363 -26.61328125 1.5234375 C-18.03556606 -6.17624385 -9.5110651 -4.83101719 0 0 Z " fill="#D6D6D6" transform="translate(88,59)"/>
<path d="M0 0 C2.32421875 0.16015625 2.32421875 0.16015625 5 1 C6.51953125 3.37109375 6.51953125 3.37109375 7.8125 6.4375 C10.76211256 12.79689485 14.36000609 17.77557938 19 23 C19.59296875 23.69867188 20.1859375 24.39734375 20.796875 25.1171875 C30.8591576 36.16849787 47.62251976 44.06670624 62.53198242 45.19091797 C65.17011952 45.2670396 67.7984372 45.27316661 70.4375 45.25 C71.31470703 45.25773437 72.19191406 45.26546875 73.09570312 45.2734375 C91.907099 45.21798755 108.11055234 37.65024023 121.75 24.875 C128.2651687 18.1338717 132.27450977 10.4074886 136.46875 2.0859375 C137.22671875 1.05339844 137.22671875 1.05339844 138 0 C139.32 0 140.64 0 142 0 C137.7360636 16.48722074 125.66681716 30.3351964 111.5625 39.4375 C93.15798292 50.03938349 71.66074709 53.52476793 50.875 48.4375 C39.86587844 44.93235367 29.63204436 39.75154438 21 32 C20.17886719 31.27167969 19.35773437 30.54335937 18.51171875 29.79296875 C9.64157317 21.46122351 3.19717117 11.78956869 0 0 Z " fill="#043595" transform="translate(4,100)"/>
<path d="M0 0 C2.26685452 1.68622161 4.37461281 3.45620684 6.4765625 5.34375 C7.70826172 6.43623047 7.70826172 6.43623047 8.96484375 7.55078125 C17.83498933 15.88252649 24.27939133 25.55418131 27.4765625 37.34375 C25.15234375 37.18359375 25.15234375 37.18359375 22.4765625 36.34375 C20.95703125 33.97265625 20.95703125 33.97265625 19.6640625 30.90625 C16.71444994 24.54685515 13.11655641 19.56817062 8.4765625 14.34375 C7.58710938 13.29574219 7.58710938 13.29574219 6.6796875 12.2265625 C-1.44217476 3.30639754 -13.07097581 -2.30350035 -24.5234375 -5.65625 C-25.72226563 -6.01074219 -26.92109375 -6.36523438 -28.15625 -6.73046875 C-42.53781814 -10.23060186 -58.03517494 -8.31010602 -71.5234375 -2.65625 C-72.47476563 -2.26050781 -73.42609375 -1.86476563 -74.40625 -1.45703125 C-80.43193074 1.31625606 -85.52747736 5.00746769 -90.5234375 9.34375 C-91.27625 9.98957031 -92.0290625 10.63539062 -92.8046875 11.30078125 C-100.22048214 18.14515336 -104.48638545 26.33392214 -109 35.265625 C-109.50273438 35.95140625 -110.00546875 36.6371875 -110.5234375 37.34375 C-111.8434375 37.34375 -113.1634375 37.34375 -114.5234375 37.34375 C-110.2595011 20.85652926 -98.19025466 7.0085536 -84.0859375 -2.09375 C-57.47227981 -17.42449173 -25.74171521 -16.8954911 0 0 Z " fill="#BA2A1F" transform="translate(118.5234375,12.65625)"/>
<path d="M0 0 C3.00609963 1.00203321 4.06176821 1.60028446 6 4 C6 4.99 6 5.98 6 7 C6.66 7.66 7.32 8.32 8 9 C8.625 11.125 8.625 11.125 9 13 C7.68 13 6.36 13 5 13 C4.67 11.02 4.34 9.04 4 7 C3.34 7 2.68 7 2 7 C2.33 9.97 2.66 12.94 3 16 C3.99 16 4.98 16 6 16 C6 15.34 6 14.68 6 14 C6.99 14 7.98 14 9 14 C10.56763714 23.72957401 10.56763714 23.72957401 8.6875 27.9375 C2.2085612 32.90970885 -3.89100758 34.60274902 -11.96875 33.5546875 C-14 33 -14 33 -16 31 C-10.39 31 -4.78 31 1 31 C1.66 29.02 2.32 27.04 3 25 C3.63815344 23.65278717 4.29325371 22.31252882 5 21 C4.34 21 3.68 21 3 21 C2.67 21.99 2.34 22.98 2 24 C1.34 23.67 0.68 23.34 0 23 C-0.66 23 -1.32 23 -2 23 C-2.33 23.33 -2.66 23.66 -3 24 C-5.33297433 24.04092937 -7.66705225 24.04241723 -10 24 C-9.278125 23.443125 -8.55625 22.88625 -7.8125 22.3125 C-3.64327077 18.92246058 -3.64327077 18.92246058 0 15 C0 10.70879194 -1.18290668 8.18454028 -4 5 C-3.01 4.67 -2.02 4.34 -1 4 C-0.26676204 1.98491642 -0.26676204 1.98491642 0 0 Z " fill="#C4C6C5" transform="translate(82,61)"/>
<path d="M0 0 C0.33 0 0.66 0 1 0 C1.12117188 0.84304687 1.24234375 1.68609375 1.3671875 2.5546875 C1.53476562 3.65039062 1.70234375 4.74609375 1.875 5.875 C2.03742187 6.96554688 2.19984375 8.05609375 2.3671875 9.1796875 C2.76256513 12.11932714 2.76256513 12.11932714 5 14 C6.32 14 7.64 14 9 14 C10.45792969 14.03480469 10.45792969 14.03480469 11.9453125 14.0703125 C13.51925781 14.09738281 13.51925781 14.09738281 15.125 14.125 C16.17945312 14.14820312 17.23390625 14.17140625 18.3203125 14.1953125 C21.15351541 14.2823739 21.15351541 14.2823739 23 12 C23.99 12.33 24.98 12.66 26 13 C26.99 12.67 27.98 12.34 29 12 C28.29337199 15.67446567 26.81159884 18.73912209 25 22 C20.03703981 24.48148009 12.68328977 23.38390819 7.4375 22.1875 C3.11999449 20.08409988 1.40291633 17.60359648 -0.43359375 13.11328125 C-1.49455208 9.15480913 -1.40438907 5.05944413 -1 1 C-0.67 0.67 -0.34 0.34 0 0 Z " fill="#F0F0F0" transform="translate(58,70)"/>
<path d="M0 0 C2.475 0.495 2.475 0.495 5 1 C10.30819998 15.40797138 10.30819998 34.59202862 5 49 C2.525 49.495 2.525 49.495 0 50 C0.2165625 49.13761719 0.433125 48.27523437 0.65625 47.38671875 C4.33375557 31.26358089 3.72054482 16.05592259 0 0 Z " fill="#DFDFDF" transform="translate(142,50)"/>
<path d="M0 0 C1.32 0 2.64 0 4 0 C3.67515625 1.15048828 3.67515625 1.15048828 3.34375 2.32421875 C-0.10679006 16.07845483 -0.93251272 31.1600288 3.34375 44.8203125 C4 47 4 47 4 50 C2.35 49.67 0.7 49.34 -1 49 C-6.19988629 34.88602292 -6.6414341 15.05973992 -1 1 C-0.67 0.67 -0.34 0.34 0 0 Z " fill="#DFDFDF" transform="translate(4,50)"/>
<path d="M0 0 C0.66 0.33 1.32 0.66 2 1 C2.625 3.5625 2.625 3.5625 3 6 C2.01 6.33 1.02 6.66 0 7 C0.680625 7.70125 1.36125 8.4025 2.0625 9.125 C4 12 4 12 4.125 15 C2.58736623 19.10035673 0.52013494 20.45351941 -3 23 C-9.13680387 20.84382567 -9.13680387 20.84382567 -11 18 C-11.651622 11.91819464 -11.651622 11.91819464 -9.625 9.0625 C-8 8 -8 8 -6 8 C-6 7.01 -6 6.02 -6 5 C-6.66 4.67 -7.32 4.34 -8 4 C-5.36 3.67 -2.72 3.34 0 3 C0 2.01 0 1.02 0 0 Z " fill="#F0F4F0" transform="translate(79,60)"/>
<path d="M0 0 C-0.66 1.65 -1.32 3.3 -2 5 C-1.01 5.33 -0.02 5.66 1 6 C1.66 5.01 2.32 4.02 3 3 C3.33 3.66 3.66 4.32 4 5 C3.01 6.485 3.01 6.485 2 8 C1.34 8 0.68 8 0 8 C0 8.66 0 9.32 0 10 C-0.66 10.66 -1.32 11.32 -2 12 C-3.15620763 17.01023306 -2.96742918 20.25502375 -1 25 C-1.99 25.66 -2.98 26.32 -4 27 C-6.75702189 22.20517932 -7.53328373 18.41390868 -8 13 C-8.20413361 18.73842251 -8.27141454 23.60539047 -6 29 C-9.4821773 26.30922663 -10.17095955 23.21428896 -11 19 C-11.13909336 11.92014807 -8.49769601 6.86500424 -3.875 1.5625 C-2 0 -2 0 0 0 Z " fill="#C9C9C9" transform="translate(66,58)"/>
<path d="M0 0 C3.00609963 1.00203321 4.06176821 1.60028446 6 4 C6 4.99 6 5.98 6 7 C6.66 7.66 7.32 8.32 8 9 C8.625 11.125 8.625 11.125 9 13 C7.68 13 6.36 13 5 13 C4.67 11.02 4.34 9.04 4 7 C3.34 7 2.68 7 2 7 C2.08378906 7.59167969 2.16757813 8.18335937 2.25390625 8.79296875 C3.3915513 17.62051828 3.3915513 17.62051828 2 21 C-1.84199691 24.27699736 -5.08121703 24.28934017 -10 24 C-9.278125 23.443125 -8.55625 22.88625 -7.8125 22.3125 C-3.64327077 18.92246058 -3.64327077 18.92246058 0 15 C0 10.70879194 -1.18290668 8.18454028 -4 5 C-3.01 4.67 -2.02 4.34 -1 4 C-0.26676204 1.98491642 -0.26676204 1.98491642 0 0 Z " fill="#149544" transform="translate(82,61)"/>
<path d="M0 0 C0 0.66 0 1.32 0 2 C-0.66 2.391875 -1.32 2.78375 -2 3.1875 C-4.34859951 4.93921021 -4.34859951 4.93921021 -4.5625 8.375 C-3.87447422 12.8089439 -2.40029608 14.19475573 1 17 C-5.52464229 16.51669316 -5.52464229 16.51669316 -7.4375 14.4375 C-8.25698757 10.88638719 -8.73883902 7.60553441 -8 4 C-5.25787805 1.03554384 -4.06941007 0 0 0 Z " fill="#298A4E" transform="translate(73,66)"/>
<path d="M0 0 C0.99 0.33 1.98 0.66 3 1 C2.90460937 1.58007812 2.80921875 2.16015625 2.7109375 2.7578125 C2.00093063 7.76088419 1.92522829 11.24022962 4 16 C3.01 16.66 2.02 17.32 1 18 C-2.17025371 12.3199621 -2.64072832 9.44277671 -1 3.1875 C-0.67 2.135625 -0.34 1.08375 0 0 Z " fill="#8D8D8D" transform="translate(61,67)"/>
<path d="M0 0 C3.00609963 1.00203321 4.06176821 1.60028446 6 4 C6 4.99 6 5.98 6 7 C6.66 7.66 7.32 8.32 8 9 C8.625 11.125 8.625 11.125 9 13 C7.68 13 6.36 13 5 13 C4.67 11.02 4.34 9.04 4 7 C1.03 6.505 1.03 6.505 -2 6 C-1.34 4.02 -0.68 2.04 0 0 Z " fill="#909391" transform="translate(82,61)"/>
<path d="M0 0 C-0.66 1.65 -1.32 3.3 -2 5 C-1.01 5.33 -0.02 5.66 1 6 C1.66 5.01 2.32 4.02 3 3 C3.33 3.66 3.66 4.32 4 5 C3.01 6.485 3.01 6.485 2 8 C1.34 8 0.68 8 0 8 C0 8.66 0 9.32 0 10 C-0.66 10 -1.32 10 -2 10 C-2.66 8.68 -3.32 7.36 -4 6 C-5.65 7.65 -7.3 9.3 -9 11 C-8.40300869 7.66864109 -7.27987719 5.78724333 -5.0625 3.25 C-4.53785156 2.63640625 -4.01320313 2.0228125 -3.47265625 1.390625 C-2 0 -2 0 0 0 Z " fill="#BCBCBC" transform="translate(66,58)"/>
<path d="M0 0 C0.33 0 0.66 0 1 0 C1.144375 1.2375 1.28875 2.475 1.4375 3.75 C1.78688502 6.56504499 2.20379366 9.2701497 3 12 C5.31 12.33 7.62 12.66 10 13 C10 13.33 10 13.66 10 14 C6.8125 14.8125 6.8125 14.8125 3 15 C0.0625 12.75 0.0625 12.75 -2 10 C-2 6.38970831 -1.03907418 3.44193324 0 0 Z " fill="#D1DDD6" transform="translate(64,70)"/>
<path d="M0 0 C6.75 -0.125 6.75 -0.125 9 1 C9 1.99 9 2.98 9 4 C6.69 4 4.38 4 2 4 C1.34 2.68 0.68 1.36 0 0 Z " fill="#8B8B8B" transform="translate(70,59)"/>
<path d="M0 0 C2.75799098 1.37899549 3.43852596 3.37672362 5 6 C6.58245275 7.75149165 6.58245275 7.75149165 8 9 C5.69 8.67 3.38 8.34 1 8 C0.67 5.36 0.34 2.72 0 0 Z " fill="#1A8542" transform="translate(66,74)"/>
<path d="M0 0 C-1 3 -1 3 -3.8125 4.625 C-6.25800018 5.67992164 -8.40235776 6.50045341 -11 7 C-10.67 6.34 -10.34 5.68 -10 5 C-9.34 5 -8.68 5 -8 5 C-8 4.34 -8 3.68 -8 3 C-5.65966534 -0.20256322 -3.8395009 -0.31131088 0 0 Z " fill="#D0D5D2" transform="translate(74,63)"/>
<path d="M0 0 C2.4375 0.8125 2.4375 0.8125 5 2 C5.33 2.99 5.66 3.98 6 5 C5.01 4.67 4.02 4.34 3 4 C2.01 4.99 1.02 5.98 0 7 C0 6.34 0 5.68 0 5 C-0.66 5 -1.32 5 -2 5 C-1.34 3.35 -0.68 1.7 0 0 Z " fill="#E3E3E3" transform="translate(66,58)"/>
<path d="M0 0 C0.66 0 1.32 0 2 0 C2.33 0.99 2.66 1.98 3 3 C1 5 1 5 -2.625 5.125 C-3.73875 5.08375 -4.8525 5.0425 -6 5 C-5.195625 4.360625 -4.39125 3.72125 -3.5625 3.0625 C-1.7249496 1.59396498 -1.7249496 1.59396498 0 0 Z " fill="#57B47A" transform="translate(78,80)"/>
<path d="M0 0 C0.66 0 1.32 0 2 0 C2.2236337 1.41433206 2.42826476 2.83167618 2.625 4.25 C2.74101563 5.03890625 2.85703125 5.8278125 2.9765625 6.640625 C3.00319395 9.32152459 2.36592084 10.72694089 1 13 C0.83147753 11.39602723 0.66525114 9.7918131 0.5 8.1875 C0.4071875 7.29417969 0.314375 6.40085937 0.21875 5.48046875 C0 3 0 3 0 0 Z " fill="#DFEDE4" transform="translate(84,68)"/>
<path d="M0 0 C1.32 0.66 2.64 1.32 4 2 C2 5 2 5 -0.125 5.6875 C-0.74375 5.790625 -1.3625 5.89375 -2 6 C-1.125 1.125 -1.125 1.125 0 0 Z " fill="#E2CD39" transform="translate(75,72)"/>
<path d="M0 0 C0.99 0.33 1.98 0.66 3 1 C2.67 3.31 2.34 5.62 2 8 C1.01 7.67 0.02 7.34 -1 7 C-0.67 4.69 -0.34 2.38 0 0 Z " fill="#6F6F6F" transform="translate(61,67)"/>
<path d="M0 0 C1.32 0.33 2.64 0.66 4 1 C4.33 2.32 4.66 3.64 5 5 C3.68 5 2.36 5 1 5 C0.67 3.35 0.34 1.7 0 0 Z " fill="#818181" transform="translate(86,69)"/>
<path d="M0 0 C1.98 0.66 3.96 1.32 6 2 C6.33 3.98 6.66 5.96 7 8 C6.67 7.34 6.34 6.68 6 6 C5.34 6 4.68 6 4 6 C2.61061923 4.03852126 1.2739589 2.03833424 0 0 Z " fill="#3D9F61" transform="translate(78,66)"/>
<path d="M0 0 C0.99 0.33 1.98 0.66 3 1 C-0.20336822 3.83374881 -2.78087253 4.5205537 -7 5 C-7 4.34 -7 3.68 -7 3 C-5.5459375 2.5359375 -5.5459375 2.5359375 -4.0625 2.0625 C-1.15934208 1.30476658 -1.15934208 1.30476658 0 0 Z " fill="#F2F9F5" transform="translate(81,82)"/>
<path d="M0 0 C0.99 0 1.98 0 3 0 C2.67 1.65 2.34 3.3 2 5 C0.68 4.67 -0.64 4.34 -2 4 C-2 3.34 -2 2.68 -2 2 C-1.34 2 -0.68 2 0 2 C0 1.34 0 0.68 0 0 Z " fill="#7D7D7D" transform="translate(88,75)"/>
<path d="M0 0 C0.33 0 0.66 0 1 0 C1 2.97 1 5.94 1 9 C0.34 9 -0.32 9 -1 9 C-2.0326802 6.21176345 -2.04509293 5.1322726 -1.0625 2.25 C-0.711875 1.5075 -0.36125 0.765 0 0 Z " fill="#E6E7E6" transform="translate(64,70)"/>
<path d="M0 0 C0.66 0.66 1.32 1.32 2 2 C1.01 3.485 1.01 3.485 0 5 C-0.66 5 -1.32 5 -2 5 C-2 5.66 -2 6.32 -2 7 C-2.66 7 -3.32 7 -4 7 C-4.33 6.01 -4.66 5.02 -5 4 C-4.34 4 -3.68 4 -3 4 C-2.67 3.34 -2.34 2.68 -2 2 C-1.67 2.33 -1.34 2.66 -1 3 C-0.67 2.01 -0.34 1.02 0 0 Z " fill="#6E6E6E" transform="translate(68,61)"/>
</svg>
