<?xml version="1.0" encoding="UTF-8"?>
<svg version="1.1" xmlns="http://www.w3.org/2000/svg" width="150" height="150">
<path d="M0 0 C2.26685452 1.68622161 4.37461281 3.45620684 6.4765625 5.34375 C7.70826172 6.43623047 7.70826172 6.43623047 8.96484375 7.55078125 C22.24806842 20.02774039 31.07984821 37.58848816 31.8125 55.9453125 C32.13371051 77.23647878 28.10626638 96.0522542 13.4765625 112.34375 C12.74824219 113.16488281 12.01992187 113.98601562 11.26953125 114.83203125 C-1.20742789 128.11525592 -18.76817566 136.94703571 -37.125 137.6796875 C-58.41616628 138.00089801 -77.2319417 133.97345388 -93.5234375 119.34375 C-94.34457031 118.61542969 -95.16570312 117.88710937 -96.01171875 117.13671875 C-109.29494342 104.65975961 -118.12672321 87.09901184 -118.859375 68.7421875 C-119.18058551 47.45102122 -115.15314138 28.6352458 -100.5234375 12.34375 C-99.79511719 11.52261719 -99.06679687 10.70148437 -98.31640625 9.85546875 C-72.64852592 -17.47107913 -30.68115209 -20.13747444 0 0 Z " fill="#FDFEFD" transform="translate(118.5234375,12.65625)"/>
<path d="M0 0 C6.29219364 3.49566313 10.7555339 6.05413915 15.5625 11 C16.11550781 11.56396484 16.66851562 12.12792969 17.23828125 12.70898438 C32.89045911 29.18399869 37.68705746 48.98615918 37.30859375 71.03125 C36.52059639 91.85269064 25.87780343 108.05895644 11.8203125 122.640625 C9 125 9 125 0 130 C0 87.1 0 44.2 0 0 Z " fill="#D81023" transform="translate(113,10)"/>
<path d="M0 0 C0 42.9 0 85.8 0 130 C-6.29219364 126.50433687 -10.7555339 123.94586085 -15.5625 119 C-16.11550781 118.43603516 -16.66851563 117.87207031 -17.23828125 117.29101562 C-32.89045911 100.81600131 -37.68705746 81.01384082 -37.30859375 58.96875 C-36.52478121 38.25788598 -25.95832379 21.42755179 -11.5078125 7.2421875 C-3.40766551 0 -3.40766551 0 0 0 Z " fill="#D81023" transform="translate(37,10)"/>
<path d="M0 0 C1.8253125 -0.01933594 1.8253125 -0.01933594 3.6875 -0.0390625 C7 0.625 7 0.625 9.45703125 2.90234375 C11.08335838 5.7720906 11.38479487 6.67770481 10.6875 9.8125 C9.6451122 13.41426188 9.6451122 13.41426188 11 15.625 C7.78548731 17.23225635 4.56387464 16.68248185 1 16.625 C2.84188612 18.67770463 2.84188612 18.67770463 5 19.625 C5 18.965 5 18.305 5 17.625 C6.98 17.955 8.96 18.285 11 18.625 C11.495 20.11 11.495 20.11 12 21.625 C11.67 22.285 11.34 22.945 11 23.625 C11.66 23.955 12.32 24.285 13 24.625 C13 23.965 13 23.305 13 22.625 C15.07553648 22.0715236 16.84365964 21.625 19 21.625 C19 20.305 19 18.985 19 17.625 C18.071875 17.5321875 18.071875 17.5321875 17.125 17.4375 C15 16.625 15 16.625 13.6875 14.3125 C12.980426 11.54848347 13.02466937 10.25839271 14 7.625 C16.475 8.12 16.475 8.12 19 8.625 C19 7.965 19 7.305 19 6.625 C22.1776683 7.72074769 22.97178303 8.57588158 24.6875 11.5625 C27.125 17.25 27.125 17.25 26 20.625 C26.99 20.625 27.98 20.625 29 20.625 C29 23.265 29 25.905 29 28.625 C28.34 28.625 27.68 28.625 27 28.625 C27 29.615 27 30.605 27 31.625 C27.66 31.625 28.32 31.625 29 31.625 C29 32.615 29 33.605 29 34.625 C29.66 34.625 30.32 34.625 31 34.625 C30.45660208 39.18954251 29.20536179 42.5978176 27 46.625 C26.34 46.625 25.68 46.625 25 46.625 C24.67 46.295 24.34 45.965 24 45.625 C23.67 46.945 23.34 48.265 23 49.625 C23.66 49.625 24.32 49.625 25 49.625 C23.84826645 52.09300047 22.95216435 53.67283565 21 55.625 C18.375 56.25 18.375 56.25 16 56.625 C15.67 57.615 15.34 58.605 15 59.625 C12.38491895 60.93254053 10.4372339 60.75452936 7.51171875 60.7578125 C6.41279297 60.75910156 5.31386719 60.76039062 4.18164062 60.76171875 C3.02857422 60.75785156 1.87550781 60.75398438 0.6875 60.75 C-0.45396484 60.75386719 -1.59542969 60.75773437 -2.77148438 60.76171875 C-4.42567383 60.75978516 -4.42567383 60.75978516 -6.11328125 60.7578125 C-7.12173096 60.75668457 -8.13018066 60.75555664 -9.16918945 60.75439453 C-11.88274625 60.63035959 -14.35721597 60.2344775 -17 59.625 C-16.67 58.305 -16.34 56.985 -16 55.625 C-17.134375 55.00625 -18.26875 54.3875 -19.4375 53.75 C-22.875 51.875 -22.875 51.875 -24 49.625 C-23.01 49.625 -22.02 49.625 -21 49.625 C-24.465 48.14 -24.465 48.14 -28 46.625 C-27.67 45.965 -27.34 45.305 -27 44.625 C-27.66 44.295 -28.32 43.965 -29 43.625 C-29.625 41.0625 -29.625 41.0625 -30 38.625 C-28.68 38.955 -27.36 39.285 -26 39.625 C-27.28965176 38.24937146 -28.62689293 36.91733607 -30 35.625 C-30.66 35.625 -31.32 35.625 -32 35.625 C-31.67 32.325 -31.34 29.025 -31 25.625 C-29.68 26.285 -28.36 26.945 -27 27.625 C-27.33 26.305 -27.66 24.985 -28 23.625 C-28.99 23.955 -29.98 24.285 -31 24.625 C-30.49287967 20.90611761 -29.88391785 17.89045761 -28 14.625 C-27.34 14.625 -26.68 14.625 -26 14.625 C-24.3553326 12.16173288 -24.3553326 12.16173288 -23 9.625 C-22.34 10.285 -21.68 10.945 -21 11.625 C-19.68 10.305 -18.36 8.985 -17 7.625 C-16.01 7.955 -15.02 8.285 -14 8.625 C-14.99 9.285 -15.98 9.945 -17 10.625 C-16.01 11.615 -15.02 12.605 -14 13.625 C-14.825 14.223125 -15.65 14.82125 -16.5 15.4375 C-17.325 16.159375 -18.15 16.88125 -19 17.625 C-19 18.615 -19 19.605 -19 20.625 C-20 22.8125 -20 22.8125 -21 24.625 C-19.68 25.285 -18.36 25.945 -17 26.625 C-17.33 27.285 -17.66 27.945 -18 28.625 C-17.34 28.955 -16.68 29.285 -16 29.625 C-16.34289063 30.3159375 -16.68578125 31.006875 -17.0390625 31.71875 C-18.19944628 35.22820339 -17.94443383 37.4874227 -17.375 41.125 C-17.21773437 42.2284375 -17.06046875 43.331875 -16.8984375 44.46875 C-15.88303812 48.03589218 -14.55307388 49.96196226 -12 52.625 C-9.38181544 53.95798974 -9.38181544 53.95798974 -7 54.625 C-8.26794449 50.82116653 -9.64453288 50.62230186 -13 48.625 C-14.875 47 -14.875 47 -16 44.625 C-15.98479024 40.43471045 -15.32286511 36.59359534 -14 32.625 C-13.90752619 31.14813889 -13.87000929 29.66724499 -13.875 28.1875 C-13.87242188 27.42566406 -13.86984375 26.66382812 -13.8671875 25.87890625 C-13.90767837 23.62030287 -13.90767837 23.62030287 -14.66015625 21.54296875 C-15 19.625 -15 19.625 -14.00390625 17.921875 C-12.00195312 15.7734375 -12.00195312 15.7734375 -10 13.625 C-10.33 13.295 -10.66 12.965 -11 12.625 C-11.37651491 8.70924492 -11.43280581 6.36237286 -9.41796875 2.9296875 C-6.21113841 -0.12690362 -4.37365107 -0.04633105 0 0 Z " fill="#F1E6B9" transform="translate(75,43.375)"/>
<path d="M0 0 C0.99 0.33 1.98 0.66 3 1 C2.01 1.66 1.02 2.32 0 3 C0.99 3.99 1.98 4.98 3 6 C2.175 6.598125 1.35 7.19625 0.5 7.8125 C-0.325 8.534375 -1.15 9.25625 -2 10 C-2 10.99 -2 11.98 -2 13 C-3 15.1875 -3 15.1875 -4 17 C-2.68 17.66 -1.36 18.32 0 19 C-0.33 19.66 -0.66 20.32 -1 21 C-0.34 21.33 0.32 21.66 1 22 C0.65710937 22.6909375 0.31421875 23.381875 -0.0390625 24.09375 C-1.19944628 27.60320339 -0.94443383 29.8624227 -0.375 33.5 C-0.21773437 34.6034375 -0.06046875 35.706875 0.1015625 36.84375 C1.11494188 40.40379581 2.4475978 42.3462737 5 45 C8.67740088 46.32009262 11.25622425 45.78816332 15 45 C16.485 45.495 16.485 45.495 18 46 C18.66 45.34 19.32 44.68 20 44 C20.99 44.33 21.98 44.66 23 45 C23.33 45.99 23.66 46.98 24 48 C26.42240798 47.57069449 26.42240798 47.57069449 29 46 C30.20339297 44.01398083 31.11735056 42.01841281 32.0078125 39.875 C33 38 33 38 36 36 C35.7834375 35.39671875 35.566875 34.7934375 35.34375 34.171875 C35.0653125 33.37265625 34.786875 32.5734375 34.5 31.75 C34.2215625 30.96109375 33.943125 30.1721875 33.65625 29.359375 C33 27 33 27 33 23 C33.66 23 34.32 23 35 23 C35.33 22.34 35.66 21.68 36 21 C38.475 21.99 38.475 21.99 41 23 C41 23.99 41 24.98 41 26 C42.65 25.34 44.3 24.68 46 24 C46 24.99 46 25.98 46 27 C46.66 27 47.32 27 48 27 C47.45660208 31.56454251 46.20536179 34.9728176 44 39 C43.34 39 42.68 39 42 39 C41.67 38.67 41.34 38.34 41 38 C40.67 39.32 40.34 40.64 40 42 C40.66 42 41.32 42 42 42 C40.84826645 44.46800047 39.95216435 46.04783565 38 48 C35.375 48.625 35.375 48.625 33 49 C32.67 49.99 32.34 50.98 32 52 C29.38491895 53.30754053 27.4372339 53.12952936 24.51171875 53.1328125 C23.41279297 53.13410156 22.31386719 53.13539062 21.18164062 53.13671875 C20.02857422 53.13285156 18.87550781 53.12898438 17.6875 53.125 C16.54603516 53.12886719 15.40457031 53.13273437 14.22851562 53.13671875 C12.57432617 53.13478516 12.57432617 53.13478516 10.88671875 53.1328125 C9.87826904 53.13168457 8.86981934 53.13055664 7.83081055 53.12939453 C5.11725375 53.00535959 2.64278403 52.6094775 0 52 C0.33 50.68 0.66 49.36 1 48 C-0.134375 47.38125 -1.26875 46.7625 -2.4375 46.125 C-5.875 44.25 -5.875 44.25 -7 42 C-6.01 42 -5.02 42 -4 42 C-7.465 40.515 -7.465 40.515 -11 39 C-10.67 38.34 -10.34 37.68 -10 37 C-10.66 36.67 -11.32 36.34 -12 36 C-12.625 33.4375 -12.625 33.4375 -13 31 C-11.68 31.33 -10.36 31.66 -9 32 C-10.28965176 30.62437146 -11.62689293 29.29233607 -13 28 C-13.66 28 -14.32 28 -15 28 C-14.67 24.7 -14.34 21.4 -14 18 C-12.68 18.66 -11.36 19.32 -10 20 C-10.33 18.68 -10.66 17.36 -11 16 C-11.99 16.33 -12.98 16.66 -14 17 C-13.49287967 13.28111761 -12.88391785 10.26545761 -11 7 C-10.34 7 -9.68 7 -9 7 C-7.3553326 4.53673288 -7.3553326 4.53673288 -6 2 C-5.34 2.66 -4.68 3.32 -4 4 C-2.68 2.68 -1.36 1.36 0 0 Z " fill="#27AD51" transform="translate(58,51)"/>
<path d="M0 0 C14.66871685 6.17829676 25.18581271 20.28534727 31.5234375 34.390625 C39.09318371 53.20560113 40.11316033 74.91749986 32.23632812 93.83398438 C25.72654326 108.77370648 15.11318524 123.06399711 0 130 C-0.28515625 127.7421875 -0.28515625 127.7421875 0 125 C1.94140625 123.0078125 1.94140625 123.0078125 4.5625 121.125 C13.06233075 114.69625477 18.60721854 108.23513825 24 99 C24.391875 98.35417969 24.78375 97.70835938 25.1875 97.04296875 C33.18434997 82.70486665 34.44356581 63.61963534 30.87890625 47.765625 C25.8291106 31.87560136 17.28857573 16.59863674 3 7.3125 C2.01 6.549375 1.02 5.78625 0 5 C-0.1875 2.35546875 -0.1875 2.35546875 0 0 Z " fill="#BE1323" transform="translate(113,10)"/>
<path d="M0 0 C0.28515625 2.2578125 0.28515625 2.2578125 0 5 C-1.94140625 6.9921875 -1.94140625 6.9921875 -4.5625 8.875 C-19.17948869 19.9303844 -28.2756874 34.98594898 -32 53 C-32.41126685 56.96961912 -32.47856717 60.88635156 -32.4375 64.875 C-32.42847656 65.93074219 -32.41945313 66.98648438 -32.41015625 68.07421875 C-32.23448946 75.98898361 -31.27061211 82.72682576 -28 90 C-27.73687012 90.62277832 -27.47374023 91.24555664 -27.20263672 91.88720703 C-21.54838082 105.14446916 -13.75836403 115.40562783 -1.58203125 123.40234375 C0 125 0 125 0.23828125 127.69140625 C0.15964844 128.45324219 0.08101562 129.21507812 0 130 C-14.66871685 123.82170324 -25.18581271 109.71465273 -31.5234375 95.609375 C-39.09318371 76.79439887 -40.11316033 55.08250014 -32.23632812 36.16601562 C-27.72549022 25.8138049 -13.46111412 0 0 0 Z " fill="#BE1223" transform="translate(37,10)"/>
<path d="M0 0 C13.86 0.495 13.86 0.495 28 1 C30.57142857 7.42857143 30.57142857 7.42857143 30 12 C28.625 14.75 28.625 14.75 26 17 C18.74297838 19.32658667 10.4154653 19.97570123 3 18 C0.19443044 16.23939427 -0.34106312 15.09668218 -2 12 C-2.20270957 7.75033876 -1.33712862 4.01138587 0 0 Z " fill="#E3C20A" transform="translate(61,76)"/>
<path d="M0 0 C1.98 0.66 3.96 1.32 6 2 C6 2.99 6 3.98 6 5 C7.65 4.34 9.3 3.68 11 3 C11 3.99 11 4.98 11 6 C11.66 6 12.32 6 13 6 C12.45660208 10.56454251 11.20536179 13.9728176 9 18 C8.34 18 7.68 18 7 18 C6.67 17.67 6.34 17.34 6 17 C5.67 18.32 5.34 19.64 5 21 C5.66 21 6.32 21 7 21 C5.84826645 23.46800047 4.95216435 25.04783565 3 27 C0.375 27.625 0.375 27.625 -2 28 C-2.495 29.485 -2.495 29.485 -3 31 C-5.61508105 32.30754053 -7.5627661 32.12952936 -10.48828125 32.1328125 C-11.58720703 32.13410156 -12.68613281 32.13539062 -13.81835938 32.13671875 C-14.97142578 32.13285156 -16.12449219 32.12898438 -17.3125 32.125 C-18.45396484 32.12886719 -19.59542969 32.13273437 -20.77148438 32.13671875 C-22.42567383 32.13478516 -22.42567383 32.13478516 -24.11328125 32.1328125 C-25.12173096 32.13168457 -26.13018066 32.13055664 -27.16918945 32.12939453 C-29.88274625 32.00535959 -32.35721597 31.6094775 -35 31 C-35 30.01 -35 29.02 -35 28 C-31.18243176 26.62567543 -27.92744671 27.32024961 -24 28 C-24 28.66 -24 29.32 -24 30 C-22.68 30 -21.36 30 -20 30 C-21.25541557 27.48916886 -22.50063488 27.12874554 -25 26 C-22 24 -22 24 -19.4375 24.5 C-18.633125 24.665 -17.82875 24.83 -17 25 C-16.34 24.34 -15.68 23.68 -15 23 C-14.01 23.33 -13.02 23.66 -12 24 C-11.67 24.99 -11.34 25.98 -11 27 C-8.57759202 26.57069449 -8.57759202 26.57069449 -6 25 C-4.79660703 23.01398083 -3.88264944 21.01841281 -2.9921875 18.875 C-2 17 -2 17 1 15 C0.7834375 14.39671875 0.566875 13.7934375 0.34375 13.171875 C0.0653125 12.37265625 -0.213125 11.5734375 -0.5 10.75 C-0.7784375 9.96109375 -1.056875 9.1721875 -1.34375 8.359375 C-2 6 -2 6 -2 2 C-1.34 2 -0.68 2 0 2 C0 1.34 0 0.68 0 0 Z " fill="#2DB059" transform="translate(93,72)"/>
<path d="M0 0 C5.06133788 1.61962812 9.85206617 3.63222362 14.70703125 5.78125 C31.21443057 11.8907501 51.13252312 10.53254487 67.20703125 3.62109375 C68.89728954 2.77233744 70.57127028 1.88908794 72.21484375 0.953125 C74 0 74 0 76 0 C76 1.65 76 3.3 76 5 C56.77509471 14.75234281 35.05610775 17.78184713 14.2265625 11.22265625 C9.36494319 9.38042036 4.63688049 7.35218054 0 5 C0 3.35 0 1.7 0 0 Z " fill="#DFDFDF" transform="translate(37,136)"/>
<path d="M0 0 C0 1.65 0 3.3 0 5 C-3.51652671 3.91799178 -6.80934071 2.63879704 -10.125 1.0625 C-25.93230644 -5.91361706 -44.56044356 -6.23356666 -61 -1 C-63.96614328 0.19892318 -66.83600612 1.48006386 -69.6953125 2.9140625 C-71.80709471 3.90910564 -73.72197969 4.52759947 -76 5 C-76 3.35 -76 1.7 -76 0 C-51.21685358 -12.57190796 -24.78314642 -12.57190796 0 0 Z " fill="#DFDFDF" transform="translate(113,9)"/>
<path d="M0 0 C1.8253125 -0.01933594 1.8253125 -0.01933594 3.6875 -0.0390625 C7 0.625 7 0.625 9.45703125 2.90234375 C11.08335838 5.7720906 11.38479487 6.67770481 10.6875 9.8125 C9.6451122 13.41426188 9.6451122 13.41426188 11 15.625 C7.58173253 17.33413373 3.76645237 16.80958479 0 16.8125 C-0.83273438 16.82474609 -1.66546875 16.83699219 -2.5234375 16.84960938 C-3.71839844 16.85250977 -3.71839844 16.85250977 -4.9375 16.85546875 C-5.66839844 16.85957764 -6.39929688 16.86368652 -7.15234375 16.86791992 C-9 16.625 -9 16.625 -11 14.625 C-11 13.965 -11 13.305 -11 12.625 C-11.0825 11.531875 -11.165 10.43875 -11.25 9.3125 C-10.74755525 1.90143996 -7.02660797 -0.07443441 0 0 Z " fill="#A9C06D" transform="translate(75,43.375)"/>
<path d="M0 0 C13.86 0.495 13.86 0.495 28 1 C30.57142857 7.42857143 30.57142857 7.42857143 30 12 C28.625 14.75 28.625 14.75 26 17 C18.74297838 19.32658667 10.4154653 19.97570123 3 18 C0.19443044 16.23939427 -0.34106312 15.09668218 -2 12 C-2.20270957 7.75033876 -1.33712862 4.01138587 0 0 Z M3.625 5.25 C1.69128743 6.98000807 1.69128743 6.98000807 1.6875 10.0625 C1.81924034 12.93021928 1.81924034 12.93021928 3 15 C8.75113813 17.15195759 14.05733831 17.25108667 20 16 C20.66 15.34 21.32 14.68 22 14 C22 13.01 22 12.02 22 11 C22.639375 10.7525 23.27875 10.505 23.9375 10.25 C26.18741541 9.18437567 26.18741541 9.18437567 26.75 6.875 C26.8325 6.25625 26.915 5.6375 27 5 C25.68 4.67 24.36 4.34 23 4 C23 4.66 23 5.32 23 6 C20.13275314 5.42655063 19.1385485 5.1385485 17 3 C11.87090898 1.29030299 8.2505729 2.81548795 3.625 5.25 Z " fill="#D93E26" transform="translate(61,76)"/>
<path d="M0 0 C0 5.94 0 11.88 0 18 C-4.29 18 -8.58 18 -13 18 C-13.22786458 15.52604167 -13.45572917 13.05208333 -13.68359375 10.578125 C-13.92925955 8.04101865 -13.92925955 8.04101865 -14.61328125 5.8125 C-15 4 -15 4 -13.75 1.75 C-9.32301235 -1.06717396 -5.1710781 -0.24624181 0 0 Z " fill="#3B8E90" transform="translate(75,59)"/>
<path d="M0 0 C3.1776683 1.09574769 3.97178303 1.95088158 5.6875 4.9375 C8.125 10.625 8.125 10.625 7 14 C7.99 14 8.98 14 10 14 C10 16.64 10 19.28 10 22 C9.34 22 8.68 22 8 22 C8 22.99 8 23.98 8 25 C7.34 25 6.68 25 6 25 C6 24.34 6 23.68 6 23 C5.236875 22.87625 4.47375 22.7525 3.6875 22.625 C1 22 1 22 -2 20 C-1.67 19.2575 -1.34 18.515 -1 17.75 C0.22782871 14.86116688 0.22782871 14.86116688 0 11 C-0.61875 10.938125 -1.2375 10.87625 -1.875 10.8125 C-4 10 -4 10 -5.3125 7.6875 C-6.019574 4.92348347 -5.97533063 3.63339271 -5 1 C-3.35 1.33 -1.7 1.66 0 2 C0 1.34 0 0.68 0 0 Z " fill="#4BB662" transform="translate(94,50)"/>
<path d="M0 0 C1.98 0.66 3.96 1.32 6 2 C6 2.99 6 3.98 6 5 C7.65 4.34 9.3 3.68 11 3 C11 3.99 11 4.98 11 6 C11.66 6 12.32 6 13 6 C12.8125 8.875 12.8125 8.875 12 12 C8.59500191 14.04299886 4.89990657 14.45582699 1 15 C0.49242138 13.58603098 -0.00574925 12.16868271 -0.5 10.75 C-0.91765625 9.56664063 -0.91765625 9.56664063 -1.34375 8.359375 C-2 6 -2 6 -2 2 C-1.34 2 -0.68 2 0 2 C0 1.34 0 0.68 0 0 Z " fill="#39A448" transform="translate(93,72)"/>
<path d="M0 0 C2.39034878 1.71806319 3.84225353 3.04985267 4.3359375 6.0234375 C4.40137075 9.85782604 4.0231711 12.92094567 2.9375 16.625 C1.84778969 20.54795713 2.01682878 23.0673151 3 27 C5.0382786 29.95550397 7.67262636 30.83092278 11 32 C10.67 32.99 10.34 33.98 10 35 C6.49345639 34.79962608 5.03457479 34.02894633 2.3125 31.75 C-1.29297139 27.06060525 -1.87744681 20.76000008 -2 15 C-1.03515625 12.09765625 -1.03515625 12.09765625 0 10 C-0.99 10.33 -1.98 10.66 -3 11 C-2.34 9.68 -1.68 8.36 -1 7 C-1.99 6.34 -2.98 5.68 -4 5 C-4.33 5.66 -4.66 6.32 -5 7 C-4.75 4.625 -4.75 4.625 -4 2 C-1.9375 0.6875 -1.9375 0.6875 0 0 Z " fill="#F4F8ED" transform="translate(58,63)"/>
<path d="M0 0 C0.99 0.33 1.98 0.66 3 1 C2.01 1.66 1.02 2.32 0 3 C0.99 3.99 1.98 4.98 3 6 C2.175 6.598125 1.35 7.19625 0.5 7.8125 C-0.325 8.534375 -1.15 9.25625 -2 10 C-2 10.99 -2 11.98 -2 13 C-3 15.1875 -3 15.1875 -4 17 C-2.68 17.66 -1.36 18.32 0 19 C-0.66 19.66 -1.32 20.32 -2 21 C-3.32 21 -4.64 21 -6 21 C-6.33 17.7 -6.66 14.4 -7 11 C-7.66 11 -8.32 11 -9 11 C-9.0825 11.61875 -9.165 12.2375 -9.25 12.875 C-10 15 -10 15 -12.0625 16.25 C-12.701875 16.4975 -13.34125 16.745 -14 17 C-13.49287967 13.28111761 -12.88391785 10.26545761 -11 7 C-10.34 7 -9.68 7 -9 7 C-7.3553326 4.53673288 -7.3553326 4.53673288 -6 2 C-5.34 2.66 -4.68 3.32 -4 4 C-2.68 2.68 -1.36 1.36 0 0 Z " fill="#51BC6F" transform="translate(58,51)"/>
<path d="M0 0 C3.96 0 7.92 0 12 0 C14.02738766 4.05477531 14.53700883 5.61442789 14 10 C12.20006226 12.69990662 10.916227 14.5418865 8 16 C5.3276379 16.13415472 2.67749512 16.04318541 0 16 C0 15.34 0 14.68 0 14 C0.804375 13.731875 1.60875 13.46375 2.4375 13.1875 C3.283125 12.795625 4.12875 12.40375 5 12 C5.33 11.01 5.66 10.02 6 9 C6.680625 8.505 7.36125 8.01 8.0625 7.5 C8.701875 7.005 9.34125 6.51 10 6 C10 5.01 10 4.02 10 3 C9.01 2.67 8.02 2.34 7 2 C7 2.66 7 3.32 7 4 C7.66 4.33 8.32 4.66 9 5 C6.75 5.3125 6.75 5.3125 4 5 C1.6875 2.5 1.6875 2.5 0 0 Z " fill="#D92724" transform="translate(77,78)"/>
<path d="M0 0 C0.99 0.33 1.98 0.66 3 1 C3.6875 3.0625 3.6875 3.0625 4 5 C2.35 5 0.7 5 -1 5 C-1 5.66 -1 6.32 -1 7 C1.31 7.33 3.62 7.66 6 8 C6 8.33 6 8.66 6 9 C2.60418484 9.0291544 -0.79159786 9.04685068 -4.1875 9.0625 C-5.14720703 9.07087891 -6.10691406 9.07925781 -7.09570312 9.08789062 C-8.02705078 9.09111328 -8.95839844 9.09433594 -9.91796875 9.09765625 C-10.77156982 9.10289307 -11.6251709 9.10812988 -12.50463867 9.11352539 C-15.09246747 8.99579323 -17.47661953 8.57107044 -20 8 C-20 7.01 -20 6.02 -20 5 C-16.18243176 3.62567543 -12.92744671 4.32024961 -9 5 C-9 5.66 -9 6.32 -9 7 C-7.68 7 -6.36 7 -5 7 C-6.25541557 4.48916886 -7.50063488 4.12874554 -10 3 C-7 1 -7 1 -4.4375 1.5 C-3.2309375 1.7475 -3.2309375 1.7475 -2 2 C-1.34 1.34 -0.68 0.68 0 0 Z " fill="#DA8465" transform="translate(78,95)"/>
<path d="M0 0 C2.97 0.495 2.97 0.495 6 1 C6.33 1.99 6.66 2.98 7 4 C6.67 4.66 6.34 5.32 6 6 C6.66 6.33 7.32 6.66 8 7 C8.33 6.34 8.66 5.68 9 5 C8.67 7.64 8.34 10.28 8 13 C7.34 12.01 6.68 11.02 6 10 C2.88667752 10.66868314 2.88667752 10.66868314 1.8125 13.0625 C1.544375 13.701875 1.27625 14.34125 1 15 C1 13.68 1 12.36 1 11 C0.0409375 10.8453125 0.0409375 10.8453125 -0.9375 10.6875 C-1.618125 10.460625 -2.29875 10.23375 -3 10 C-4.15941038 6.52176885 -3.70820884 4.54104422 -3 1 C-2.01 1.33 -1.02 1.66 0 2 C0 1.34 0 0.68 0 0 Z " fill="#C8D49B" transform="translate(80,61)"/>
<path d="M0 0 C0 0.66 0 1.32 0 2 C0.99 2 1.98 2 3 2 C3 4.64 3 7.28 3 10 C2.34 10 1.68 10 1 10 C1 10.99 1 11.98 1 13 C0.34 13 -0.32 13 -1 13 C-1 12.34 -1 11.68 -1 11 C-1.763125 10.87625 -2.52625 10.7525 -3.3125 10.625 C-6 10 -6 10 -9 8 C-8.67 6.68 -8.34 5.36 -8 4 C-7.34 4 -6.68 4 -6 4 C-5.67 3.01 -5.34 2.02 -5 1 C-2 0 -2 0 0 0 Z " fill="#30A950" transform="translate(101,62)"/>
<path d="M0 0 C1 1 1 1 1.0625 4.0625 C1.041875 5.031875 1.02125 6.00125 1 7 C-5.4 9.21538462 -5.4 9.21538462 -8.4375 8.125 C-8.953125 7.75375 -9.46875 7.3825 -10 7 C-10 4.69 -10 2.38 -10 0 C-6.23262135 -2.60818522 -4.06409822 -1.71595258 0 0 Z " fill="#FAFBF7" transform="translate(80,49)"/>
<path d="M0 0 C2.33524782 2.25740623 4.18705073 4.2805761 6 7 C6.99 7.33 7.98 7.66 9 8 C9.33 9.65 9.66 11.3 10 13 C9.34 13 8.68 13 8 13 C7.67 13.66 7.34 14.32 7 15 C6.67 14.34 6.34 13.68 6 13 C5.01 13 4.02 13 3 13 C3 13.66 3 14.32 3 15 C2.01 14.67 1.02 14.34 0 14 C0.33 13.01 0.66 12.02 1 11 C-0.98 10.01 -2.96 9.02 -5 8 C-5 8.66 -5 9.32 -5 10 C-6.32 10.33 -7.64 10.66 -9 11 C-9 9.68 -9 8.36 -9 7 C-6.36 6.67 -3.72 6.34 -1 6 C-0.67 4.02 -0.34 2.04 0 0 Z " fill="#F4F4E2" transform="translate(85,53)"/>
<path d="M0 0 C0.66 0.33 1.32 0.66 2 1 C2 1.66 2 2.32 2 3 C2.33 3 2.66 3 3 3 C3.33 4.98 3.66 6.96 4 9 C7.4634285 9.90743586 7.4634285 9.90743586 10.9375 9.4375 C13.98058766 8.79199656 16.15902174 9.90234931 19 11 C16.63431778 13.36568222 16.14767774 13.25571704 12.9375 13.265625 C11.74253906 13.26949219 11.74253906 13.26949219 10.5234375 13.2734375 C9.69070312 13.26570313 8.85796875 13.25796875 8 13.25 C7.16726562 13.25773437 6.33453125 13.26546875 5.4765625 13.2734375 C4.67992188 13.27085938 3.88328125 13.26828125 3.0625 13.265625 C2.33160156 13.26336914 1.60070312 13.26111328 0.84765625 13.25878906 C-1 13 -1 13 -3 11 C-3 10.34 -3 9.68 -3 9 C-3.061875 7.845 -3.12375 6.69 -3.1875 5.5 C-3.125625 4.345 -3.06375 3.19 -3 2 C-2.01 1.34 -1.02 0.68 0 0 Z " fill="#BBC985" transform="translate(67,47)"/>
<path d="M0 0 C0.86625 0.4640625 0.86625 0.4640625 1.75 0.9375 C3.84294184 1.92583364 5.74535275 2.5168613 8 3 C8 2.34 8 1.68 8 1 C9.32 1.33 10.64 1.66 12 2 C11.75 3.875 11.75 3.875 11 6 C9.66666667 6.66666667 8.33333333 7.33333333 7 8 C6.19471111 10.05000871 6.19471111 10.05000871 6 12 C4.68 12 3.36 12 2 12 C2 11.34 2 10.68 2 10 C1.01 10 0.02 10 -1 10 C-1 9.34 -1 8.68 -1 8 C0.32 7.67 1.64 7.34 3 7 C2.505 6.401875 2.01 5.80375 1.5 5.1875 C0 3 0 3 0 0 Z " fill="#E1BB0E" transform="translate(76,79)"/>
<path d="M0 0 C2.02054804 1.64169528 4.02043058 3.30911778 6 5 C6 5.33 6 5.66 6 6 C4.35 6.33 2.7 6.66 1 7 C0.67 7.99 0.34 8.98 0 10 C-4.94367454 11.20577428 -8.20862412 10.6290678 -13 9 C-13 8.34 -13 7.68 -13 7 C-12.28972656 6.81824219 -11.57945313 6.63648437 -10.84765625 6.44921875 C-9.46900391 6.07216797 -9.46900391 6.07216797 -8.0625 5.6875 C-7.14597656 5.44386719 -6.22945313 5.20023437 -5.28515625 4.94921875 C-4.15400391 4.47935547 -4.15400391 4.47935547 -3 4 C-2.67 3.01 -2.34 2.02 -2 1 C-1.34 0.67 -0.68 0.34 0 0 Z " fill="#2DAD51" transform="translate(90,93)"/>
<path d="M0 0 C0.89332031 0.12761719 1.78664063 0.25523438 2.70703125 0.38671875 C3.60808594 0.50660156 4.50914063 0.62648437 5.4375 0.75 C6.12457031 0.85699219 6.81164062 0.96398438 7.51953125 1.07421875 C7.18953125 1.73421875 6.85953125 2.39421875 6.51953125 3.07421875 C5.85953125 2.74421875 5.19953125 2.41421875 4.51953125 2.07421875 C4.51953125 3.72421875 4.51953125 5.37421875 4.51953125 7.07421875 C1.87953125 7.07421875 -0.76046875 7.07421875 -3.48046875 7.07421875 C-3.81046875 8.06421875 -4.14046875 9.05421875 -4.48046875 10.07421875 C-6.48046875 7.07421875 -6.48046875 7.07421875 -6.29296875 5.07421875 C-4.94490979 1.75591978 -3.71172484 0.11105948 0 0 Z " fill="#15839C" transform="translate(66.48046875,58.92578125)"/>
<path d="M0 0 C0.66 0.33 1.32 0.66 2 1 C-0.625 6.75 -0.625 6.75 -4 9 C-4.99 9 -5.98 9 -7 9 C-7 8.34 -7 7.68 -7 7 C-8.84725052 6.30840599 -8.84725052 6.30840599 -11 6 C-11.99 6.66 -12.98 7.32 -14 8 C-17.6875 7.625 -17.6875 7.625 -21 7 C-21.33 6.01 -21.66 5.02 -22 4 C-18.66666667 4 -15.33333333 4 -12 4 C-10.28523034 3.74892781 -8.57632338 3.45510752 -6.875 3.125 C-6.00617188 2.96257812 -5.13734375 2.80015625 -4.2421875 2.6328125 C-1.8208848 2.1465241 -1.8208848 2.1465241 0 0 Z " fill="#EAF1DD" transform="translate(89,90)"/>
<path d="M0 0 C1.9375 0.6875 1.9375 0.6875 4 2 C5.07366225 4.91422611 5.31375694 6.315664 4.0078125 9.1640625 C3.67523438 9.76992188 3.34265625 10.37578125 3 11 C1.82460004 10.07347299 0.65989423 9.13336613 -0.5 8.1875 C-1.47453125 7.40439453 -1.47453125 7.40439453 -2.46875 6.60546875 C-4 5 -4 5 -4 2 C-2.68 2 -1.36 2 0 2 C0 1.34 0 0.68 0 0 Z " fill="#0CA94F" transform="translate(94,50)"/>
<path d="M0 0 C1.77503906 0.03480469 1.77503906 0.03480469 3.5859375 0.0703125 C5.36871094 0.09738281 5.36871094 0.09738281 7.1875 0.125 C8.10273437 0.14820313 9.01796875 0.17140625 9.9609375 0.1953125 C8.9709375 0.5253125 7.9809375 0.8553125 6.9609375 1.1953125 C6.9609375 1.8553125 6.9609375 2.5153125 6.9609375 3.1953125 C6.39503906 3.34226563 5.82914063 3.48921875 5.24609375 3.640625 C2.98681765 4.33151084 1.00975655 5.01280172 -1.0390625 6.1953125 C-2.17937816 9.27328833 -2.17937816 9.27328833 -2.0390625 12.1953125 C-4.0390625 9.1953125 -4.0390625 9.1953125 -3.6640625 6.5078125 C-3.4578125 5.7446875 -3.2515625 4.9815625 -3.0390625 4.1953125 C-4.0290625 5.1853125 -5.0190625 6.1753125 -6.0390625 7.1953125 C-4.95322324 0.31833054 -4.95322324 0.31833054 0 0 Z " fill="#A9BF6B" transform="translate(71.0390625,43.8046875)"/>
<path d="M0 0 C2.9375 1.5625 2.9375 1.5625 6 4 C6.8125 7.375 6.8125 7.375 7 11 C7.3274322 13.00097458 7.65876419 15.00133314 8 17 C6 16 6 16 4.625 13.5 C3.10760734 10.54436342 3.10760734 10.54436342 -1 10 C-0.67 6.7 -0.34 3.4 0 0 Z " fill="#35B463" transform="translate(44,69)"/>
<path d="M0 0 C0.020625 0.763125 0.04125 1.52625 0.0625 2.3125 C0.79660949 5.41389118 0.79660949 5.41389118 4.5625 6.8125 C5.696875 7.204375 6.83125 7.59625 8 8 C8 8.66 8 9.32 8 10 C8.66 10.33 9.32 10.66 10 11 C8.02 11.99 8.02 11.99 6 13 C5.34 11.68 4.68 10.36 4 9 C3.01 9 2.02 9 1 9 C0.34 9 -0.32 9 -1 9 C-1 9.66 -1 10.32 -1 11 C-1.66 11 -2.32 11 -3 11 C-4.125 4.375 -4.125 4.375 -3 1 C-1 0 -1 0 0 0 Z " fill="#FBFCF8" transform="translate(92,65)"/>
<path d="M0 0 C2 1 2 1 2.8125 2.75 C3.07534333 5.90411993 1.76338194 7.46073001 0 10 C1.32 10.66 2.64 11.32 4 12 C3.34 12.66 2.68 13.32 2 14 C0.68 14 -0.64 14 -2 14 C-3.36046512 5.08139535 -3.36046512 5.08139535 -2 1 C-1.34 0.67 -0.68 0.34 0 0 Z " fill="#3CB666" transform="translate(54,58)"/>
<path d="M0 0 C2 2 2 2 2 6 C2.66 6 3.32 6 4 6 C4 7.98 4 9.96 4 12 C2.35 12.33 0.7 12.66 -1 13 C-1 11.68 -1 10.36 -1 9 C-2.32 8.34 -3.64 7.68 -5 7 C-3.66666667 7 -2.33333333 7 -1 7 C-0.67 4.69 -0.34 2.38 0 0 Z " fill="#1DAA4C" transform="translate(53,78)"/>
<path d="M0 0 C1.31223496 3.93670488 0.24296256 6.12488144 -1 10 C-1.66 9.34 -2.32 8.68 -3 8 C-3 7.01 -3 6.02 -3 5 C-3.66 5 -4.32 5 -5 5 C-5 5.66 -5 6.32 -5 7 C-5.66 7 -6.32 7 -7 7 C-7.33 5.02 -7.66 3.04 -8 1 C-5.36 0.67 -2.72 0.34 0 0 Z " fill="#CC8D2F" transform="translate(71,65)"/>
<path d="M0 0 C2.87730152 1.13036845 4.05884984 2.07540136 6 4.5625 C8.06618681 7.08066518 8.84502343 7.6619668 12 8 C12.33 7.34 12.66 6.68 13 6 C12.67 7.65 12.34 9.3 12 11 C7.545 10.01 7.545 10.01 3 9 C3 8.01 3 7.02 3 6 C2.34 5.67 1.68 5.34 1 5 C0.375 2.4375 0.375 2.4375 0 0 Z " fill="#42B766" transform="translate(45,82)"/>
<path d="M0 0 C1.6875 1.6875 1.6875 1.6875 3 4 C2.6875 6.75 2.6875 6.75 2 9 C1.01 8.67 0.02 8.34 -1 8 C-0.67 7.01 -0.34 6.02 0 5 C-1.98 4.01 -3.96 3.02 -6 2 C-6 2.66 -6 3.32 -6 4 C-7.32 4.33 -8.64 4.66 -10 5 C-10 3.68 -10 2.36 -10 1 C-2.25 0 -2.25 0 0 0 Z " fill="#FCFBF4" transform="translate(86,59)"/>
<path d="M0 0 C0.33 0 0.66 0 1 0 C1 3.96 1 7.92 1 12 C-0.32 12 -1.64 12 -3 12 C-3.34833144 7.12335991 -2.41685712 4.22949995 0 0 Z " fill="#0880A4" transform="translate(73,64)"/>
<path d="M0 0 C0.66 0.33 1.32 0.66 2 1 C1.67 3.31 1.34 5.62 1 8 C-0.32 7.34 -1.64 6.68 -3 6 C-3.99 6.99 -4.98 7.98 -6 9 C-6.33 8.01 -6.66 7.02 -7 6 C-6.67 5.34 -6.34 4.68 -6 4 C-5.34 4 -4.68 4 -4 4 C-3.67 3.01 -3.34 2.02 -3 1 C-2.01 0.67 -1.02 0.34 0 0 Z " fill="#3DB04A" transform="translate(99,62)"/>
<path d="M0 0 C0.33 0 0.66 0 1 0 C1 5.94 1 11.88 1 18 C-0.98 18 -2.96 18 -5 18 C-4.67 17.34 -4.34 16.68 -4 16 C-2.68 16.33 -1.36 16.66 0 17 C-0.1135629 15.35333797 -0.24117381 13.70763918 -0.375 12.0625 C-0.47941406 10.68771484 -0.47941406 10.68771484 -0.5859375 9.28515625 C-0.79089844 8.15400391 -0.79089844 8.15400391 -1 7 C-1.66 6.67 -2.32 6.34 -3 6 C-3 4.68 -3 3.36 -3 2 C-2.34 2 -1.68 2 -1 2 C-0.67 1.34 -0.34 0.68 0 0 Z " fill="#518F80" transform="translate(74,59)"/>
<path d="M0 0 C0.66 0 1.32 0 2 0 C2.6987693 1.76641683 3.38366583 3.53832664 4.0625 5.3125 C4.44535156 6.29863281 4.82820313 7.28476563 5.22265625 8.30078125 C6 11 6 11 5 14 C5 13.34 5 12.68 5 12 C3.02 12.99 3.02 12.99 1 14 C1.020625 12.80375 1.04125 11.6075 1.0625 10.375 C1.06882571 6.81995131 0.69888875 3.49444376 0 0 Z " fill="#EFF3E4" transform="translate(89,76)"/>
<path d="M0 0 C0.66 0 1.32 0 2 0 C2.33 0.99 2.66 1.98 3 3 C3.66 3.33 4.32 3.66 5 4 C5.625 6.0625 5.625 6.0625 6 8 C3.69 8 1.38 8 -1 8 C-0.34 7.34 0.32 6.68 1 6 C0.01 5.34 -0.98 4.68 -2 4 C-1.34 2.68 -0.68 1.36 0 0 Z " fill="#19AA4E" transform="translate(91,90)"/>
<path d="M0 0 C0.66 0 1.32 0 2 0 C2 0.99 2 1.98 2 3 C2.66 3 3.32 3 4 3 C3.8125 5.875 3.8125 5.875 3 9 C0.4375 10.375 0.4375 10.375 -2 11 C-1.649375 10.38125 -1.29875 9.7625 -0.9375 9.125 C-0.628125 8.42375 -0.31875 7.7225 0 7 C-0.33 6.34 -0.66 5.68 -1 5 C-0.72057545 3.32345271 -0.39171753 1.65391846 0 0 Z " fill="#11AA51" transform="translate(102,75)"/>
<path d="M0 0 C5.33333333 0 10.66666667 0 16 0 C15.67 0.99 15.34 1.98 15 3 C14.401875 2.79375 13.80375 2.5875 13.1875 2.375 C10.71549154 1.69328085 10.71549154 1.69328085 8 4 C4.3125 3.625 4.3125 3.625 1 3 C0.67 2.01 0.34 1.02 0 0 Z " fill="#F1DAB3" transform="translate(67,94)"/>
<path d="M0 0 C0.66 0.33 1.32 0.66 2 1 C1.67 1.70125 1.34 2.4025 1 3.125 C-0.09044562 6.26003116 -0.15322643 8.70563182 0 12 C-0.66 12 -1.32 12 -2 12 C-2.33 8.7 -2.66 5.4 -3 2 C-2.01 1.34 -1.02 0.68 0 0 Z " fill="#56BD72" transform="translate(57,72)"/>
<path d="M0 0 C0.66 0 1.32 0 2 0 C2 0.66 2 1.32 2 2 C3.98 1.67 5.96 1.34 8 1 C7.34 3.31 6.68 5.62 6 8 C4.35 8.33 2.7 8.66 1 9 C1 8.34 1 7.68 1 7 C1.66 7 2.32 7 3 7 C3 5.68 3 4.36 3 3 C2.01 2.67 1.02 2.34 0 2 C0 1.34 0 0.68 0 0 Z " fill="#10A94F" transform="translate(93,76)"/>
<path d="M0 0 C2.56687367 3.8503105 1.83288724 5.58569763 1 10 C0.67 8.68 0.34 7.36 0 6 C-0.639375 5.896875 -1.27875 5.79375 -1.9375 5.6875 C-2.618125 5.460625 -3.29875 5.23375 -4 5 C-4.33 4.01 -4.66 3.02 -5 2 C-4.34 1.67 -3.68 1.34 -3 1 C-2.34 1.33 -1.68 1.66 -1 2 C-0.67 1.34 -0.34 0.68 0 0 Z " fill="#B6AB6B" transform="translate(81,66)"/>
<path d="M0 0 C1.32 0 2.64 0 4 0 C4.33 0.66 4.66 1.32 5 2 C5.66 2 6.32 2 7 2 C7 2.66 7 3.32 7 4 C6.01 4 5.02 4 4 4 C3.67 4.99 3.34 5.98 3 7 C2.01 6.34 1.02 5.68 0 5 C-0.1875 2.375 -0.1875 2.375 0 0 Z " fill="#D1CB86" transform="translate(77,62)"/>
<path d="M0 0 C2.64 0 5.28 0 8 0 C7.67 1.32 7.34 2.64 7 4 C5.68 4 4.36 4 3 4 C3 3.34 3 2.68 3 2 C2.01 2 1.02 2 0 2 C0 1.34 0 0.68 0 0 Z " fill="#DD7E19" transform="translate(75,87)"/>
<path d="M0 0 C1.32 0.66 2.64 1.32 4 2 C3.67 2.99 3.34 3.98 3 5 C-0.5625 6.6875 -0.5625 6.6875 -4 8 C-3.67 6.68 -3.34 5.36 -3 4 C-2.01 4 -1.02 4 0 4 C0 2.68 0 1.36 0 0 Z " fill="#98B68D" transform="translate(98,57)"/>
<path d="M0 0 C-2.39763185 2.39763185 -3.33273498 2.34280586 -6.625 2.625 C-7.44226562 2.69976562 -8.25953125 2.77453125 -9.1015625 2.8515625 C-9.72804687 2.90054688 -10.35453125 2.94953125 -11 3 C-11 2.01 -11 1.02 -11 0 C-6.94952424 -1.35015859 -4.2079832 -0.62084998 0 0 Z " fill="#D9A280" transform="translate(69,100)"/>
<path d="M0 0 C-2 2 -2 2 -5.4375 2.25 C-9 2 -9 2 -12 0 C-7.44729118 -2.48329572 -4.775353 -1.68541871 0 0 Z " fill="#C8C974" transform="translate(86,58)"/>
<path d="M0 0 C-0.33 1.65 -0.66 3.3 -1 5 C-1.66 5 -2.32 5 -3 5 C-3.33 4.67 -3.66 4.34 -4 4 C-4.33 4.66 -4.66 5.32 -5 6 C-5.99 5.67 -6.98 5.34 -8 5 C-8 4.01 -8 3.02 -8 2 C-4.91190305 0.23537317 -3.76687864 0 0 0 Z " fill="#86B175" transform="translate(103,85)"/>
<path d="M0 0 C0.99 0.66 1.98 1.32 3 2 C2.67 4.97 2.34 7.94 2 11 C-0.46278801 8.53721199 -0.99771255 6.29323018 -2 3 C-1.34 3 -0.68 3 0 3 C0 2.01 0 1.02 0 0 Z " fill="#32AB43" transform="translate(51,74)"/>
<path d="M0 0 C0.66 0.66 1.32 1.32 2 2 C1.43410156 2.14695313 0.86820313 2.29390625 0.28515625 2.4453125 C-1.97411985 3.13619834 -3.95118095 3.81748922 -6 5 C-7.14031566 8.07797583 -7.14031566 8.07797583 -7 11 C-9 8 -9 8 -8.5625 4.9375 C-7 2 -7 2 -3.375 0.625 C-2.26125 0.41875 -1.1475 0.2125 0 0 Z " fill="#89B453" transform="translate(76,45)"/>
<path d="M0 0 C2.97 0.99 5.94 1.98 9 3 C9 3.66 9 4.32 9 5 C7.68 5 6.36 5 5 5 C5 4.34 5 3.68 5 3 C2.69 3 0.38 3 -2 3 C-1.34 2.67 -0.68 2.34 0 2 C0 1.34 0 0.68 0 0 Z " fill="#34AE5B" transform="translate(64,97)"/>
<path d="M0 0 C2.02054804 1.64169528 4.02043058 3.30911778 6 5 C6 5.33 6 5.66 6 6 C2.625 6.1875 2.625 6.1875 -1 6 C-1.66 5.01 -2.32 4.02 -3 3 C-2.01 2.01 -1.02 1.02 0 0 Z " fill="#61BB5E" transform="translate(90,93)"/>
<path d="M0 0 C2.76276177 0.52268466 5.3260876 1.10869587 8 2 C8 2.66 8 3.32 8 4 C8.66 4.33 9.32 4.66 10 5 C8.02 5.99 8.02 5.99 6 7 C5.34 5.68 4.68 4.36 4 3 C3.01 3 2.02 3 1 3 C0.34 2.67 -0.32 2.34 -1 2 C-0.67 1.34 -0.34 0.68 0 0 Z " fill="#AFDAB7" transform="translate(92,71)"/>
<path d="M0 0 C1.09658936 3.28976808 0.79953138 4.71303767 0 8 C-0.66 7.01 -1.32 6.02 -2 5 C-2.99 5.33 -3.98 5.66 -5 6 C-5 4.68 -5 3.36 -5 2 C-4.01 1.67 -3.02 1.34 -2 1 C-1.34 1.33 -0.68 1.66 0 2 C0 1.34 0 0.68 0 0 Z " fill="#D9D28C" transform="translate(88,66)"/>
<path d="M0 0 C1.9375 0.6875 1.9375 0.6875 4 2 C4.75 4.625 4.75 4.625 5 7 C4.01 7.495 4.01 7.495 3 8 C2.71125 7.38125 2.4225 6.7625 2.125 6.125 C1.06279958 3.86674235 1.06279958 3.86674235 -1 2 C-0.67 1.34 -0.34 0.68 0 0 Z " fill="#26AE55" transform="translate(94,50)"/>
<path d="M0 0 C0.33 0.99 0.66 1.98 1 3 C1.99 3 2.98 3 4 3 C3.34 4.32 2.68 5.64 2 7 C1.67 6.67 1.34 6.34 1 6 C0.67 6.66 0.34 7.32 0 8 C-0.66 7.67 -1.32 7.34 -2 7 C-2.125 4.625 -2.125 4.625 -2 2 C-1.34 1.34 -0.68 0.68 0 0 Z " fill="#1EAA4C" transform="translate(51,69)"/>
<path d="M0 0 C2 3.75 2 3.75 2 6 C0.35 6 -1.3 6 -3 6 C-3 4.33333333 -3 2.66666667 -3 1 C-2.01 0.67 -1.02 0.34 0 0 Z " fill="#1AAA4B" transform="translate(98,66)"/>
<path d="M0 0 C2.475 0.495 2.475 0.495 5 1 C4.67 2.32 4.34 3.64 4 5 C2.68 5 1.36 5 0 5 C0 3.35 0 1.7 0 0 Z " fill="#FEFEFC" transform="translate(76,71)"/>
<path d="M0 0 C0 0.33 0 0.66 0 1 C-3.3 1 -6.6 1 -10 1 C-7.68309104 -3.63381792 -3.88575585 -1.46795221 0 0 Z " fill="#AE9E61" transform="translate(73,103)"/>
<path d="M0 0 C2 3.75 2 3.75 2 6 C0.35 6 -1.3 6 -3 6 C-2.42655063 3.13275314 -2.1385485 2.1385485 0 0 Z " fill="#FEFDF9" transform="translate(86,70)"/>
<path d="M0 0 C0.66 0.33 1.32 0.66 2 1 C1.34 3.31 0.68 5.62 0 8 C-0.66 7.34 -1.32 6.68 -2 6 C-2 5.01 -2 4.02 -2 3 C-2.66 3 -3.32 3 -4 3 C-4.33 3.66 -4.66 4.32 -5 5 C-5 4.01 -5 3.02 -5 2 C-2.625 0.9375 -2.625 0.9375 0 0 Z " fill="#C2C498" transform="translate(70,67)"/>
<path d="M0 0 C0.66 0.33 1.32 0.66 2 1 C1.835 1.598125 1.67 2.19625 1.5 2.8125 C0.8885876 5.11344336 0.8885876 5.11344336 1 8 C0.01 8 -0.98 8 -2 8 C-1.47731534 5.23723823 -0.89130413 2.6739124 0 0 Z " fill="#31AC43" transform="translate(101,76)"/>
<path d="M0 0 C1.32 0.33 2.64 0.66 4 1 C4 2.32 4 3.64 4 5 C3.01 5.33 2.02 5.66 1 6 C0 5 0 5 -0.0625 2.4375 C-0.041875 1.633125 -0.02125 0.82875 0 0 Z " fill="#30AE4F" transform="translate(92,78)"/>
<path d="M0 0 C2.03833424 1.2739589 4.03852126 2.61061923 6 4 C6 4.66 6 5.32 6 6 C3.03 5.505 3.03 5.505 0 5 C0 3.35 0 1.7 0 0 Z " fill="#41B86B" transform="translate(44,69)"/>
<path d="M0 0 C2.64 0 5.28 0 8 0 C7.67 0.99 7.34 1.98 7 3 C2.25 2.25 2.25 2.25 0 0 Z " fill="#DA926D" transform="translate(83,100)"/>
</svg>
