<?xml version="1.0" encoding="UTF-8"?>
<svg version="1.1" xmlns="http://www.w3.org/2000/svg" width="1500" height="1500">
<path d="M0 0 C255.42 0 510.84 0 774 0 C774 387.22447584 774 387.22447584 765.625 427 C765.32647724 428.44773297 765.02805936 429.89548758 764.72973633 431.34326172 C753.35235208 486.00685952 734.92073652 538.02369167 710 588 C709.48856445 589.02689941 708.97712891 590.05379883 708.45019531 591.11181641 C692.02417117 623.87687329 672.26017363 654.89000506 650 684 C649.50951172 684.64211426 649.01902344 685.28422852 648.51367188 685.94580078 C642.37273326 693.94781978 635.96933759 701.70827522 629.40039062 709.36132812 C627.99203398 711.00932146 626.59643142 712.66739677 625.203125 714.328125 C614.24710729 727.33547424 602.49567598 739.57707155 590.5 751.625 C589.77087402 752.35879883 589.04174805 753.09259766 588.29052734 753.84863281 C584.26765195 757.85954358 580.14698497 761.69212476 575.84423828 765.40087891 C573.23314988 767.66492828 570.71638166 770.01942632 568.1875 772.375 C563.59440625 776.61310701 558.88729778 780.65600193 554.015625 784.57421875 C551.80357784 786.35359865 549.60793161 788.14630553 547.421875 789.95703125 C504.08299566 825.74485553 455.22714766 855.33142186 404 878.375 C403.37676849 878.6564386 402.75353699 878.9378772 402.11141968 879.22784424 C388.15939624 885.50241525 388.15939624 885.50241525 384.02832031 884.54125977 C383.38475586 884.26080811 382.74119141 883.98035645 382.078125 883.69140625 C381.31709473 883.36495117 380.55606445 883.03849609 379.77197266 882.70214844 C378.52359619 882.13802246 378.52359619 882.13802246 377.25 881.5625 C376.35458496 881.16708008 375.45916992 880.77166016 374.53662109 880.36425781 C352.13373007 870.33867524 330.09600806 859.56392807 309 847 C308.02321289 846.41976074 307.04642578 845.83952148 306.04003906 845.24169922 C294.14428046 838.14830242 282.3951561 830.8748011 271 823 C270.35998047 822.56042969 269.71996094 822.12085938 269.06054688 821.66796875 C252.86286627 810.51340694 237.01543737 798.7088491 222 786 C221.46890625 785.55237305 220.9378125 785.10474609 220.390625 784.64355469 C213.08406784 778.47659006 205.91261411 772.18537104 198.90234375 765.68359375 C197.03182515 763.95405636 195.14978194 762.23685975 193.25390625 760.53515625 C186.71105603 754.64568359 180.42220493 748.52743884 174.1875 742.3125 C172.98661743 741.11850586 172.98661743 741.11850586 171.76147461 739.90039062 C167.52654977 735.65443618 163.45056 731.33033127 159.53930664 726.78442383 C157.45522067 724.36847071 155.28991999 722.03100767 153.125 719.6875 C149.08597847 715.25368689 145.22493122 710.71945416 141.4609375 706.05078125 C139.66719764 703.82711326 137.86127617 701.61801522 136.0390625 699.41796875 C109.24303431 666.96765716 86.523124 631.24234206 67 594 C66.48759766 593.02579102 65.97519531 592.05158203 65.44726562 591.04785156 C32.5635044 528.09142555 12.65699486 459.94311151 2.12890625 389.890625 C2.02827377 389.22345459 1.9276413 388.55628418 1.82395935 387.86889648 C-17.01431192 259.95760626 0 129.29106169 0 0 Z " fill="#000000" transform="translate(363,380)"/>
<path d="M0 0 C235.29 0 470.58 0 713 0 C713 45.21 713 90.42 713 137 C477.71 137 242.42 137 0 137 C0 91.79 0 46.58 0 0 Z " fill="#C00F1B" transform="translate(392,404)"/>
<path d="M0 0 C34.65 0 69.3 0 105 0 C105 195.03 105 390.06 105 591 C97.41484575 584.49843921 89.91299704 577.9502465 82.56152344 571.18652344 C79.41340829 568.291047 76.2482192 565.4166972 73.0625 562.5625 C71.3746247 561.0420832 69.68713952 559.52123322 68 558 C67.09636719 557.19046875 66.19273437 556.3809375 65.26171875 555.546875 C57.83528903 548.83218071 50.71188721 541.81910975 43.625 534.75 C42.91373962 534.04262192 42.91373962 534.04262192 42.18811035 533.32095337 C36.56647182 527.72353135 31.13970502 522.04230292 26 516 C24.95437254 514.79709153 23.9075111 513.59525449 22.859375 512.39453125 C17.48166002 506.20423305 12.12087494 499.99992429 6.8125 493.75 C6.35520508 493.2135083 5.89791016 492.6770166 5.42675781 492.12426758 C0.99937142 486.89351118 -0.29235338 483.83769091 -0.24609566 477.05643177 C-0.24840335 476.234109 -0.25071103 475.41178623 -0.25308865 474.56454459 C-0.25841882 471.78520358 -0.24937963 469.00609028 -0.24050903 466.22676086 C-0.24138048 464.22364297 -0.24313034 462.22052529 -0.24568737 460.21740884 C-0.2501768 454.69439465 -0.24213537 449.17145748 -0.23213124 443.64845312 C-0.22352195 437.69957498 -0.22641511 431.75070145 -0.22793579 425.80181885 C-0.22898624 415.48879832 -0.2227625 405.17580122 -0.21146011 394.86278725 C-0.19963402 384.04422194 -0.19192983 373.22566668 -0.18975449 362.40709496 C-0.18961701 361.73492299 -0.18947953 361.06275102 -0.18933788 360.3702102 C-0.18866123 356.9567153 -0.18805846 353.5432204 -0.18748413 350.12972548 C-0.18328111 325.93958552 -0.16980027 301.74945872 -0.15087891 277.55932617 C-0.132516 254.05607168 -0.11834586 230.55282078 -0.10986328 207.04956055 C-0.10960023 206.32533801 -0.10933718 205.60111547 -0.10906615 204.85494679 C-0.10642916 197.58213672 -0.10387752 190.30932661 -0.10138843 183.03651648 C-0.09631574 168.22040431 -0.09067324 153.40429237 -0.08468628 138.58818054 C-0.0844117 137.90693028 -0.08413712 137.22568003 -0.08385422 136.52378582 C-0.06544678 91.01585055 -0.03247622 45.50792788 0 0 Z " fill="#C00D19" transform="translate(495,562)"/>
<path d="M0 0 C34.32 0 68.64 0 104 0 C104.43054969 92.61200217 104.43054969 92.61200217 104.55046082 138.36607361 C104.55315293 139.39066599 104.55315293 139.39066599 104.55589943 140.43595721 C104.59481088 155.28216597 104.63082272 170.12838043 104.66384928 184.97460342 C104.68006409 192.25561253 104.69691937 199.53662009 104.71411133 206.81762695 C104.7158112 207.54215912 104.71751106 208.26669128 104.71926244 209.01317896 C104.77462036 232.48042998 104.87223707 255.94727299 104.99186387 279.41427701 C105.11461364 303.53783086 105.19453974 327.66115908 105.22089487 351.78501994 C105.22464066 355.19547588 105.22887393 358.60593105 105.23340416 362.01638603 C105.23428066 362.68758582 105.23515716 363.35878561 105.23606022 364.05032479 C105.25044984 374.17012211 105.30226339 384.28929308 105.37449074 394.40883064 C105.45643381 405.93142838 105.4945953 417.4531056 105.47551791 428.97599787 C105.46719896 434.85395788 105.47985506 440.72987238 105.54967117 446.60746765 C105.61320781 451.99591629 105.61596675 457.38095603 105.57168563 462.76956575 C105.5662183 464.71201532 105.58249286 466.65468259 105.62348137 468.59670735 C105.83308157 479.14645038 105.06480576 486.28345516 97.78510571 494.31667233 C96.11917083 496.03051985 94.42163137 497.69600693 92.68738016 499.34056848 C89.87253017 502.10879518 87.39422733 505.1526467 84.875 508.1875 C80.26337095 513.59482661 75.52993991 518.87365028 70.6953125 524.08203125 C68.92274069 526.00103291 67.16690262 527.93565192 65.4296875 529.88671875 C58.40345499 537.74141748 50.85176309 544.90914447 43.10693359 552.05029297 C40.28343505 554.66309243 37.48339869 557.30038305 34.68286133 559.93774414 C28.94867687 565.33586416 23.19071784 570.70012813 17.30859375 575.9375 C15.64365629 577.42495682 13.99152276 578.9267891 12.34765625 580.4375 C11.46980469 581.241875 10.59195313 582.04625 9.6875 582.875 C8.90761719 583.59429688 8.12773438 584.31359375 7.32421875 585.0546875 C5 587 5 587 0 590 C0 395.3 0 200.6 0 0 Z " fill="#C00D19" transform="translate(898,562)"/>
<path d="M0 0 C-1.23876645 5.69305433 -2.56276003 11.35370013 -4 17 C-3.40719238 17.11174561 -2.81438477 17.22349121 -2.20361328 17.33862305 C4.30633166 18.59891899 10.71258699 20.12879986 17.125 21.8125 C18.12619873 22.07168213 19.12739746 22.33086426 20.15893555 22.59790039 C24.71628249 23.79481994 29.23339504 25.03329205 33.69921875 26.5390625 C34.40224121 26.77520264 35.10526367 27.01134277 35.82958984 27.25463867 C37.67054215 27.88861351 39.50178543 28.55059249 41.33203125 29.21484375 C50.11500677 31.0949056 58.52245001 28.2385611 66.9375 25.75 C69.13639724 25.11737101 71.33562015 24.48587295 73.53515625 23.85546875 C75.16155029 23.38633057 75.16155029 23.38633057 76.82080078 22.90771484 C81.4919806 21.57401445 86.17902278 20.30567467 90.875 19.0625 C91.65866943 18.85141602 92.44233887 18.64033203 93.24975586 18.42285156 C96.2505425 17.63106599 98.88204021 17 102 17 C101.566875 15.94039062 101.13375 14.88078125 100.6875 13.7890625 C100.12481865 12.40111517 99.56232855 11.0130903 99 9.625 C98.71382812 8.92632813 98.42765625 8.22765625 98.1328125 7.5078125 C96 2.2265625 96 2.2265625 96 0 C100.60912103 0.63053486 104.45961663 2.47921124 108.5625 4.5625 C109.27067871 4.92182617 109.97885742 5.28115234 110.70849609 5.65136719 C126.12740341 13.62366291 140.02565683 24.50360281 151 38 C150.67 38.66 150.34 39.32 150 40 C147.66255706 40.46806645 145.30260921 40.82669794 142.9375 41.125 C141.00197266 41.37636719 141.00197266 41.37636719 139.02734375 41.6328125 C138.02832031 41.75398437 137.02929688 41.87515625 136 42 C135.94537187 49.3184892 135.93354674 56.6357223 135.97665405 63.95433044 C135.99493585 67.26932097 135.99540687 70.58186964 135.96923828 73.89697266 C135.94204243 77.6199422 135.96606905 81.33964676 136 85.0625 C135.97087524 86.76164551 135.97087524 86.76164551 135.94116211 88.49511719 C136.10273531 97.52980764 139.35452586 102.17849748 145 109 C145.90079524 110.33016202 146.77728638 111.67744841 147.6171875 113.046875 C147.99174072 113.65708496 148.36629395 114.26729492 148.75219727 114.89599609 C149.12272217 115.50781738 149.49324707 116.11963867 149.875 116.75 C153.73526433 123.03025651 157.73970994 129.19426482 161.86474609 135.30371094 C164.91046335 139.82092669 164.91046335 139.82092669 166 142 C170.09661456 140.60007776 172.93751459 138.64201625 176.25 135.875 C180.91103203 132 180.91103203 132 182 132 C181.36332076 155.93913926 173.56058987 176.24231864 162 197 C161.34 197 160.68 197 160 197 C159.32678716 194.75194998 158.66165877 192.50147776 158 190.25 C157.443125 188.37054687 157.443125 188.37054687 156.875 186.453125 C156 183 156 183 156 179 C145.22478419 182.60270575 134.59254501 186.60036309 123.99679565 190.69692993 C122.50437935 191.27187803 121.01017607 191.84220986 119.51419067 192.4078064 C117.37398117 193.21851026 115.2412396 194.04654427 113.109375 194.87890625 C112.46719528 195.11846039 111.82501556 195.35801453 111.16337585 195.60482788 C105.50632784 197.8519648 102.03721101 201.54457065 98.30859375 206.20703125 C97.84461182 206.78582031 97.38062988 207.36460937 96.90258789 207.9609375 C96.41910889 208.57195312 95.93562988 209.18296875 95.4375 209.8125 C94.92372803 210.45832031 94.40995605 211.10414063 93.88061523 211.76953125 C88.57621626 218.47355669 83.40302359 225.28159505 78.34814453 232.17578125 C77.41734969 233.43527039 76.46919133 234.68204659 75.50732422 235.91796875 C74.26112542 237.55609986 73.12085062 239.27368054 72 241 C73.31253503 244.93760508 75.16924373 245.74399157 78.5625 248.0625 C80.40949974 249.325989 82.23200917 250.62813232 84 252 C84 252.66 84 253.32 84 254 C82.10454608 254.48066535 80.20861961 254.95946743 78.3125 255.4375 C77.25675781 255.70433594 76.20101562 255.97117187 75.11328125 256.24609375 C69.73022091 257.54964538 64.74419548 258.17000215 59.19921875 258.203125 C58.44518265 258.20882507 57.69114655 258.21452515 56.91426086 258.22039795 C55.31647123 258.22982353 53.71866237 258.2363722 52.12084961 258.24023438 C49.7331896 258.24981664 47.34643812 258.28080923 44.95898438 258.3125 C34.74768984 258.38294921 24.8937608 257.74433606 15 255 C14.34 254.34 13.68 253.68 13 253 C14.95346205 251.32731078 16.91229814 249.66178419 18.875 248 C19.70837891 247.28457031 19.70837891 247.28457031 20.55859375 246.5546875 C24.7734375 243 24.7734375 243 27 243 C24.17133745 237.46566024 20.6053017 232.98199726 16.625 228.22265625 C13.11673843 223.97546038 9.86384434 219.53512766 6.6015625 215.09790039 C5.63042625 213.78589398 4.64241088 212.48626556 3.640625 211.19750977 C2 209 2 209 0.359375 206.34741211 C-6.61241205 196.11734196 -16.72643464 193.45552287 -28 189.5625 C-30.84514538 188.54274764 -33.68675387 187.51354731 -36.52832031 186.48387146 C-38.28518547 185.85129638 -40.04479595 185.22627107 -41.80761719 184.61048889 C-47.34390855 182.66851839 -52.66450911 180.44242006 -58 178 C-59.32 183.94 -60.64 189.88 -62 196 C-62.99 196 -63.98 196 -65 196 C-75.07034919 182.90610771 -79.25925898 165.77135897 -83 150 C-83.19126465 149.21020752 -83.3825293 148.42041504 -83.57958984 147.60668945 C-84.83929996 142.23151861 -85.17545336 137.52678087 -85 132 C-79.73369981 135.40554079 -74.7296807 138.87668862 -70 143 C-66.50917246 138.76226116 -63.40124786 134.33944541 -60.50195312 129.68310547 C-57.91914162 125.60785876 -55.23970913 122.13390295 -51.859375 118.68359375 C-33.31489125 98.06314191 -37.58735448 68.03475808 -38 42 C-39.26779297 42.00902344 -40.53558594 42.01804687 -41.84179688 42.02734375 C-46.21781224 42.05848977 -49.79720067 41.20079981 -54 40 C-47.32067407 25.36473985 -16.84206923 0 0 0 Z " fill="#FDFDFD" transform="translate(700,716)"/>
<path d="M0 0 C0 83.49 0 166.98 0 253 C-21.88277349 264.51724921 -21.88277349 264.51724921 -31.75 268.9375 C-32.7503125 269.39189453 -33.750625 269.84628906 -34.78125 270.31445312 C-36.68360655 271.17630116 -38.58900127 272.03148979 -40.49804688 272.87841797 C-42.03597399 273.56784392 -43.56571947 274.27635263 -45.08007812 275.01611328 C-48.95630398 276.86327916 -50.90241957 277.13607796 -55 276 C-57.42852066 275.01415265 -59.8003474 273.99435308 -62.1796875 272.90234375 C-62.86950714 272.58979141 -63.55932678 272.27723907 -64.27005005 271.95521545 C-65.73198931 271.29116449 -67.19273131 270.62447219 -68.65234375 269.95532227 C-70.82999241 268.95811035 -73.01223467 267.97158692 -75.1953125 266.98632812 C-76.62789943 266.33398137 -78.06019938 265.68100394 -79.4921875 265.02734375 C-80.43528275 264.60182472 -80.43528275 264.60182472 -81.39743042 264.16770935 C-88.79265269 260.76005473 -95.77428335 256.85371554 -103 253 C-103 169.84 -103 86.68 -103 1 C-96.26897171 2.12183805 -96.26897171 2.12183805 -93.08203125 3.12109375 C-92.38400391 3.33443359 -91.68597656 3.54777344 -90.96679688 3.76757812 C-89.54951427 4.20831061 -88.13282807 4.65096639 -86.71679688 5.09570312 C-75.44903654 8.52860723 -64.58426713 9.37428335 -52.875 9.3125 C-51.77634109 9.30926727 -51.77634109 9.30926727 -50.65548706 9.30596924 C-34.19074353 9.22814302 -19.9842863 6.72851494 -4.4375 1.20703125 C-1 0 -1 0 0 0 Z " fill="#C00D19" transform="translate(800,966)"/>
<path d="M0 0 C33.99 0 67.98 0 103 0 C103 50.16 103 100.32 103 152 C99.32027156 151.26405431 96.54767863 150.49311145 93.125 149.1875 C64.29746931 139.5311615 32.51538744 140.92740046 4 151 C2.68 151.33 1.36 151.66 0 152 C0 101.84 0 51.68 0 0 Z " fill="#BF0D19" transform="translate(697,562)"/>
<path d="M0 0 C2.82749964 1.33441371 5.29610568 2.83769351 7.80859375 4.6953125 C8.91388428 5.51020142 8.91388428 5.51020142 10.04150391 6.34155273 C10.83218262 6.93009033 11.62286133 7.51862793 12.4375 8.125 C13.26427246 8.73738525 14.09104492 9.34977051 14.94287109 9.98071289 C27.74937178 19.49387363 40.423036 29.18572653 53 39 C50.56745379 48.36408256 47.64463977 57.55233429 44.70800781 66.76708984 C43.76688057 69.73521046 42.84955924 72.71033103 41.9375 75.6875 C40.42213276 80.62670954 38.90481311 85.56524558 37.375 90.5 C37.16866943 91.17119873 36.96233887 91.84239746 36.74975586 92.53393555 C35.63854925 96.10937704 34.39429686 99.51425786 33 103 C11.55 103 -9.9 103 -32 103 C-33.485 98.545 -33.485 98.545 -35 94 C-35.61648042 92.33016328 -36.24016009 90.66294349 -36.875 89 C-38.77187548 83.82281353 -40.34115099 78.57324227 -41.84741211 73.27270508 C-43.17947596 68.63813779 -44.63141992 64.05946428 -46.16796875 59.48828125 C-46.54211914 58.36437988 -46.91626953 57.24047852 -47.30175781 56.08251953 C-48.05070498 53.84372776 -48.81152734 51.60886881 -49.58496094 49.37841797 C-49.92688477 48.34990723 -50.26880859 47.32139648 -50.62109375 46.26171875 C-50.9348999 45.34350342 -51.24870605 44.42528809 -51.57202148 43.47924805 C-52 41 -52 41 -51.35473633 38.89233398 C-49.71245812 36.59835338 -47.96068996 35.15574309 -45.703125 33.4609375 C-44.83381348 32.80311279 -43.96450195 32.14528809 -43.06884766 31.4675293 C-42.13862793 30.77699463 -41.2084082 30.08645996 -40.25 29.375 C-38.82179932 28.30149292 -38.82179932 28.30149292 -37.36474609 27.20629883 C-31.09787543 22.51223789 -24.77263573 17.9082478 -18.375 13.39453125 C-14.42218018 10.6040964 -10.52364844 7.74041012 -6.625 4.875 C-5.63234131 4.14543091 -5.63234131 4.14543091 -4.61962891 3.40112305 C-3.07923539 2.26811821 -1.53953685 1.1341686 0 0 Z " fill="#010101" transform="translate(750,780)"/>
<path d="M0 0 C2.73713407 2.73713407 3.45445731 5.9211133 4.6015625 9.52734375 C4.8428891 10.27206436 5.0842157 11.01678497 5.33285522 11.78407288 C5.84171618 13.3592488 6.34755022 14.93540529 6.85058594 16.51245117 C7.6216308 18.92694948 8.40380075 21.33763018 9.1875 23.74804688 C9.6803557 25.2784308 10.17256494 26.8090231 10.6640625 28.33984375 C10.89839996 29.06179428 11.13273743 29.78374481 11.37417603 30.52757263 C12.306791 33.46809749 13 35.89458707 13 39 C14.31484375 38.98259766 14.31484375 38.98259766 15.65625 38.96484375 C28.12341302 38.87615458 40.54840605 39.41360229 53 40 C53 40.66 53 41.32 53 42 C51.62988281 43.26171875 51.62988281 43.26171875 49.703125 44.6875 C48.99679932 45.21706299 48.29047363 45.74662598 47.56274414 46.29223633 C46.79953857 46.85579834 46.03633301 47.41936035 45.25 48 C38.71634058 52.89220156 32.39455176 57.92961065 26.22265625 63.26953125 C24 65 24 65 22 65 C22.26216309 65.87213135 22.52432617 66.7442627 22.79443359 67.64282227 C23.77511683 70.90605551 24.75537424 74.16941605 25.73535156 77.43286133 C26.15803482 78.84013845 26.58088338 80.24736594 27.00390625 81.65454102 C27.61502792 83.6875295 28.22553737 85.72070102 28.8359375 87.75390625 C29.20251465 88.97408447 29.5690918 90.1942627 29.94677734 91.45141602 C30.46812256 93.20796509 30.46812256 93.20796509 31 95 C31.39525879 96.22195068 31.79051758 97.44390137 32.19775391 98.70288086 C32.94380259 101.7690365 33.14693747 103.13265634 32 106 C21.63298985 98.37786919 11.27190166 90.75005754 1 83 C-6.44530739 87.4798036 -13.38298829 92.424469 -20.25195312 97.73535156 C-24.34627623 100.87269324 -28.46469066 103.53847848 -33 106 C-32.46365585 103.76943931 -31.92191353 101.54048074 -31.375 99.3125 C-31.20331299 98.6114917 -31.03162598 97.9104834 -30.85473633 97.18823242 C-29.78609503 92.90670086 -28.62452944 88.66652002 -27.36328125 84.4375 C-27.08629395 83.50381592 -26.80930664 82.57013184 -26.52392578 81.6081543 C-25.97341696 79.76814363 -25.41343317 77.93093684 -24.84326172 76.09692383 C-22.77014215 69.99700681 -22.77014215 69.99700681 -24 64 C-26.42218311 61.67760275 -29.08455416 59.75907735 -31.8125 57.8125 C-33.36090446 56.67003876 -34.90776862 55.52548712 -36.453125 54.37890625 C-37.22076172 53.81316895 -37.98839844 53.24743164 -38.77929688 52.66455078 C-41.95277939 50.28583445 -45.02059504 47.79378773 -48.0625 45.25 C-49.50302734 44.05117188 -49.50302734 44.05117188 -50.97265625 42.828125 C-51.64167969 42.22484375 -52.31070312 41.6215625 -53 41 C-53 40.67 -53 40.34 -53 40 C-39.65965829 39.37174743 -26.35700949 38.82321605 -13 39 C-12.83709473 38.36980957 -12.67418945 37.73961914 -12.50634766 37.09033203 C-10.42844043 29.24690414 -7.95530232 21.56596563 -5.375 13.875 C-4.96765625 12.64523438 -4.5603125 11.41546875 -4.140625 10.1484375 C-3.75132812 8.983125 -3.36203125 7.8178125 -2.9609375 6.6171875 C-2.60821777 5.56128418 -2.25549805 4.50538086 -1.89208984 3.41748047 C-1 1 -1 1 0 0 Z " fill="#E6B041" transform="translate(446,234)"/>
<path d="M0 0 C3.54671433 2.72068697 4.42343015 6.56889521 5.69921875 10.66015625 C5.9391304 11.40583359 6.17904205 12.15151093 6.42622375 12.91978455 C6.93045911 14.49275804 7.4302982 16.06714671 7.92602539 17.64282227 C8.68668786 20.05991934 9.46026974 22.47257275 10.23632812 24.88476562 C10.72471507 26.413821 11.21237061 27.94311023 11.69921875 29.47265625 C11.93041916 30.19663101 12.16161957 30.92060577 12.39982605 31.66651917 C14 36.76523907 14 36.76523907 14 39 C15.31484375 38.98259766 15.31484375 38.98259766 16.65625 38.96484375 C29.12341302 38.87615458 41.54840605 39.41360229 54 40 C51.08480196 43.94984867 47.98759861 46.75216667 44.0625 49.6875 C42.91392043 50.55319695 41.76548757 51.41908858 40.6171875 52.28515625 C40.02647461 52.72746582 39.43576172 53.16977539 38.82714844 53.62548828 C35.76046786 55.93246472 32.72564751 58.2806592 29.6875 60.625 C28.58738436 61.47154234 27.48713753 62.31791425 26.38671875 63.1640625 C25.59910156 63.76992188 24.81148437 64.37578125 24 65 C24.60406293 69.98131895 25.63563885 74.54125186 27.1015625 79.359375 C27.51321317 80.73561957 27.92466584 82.11192337 28.3359375 83.48828125 C28.98255771 85.63101279 29.63196764 87.77283552 30.28515625 89.91357422 C30.91892351 91.99751102 31.54207866 94.08439627 32.1640625 96.171875 C32.53998535 97.4103418 32.9159082 98.64880859 33.30322266 99.92480469 C34 103 34 103 33 106 C31.06843661 104.61197107 29.13765679 103.22287042 27.20776367 101.83251953 C25.56330308 100.64822041 23.91762208 99.46561413 22.27075195 98.28466797 C18.56438283 95.61765488 14.88079176 92.9427963 11.30859375 90.09765625 C10.27863281 89.28167969 9.24867187 88.46570313 8.1875 87.625 C7.29417969 86.89539063 6.40085937 86.16578125 5.48046875 85.4140625 C3.12372507 83.75230683 3.12372507 83.75230683 0.59741211 84.24536133 C-2.11634078 85.03380105 -3.78066099 85.98336365 -6.0390625 87.66015625 C-6.77979004 88.20325439 -7.52051758 88.74635254 -8.28369141 89.3059082 C-9.05632324 89.8855835 -9.82895508 90.46525879 -10.625 91.0625 C-11.81681885 91.94071411 -11.81681885 91.94071411 -13.03271484 92.83666992 C-14.62195365 94.00818901 -16.20875633 95.18302088 -17.79296875 96.36132812 C-20.72047534 98.534937 -23.67153523 100.67431457 -26.625 102.8125 C-28.08357154 103.87467297 -29.5420161 104.93702055 -31 106 C-32.34812095 101.95563716 -31.09892375 99.08884741 -29.91015625 95.15625 C-29.68678085 94.39074829 -29.46340546 93.62524658 -29.23326111 92.83654785 C-28.51776023 90.38857073 -27.79085521 87.94418046 -27.0625 85.5 C-26.33930367 83.05539945 -25.61859949 80.61012675 -24.90245056 78.16345215 C-24.45621319 76.64073008 -24.00563678 75.11927152 -23.55030823 73.59924316 C-22.6759608 70.63017131 -22 68.11320555 -22 65 C-24.3679096 62.83551322 -24.3679096 62.83551322 -27.5 60.625 C-28.68386355 59.74429653 -29.86607551 58.86136985 -31.046875 57.9765625 C-31.68173828 57.50250977 -32.31660156 57.02845703 -32.97070312 56.54003906 C-36.62358088 53.76785994 -40.18703671 50.88625775 -43.75 48 C-44.45318359 47.43619629 -45.15636719 46.87239258 -45.88085938 46.29150391 C-46.86022461 45.49752197 -46.86022461 45.49752197 -47.859375 44.6875 C-48.44170898 44.21699219 -49.02404297 43.74648438 -49.62402344 43.26171875 C-51 42 -51 42 -52 40 C-38.65965829 39.37174743 -25.35700949 38.82321605 -12 39 C-11.77570313 37.83597656 -11.55140625 36.67195313 -11.3203125 35.47265625 C-9.72593791 28.29797062 -7.23520008 21.38752549 -4.875 14.4375 C-4.40192249 13.03334498 -3.92926287 11.6290491 -3.45703125 10.22460938 C-2.30949994 6.81476903 -1.15632848 3.40686863 0 0 Z " fill="#E6B041" transform="translate(1054,234)"/>
<path d="M0 0 C2.21597078 3.32395617 3.36084754 6.65138761 4.6015625 10.40625 C4.8428891 11.12735962 5.0842157 11.84846924 5.33285522 12.59143066 C5.84097943 14.11376476 6.34683843 15.63685656 6.85058594 17.16064453 C7.62285027 19.49350607 8.40466345 21.82301163 9.1875 24.15234375 C9.68026483 25.63262044 10.17247134 27.11308313 10.6640625 28.59375 C10.89839996 29.2906897 11.13273743 29.98762939 11.37417603 30.70568848 C12.32421817 33.59784109 13 35.93358242 13 39 C14.31484375 38.98259766 14.31484375 38.98259766 15.65625 38.96484375 C28.12341302 38.87615458 40.54840605 39.41360229 53 40 C49.98133314 44.11367347 46.53041923 47.17875634 42.5 50.25 C41.89140137 50.72091064 41.28280273 51.19182129 40.65576172 51.67700195 C34.81772603 56.18008862 28.92161662 60.60759207 23 65 C24.55372641 73.99175056 27.13551192 82.63353952 29.76733398 91.36010742 C30.32503173 93.21570268 30.87167513 95.07460912 31.41796875 96.93359375 C31.90946411 98.5741272 31.90946411 98.5741272 32.41088867 100.24780273 C33 103 33 103 32 106 C31.48203857 105.61779297 30.96407715 105.23558594 30.43041992 104.84179688 C29.70443604 104.30619141 28.97845215 103.77058594 28.23046875 103.21875 C27.02801514 102.33135132 27.02801514 102.33135132 25.80126953 101.42602539 C24.05506889 100.13929114 22.30733869 98.8546301 20.55810547 97.57202148 C13.08118083 92.08675759 13.08118083 92.08675759 9.46484375 89.25390625 C8.52769531 88.53074219 7.59054687 87.80757813 6.625 87.0625 C5.83351563 86.43472656 5.04203125 85.80695313 4.2265625 85.16015625 C1.30676407 83.6387876 0.125809 84.10280661 -3 85 C-5.20466604 86.2645095 -5.20466604 86.2645095 -7.29296875 87.9140625 C-8.08405029 88.50751465 -8.87513184 89.1009668 -9.69018555 89.71240234 C-10.51429932 90.34355957 -11.33841309 90.9747168 -12.1875 91.625 C-13.88477994 92.90188847 -15.58269103 94.17793844 -17.28125 95.453125 C-18.09335937 96.06607422 -18.90546875 96.67902344 -19.7421875 97.31054688 C-23.75465378 100.3129546 -27.86343123 103.17139513 -32 106 C-33.33153216 102.00540351 -32.1041473 99.30291803 -30.875 95.4453125 C-30.41135006 93.92841851 -29.94781188 92.41149035 -29.484375 90.89453125 C-28.74375948 88.50815803 -27.99937881 86.12301842 -27.25195312 83.73876953 C-26.53327755 81.43548104 -25.82861207 79.12823917 -25.125 76.8203125 C-24.89796387 76.11182159 -24.67092773 75.40333069 -24.43701172 74.67337036 C-23.2554803 70.77977763 -22.58768202 67.88530837 -24 64 C-26.41556067 61.65182171 -26.41556067 61.65182171 -29.5625 59.5 C-30.73611282 58.63908277 -31.90789854 57.77567088 -33.078125 56.91015625 C-33.70654297 56.44883301 -34.33496094 55.98750977 -34.98242188 55.51220703 C-38.66862377 52.74933983 -42.23758162 49.84199595 -45.8125 46.9375 C-46.8799646 46.07898438 -46.8799646 46.07898438 -47.96899414 45.203125 C-49.66582052 43.82615966 -51.33587968 42.41631806 -53 41 C-53 40.67 -53 40.34 -53 40 C-39.65965829 39.37174743 -26.35700949 38.82321605 -13 39 C-12.83709473 38.36980957 -12.67418945 37.73961914 -12.50634766 37.09033203 C-10.42844043 29.24690414 -7.95530232 21.56596563 -5.375 13.875 C-4.96765625 12.64523438 -4.5603125 11.41546875 -4.140625 10.1484375 C-3.75132812 8.983125 -3.36203125 7.8178125 -2.9609375 6.6171875 C-2.60821777 5.56128418 -2.25549805 4.50538086 -1.89208984 3.41748047 C-1 1 -1 1 0 0 Z " fill="#E6B041" transform="translate(754,234)"/>
<path d="M0 0 C2.84942001 2.84942001 3.60277003 6.31756992 4.8203125 10.0703125 C5.05419678 10.77599365 5.28808105 11.4816748 5.52905273 12.20874023 C6.40093996 14.84532946 7.26234079 17.48537708 8.125 20.125 C10.06375 26.02375 12.0025 31.9225 14 38 C27.2 38.66 40.4 39.32 54 40 C48.37446505 45.62553495 48.37446505 45.62553495 45.36328125 48.05078125 C44.37231445 48.85225586 44.37231445 48.85225586 43.36132812 49.66992188 C42.3471582 50.48299805 42.3471582 50.48299805 41.3125 51.3125 C40.65572266 51.84294922 39.99894531 52.37339844 39.32226562 52.91992188 C33.89584318 57.29776028 28.44620836 61.64682174 23 66 C23.45439453 67.55110474 23.45439453 67.55110474 23.91796875 69.13354492 C25.04288373 72.98006948 26.15897811 76.82910713 27.27246094 80.67895508 C27.75509267 82.34306281 28.24009586 84.00648471 28.72753906 85.66918945 C29.42881759 88.06283912 30.12145766 90.45884674 30.8125 92.85546875 C31.03123779 93.5952446 31.24997559 94.33502045 31.4753418 95.09721375 C32.5393466 98.8192235 33.26634097 102.12140957 33 106 C25.70986958 101.24827986 18.72255494 96.15466742 11.75390625 90.94726562 C7.93013399 88.10560556 4.1672447 85.32925263 0 83 C-2.91734233 85.14491589 -5.83381626 87.29100921 -8.75 89.4375 C-9.61222168 90.07187988 -10.47444336 90.70625977 -11.36279297 91.35986328 C-17.25855173 95.70265738 -23.12039245 100.08617154 -28.9453125 104.5234375 C-31 106 -31 106 -32 106 C-31.42658169 100.56705972 -30.46204434 95.47034741 -28.93359375 90.21875 C-28.73524429 89.51979614 -28.53689484 88.82084229 -28.33253479 88.10070801 C-27.70634573 85.89886142 -27.07208383 83.69944005 -26.4375 81.5 C-26.00792426 79.99494549 -25.57888294 78.48973833 -25.15039062 76.984375 C-24.10642215 73.32112532 -23.05521407 69.66002542 -22 66 C-29.54686637 59.52543133 -37.15869557 53.24387506 -45.125 47.2890625 C-48 45 -48 45 -53 40 C-33.2 39.01 -33.2 39.01 -13 38 C-8.71 25.46 -4.42 12.92 0 0 Z " fill="#E6B041" transform="translate(904,234)"/>
<path d="M0 0 C2.89404173 1.44702087 3.07222487 3.62379946 4.05618286 6.55076599 C4.30834564 7.32678665 4.56050842 8.10280731 4.8203125 8.90234375 C5.08383514 9.69524307 5.34735779 10.4881424 5.61886597 11.30506897 C6.17537799 12.98436097 6.72826726 14.66485717 7.27783203 16.34643555 C8.12115969 18.9257544 8.97558903 21.50118158 9.83203125 24.07617188 C10.37044877 25.70551217 10.90823061 27.3350627 11.4453125 28.96484375 C11.70152374 29.73884018 11.95773499 30.51283661 12.22171021 31.31028748 C14 36.76676078 14 36.76676078 14 39 C15.31484375 38.98259766 15.31484375 38.98259766 16.65625 38.96484375 C29.12341302 38.87615458 41.54840605 39.41360229 54 40 C50.46925705 43.61527271 46.80353444 46.99318732 42.9375 50.25 C42.10182495 50.95636597 42.10182495 50.95636597 41.24926758 51.67700195 C35.66928682 56.35016708 29.87852103 60.71026843 24 65 C24.61037172 73.80517728 27.63604324 82.03595858 30.28515625 90.39575195 C30.91877615 92.40355872 31.5418473 94.41441647 32.1640625 96.42578125 C32.53998535 97.61598877 32.9159082 98.80619629 33.30322266 100.0324707 C34 103 34 103 33 106 C32.52804199 105.65855957 32.05608398 105.31711914 31.56982422 104.96533203 C21.40257836 97.6115087 11.22069784 90.27937161 1 83 C-6.29013042 87.75172014 -13.27744506 92.84533258 -20.24609375 98.05273438 C-24.06986601 100.89439444 -27.8327553 103.67074737 -32 106 C-31.39359325 101.02898168 -30.37373464 96.45503315 -28.93359375 91.640625 C-28.73524429 90.96956726 -28.53689484 90.29850952 -28.33253479 89.6071167 C-27.70548337 87.48667027 -27.07217985 85.36817459 -26.4375 83.25 C-25.79956601 81.11745717 -25.16314567 78.98452604 -24.53175354 76.85003662 C-23.96192887 74.92390395 -23.38626747 72.99950086 -22.81030273 71.07519531 C-21.87260031 68.04652967 -21.87260031 68.04652967 -22 65 C-23.83804264 63.36347034 -25.63863599 61.93638983 -27.625 60.5 C-28.81322391 59.61555505 -30.00069695 58.73010063 -31.1875 57.84375 C-31.81011719 57.38226563 -32.43273437 56.92078125 -33.07421875 56.4453125 C-36.30350984 54.02170661 -39.46130261 51.50824675 -42.625 49 C-45.69393184 46.56760594 -48.73843909 44.17437394 -52 42 C-52 41.34 -52 40.68 -52 40 C-38.65965829 39.37174743 -25.35700949 38.82321605 -12 39 C-11.77570312 37.83597656 -11.55140625 36.67195313 -11.3203125 35.47265625 C-9.72593791 28.29797062 -7.23520008 21.38752549 -4.875 14.4375 C-4.40192249 13.03334498 -3.92926287 11.6290491 -3.45703125 10.22460938 C-2.30949994 6.81476903 -1.15632848 3.40686863 0 0 Z " fill="#E6B041" transform="translate(596,234)"/>
<path d="M0 0 C4.19929722 3.12309542 6.52344565 7.10716351 8.1796875 11.96875 C8.75267351 16.13874104 8.76449122 20.26026549 8.74609375 24.46484375 C8.75539162 26.24702049 8.75539162 26.24702049 8.76487732 28.06520081 C8.77195706 30.56893091 8.76883396 33.07270827 8.75610352 35.57641602 C8.74224282 39.39102469 8.77633616 43.20317637 8.81445312 47.01757812 C8.81540448 49.45833393 8.81354465 51.89909278 8.80859375 54.33984375 C8.82185196 55.47135361 8.83511017 56.60286346 8.84877014 57.7686615 C8.75165447 66.09575517 6.8677174 72.01275617 1.13671875 78.16015625 C-4.47231639 81.74626069 -9.42191432 82.51830798 -15.9453125 82.59375 C-16.69707764 82.6047876 -17.44884277 82.6158252 -18.22338867 82.62719727 C-25.26231451 82.44762103 -30.54908651 80.13903261 -35.6328125 75.28125 C-40.54665138 67.84029398 -41.28728824 60.47866396 -41.2890625 51.72265625 C-41.29667603 50.67150131 -41.30428955 49.62034637 -41.31213379 48.53733826 C-41.32288313 46.32626711 -41.32580907 44.11514539 -41.32128906 41.90405273 C-41.32031616 38.54388907 -41.36201254 35.18600712 -41.40625 31.82617188 C-41.41145765 29.66667138 -41.41414518 27.50716303 -41.4140625 25.34765625 C-41.43045776 24.35568741 -41.44685303 23.36371857 -41.46374512 22.34169006 C-41.38914982 14.71645988 -39.45460317 8.25845956 -34.44836426 2.34938049 C-24.99231675 -6.30307125 -10.78413779 -6.10946862 0 0 Z " fill="#FDFAFA" transform="translate(503.8203125,433.03125)"/>
<path d="M0 0 C37.89473684 0 37.89473684 0 44.4375 6.375 C49.0881663 14.18811938 49.22011296 23.6328559 47.53515625 32.42578125 C46.29481691 35.85322783 44.92892918 37.04319991 41.8125 38.9375 C40.884375 39.288125 39.95625 39.63875 39 40 C39.928125 40.556875 40.85625 41.11375 41.8125 41.6875 C45.12517031 44.09080983 46.30757413 45.34231782 48 49 C48.25164884 51.72556438 48.35155913 54.20926454 48.29296875 56.92578125 C48.28872391 57.67337204 48.28447906 58.42096283 48.28010559 59.19120789 C48.26339056 61.56534732 48.22575347 63.93861967 48.1875 66.3125 C48.17244381 67.92772206 48.15875703 69.54295751 48.14648438 71.15820312 C48.1160694 75.10606682 48.0573395 79.05206958 48 83 C41.4 83 34.8 83 28 83 C27.67 71.45 27.34 59.9 27 48 C25.35 47.34 23.7 46.68 22 46 C22 58.21 22 70.42 22 83 C14.74 83 7.48 83 0 83 C0 55.61 0 28.22 0 0 Z " fill="#FDF8F9" transform="translate(520,431)"/>
<path d="M0 0 C7.26 0 14.52 0 22 0 C22 23.1 22 46.2 22 70 C23.65 70 25.3 70 27 70 C27.33 46.9 27.66 23.8 28 0 C34.93 0 41.86 0 49 0 C49.1133062 8.84102107 49.2048904 17.68155392 49.25906086 26.523139 C49.28507009 30.62939025 49.32030687 34.73511573 49.37719727 38.84106445 C49.43183036 42.80927707 49.46148566 46.77698644 49.47438622 50.74554634 C49.48357043 52.25374834 49.50150464 53.76192516 49.52865028 55.26991081 C49.67651443 63.83042869 49.58084481 71.047849 44 78 C38.30810406 83.54959854 32.81274556 84.3624067 25.1875 84.375 C24.41857422 84.39949219 23.64964844 84.42398438 22.85742188 84.44921875 C16.16713633 84.48309361 11.06428993 82.64428108 5.9765625 78.25390625 C5.53054688 77.69574219 5.08453125 77.13757813 4.625 76.5625 C4.16351562 76.00691406 3.70203125 75.45132813 3.2265625 74.87890625 C0.28572506 70.37399285 -0.24684208 66.52393985 -0.22705078 61.19018555 C-0.22748886 60.19422615 -0.22748886 60.19422615 -0.22793579 59.17814636 C-0.2265496 56.99753457 -0.21102239 54.81727038 -0.1953125 52.63671875 C-0.19157983 51.11929003 -0.18873406 49.60185888 -0.18673706 48.08442688 C-0.17912055 44.10103641 -0.15948923 40.11779302 -0.1373291 36.13446045 C-0.11682786 32.065572 -0.10772621 27.99665965 -0.09765625 23.92773438 C-0.07624132 15.95174807 -0.04107547 7.97590931 0 0 Z " fill="#FDFAFA" transform="translate(623,431)"/>
<path d="M0 0 C6.93 0 13.86 0 21 0 C21.33 22.77 21.66 45.54 22 69 C23.32 69 24.64 69 26 69 C26.33 46.23 26.66 23.46 27 0 C33.93 0 40.86 0 48 0 C48.11322944 8.98867578 48.20484663 17.97687332 48.25906086 26.9661026 C48.28508888 31.1407585 48.32036077 35.31489867 48.37719727 39.48925781 C48.43176232 43.52230352 48.46147159 47.55485506 48.47438622 51.58824158 C48.48358248 53.12238844 48.50154075 54.65651006 48.52865028 56.19044495 C48.79367747 71.81634617 48.79367747 71.81634617 43 78 C36.22036195 84.28356697 30.16436899 84.51894652 21.2890625 84.3125 C14.54628049 83.95870296 8.65672591 82.20993059 4 77.125 C0.61178326 71.83091134 -0.25024289 67.31533837 -0.22705078 61.07666016 C-0.22734283 60.4125412 -0.22763489 59.74842224 -0.22793579 59.06417847 C-0.22655261 56.88900263 -0.21103988 54.71417782 -0.1953125 52.5390625 C-0.19157876 51.02306302 -0.18873349 49.50706111 -0.18673706 47.99105835 C-0.17912902 44.01590218 -0.1595051 40.04089394 -0.1373291 36.0657959 C-0.11680948 32.0035197 -0.1077223 27.94121942 -0.09765625 23.87890625 C-0.07625629 15.91919564 -0.04109748 7.95963331 0 0 Z " fill="#FEFEFE" transform="translate(737,431)"/>
<path d="M0 0 C5.13430699 4.045496 7.7660647 8.07364439 8.69921875 14.55859375 C8.91326428 19.25763972 8.83639299 23.84894474 8.69921875 28.55859375 C1.43921875 28.55859375 -5.82078125 28.55859375 -13.30078125 28.55859375 C-13.30078125 22.61859375 -13.30078125 16.67859375 -13.30078125 10.55859375 C-14.95078125 10.88859375 -16.60078125 11.21859375 -18.30078125 11.55859375 C-18.30078125 29.70859375 -18.30078125 47.85859375 -18.30078125 66.55859375 C-16.65078125 66.88859375 -15.00078125 67.21859375 -13.30078125 67.55859375 C-12.97078125 61.28859375 -12.64078125 55.01859375 -12.30078125 48.55859375 C-13.62078125 48.55859375 -14.94078125 48.55859375 -16.30078125 48.55859375 C-16.30078125 44.26859375 -16.30078125 39.97859375 -16.30078125 35.55859375 C-8.05078125 35.55859375 0.19921875 35.55859375 8.69921875 35.55859375 C8.69921875 50.40859375 8.69921875 65.25859375 8.69921875 80.55859375 C4.07921875 80.55859375 -0.54078125 80.55859375 -5.30078125 80.55859375 C-5.96078125 78.90859375 -6.62078125 77.25859375 -7.30078125 75.55859375 C-8.08453125 76.36296875 -8.86828125 77.16734375 -9.67578125 77.99609375 C-14.02894777 82.24561345 -17.34670623 81.89953176 -23.25390625 81.8359375 C-28.92608639 81.31962367 -32.38276199 78.80664169 -36.11328125 74.55859375 C-39.30720785 70.17835156 -40.54937398 67.5333455 -40.57543945 62.07495117 C-40.58497147 60.97668503 -40.59450348 59.87841888 -40.60432434 58.74687195 C-40.60341293 57.56454483 -40.60250153 56.38221771 -40.6015625 55.1640625 C-40.60584763 53.94334549 -40.61013275 52.72262848 -40.61454773 51.46492004 C-40.62029138 48.88181173 -40.62079104 46.29868724 -40.61645508 43.71557617 C-40.61330172 39.77169002 -40.63673231 35.82855867 -40.66210938 31.88476562 C-40.66438307 29.37369886 -40.66508554 26.86263008 -40.6640625 24.3515625 C-40.67327225 23.17530807 -40.68248199 21.99905365 -40.69197083 20.78715515 C-40.65250831 13.76917606 -40.34548493 8.28931927 -35.7578125 2.66796875 C-25.31465951 -5.96437624 -11.78523803 -7.38328155 0 0 Z " fill="#FDF9FA" transform="translate(720.30078125,433.44140625)"/>
<path d="M0 0 C10.23 0 20.46 0 31 0 C32.67486908 10.35373615 34.28340562 20.67364921 35.47265625 31.09375 C35.88891573 34.17715357 36.39155824 37.194655 36.96484375 40.25 C38.20719431 46.9324357 39.0272742 53.65066132 39.85546875 60.39453125 C40.58727563 66.20964182 41.49315855 71.95181295 42.61523438 77.70507812 C43 80 43 80 43 83 C35.74 83 28.48 83 21 83 C20.67 78.05 20.34 73.1 20 68 C17.36 68 14.72 68 12 68 C12 72.95 12 77.9 12 83 C4.41 83 -3.18 83 -11 83 C-10.15270116 74.5270116 -9.20973 66.07715041 -8.1875 57.625 C-8.10140472 56.91044647 -8.01530945 56.19589294 -7.92660522 55.45968628 C-6.54171203 44.00278475 -5.00244438 32.57636418 -3.30737305 21.16064453 C-2.46068172 15.42645251 -1.72610303 9.71920783 -1.25268555 3.94116211 C-1 2 -1 2 0 0 Z " fill="#FDFBFB" transform="translate(896,431)"/>
<path d="M0 0 C5.33669432 3.69463453 9.12006185 7.2256741 10.62109375 13.6640625 C11.10437419 17.91892325 11.10649402 22.0978469 11.0625 26.375 C11.041875 29.22125 11.02125 32.0675 11 35 C4.07 35 -2.86 35 -10 35 C-10.495 23.615 -10.495 23.615 -11 12 C-12.98 12.33 -14.96 12.66 -17 13 C-17 31.15 -17 49.3 -17 68 C-15.35 68 -13.7 68 -12 68 C-10.88176185 65.76352369 -10.80603939 64.35108471 -10.68359375 61.8671875 C-10.64548584 61.14128418 -10.60737793 60.41538086 -10.56811523 59.66748047 C-10.50346069 58.28520264 -10.50346069 58.28520264 -10.4375 56.875 C-10.293125 53.94625 -10.14875 51.0175 -10 48 C-3.07 48 3.86 48 11 48 C11.68541935 69.59070968 11.68541935 69.59070968 5.609375 76.60546875 C-0.55749366 82.13942194 -6.39971869 83.50646863 -14.375 83.4375 C-15.18710938 83.45748047 -15.99921875 83.47746094 -16.8359375 83.49804688 C-24.26339205 83.49209539 -29.50375064 81.38771678 -34.875 76.25 C-39.51426645 69.15465131 -39.30789343 61.5203341 -39.30078125 53.30859375 C-39.30506638 52.20451675 -39.3093515 51.10043976 -39.31376648 49.96290588 C-39.31948603 47.6390959 -39.32002765 45.31526802 -39.31567383 42.99145508 C-39.31250684 39.44516465 -39.33602804 35.89970357 -39.36132812 32.35351562 C-39.36360072 30.08854271 -39.3643048 27.82356757 -39.36328125 25.55859375 C-39.372491 24.50425644 -39.38170074 23.44991913 -39.39118958 22.3636322 C-39.34019705 14.22036934 -37.97492749 7.97492749 -32 2 C-22.02493147 -4.10844403 -10.74395123 -5.00451148 0 0 Z " fill="#FEFBFB" transform="translate(1054,432)"/>
<path d="M0 0 C0.87333984 -0.02900391 1.74667969 -0.05800781 2.64648438 -0.08789062 C8.71025078 -0.14676214 13.26872009 0.83609477 18.3125 4.3125 C22.88260357 9.23415 23.45257641 12.41970844 23.375 18.9375 C23.354375 21.37125 23.33375 23.805 23.3125 26.3125 C17.0425 26.3125 10.7725 26.3125 4.3125 26.3125 C3.9825 22.6825 3.6525 19.0525 3.3125 15.3125 C1.9925 14.9825 0.6725 14.6525 -0.6875 14.3125 C-2.32906736 15.95406736 -1.97565992 17.80465801 -2.0625 20.0625 C-2.11148438 20.92359375 -2.16046875 21.7846875 -2.2109375 22.671875 C-1.26101416 27.46402557 2.43815535 29.6881342 6.25 32.41015625 C7.260625 33.05855469 8.27125 33.70695312 9.3125 34.375 C22.64984613 42.96602015 22.64984613 42.96602015 24.90917969 50.23120117 C25.64030852 54.00412692 25.53901005 57.79320136 25.5625 61.625 C25.583125 62.45451172 25.60375 63.28402344 25.625 64.13867188 C25.66362674 70.25618187 24.94979482 75.16359881 20.8828125 80.01953125 C12.73708536 86.24991174 4.18230152 86.27684516 -5.6875 85.3125 C-10.83296088 84.14879552 -14.44962531 82.55037469 -18.1875 78.8125 C-18.93 77.575 -18.93 77.575 -19.6875 76.3125 C-20.079375 75.69375 -20.47125 75.075 -20.875 74.4375 C-23.32198167 68.03770179 -22.77060563 61.04405601 -22.6875 54.3125 C-16.0875 54.3125 -9.4875 54.3125 -2.6875 54.3125 C-2.1925 62.7275 -2.1925 62.7275 -1.6875 71.3125 C0.7875 70.8175 0.7875 70.8175 3.3125 70.3125 C4.52005308 67.89739385 4.54822748 66.19511951 4.625 63.5 C4.66238281 62.64792969 4.69976563 61.79585938 4.73828125 60.91796875 C4.04616195 56.68270661 1.7964295 54.45990837 -1.5456543 51.87573242 C-3.73665053 50.31783146 -5.95296666 48.80724726 -8.1875 47.3125 C-20.52751905 39.05788624 -20.52751905 39.05788624 -22.6875 31.3125 C-23.01217653 28.18285551 -23.05763215 25.08213194 -23.0625 21.9375 C-23.08699219 21.1125 -23.11148438 20.2875 -23.13671875 19.4375 C-23.16478443 13.54370671 -22.11696331 10.13228628 -18.6875 5.3125 C-12.42356016 0.45475074 -7.61002456 0.08241904 0 0 Z " fill="#FEFBFC" transform="translate(857.6875,429.6875)"/>
<path d="M0 0 C30 0 30 0 41 4 C46.64752908 10.58878392 46.24187048 16.92384607 46.3125 25.1875 C46.34150391 26.29931641 46.37050781 27.41113281 46.40039062 28.55664062 C46.44880404 34.84666035 46.45558323 41.10628567 42 46 C36 49 36 49 21 49 C21 60.22 21 71.44 21 83 C14.07 83 7.14 83 0 83 C0 55.61 0 28.22 0 0 Z " fill="#FEFCFD" transform="translate(412,431)"/>
<path d="M0 0 C11.88 0 23.76 0 36 0 C36 5.61 36 11.22 36 17 C31.38 17 26.76 17 22 17 C22 21.95 22 26.9 22 32 C26.29 32 30.58 32 35 32 C35 37.28 35 42.56 35 48 C30.71 48 26.42 48 22 48 C22 53.94 22 59.88 22 66 C26.95 66 31.9 66 37 66 C37 71.61 37 77.22 37 83 C24.79 83 12.58 83 0 83 C0 55.61 0 28.22 0 0 Z " fill="#FDF8F8" transform="translate(793,431)"/>
<path d="M0 0 C11.88 0 23.76 0 36 0 C36 5.61 36 11.22 36 17 C31.05 17 26.1 17 21 17 C21 21.95 21 26.9 21 32 C25.29 32 29.58 32 34 32 C34 37.28 34 42.56 34 48 C29.71 48 25.42 48 21 48 C21 59.55 21 71.1 21 83 C14.07 83 7.14 83 0 83 C0 55.61 0 28.22 0 0 Z " fill="#FEFBFC" transform="translate(961,431)"/>
<path d="M0 0 C15.51 0 31.02 0 47 0 C47 5.61 47 11.22 47 17 C42.71 17 38.42 17 34 17 C34 38.78 34 60.56 34 83 C27.07 83 20.14 83 13 83 C13 61.22 13 39.44 13 17 C8.71 17 4.42 17 0 17 C0 11.39 0 5.78 0 0 Z " fill="#FEFCFC" transform="translate(572,431)"/>
<path d="M0 0 C1.32 0.66 2.64 1.32 4 2 C4 20.15 4 38.3 4 57 C1.525 57.495 1.525 57.495 -1 58 C-2.6902477 56.3097523 -2.13615437 54.18462653 -2.14526367 51.86938477 C-2.15164352 50.77477432 -2.15802338 49.68016388 -2.16459656 48.55238342 C-2.16570938 47.36076096 -2.1668222 46.16913849 -2.16796875 44.94140625 C-2.17129715 43.72678207 -2.17462555 42.5121579 -2.17805481 41.26072693 C-2.18312923 38.68578471 -2.18546298 36.11083589 -2.18530273 33.53588867 C-2.18748863 29.58306103 -2.20563762 25.63051255 -2.22460938 21.67773438 C-2.22754322 19.18229263 -2.22952808 16.68684955 -2.23046875 14.19140625 C-2.23765427 13.00180801 -2.24483978 11.81220978 -2.25224304 10.58656311 C-2.2476281 8.9399192 -2.2476281 8.9399192 -2.24291992 7.26000977 C-2.24434494 6.2903981 -2.24576996 5.32078644 -2.24723816 4.3217926 C-2 2 -2 2 0 0 Z " fill="#C1101B" transform="translate(487,443)"/>
<path d="M0 0 C5.28 0 10.56 0 16 0 C16 5.61 16 11.22 16 17 C10.72 17 5.44 17 0 17 C0 11.39 0 5.78 0 0 Z " fill="#FCF4F4" transform="translate(1070,497)"/>
<path d="M0 0 C4.95 0 9.9 0 15 0 C15 5.61 15 11.22 15 17 C10.05 17 5.1 17 0 17 C0 11.39 0 5.78 0 0 Z " fill="#FEFBFB" transform="translate(994,497)"/>
<path d="M0 0 C2.97 0.495 2.97 0.495 6 1 C7.57977708 4.15955417 7.18447084 7.53463817 7.1875 11 C7.19974609 11.73734375 7.21199219 12.4746875 7.22460938 13.234375 C7.22987395 15.15770058 7.12203447 17.08054263 7 19 C6.34 19.66 5.68 20.32 5 21 C3.35 21 1.7 21 0 21 C0 14.07 0 7.14 0 0 Z " fill="#C51F2A" transform="translate(433,445)"/>
<path d="M0 0 C0.66 0 1.32 0 2 0 C2.33765809 3.70795276 2.66935514 7.41641581 3 11.125 C3.09539063 12.17171875 3.19078125 13.2184375 3.2890625 14.296875 C3.7245607 19.2117833 4.13675514 24.05972054 4 29 C1.69 29 -0.62 29 -3 29 C-2.69146774 25.29132544 -2.37746793 21.5831331 -2.0625 17.875 C-1.97548828 16.82828125 -1.88847656 15.7815625 -1.79882812 14.703125 C-1.37650877 9.76042438 -0.93680132 4.87811856 0 0 Z " fill="#C6212C" transform="translate(911,455)"/>
<path d="M0 0 C0 0.66 0 1.32 0 2 C-10.83152485 5.82731946 -21.92493234 6.35105399 -33.31079102 6.31567383 C-35.43232443 6.31250772 -37.55246486 6.33610587 -39.67382812 6.36132812 C-48.84589477 6.40156522 -57.0805699 5.32050928 -66 3 C-65.67 2.34 -65.34 1.68 -65 1 C-63.90449829 1.21112427 -63.90449829 1.21112427 -62.78686523 1.42651367 C-53.94393302 2.97387337 -45.36669251 3.34094799 -36.4074707 3.31567383 C-34.06870044 3.31250839 -31.73119382 3.33609215 -29.39257812 3.36132812 C-20.7839624 3.39569771 -13.01290248 2.7225982 -4.62280273 0.64526367 C-2 0 -2 0 0 0 Z " fill="#1A0B0C" transform="translate(783,970)"/>
<path d="M0 0 C1.65 0 3.3 0 5 0 C6.42597611 2.85195222 6.1320252 5.32461175 6.125 8.5 C6.12757813 9.6653125 6.13015625 10.830625 6.1328125 12.03125 C6 15 6 15 5 17 C3.35 17 1.7 17 0 17 C0 11.39 0 5.78 0 0 Z " fill="#C2141F" transform="translate(542,446)"/>
<path d="M0 0 C1.14988403 0.20568604 1.14988403 0.20568604 2.32299805 0.41552734 C10.83806256 1.84397625 19.18872506 2.40747967 27.8125 2.625 C29.08931641 2.66367187 30.36613281 2.70234375 31.68164062 2.7421875 C34.78762777 2.83525079 37.89362686 2.9210815 41 3 C41 3.33 41 3.66 41 4 C10.4607005 5.81305261 10.4607005 5.81305261 -1 2 C-0.67 1.34 -0.34 0.68 0 0 Z " fill="#443435" transform="translate(718,971)"/>
</svg>
