<?xml version="1.0" encoding="UTF-8"?>
<svg version="1.1" xmlns="http://www.w3.org/2000/svg" width="1500" height="1500">
<path d="M0 0 C246.84 0 493.68 0 748 0 C748.061875 109.085625 748.12375 218.17125 748.1875 330.5625 C748.21481201 364.99795166 748.24212402 399.43340332 748.27026367 434.91235352 C748.28381348 476.98425293 748.28381348 476.98425293 748.28633118 496.68418884 C748.28930801 511.33730328 748.3022174 525.99037587 748.32002028 540.6434786 C748.33796035 555.61320282 748.34449134 570.58290088 748.34033485 585.55263543 C748.33819617 594.43320729 748.34401355 603.31368115 748.36242279 612.19423472 C748.37379363 618.0837423 748.37392628 623.97318587 748.36550602 629.86269812 C748.36103718 633.20063765 748.36261032 636.53824253 748.37464774 639.87618434 C748.53752941 687.92071025 739.9609652 734.40695361 725 780 C724.54971436 781.38759521 724.54971436 781.38759521 724.09033203 782.80322266 C708.47622035 830.59352477 684.08823122 875.81598239 654 916 C653.32759277 916.90202148 653.32759277 916.90202148 652.64160156 917.82226562 C644.39762167 928.84336213 635.53773261 939.32181681 626.265625 949.48828125 C625.00527239 950.88553423 623.75184588 952.28945145 622.52709961 953.71801758 C617.62409523 959.42589664 612.39366394 964.7553323 607.0625 970.0625 C606.20720703 970.92166016 605.35191406 971.78082031 604.47070312 972.66601562 C599.47600438 977.65309469 594.37115509 982.42255364 589 987 C588.03578125 987.845625 587.0715625 988.69125 586.078125 989.5625 C566.2371783 1006.66298445 544.71780331 1021.04318437 522 1034 C520.30810547 1034.98033203 520.30810547 1034.98033203 518.58203125 1035.98046875 C498.27509881 1047.31402713 476.31887704 1055.62591906 454 1062 C453.13503906 1062.24830566 452.27007813 1062.49661133 451.37890625 1062.75244141 C374.92475028 1084.26635464 292.11558038 1071.05567639 223.37158203 1032.52685547 C196.38019945 1017.06508791 169.25744302 998.23707624 147.6887207 975.68579102 C145.95262436 973.95270655 144.13986202 972.37576691 142.26953125 970.7890625 C138.0926806 967.15654055 134.31054083 963.25559161 130.5625 959.1875 C129.90926758 958.48318848 129.25603516 957.77887695 128.58300781 957.05322266 C127.29364643 955.66062287 126.00629269 954.26616091 124.72119141 952.86962891 C123.29261661 951.3178522 121.85627953 949.7732257 120.41796875 948.23046875 C114.76863486 942.09254382 109.63946811 935.58285213 104.54492188 928.98632812 C102.91460949 926.8902122 101.26390544 924.81141829 99.609375 922.734375 C91.49226367 912.50303409 84.03212409 902.00293776 77 891 C76.22922119 889.80431396 76.22922119 889.80431396 75.44287109 888.58447266 C24.96922521 810.00953516 -0.23222585 721.11980235 -0.12025452 627.96908569 C-0.12013466 625.25833585 -0.12152893 622.54758724 -0.12284851 619.83683777 C-0.12491375 613.96208344 -0.1233006 608.08733931 -0.11921513 602.21258616 C-0.11308176 593.3637858 -0.11284796 584.51499154 -0.11368043 575.66618943 C-0.11491911 560.83300986 -0.11164323 545.99983474 -0.10557556 531.16665649 C-0.0973858 511.11020753 -0.09547149 491.05376616 -0.09460449 470.99731445 C-0.08935737 422.7898754 -0.07539622 374.58243761 -0.0625 326.375 C-0.0315625 164.819375 -0.0315625 164.819375 0 0 Z " fill="#01339F" transform="translate(370,173)"/>
<path d="M0 0 C246.84 0 493.68 0 748 0 C748.061875 109.085625 748.12375 218.17125 748.1875 330.5625 C748.21481201 364.99795166 748.24212402 399.43340332 748.27026367 434.91235352 C748.28381348 476.98425293 748.28381348 476.98425293 748.28633118 496.68418884 C748.28930801 511.33730328 748.3022174 525.99037587 748.32002028 540.6434786 C748.33796035 555.61320282 748.34449134 570.58290088 748.34033485 585.55263543 C748.33819617 594.43320729 748.34401355 603.31368115 748.36242279 612.19423472 C748.37379363 618.0837423 748.37392628 623.97318587 748.36550602 629.86269812 C748.36103718 633.20063765 748.36261032 636.53824253 748.37464774 639.87618434 C748.53752941 687.92071025 739.9609652 734.40695361 725 780 C724.54971436 781.38759521 724.54971436 781.38759521 724.09033203 782.80322266 C708.47622035 830.59352477 684.08823122 875.81598239 654 916 C653.32759277 916.90202148 653.32759277 916.90202148 652.64160156 917.82226562 C644.39762167 928.84336213 635.53773261 939.32181681 626.265625 949.48828125 C625.00527239 950.88553423 623.75184588 952.28945145 622.52709961 953.71801758 C617.62409523 959.42589664 612.39366394 964.7553323 607.0625 970.0625 C606.20720703 970.92166016 605.35191406 971.78082031 604.47070312 972.66601562 C599.47600438 977.65309469 594.37115509 982.42255364 589 987 C588.03578125 987.845625 587.0715625 988.69125 586.078125 989.5625 C566.2371783 1006.66298445 544.71780331 1021.04318437 522 1034 C520.30810547 1034.98033203 520.30810547 1034.98033203 518.58203125 1035.98046875 C498.27509881 1047.31402713 476.31887704 1055.62591906 454 1062 C453.13503906 1062.24830566 452.27007813 1062.49661133 451.37890625 1062.75244141 C374.92475028 1084.26635464 292.11558038 1071.05567639 223.37158203 1032.52685547 C196.38019945 1017.06508791 169.25744302 998.23707624 147.6887207 975.68579102 C145.95262436 973.95270655 144.13986202 972.37576691 142.26953125 970.7890625 C138.0926806 967.15654055 134.31054083 963.25559161 130.5625 959.1875 C129.90926758 958.48318848 129.25603516 957.77887695 128.58300781 957.05322266 C127.29364643 955.66062287 126.00629269 954.26616091 124.72119141 952.86962891 C123.29261661 951.3178522 121.85627953 949.7732257 120.41796875 948.23046875 C114.76863486 942.09254382 109.63946811 935.58285213 104.54492188 928.98632812 C102.91460949 926.8902122 101.26390544 924.81141829 99.609375 922.734375 C91.49226367 912.50303409 84.03212409 902.00293776 77 891 C76.22922119 889.80431396 76.22922119 889.80431396 75.44287109 888.58447266 C24.96922521 810.00953516 -0.23222585 721.11980235 -0.12025452 627.96908569 C-0.12013466 625.25833585 -0.12152893 622.54758724 -0.12284851 619.83683777 C-0.12491375 613.96208344 -0.1233006 608.08733931 -0.11921513 602.21258616 C-0.11308176 593.3637858 -0.11284796 584.51499154 -0.11368043 575.66618943 C-0.11491911 560.83300986 -0.11164323 545.99983474 -0.10557556 531.16665649 C-0.0973858 511.11020753 -0.09547149 491.05376616 -0.09460449 470.99731445 C-0.08935737 422.7898754 -0.07539622 374.58243761 -0.0625 326.375 C-0.0315625 164.819375 -0.0315625 164.819375 0 0 Z M38 38 C37.979375 137.66 37.95875 237.32 37.9375 340 C37.928396 371.47117187 37.91929199 402.94234375 37.90991211 435.3671875 C37.90656773 463.57080073 37.90656773 463.57080073 37.90455627 491.77441406 C37.90356312 505.16558021 37.8992567 518.55674128 37.89332657 531.947906 C37.88735354 545.62169333 37.88516797 559.29547748 37.88655505 572.96926606 C37.88726914 581.08580502 37.88531687 589.20233209 37.8791924 597.31886883 C37.87496575 603.33177518 37.87605194 609.34466882 37.87909889 615.35757637 C37.87951961 617.77303792 37.87828054 620.18850052 37.87511742 622.60396004 C37.8506093 642.50491261 37.92202882 662.52230814 40.25 682.3125 C40.37640869 683.41513184 40.50281738 684.51776367 40.63305664 685.65380859 C42.15270701 698.21068581 44.44666862 710.61634279 47 723 C47.17144531 723.83241211 47.34289062 724.66482422 47.51953125 725.52246094 C49.73034336 736.02381845 52.78470722 746.20083395 56.14501953 756.38671875 C57.04155705 759.12702076 57.91030421 761.87523262 58.77734375 764.625 C77.09874207 822.02250568 107.94335358 876.8748178 148.6640625 921.41796875 C149.95314976 922.84286287 151.23567055 924.27413712 152.48828125 925.73120117 C157.34101818 931.37363903 162.48639207 936.67837259 167.75 941.9375 C168.63598877 942.8234082 169.52197754 943.70931641 170.43481445 944.62207031 C175.6629706 949.80468921 180.91171724 954.7088782 186.73046875 959.22265625 C188.93444826 960.9486643 190.9550326 962.77754015 193 964.6875 C230.88853726 998.59841502 281.2340544 1021.98528021 331 1031 C331.8254834 1031.16226074 332.6509668 1031.32452148 333.50146484 1031.49169922 C358.42574062 1036.30949759 386.95413143 1036.06009966 412 1032 C412.89025879 1031.86529297 413.78051758 1031.73058594 414.69775391 1031.59179688 C440.68130598 1027.52733063 466.50973171 1018.77696378 490 1007 C490.84385254 1006.58282715 491.68770508 1006.1656543 492.55712891 1005.73583984 C511.62284851 996.25392033 529.23268419 985.10908116 546 972 C546.89847656 971.30390625 547.79695313 970.6078125 548.72265625 969.890625 C558.28766841 962.36303819 567.74713964 954.54051061 576.21484375 945.78515625 C578.04546715 943.95453285 579.95899857 942.29375561 581.9375 940.625 C585.80180023 937.29344796 589.14421152 933.63166463 592.51171875 929.8046875 C594.80349228 927.22149536 597.14035486 924.6925451 599.50024414 922.17211914 C604.96443253 916.32366996 610.14447336 910.37031994 615 904 C615.54027832 903.29456055 616.08055664 902.58912109 616.63720703 901.86230469 C644.78024064 865.04202288 668.0949062 824.61449674 684 781 C684.44907715 779.77039551 684.8981543 778.54079102 685.36083984 777.27392578 C691.72700959 759.73606851 697.13385001 742.27877677 701 724 C701.45424816 721.94917911 701.90867689 719.89839821 702.36328125 717.84765625 C705.64131056 702.66740052 707.56349276 687.45491463 709 672 C709.08073634 671.22718663 709.16147268 670.45437326 709.24465558 669.6581413 C709.90384582 663.05739007 710.14099347 656.54754213 710.12304783 649.916852 C710.12420157 648.851918 710.12535532 647.78698399 710.12654402 646.68977926 C710.12918254 643.13507387 710.12471242 639.5804141 710.12025452 636.02571106 C710.12069218 633.45268747 710.12156955 630.87966393 710.12284851 628.30664062 C710.12492118 622.711484 710.1232878 617.11633804 710.11921513 611.52118266 C710.1131008 603.09339803 710.11284634 594.66561982 710.11368043 586.23783337 C710.11492123 572.11279246 710.11163439 557.9877562 710.10557556 543.86271667 C710.09739768 524.76374139 710.09547226 505.66477406 710.09460449 486.5657959 C710.08935355 440.64802965 710.07539245 394.73026474 710.0625 348.8125 C710.041875 246.244375 710.02125 143.67625 710 38 C488.24 38 266.48 38 38 38 Z " fill="#FFCD00" transform="translate(370,173)"/>
<path d="M0 0 C221.76 0 443.52 0 672 0 C672.061875 102.155625 672.12375 204.31125 672.1875 309.5625 C672.21481201 341.80525635 672.24212402 374.0480127 672.27026367 407.26782227 C672.28381348 446.67370605 672.28381348 446.67370605 672.28633118 465.12779236 C672.28930684 478.84812044 672.30221183 492.56840378 672.32002028 506.28871935 C672.33796968 520.30856868 672.34448923 534.32839008 672.34033485 548.34825044 C672.33838247 555.9444913 672.34095714 563.54065519 672.35764539 571.13688004 C672.43723174 608.84943893 671.41297116 644.89268039 664 682 C663.83918945 682.83740723 663.67837891 683.67481445 663.51269531 684.53759766 C648.81263168 760.77998067 607.99211474 833.92819612 555.43554688 890.44677734 C553.92013585 892.08641084 552.41994273 893.73904423 550.921875 895.39453125 C546.21305431 900.58265316 541.55566174 905.64552989 536.16796875 910.14453125 C533.88844702 912.09547327 531.70818415 914.13781346 529.52636719 916.19677734 C522.35613536 922.94086588 514.86044357 929.08152469 507 935 C506.34999023 935.49580566 505.69998047 935.99161133 505.03027344 936.50244141 C476.83608059 957.92165212 445.59282628 973.94613201 412 985 C411.2467041 985.25716797 410.4934082 985.51433594 409.71728516 985.77929688 C364.1349356 1001.28481225 308.79580399 1000.6632767 263 986 C262.22543457 985.75556152 261.45086914 985.51112305 260.65283203 985.25927734 C217.37791574 971.39078398 178.08009236 947.95938391 144.58203125 917.3359375 C143.15713713 916.04685024 141.72586288 914.76432945 140.26879883 913.51171875 C134.62636097 908.65898182 129.32162741 903.51360793 124.0625 898.25 C123.1765918 897.36401123 122.29068359 896.47802246 121.37792969 895.56518555 C116.29862781 890.44125421 111.42889864 885.32087414 107.046875 879.58203125 C105.17472999 877.22041321 103.22111006 875.00241896 101.203125 872.765625 C97.23000202 868.32079661 93.56424549 863.7141572 90 858.9375 C89.36481445 858.08679932 88.72962891 857.23609863 88.07519531 856.35961914 C75.96036081 839.96016163 64.74194925 822.91615214 55 805 C54.46165527 804.01225586 53.92331055 803.02451172 53.36865234 802.00683594 C41.19772525 779.50417457 30.7623439 756.36963813 22.70410156 732.078125 C21.68420818 729.06795425 20.55338614 726.10069638 19.4375 723.125 C10.46110231 697.74547819 5.15237735 670.47162423 2.125 643.75 C2.01712158 642.80294189 1.90924316 641.85588379 1.7980957 640.88012695 C-0.1916668 621.03103268 -0.1463481 600.99571705 -0.12025452 581.06982422 C-0.12069317 578.55139658 -0.12157233 576.03296898 -0.12284851 573.51454163 C-0.12460851 568.07916613 -0.12331648 562.64380522 -0.11921513 557.20843124 C-0.11305815 549.02159536 -0.11284995 540.83476603 -0.11368043 532.64792825 C-0.11491651 518.92153342 -0.11165414 505.1951434 -0.10557556 491.46875 C-0.09737114 472.90885242 -0.09547054 454.34896306 -0.09460449 435.7890625 C-0.08936206 391.19270736 -0.07540087 346.59635358 -0.0625 302 C-0.041875 202.34 -0.02125 102.68 0 0 Z M9 97 C8.938125 183.769375 8.87625 270.53875 8.8125 359.9375 C8.78518799 387.32741943 8.75787598 414.71733887 8.72973633 442.93725586 C8.71970255 467.50574437 8.71970255 467.50574437 8.71366882 492.07423401 C8.71069223 503.72935931 8.69778374 515.38442758 8.67997972 527.03953682 C8.66203774 538.94701894 8.65550909 550.85446818 8.65966515 562.76196328 C8.66161856 569.21461127 8.65870035 575.66718026 8.64235461 582.11981189 C8.62762367 587.97089085 8.62711446 593.82180264 8.63729668 599.67288971 C8.63855456 601.77254544 8.63487556 603.87221219 8.62535226 605.9718467 C8.53515821 627.12493963 11.18252429 647.87413056 14.8125 668.6875 C14.94138611 669.43025177 15.07027222 670.17300354 15.20306396 670.93826294 C17.40840217 683.5384971 20.12451823 695.80148645 24 708 C24.19958313 708.63488342 24.39916626 709.26976685 24.60479736 709.92388916 C31.04892141 730.42026016 38.12397147 750.41128516 47 770 C47.37688965 770.84723633 47.7537793 771.69447266 48.14208984 772.56738281 C60.3386243 799.91519762 76.06920526 826.68187115 94.59570312 850.21484375 C95.99857617 851.99819001 97.38361887 853.79420159 98.765625 855.59375 C113.40098397 874.56048638 129.43986647 893.42236624 147.6796875 909.015625 C149.44988034 910.5295273 151.20184782 912.06476703 152.9453125 913.609375 C202.64239334 957.39401278 265.26250571 986.39025139 332 988 C332.71784668 988.02191406 333.43569336 988.04382812 334.17529297 988.06640625 C345.2558832 988.38473779 356.03626487 987.45078167 367 986 C367.89686523 985.8870459 368.79373047 985.7740918 369.71777344 985.65771484 C387.11175 983.39643735 403.41487638 978.62080205 420 973 C420.825 972.72397949 421.65 972.44795898 422.5 972.16357422 C474.26277268 954.63971888 526.75617653 915.41146847 560.22265625 872.26953125 C561.9486643 870.06555174 563.77754015 868.0449674 565.6875 866 C584.06848164 845.47153734 598.54308537 820.90469564 612 797 C612.42619629 796.24831543 612.85239258 795.49663086 613.29150391 794.72216797 C638.73813479 749.53227759 654.48690435 698.29176721 661 647 C661.25391913 645.1137836 661.25391913 645.1137836 661.51296794 643.18946183 C663.07697044 630.98318676 663.27707737 618.93132876 663.24050903 606.63864136 C663.24138583 604.43401032 663.24314322 602.22937949 663.24569702 600.02474976 C663.25015207 594.00225575 663.24219855 587.97983378 663.23214546 581.95734891 C663.2242767 576.0314763 663.22598863 570.10560778 663.22736086 564.17973176 C663.22983549 552.14114348 663.22329794 540.10257713 663.21115112 528.06399536 C663.19475616 511.78622832 663.19094197 495.50849341 663.18920898 479.23071289 C663.17871968 440.11213748 663.15079733 400.99356831 663.125 361.875 C663.08375 274.46625 663.0425 187.0575 663 97 C447.18 97 231.36 97 9 97 Z " fill="#FAFBFC" transform="translate(408,211)"/>
<path d="M0 0 C1.5087498 -0.00202616 3.01749863 -0.00494209 4.52624512 -0.00869751 C7.67302873 -0.01309541 10.81955513 -0.00677239 13.96630859 0.00732422 C17.97395052 0.02441481 21.98098944 0.01455989 25.98860931 -0.00339317 C29.0995528 -0.01430011 32.21035633 -0.01075325 35.32130432 -0.0030098 C36.79789809 -0.00102682 38.2745051 -0.00339916 39.75108337 -0.01044846 C52.58391558 -0.05828764 63.75232847 1.31077145 73.4140625 10.40625 C80.71059614 18.1335753 84.40104501 26.12745439 84.41267776 36.75044441 C84.41651891 38.06548175 84.42036005 39.38051909 84.4243176 40.73540604 C84.42353735 42.19845149 84.42265856 43.6614969 84.42169189 45.12454224 C84.42427541 46.67591802 84.42728853 48.22729314 84.4306953 49.77866733 C84.43877033 54.04872046 84.44055515 58.31875678 84.44129276 62.58881664 C84.44314247 67.19157551 84.45068944 71.79432564 84.45742798 76.39707947 C84.47101589 86.46537357 84.47703687 96.53366369 84.48143864 106.60196543 C84.48420056 112.88837042 84.48843785 119.17477387 84.49294281 125.46117783 C84.50513659 142.86509416 84.51543535 160.26900925 84.5188179 177.67292976 C84.51914725 179.34412977 84.51914725 179.34412977 84.51948325 181.04909139 C84.51970153 182.16589979 84.51991981 183.28270819 84.5201447 184.43335927 C84.52058817 186.69645826 84.52103473 188.95955726 84.52148438 191.22265625 C84.52181652 192.90652124 84.52181652 192.90652124 84.52215537 194.6244037 C84.52610272 212.81098445 84.54355431 230.99752512 84.5668439 249.18409039 C84.59055992 267.85433179 84.60301989 286.52455308 84.60418582 305.19480979 C84.60510249 315.67807375 84.61085281 326.16128549 84.62900543 336.64453506 C84.64440986 345.57220517 84.64952489 354.49980693 84.64126733 363.42748781 C84.63736191 367.98160521 84.63828513 372.53558499 84.65232468 377.08968544 C84.6650701 381.26221639 84.66386046 385.43450641 84.65173396 389.60703705 C84.64977807 391.11314427 84.65285045 392.6192686 84.66157833 394.1253518 C84.73468748 407.59865721 82.8843266 418.28207303 73.4296875 428.375 C65.86396434 435.45844599 57.63127523 438.4940296 47.37646484 438.57543945 C46.68968658 438.58201065 46.00290833 438.58858185 45.2953186 438.59535217 C43.02760697 438.615023 40.7599615 438.62673636 38.4921875 438.63671875 C37.32489546 438.64283204 37.32489546 438.64283204 36.13402176 438.64906883 C32.01171385 438.6699072 27.88943897 438.68421625 23.76708984 438.69360352 C19.53056061 438.70463878 15.29456081 438.73901122 11.058218 438.77877522 C7.78259373 438.80505348 4.50709322 438.81330542 1.23137283 438.81688499 C-0.32898899 438.82172527 -1.88934625 438.8332654 -3.44960403 438.85192299 C-16.67133017 439.00015052 -26.922725 436.91296753 -36.71875 427.3984375 C-43.57616288 419.20847059 -46.12829046 410.40031509 -46.32910156 399.86230469 C-46.35684662 398.95528305 -46.38459167 398.04826141 -46.41317749 397.11375427 C-46.49714513 394.1410452 -46.55699182 391.1687394 -46.609375 388.1953125 C-46.62784233 387.17169868 -46.64630966 386.14808487 -46.66533661 385.09345245 C-46.75689708 379.67747962 -46.82527364 374.2616864 -46.87890625 368.84521484 C-46.92788827 364.38549115 -47.02539128 359.93090373 -47.16601562 355.47314453 C-47.33652608 350.06093736 -47.42206061 344.65345375 -47.4484787 339.23868561 C-47.4721674 337.18905657 -47.52470303 335.13953212 -47.60785675 333.09145355 C-48.20229079 317.60602281 -48.20229079 317.60602281 -44.0933075 312.29911804 C-40.12625693 308.45278523 -35.68115236 305.51528857 -30.9307785 302.72698212 C-27.38018069 300.59449259 -24.07087397 298.13823367 -20.71875 295.7109375 C-20.12894222 295.30220524 -19.53913445 294.89347298 -18.9314537 294.47235489 C-15.82549564 292.39828702 -15.82549564 292.39828702 -13.71875 289.3984375 C-14.77255859 289.04265625 -14.77255859 289.04265625 -15.84765625 288.6796875 C-19.23971557 287.16595219 -21.75119648 285.21368822 -24.65625 282.8984375 C-25.65527344 282.104375 -26.65429688 281.3103125 -27.68359375 280.4921875 C-28.55475374 279.7687553 -28.55475374 279.7687553 -29.44351292 279.03070831 C-31.81496266 277.23745108 -31.81496266 277.23745108 -35.11775875 275.70800018 C-39.90571156 273.18300331 -44.59018904 270.48542265 -46.52740979 265.1864872 C-47.83760347 258.41918492 -47.50427241 251.5238094 -47.35571289 244.66601562 C-47.35667588 242.34580995 -47.36376911 240.02559996 -47.37651062 237.70542908 C-47.39331063 231.42104983 -47.32345924 225.14031558 -47.23705983 218.85661888 C-47.16051347 212.27241906 -47.16127052 205.68821277 -47.15293884 199.1036377 C-47.13049741 188.04714562 -47.05232825 176.99195289 -46.93969727 165.93603516 C-46.82408422 154.57760112 -46.74615078 143.21982586 -46.71411133 131.86083984 C-46.71212941 131.16120316 -46.71014749 130.46156647 -46.70810551 129.74072868 C-46.70022681 126.92787155 -46.69244012 124.11501419 -46.68481684 121.30215636 C-46.65266663 109.79706421 -46.59175911 98.29210473 -46.52602077 86.78716087 C-46.51126469 84.17153003 -46.49725033 81.55589489 -46.48397374 78.94025612 C-46.44548022 71.48117043 -46.39196044 64.02250662 -46.31418037 56.56372261 C-46.29269428 54.30715141 -46.27608364 52.05052756 -46.26478195 49.79388237 C-46.24824617 46.70598104 -46.2133528 43.61880748 -46.17372131 40.53112793 C-46.17291016 39.6449228 -46.17209901 38.75871766 -46.17126328 37.84565783 C-45.97390517 26.50554096 -42.30197835 17.83013895 -34.71875 9.3984375 C-24.63627555 0.47653565 -12.87993372 -0.06148974 0 0 Z " fill="#FEFEFE" transform="translate(951.71875,357.6015625)"/>
<path d="M0 0 C191.73 0 383.46 0 581 0 C581 5.84869317 580.91383717 10.77176951 580.1171875 16.4375 C580.02261261 17.11184586 579.92803772 17.78619171 579.83059692 18.48097229 C579.52110464 20.65540706 579.19966574 22.82778179 578.875 25 C578.70943604 26.12183182 578.70943604 26.12183182 578.54052734 27.2663269 C574.9794637 51.18028301 568.63801317 74.0859605 561 97 C382.47 97 203.94 97 20 97 C11.4963057 71.4889171 4.79977355 48.0181116 1.36083984 21.67529297 C1.081141 19.6015853 0.74852928 17.53498027 0.39453125 15.47265625 C-0.18786625 10.34640502 0 5.15922848 0 0 Z " fill="#FDCC00" transform="translate(454,823)"/>
<path d="M0 0 C1.15943115 -0.0098568 1.15943115 -0.0098568 2.34228516 -0.01991272 C4.89738066 -0.03960127 7.45241736 -0.05130129 10.00756836 -0.0612793 C11.32192777 -0.06739259 11.32192777 -0.06739259 12.66283989 -0.07362938 C17.30500933 -0.09447588 21.94714938 -0.1087811 26.58935547 -0.11816406 C31.36159888 -0.12919733 36.13337202 -0.16356547 40.90544987 -0.20333576 C44.59373278 -0.2296095 48.28190573 -0.23786562 51.97027397 -0.24144554 C53.72797238 -0.24628743 55.48566667 -0.25783219 57.24327278 -0.27648354 C69.98048961 -0.40319645 80.93245297 0.06472016 90.63256836 9.38793945 C96.73065317 15.99059393 98.53637738 22.63063813 98.53100777 31.50392818 C98.53331546 32.2109918 98.53562314 32.91805542 98.53800076 33.6465452 C98.54328373 36.00973434 98.53433098 38.37264954 98.52542114 40.73582458 C98.52629356 42.44953397 98.5280452 44.1632431 98.53059947 45.8769508 C98.53506992 50.58142113 98.52707345 55.28580033 98.51704335 59.99025905 C98.50840682 65.06516635 98.51132916 70.1400685 98.5128479 75.21498108 C98.51389662 84.00607457 98.50762134 92.79713838 98.49637222 101.58822441 C98.48011847 114.29865733 98.47490934 127.00907589 98.47239624 139.71951807 C98.46801894 160.3413405 98.45470889 180.9631471 98.43579102 201.58496094 C98.41743312 221.61718669 98.40327617 241.64940815 98.39477539 261.68164062 C98.39424994 262.91641773 98.3937245 264.15119483 98.39318313 265.42338943 C98.39057305 271.61790046 98.38804564 277.81241152 98.38555932 284.0069226 C98.36482574 335.39696057 98.32904885 386.7869792 98.28491211 438.17700195 C82.44491211 438.17700195 66.60491211 438.17700195 50.28491211 438.17700195 C50.28491211 395.60700195 50.28491211 353.03700195 50.28491211 309.17700195 C39.39491211 309.17700195 28.50491211 309.17700195 17.28491211 309.17700195 C17.28491211 351.74700195 17.28491211 394.31700195 17.28491211 438.17700195 C1.11491211 438.17700195 -15.05508789 438.17700195 -31.71508789 438.17700195 C-31.82813525 385.76752689 -31.91764433 333.3580811 -31.97041454 280.94850828 C-31.97666802 274.76018695 -31.98313964 268.57186588 -31.98974609 262.38354492 C-31.99105765 261.15156875 -31.9923692 259.91959257 -31.99372049 258.65028378 C-32.01547325 238.7058849 -32.05489412 218.76155812 -32.10085187 198.817202 C-32.14762002 178.35036396 -32.17538407 157.88356366 -32.18553036 137.41667438 C-32.19238874 124.78888822 -32.21404545 112.16130589 -32.25467023 99.53358248 C-32.28111295 90.87266394 -32.28908538 82.21185068 -32.28259478 73.55089471 C-32.27939431 68.55496093 -32.28427843 63.55938317 -32.31111526 58.5635128 C-32.33553131 53.98474993 -32.33662147 49.4065809 -32.31958237 44.82779011 C-32.31747794 43.17616234 -32.3237497 41.52449681 -32.3395038 39.87294284 C-32.43865171 28.83205862 -31.21335158 19.04336212 -24.52758789 9.80200195 C-17.01178354 2.78725122 -10.11482402 0.03747557 0 0 Z " fill="#FBFCFD" transform="translate(634.715087890625,357.822998046875)"/>
<path d="M0 0 C112.66029095 0 112.66029095 0 122.2421875 9 C127.15831131 14.59345642 130.07507104 20.80589474 130.17612076 28.26372337 C130.19668325 29.53764177 130.19668325 29.53764177 130.21766114 30.83729589 C130.22770858 31.76548623 130.23775601 32.69367657 130.24810791 33.6499939 C130.26949817 35.13488373 130.26949817 35.13488373 130.29132056 36.64977133 C130.33756292 39.9765918 130.37648201 43.30345324 130.41503906 46.63037109 C130.44585383 49.01215825 130.47683315 51.39394329 130.50796509 53.77572632 C130.78204002 75.53102838 130.94029148 97.28749731 131.06656265 119.04410362 C131.08376826 121.95632499 131.10130869 124.86854412 131.11914062 127.78076172 C131.12576822 128.8664252 131.12576822 128.8664252 131.13252971 129.97402127 C131.20603268 141.68263497 131.34959658 153.38936315 131.52003863 165.09692244 C131.69377825 177.13166995 131.79477973 189.16543786 131.82835174 201.20140135 C131.8491887 207.95398048 131.90246903 214.70292364 132.03943634 221.45423508 C132.16503766 227.81361373 132.20007377 234.16724074 132.16733932 240.52771378 C132.17095334 242.85388605 132.20683348 245.18028075 132.27836227 247.50535583 C132.77697747 264.58117143 132.77697747 264.58117143 128.13684368 270.2937932 C123.62875994 274.48363489 118.62456706 277.66737689 113.27799177 280.67801023 C110.12232274 282.50934353 107.31967744 284.64100241 104.4375 286.875 C100.24686192 290 100.24686192 290 98 290 C101.71600772 294.09357 106.13375031 297.08014278 110.625 300.25 C112.90780432 301.86390766 115.18246878 303.48303895 117.4308567 305.14463806 C119.1234273 306.36696422 120.85177496 307.54141947 122.61374474 308.66139221 C129.44574305 313.35068338 129.44574305 313.35068338 130.90376663 317.68936157 C131.22982146 320.90019586 131.23867842 323.97337349 131.13525391 327.19921875 C131.13671417 328.40007614 131.13817444 329.60093353 131.13967896 330.83818054 C131.13393078 334.11000312 131.08403246 337.37746989 131.01393938 340.64842987 C130.95114414 344.07418127 130.94553049 347.50003141 130.9336853 350.92626953 C130.90268437 357.40439942 130.82073982 363.88082846 130.72019041 370.35821152 C130.60815888 377.73649185 130.55337065 385.11485629 130.50323606 392.49377632 C130.39889292 407.66361898 130.21561592 422.8312543 130 438 C114.16 438 98.32 438 82 438 C82 395.1 82 352.2 82 308 C70.78 308 59.56 308 48 308 C48 350.9 48 393.8 48 438 C32.16 438 16.32 438 0 438 C0 293.46 0 148.92 0 0 Z " fill="#FDFEFE" transform="translate(452,358)"/>
<path d="M0 0 C232.32 0 464.64 0 704 0 C704.061875 106.0125 704.12375 212.025 704.1875 321.25 C704.21481201 354.72083008 704.24212402 388.19166016 704.27026367 422.67675781 C704.28381348 463.55615234 704.28381348 463.55615234 704.28633118 482.69500732 C704.28930922 496.93737662 704.30222319 511.17970291 704.32002028 525.42206017 C704.33795065 539.9688506 704.34449354 554.51561412 704.34033485 569.06241517 C704.33819451 577.69444751 704.34403014 586.3263791 704.36242279 594.95839264 C704.37377916 600.68035406 704.37393609 606.40224955 704.36550602 612.12421575 C704.36102991 615.36890567 704.36263394 618.6133691 704.37464774 621.8580451 C704.45252391 644.22742784 702.81803092 666.4362565 698.625 688.4375 C698.41004883 689.5925 698.19509766 690.7475 697.97363281 691.9375 C694.35987522 710.99281738 689.28380794 729.22348091 683.12890625 747.61962891 C682.09188561 750.72485984 681.07551262 753.83609645 680.0625 756.94921875 C664.93769076 802.69090684 640.76437501 847.12305133 611 885 C610.15679423 886.09707418 609.31439098 887.1947655 608.47265625 888.29296875 C594.0620429 906.99114554 578.1814701 926.02122868 560.1875 941.375 C558.0473092 943.21409932 555.93330621 945.06205209 553.8671875 946.984375 C546.03692539 954.25722863 537.5617872 960.62492865 529 967 C528.40703125 967.4448877 527.8140625 967.88977539 527.203125 968.34814453 C495.21316757 992.25652685 459.38229652 1009.26017197 421 1020 C420.30213379 1020.20318848 419.60426758 1020.40637695 418.88525391 1020.61572266 C405.54140615 1024.491487 391.74503169 1026.17948851 378 1028 C377.23067139 1028.10820068 376.46134277 1028.21640137 375.66870117 1028.32788086 C357.44898072 1030.6779334 338.15111637 1029.59797115 320 1027 C318.88544434 1026.84402344 317.77088867 1026.68804688 316.62255859 1026.52734375 C242.48639329 1015.88437439 180.49714565 977.43248706 128.1875 925.3125 C126.84365234 923.97566162 126.84365234 923.97566162 125.47265625 922.61181641 C120.44125318 917.56821031 115.6149619 912.42618856 111 907 C110.11120162 905.97870994 109.22191302 904.95784621 108.33203125 903.9375 C101.15798527 895.57334097 94.47044456 886.91819078 88 878 C87.43877441 877.22736816 86.87754883 876.45473633 86.29931641 875.65869141 C77.5092007 863.4909719 69.48450587 851.00910188 62 838 C61.57799316 837.27167969 61.15598633 836.54335937 60.72119141 835.79296875 C34.35833043 790.10430355 14.92707257 740.08983432 6 688 C5.82726562 687.02691895 5.65453125 686.05383789 5.4765625 685.05126953 C4.92851633 681.95312087 4.39916932 678.85227146 3.875 675.75 C3.63692627 674.39781372 3.63692627 674.39781372 3.39404297 673.01831055 C0.03544592 652.43056977 -0.29234228 631.5800286 -0.24050903 610.77268982 C-0.24138631 608.12583476 -0.24306124 605.47899087 -0.24569702 602.83213806 C-0.2498099 597.11888997 -0.24663203 591.40568402 -0.23843026 585.69244087 C-0.22611769 577.08707574 -0.22569978 568.48173553 -0.22736086 559.87636317 C-0.22983318 545.44833432 -0.22330763 531.02032381 -0.21115112 516.59230042 C-0.19474313 497.08370309 -0.19094113 477.575137 -0.18920898 458.06652832 C-0.17872385 411.19018183 -0.15080146 364.31384056 -0.125 317.4375 C-0.08375 212.683125 -0.0425 107.92875 0 0 Z M16 16 C15.979375 115.66 15.95875 215.32 15.9375 318 C15.928396 349.47117187 15.91929199 380.94234375 15.90991211 413.3671875 C15.90656773 441.57080073 15.90656773 441.57080073 15.90455627 469.77441406 C15.90356312 483.16558021 15.8992567 496.55674128 15.89332657 509.947906 C15.88735354 523.62169333 15.88516797 537.29547748 15.88655505 550.96926606 C15.88726914 559.08580502 15.88531687 567.20233209 15.8791924 575.31886883 C15.87496575 581.33177518 15.87605194 587.34466882 15.87909889 593.35757637 C15.87951961 595.77303792 15.87828054 598.18850052 15.87511742 600.60396004 C15.8506093 620.50491261 15.92202882 640.52230814 18.25 660.3125 C18.37640869 661.41513184 18.50281738 662.51776367 18.63305664 663.65380859 C20.15270701 676.21068581 22.44666862 688.61634279 25 701 C25.17144531 701.83241211 25.34289062 702.66482422 25.51953125 703.52246094 C27.73034336 714.02381845 30.78470722 724.20083395 34.14501953 734.38671875 C35.04155705 737.12702076 35.91030421 739.87523262 36.77734375 742.625 C55.09874207 800.02250568 85.94335358 854.8748178 126.6640625 899.41796875 C127.95314976 900.84286287 129.23567055 902.27413712 130.48828125 903.73120117 C135.34101818 909.37363903 140.48639207 914.67837259 145.75 919.9375 C146.63598877 920.8234082 147.52197754 921.70931641 148.43481445 922.62207031 C153.6629706 927.80468921 158.91171724 932.7088782 164.73046875 937.22265625 C166.93444826 938.9486643 168.9550326 940.77754015 171 942.6875 C208.88853726 976.59841502 259.2340544 999.98528021 309 1009 C309.8254834 1009.16226074 310.6509668 1009.32452148 311.50146484 1009.49169922 C336.42574062 1014.30949759 364.95413143 1014.06009966 390 1010 C390.89025879 1009.86529297 391.78051758 1009.73058594 392.69775391 1009.59179688 C418.68130598 1005.52733063 444.50973171 996.77696378 468 985 C468.84385254 984.58282715 469.68770508 984.1656543 470.55712891 983.73583984 C489.62284851 974.25392033 507.23268419 963.10908116 524 950 C524.89847656 949.30390625 525.79695313 948.6078125 526.72265625 947.890625 C536.28766841 940.36303819 545.74713964 932.54051061 554.21484375 923.78515625 C556.04546715 921.95453285 557.95899857 920.29375561 559.9375 918.625 C563.80180023 915.29344796 567.14421152 911.63166463 570.51171875 907.8046875 C572.80349228 905.22149536 575.14035486 902.6925451 577.50024414 900.17211914 C582.96443253 894.32366996 588.14447336 888.37031994 593 882 C593.54027832 881.29456055 594.08055664 880.58912109 594.63720703 879.86230469 C622.78024064 843.04202288 646.0949062 802.61449674 662 759 C662.44907715 757.77039551 662.8981543 756.54079102 663.36083984 755.27392578 C669.72700959 737.73606851 675.13385001 720.27877677 679 702 C679.45424816 699.94917911 679.90867689 697.89839821 680.36328125 695.84765625 C683.64131056 680.66740052 685.56349276 665.45491463 687 650 C687.08073634 649.22718663 687.16147268 648.45437326 687.24465558 647.6581413 C687.90384582 641.05739007 688.14099347 634.54754213 688.12304783 627.916852 C688.12420157 626.851918 688.12535532 625.78698399 688.12654402 624.68977926 C688.12918254 621.13507387 688.12471242 617.5804141 688.12025452 614.02571106 C688.12069218 611.45268747 688.12156955 608.87966393 688.12284851 606.30664062 C688.12492118 600.711484 688.1232878 595.11633804 688.11921513 589.52118266 C688.1131008 581.09339803 688.11284634 572.66561982 688.11368043 564.23783337 C688.11492123 550.11279246 688.11163439 535.9877562 688.10557556 521.86271667 C688.09739768 502.76374139 688.09547226 483.66477406 688.09460449 464.5657959 C688.08935355 418.64802965 688.07539245 372.73026474 688.0625 326.8125 C688.041875 224.244375 688.02125 121.67625 688 16 C466.24 16 244.48 16 16 16 Z " fill="#0134A0" transform="translate(392,195)"/>
<path d="M0 0 C30.69 0 61.38 0 93 0 C92.979375 9.796875 92.95875 19.59375 92.9375 29.6875 C92.94222833 35.8945799 92.94897555 42.10154887 92.96484375 48.30859375 C92.9896544 58.16048302 93.00623006 68.01189253 92.96923828 77.86376953 C92.94233349 85.03932795 92.94356563 92.21424255 92.97825909 99.38977718 C92.99564788 103.18769361 92.99916776 106.98445723 92.96896362 110.78231812 C92.94094281 114.36164241 92.95071454 117.93892786 92.98873711 121.51814079 C92.999624 123.44894161 92.97110319 125.37984048 92.94117737 127.31044006 C93.0446391 133.51307176 93.43682709 137.17986993 97.90063477 141.69946289 C99.24077619 142.83154697 100.60477987 143.93653671 102 145 C102.85464844 145.75667969 103.70929688 146.51335937 104.58984375 147.29296875 C107.38057684 149.54505785 110.18223336 151.78191613 113 154 C113.60457031 154.48098145 114.20914063 154.96196289 114.83203125 155.45751953 C139.29635339 174.86596348 165.98035579 190.83371216 195.55859375 201.14550781 C200.0549762 202.71924167 204.52498738 204.36668366 209 206 C209.08014784 200.77006563 209.10018214 195.54441133 209.06713867 190.31396484 C209.06407703 188.53918014 209.07677341 186.76428945 209.10620117 184.98974609 C209.54717855 172.63491469 209.54717855 172.63491469 203.703125 162.2109375 C202.14492219 160.7967469 200.57822416 159.3918116 199 158 C189.49338512 145.31690777 183.92387569 128.73475784 183 113 C182.95875 112.30777344 182.9175 111.61554688 182.875 110.90234375 C182.16966819 86.61247959 192.126409 66.63732333 208 49 C208.33 32.83 208.66 16.66 209 0 C247.28 0 285.56 0 325 0 C325.33 15.84 325.66 31.68 326 48 C328.97 51.3 331.94 54.6 335 58 C348.07335844 77.27695846 353.86669603 98.84959251 350.49609375 122.00390625 C347.85977248 135.48680644 342.83618663 150.37324754 332.8507843 160.12263489 C325.8080958 167.29117211 324.62676382 173.44583366 324.67773438 183.29492188 C324.72145175 184.96747983 324.76638791 186.64000635 324.8125 188.3125 C324.81947559 190.03579428 324.82146208 191.75911627 324.81835938 193.48242188 C324.82151184 197.6574962 324.89172296 201.82638336 325 206 C328.9510562 204.5193815 332.90186375 203.03811159 336.85205078 201.55517578 C339.16405894 200.68745162 341.47709849 199.82305895 343.79248047 198.96435547 C365.25027263 190.97952309 385.41160691 180.37034496 404 167 C404.57524414 166.58766113 405.15048828 166.17532227 405.74316406 165.75048828 C417.80525369 157.03977734 429.46693927 147.53306073 440 137 C440.10854981 135.22877114 440.14687445 133.45321141 440.15821838 131.67869568 C440.1680072 130.52458191 440.17779602 129.37046814 440.18788147 128.18138123 C440.19363693 126.90392532 440.1993924 125.62646942 440.20532227 124.31030273 C440.21489564 122.96041561 440.22490539 121.61053152 440.23532104 120.26065063 C440.26243483 116.58522657 440.28340921 112.90978958 440.30332303 109.2343204 C440.3251428 105.39724271 440.35255104 101.56020515 440.37937927 97.72315979 C440.42936054 90.45231693 440.47427913 83.18145186 440.51740164 75.91056544 C440.57594331 66.08883999 440.64225926 56.26716729 440.70815182 46.44548893 C440.81181148 30.96369478 440.90504408 15.48185564 441 0 C472.02 0 503.04 0 535 0 C528.22776458 18.05929445 528.22776458 18.05929445 525.4765625 23.83203125 C525.17348175 24.46876266 524.870401 25.10549408 524.55813599 25.76152039 C523.59006519 27.7833457 522.60945958 29.79860859 521.625 31.8125 C521.28295532 32.51600586 520.94091064 33.21951172 520.58850098 33.94433594 C510.48291192 54.65584833 498.92867485 74.60262336 485 93 C484.53787109 93.61085449 484.07574219 94.22170898 483.59960938 94.85107422 C467.74255849 115.65929518 450.28144321 136.61196647 429.68359375 152.875 C426.87333432 155.10030004 424.16060556 157.41911129 421.4375 159.75 C409.10861831 170.01874473 395.98019302 179.13545969 382 187 C381.37399902 187.36013184 380.74799805 187.72026367 380.10302734 188.09130859 C362.56340033 198.13355277 343.44272414 205.55357093 324 211 C323.17685303 211.2364624 322.35370605 211.4729248 321.50561523 211.71655273 C291.92348706 220.05498067 257.11593314 221.82076645 227 215 C226.03674805 214.79600586 225.07349609 214.59201172 224.08105469 214.38183594 C179.56855233 204.90551455 139.09183343 182.98147054 105 153 C104.26652344 152.36578125 103.53304687 151.7315625 102.77734375 151.078125 C100.83956083 149.3984563 98.91709223 147.70323334 97 146 C96.18789063 145.28070312 95.37578125 144.56140625 94.5390625 143.8203125 C87.55359221 137.59002819 80.96102829 131.23340903 74.859375 124.1328125 C73.60162954 122.69010448 72.3193742 121.26846124 71.015625 119.8671875 C63.7436333 112.03785337 57.36887007 103.56530858 51 95 C50.54979492 94.39639648 50.09958984 93.79279297 49.63574219 93.17089844 C0 26.26390493 0 26.26390493 0 0 Z " fill="#F8F9FB" transform="translate(477,927)"/>
<path d="M0 0 C15.84 0 31.68 0 48 0 C47.9792189 3.53719254 47.95843781 7.07438507 47.93702698 10.71876526 C47.75319479 43.19781074 47.64419067 75.67640323 47.61620233 108.15596709 C47.61246226 112.41769942 47.60806887 116.67943084 47.60327148 120.94116211 C47.60185542 122.21374794 47.60185542 122.21374794 47.60041075 123.51204257 C47.58359301 137.22746463 47.51391836 150.94213029 47.42451347 164.65724934 C47.33387607 178.7430629 47.30049542 192.82818426 47.31963962 206.91428035 C47.32965607 215.59832898 47.29566485 224.27986969 47.20434844 232.96345364 C47.14591462 238.92806507 47.14338366 244.89111579 47.18364913 250.85586984 C47.20523137 254.29224392 47.2032888 257.7240708 47.13454247 261.15992546 C46.55322243 278.03752715 46.55322243 278.03752715 54.49142259 292.24526972 C57.513866 295.09034576 60.62291288 297.5847111 64 300 C66.36941614 298.03388873 68.68569722 296.02954469 71 294 C71.8016908 293.34530828 72.60338159 292.69061655 73.42936605 292.01608568 C77.7946804 288.17162393 80.49843154 285.35944803 81.12304783 279.44161892 C81.16781632 277.32755544 81.16384556 275.21209529 81.12025452 273.0980072 C81.13202789 271.92650496 81.14380127 270.75500271 81.15593141 269.5480004 C81.17943058 266.31777929 81.1629509 263.09069276 81.12913358 259.86065733 C81.10248408 256.3698762 81.12801719 252.87941805 81.14706421 249.38864136 C81.17295159 243.34803057 81.16611747 237.30817679 81.13676643 231.26759148 C81.0943788 222.53418523 81.10179287 213.80137331 81.12118178 205.06791157 C81.15129759 190.89712827 81.14139564 176.72666876 81.10620117 162.5559082 C81.07210846 148.79413907 81.05694121 135.03256263 81.06713867 121.27075195 C81.06776116 120.42182272 81.06838364 119.5728935 81.06902499 118.69823914 C81.07226442 114.43921425 81.07587499 110.18018977 81.07967007 105.92116535 C81.11065139 70.61396777 81.07415832 35.30712397 81 0 C96.84 0 112.68 0 129 0 C129.88599087 35.6416215 130.58214264 71.27998066 130.99154785 106.93039918 C131.04031177 111.16121873 131.09079165 115.39201617 131.14233398 119.62280273 C131.15256409 120.46489784 131.1627942 121.30699294 131.17333431 122.17460608 C131.34198152 135.72176477 131.64882475 149.26231472 132.00895905 162.80558223 C132.37674321 176.75535819 132.59091172 190.70173371 132.6694513 204.65615648 C132.71768753 212.47556987 132.83217661 220.28123249 133.12347221 228.09568977 C135.02235621 280.5195108 135.02235621 280.5195108 120.19972229 296.75816345 C114.30227179 302.83326064 107.88161482 308.25626019 101.3985014 313.68901348 C100.54805657 314.40314309 99.69761175 315.1172727 98.82139587 315.8530426 C97.99341523 316.54743218 97.16543459 317.24182177 96.31236362 317.95725346 C89.29142294 324.09361006 86.24994309 329.3655354 85.48071289 338.89233398 C85.31542463 343.56056557 85.59986169 348.09446839 85.97265625 352.74609375 C86.02325596 355.24597158 86.05614948 357.74626165 86.07261658 360.24659729 C86.16063353 366.68760397 86.48044454 373.09436659 86.85852051 379.52398682 C87.26436906 387.31052278 87.36588749 395.10740878 87.52144623 402.90218353 C87.78800106 414.62433571 88.42647971 426.2710241 89 438 C73.16 438 57.32 438 41 438 C41.391875 430.306875 41.78375 422.61375 42.1875 414.6875 C42.34692173 409.71847335 42.4937677 404.75490849 42.59765625 399.78515625 C42.76267363 391.94536434 42.96552653 384.12408465 43.44482422 376.29638672 C43.82999519 369.95785359 44.00251367 363.64137814 44.04727173 357.29165649 C44.09774683 354.91060697 44.21638508 352.52968 44.41439819 350.15634155 C45.10876751 341.42079082 45.02588993 332.52380303 40 325 C37.19263298 321.96033932 34.11533067 319.30363233 30.95275879 316.640625 C30.08051619 315.90502916 29.20827359 315.16943333 28.3095994 314.41154671 C27.41183582 313.6557073 26.51407224 312.8998679 25.5891037 312.12112427 C9.89844578 298.86565553 -1.70445498 287.7498817 -3.97933054 266.56111813 C-5.08695951 252.98425618 -4.66173733 239.29248424 -4.14151481 225.69860858 C-3.84953758 217.85365987 -3.79500185 210.01151486 -3.74968261 202.16190755 C-3.66295978 188.17546923 -3.39915288 174.19856732 -3.01757812 160.21728516 C-2.6481858 146.66795334 -2.3661919 133.12124716 -2.19726562 119.56787109 C-2.18675669 118.72708629 -2.17624775 117.88630149 -2.16542035 117.02003837 C-2.11320409 112.8004195 -2.06265932 108.58078258 -2.01294422 104.36113358 C-1.60085892 69.5670185 -0.88743532 34.78504959 0 0 Z " fill="#FDFDFE" transform="translate(755,358)"/>
<path d="M0 0 C238.26 0 476.52 0 722 0 C722.061875 107.1675 722.12375 214.335 722.1875 324.75 C722.21481201 358.5862793 722.24212402 392.42255859 722.27026367 427.28417969 C722.28381348 468.60791016 722.28381348 468.60791016 722.28633118 487.95440674 C722.2893094 502.35224043 722.30222401 516.75003159 722.32002028 531.14785338 C722.33794927 545.85295629 722.34449386 560.55803258 722.34033485 575.263146 C722.33819428 583.98945805 722.34403249 592.71567044 722.36242279 601.44196391 C722.37377711 607.22603151 722.37393748 613.01003388 722.36550602 618.79410621 C722.36102887 622.07426178 722.36263727 625.35419323 722.37464774 628.63433504 C722.45506708 651.9926694 720.46069452 675.016505 716.25 698 C716.06108185 699.04688995 716.06108185 699.04688995 715.86834717 700.1149292 C711.72800895 722.96403214 705.80683373 745.12916992 698 767 C697.74395996 767.72509766 697.48791992 768.45019531 697.22412109 769.19726562 C695.57646791 773.83644265 693.82240428 778.42681588 692 783 C691.65775391 783.85964355 691.31550781 784.71928711 690.96289062 785.60498047 C670.03585418 837.76949085 641.18285285 885.913683 603.265625 927.48828125 C601.99973267 928.89167568 600.7408447 930.30177478 599.50952148 931.7355957 C594.76206075 937.25607482 589.72201407 942.42757456 584.5625 947.5625 C583.75490234 948.37396484 582.94730469 949.18542969 582.11523438 950.02148438 C577.2396362 954.88922502 572.24171424 959.53055607 567 964 C565.97883131 964.88893782 564.95797425 965.77823381 563.9375 966.66796875 C545.11957927 982.80833959 524.80696066 996.67718416 503.1796875 1008.77880859 C501.21689882 1009.8784803 499.26440479 1010.9944674 497.3125 1012.11328125 C486.02298154 1018.46579317 473.99712144 1023.16750682 462 1028 C461.11489746 1028.36295166 460.22979492 1028.72590332 459.31787109 1029.09985352 C441.48289451 1036.36664696 422.31818154 1040.52571562 403.375 1043.75 C402.70218994 1043.86553223 402.02937988 1043.98106445 401.33618164 1044.10009766 C388.78449938 1046.11927466 376.18010283 1046.24145643 363.5 1046.25 C362.59670959 1046.25067474 361.69341919 1046.25134949 360.76275635 1046.25204468 C295.55098933 1046.17506426 234.270794 1023.68387138 182 985 C181.41138184 984.56445801 180.82276367 984.12891602 180.21630859 983.68017578 C168.2653082 974.7759787 156.97194843 965.07724019 146 955 C145.42459473 954.4750293 144.84918945 953.95005859 144.25634766 953.40917969 C137.26039061 947.01772241 130.39035331 940.63563096 124.1640625 933.4765625 C122.16378152 931.18743228 120.10556059 928.96419644 118.02514648 926.74804688 C112.12067713 920.43072796 106.7613886 913.78851393 101.49951172 906.93212891 C99.92930892 904.90891416 98.32942765 902.91224181 96.72265625 900.91796875 C87.2965748 889.14473946 79.01475104 876.76852743 71 864 C70.55817383 863.2977832 70.11634766 862.59556641 69.66113281 861.87207031 C52.86161803 834.99007675 39.5944773 806.45045848 28 777 C27.67628418 776.18885742 27.35256836 775.37771484 27.01904297 774.54199219 C23.51310672 765.74456118 20.7032802 756.86452078 18.27734375 747.71875 C17.43491126 744.55157211 16.53043019 741.41352284 15.56640625 738.28125 C8.76995086 716.00780599 4.61782406 692.86718138 2.36586654 669.70084918 C2.09546045 666.96561093 1.80716764 664.23470175 1.50839436 661.50259912 C-0.05221461 646.61489766 -0.27727838 631.86421968 -0.24050903 616.90567017 C-0.24138586 614.2367204 -0.24305979 611.56778175 -0.24569702 608.89883423 C-0.24981745 603.12793874 -0.24661877 597.35708489 -0.23843026 591.58619428 C-0.22613741 582.89393258 -0.22569812 574.20169562 -0.22736086 565.50942678 C-0.22983535 550.93697126 -0.22329853 536.36453387 -0.21115112 521.79208374 C-0.19475537 502.08818924 -0.19094192 482.38432565 -0.18920898 462.68041992 C-0.17871994 415.32860961 -0.15079758 367.97680445 -0.125 320.625 C-0.08375 214.81875 -0.0425 109.0125 0 0 Z M9 9 C8.938125 113.589375 8.87625 218.17875 8.8125 325.9375 C8.78518799 358.94515381 8.75787598 391.95280762 8.72973633 425.96069336 C8.71970217 455.58386946 8.71970217 455.58386946 8.71366882 485.20704651 C8.71069389 499.25302612 8.69779166 513.29896199 8.67997972 527.34492937 C8.66202447 541.69950538 8.65551209 556.0540541 8.65966515 570.4086409 C8.66161672 578.18536415 8.65905308 585.96201222 8.64235461 593.73871982 C8.48220477 671.36845965 19.09114331 742.43384838 53 813 C53.71760498 814.50095215 53.71760498 814.50095215 54.44970703 816.03222656 C69.86645767 848.10277904 88.9416752 878.82267498 112 906 C112.85885807 907.0318991 113.71689233 908.06448427 114.57421875 909.09765625 C124.36535285 920.85231923 134.79376681 931.88822009 145.5625 942.75 C146.85583252 944.06291016 146.85583252 944.06291016 148.17529297 945.40234375 C153.38621361 950.6201715 158.78243564 955.41607216 164.5378418 960.02587891 C166.50405999 961.60236283 168.42603259 963.20229912 170.3203125 964.86328125 C178.76718274 972.23958716 187.71777752 978.71658069 197 985 C197.58861816 985.39928711 198.17723633 985.79857422 198.78369141 986.20996094 C222.58407337 1002.22504142 247.90417259 1014.66218623 275 1024 C275.93344238 1024.32242676 276.86688477 1024.64485352 277.82861328 1024.97705078 C290.87477664 1029.37331567 304.07442522 1032.11385322 317.625 1034.375 C318.38590942 1034.5026474 319.14681885 1034.6302948 319.93078613 1034.7618103 C355.18753288 1040.5974262 391.41909477 1039.27815771 426 1030 C426.90347168 1029.75910645 427.80694336 1029.51821289 428.73779297 1029.27001953 C472.31847982 1017.47368908 511.68888731 997.03848715 547 969 C547.93328125 968.26136719 548.8665625 967.52273438 549.828125 966.76171875 C555.79740217 961.9607144 561.4761317 956.90493878 567.0859375 951.6953125 C569.75932527 949.222608 572.46536833 946.79373619 575.1875 944.375 C581.9111245 938.33020297 588.25529716 932.00904377 594.13671875 925.140625 C596.28886777 922.66813514 598.51980719 920.27728643 600.75 917.875 C606.05048523 912.06052833 610.88693817 905.94368372 615.67822266 899.70703125 C616.88717832 898.14570542 618.12015565 896.6030563 619.35546875 895.0625 C639.12332907 870.16228064 654.77762436 842.32923057 669 814 C669.43973145 813.12988281 669.87946289 812.25976562 670.33251953 811.36328125 C691.40438759 769.40776319 704.89216259 722.57926457 710.61737931 676.05523002 C710.89256891 673.85783832 711.18750241 671.6628862 711.49503887 669.46978772 C713.31403666 655.7585412 713.27418373 642.12138466 713.24050903 628.3107605 C713.24138529 625.63703981 713.24305797 622.96333026 713.24569702 620.28961182 C713.24982694 614.49586719 713.24660222 608.70216394 713.23843026 602.90842414 C713.22616202 594.1816622 713.22569605 585.45492496 713.22736086 576.72815594 C713.22983806 562.09945334 713.22328715 547.47076877 713.21115112 532.84207153 C713.19477067 513.0621069 713.19094292 493.28217305 713.18920898 473.50219727 C713.17871504 425.95979452 713.15079273 378.41739691 713.125 330.875 C713.08375 224.65625 713.0425 118.4375 713 9 C480.68 9 248.36 9 9 9 Z " fill="#FCFBF7" transform="translate(383,186)"/>
<path d="M0 0 C30.69 0 61.38 0 93 0 C92.979375 9.796875 92.95875 19.59375 92.9375 29.6875 C92.94222833 35.8945799 92.94897555 42.10154887 92.96484375 48.30859375 C92.9896544 58.16048302 93.00623006 68.01189253 92.96923828 77.86376953 C92.94233349 85.03932795 92.94356563 92.21424255 92.97825909 99.38977718 C92.99564788 103.18769361 92.99916776 106.98445723 92.96896362 110.78231812 C92.94094281 114.36164241 92.95071454 117.93892786 92.98873711 121.51814079 C92.999624 123.44894161 92.97110319 125.37984048 92.94117737 127.31044006 C93.0446391 133.51307176 93.43682709 137.17986993 97.90063477 141.69946289 C99.24077619 142.83154697 100.60477987 143.93653671 102 145 C102.85464844 145.75667969 103.70929688 146.51335937 104.58984375 147.29296875 C107.38057684 149.54505785 110.18223336 151.78191613 113 154 C113.60457031 154.48098145 114.20914063 154.96196289 114.83203125 155.45751953 C140.08852916 175.49442557 167.50884398 191.34828821 198 202 C201.63 203.32 205.26 204.64 209 206 C209 193.79 209 181.58 209 169 C211.64 170.98 214.28 172.96 217 175 C237.29071668 189.0648343 259.17991183 193.87982255 283.625 190.25 C297.21784611 187.45090898 311.62191326 181.10018291 321.58203125 171.25 C323 170 323 170 325 170 C325 181.88 325 193.76 325 206 C332.92 203.03 332.92 203.03 341 200 C342.66933594 199.37996094 344.33867188 198.75992187 346.05859375 198.12109375 C366.69239256 190.28384189 386.08643812 179.88494925 404 167 C404.57524414 166.58766113 405.15048828 166.17532227 405.74316406 165.75048828 C417.80525369 157.03977734 429.46693927 147.53306073 440 137 C440.10854981 135.22877114 440.14687445 133.45321141 440.15821838 131.67869568 C440.1680072 130.52458191 440.17779602 129.37046814 440.18788147 128.18138123 C440.19363693 126.90392532 440.1993924 125.62646942 440.20532227 124.31030273 C440.21489564 122.96041561 440.22490539 121.61053152 440.23532104 120.26065063 C440.26243483 116.58522657 440.28340921 112.90978958 440.30332303 109.2343204 C440.3251428 105.39724271 440.35255104 101.56020515 440.37937927 97.72315979 C440.42936054 90.45231693 440.47427913 83.18145186 440.51740164 75.91056544 C440.57594331 66.08883999 440.64225926 56.26716729 440.70815182 46.44548893 C440.81181148 30.96369478 440.90504408 15.48185564 441 0 C472.02 0 503.04 0 535 0 C528.22776458 18.05929445 528.22776458 18.05929445 525.4765625 23.83203125 C525.17348175 24.46876266 524.870401 25.10549408 524.55813599 25.76152039 C523.59006519 27.7833457 522.60945958 29.79860859 521.625 31.8125 C521.28295532 32.51600586 520.94091064 33.21951172 520.58850098 33.94433594 C510.48291192 54.65584833 498.92867485 74.60262336 485 93 C484.53787109 93.61085449 484.07574219 94.22170898 483.59960938 94.85107422 C467.74255849 115.65929518 450.28144321 136.61196647 429.68359375 152.875 C426.87333432 155.10030004 424.16060556 157.41911129 421.4375 159.75 C409.10861831 170.01874473 395.98019302 179.13545969 382 187 C381.37399902 187.36013184 380.74799805 187.72026367 380.10302734 188.09130859 C362.56340033 198.13355277 343.44272414 205.55357093 324 211 C323.17685303 211.2364624 322.35370605 211.4729248 321.50561523 211.71655273 C291.92348706 220.05498067 257.11593314 221.82076645 227 215 C226.03674805 214.79600586 225.07349609 214.59201172 224.08105469 214.38183594 C179.56855233 204.90551455 139.09183343 182.98147054 105 153 C104.26652344 152.36578125 103.53304687 151.7315625 102.77734375 151.078125 C100.83956083 149.3984563 98.91709223 147.70323334 97 146 C96.18789063 145.28070312 95.37578125 144.56140625 94.5390625 143.8203125 C87.55359221 137.59002819 80.96102829 131.23340903 74.859375 124.1328125 C73.60162954 122.69010448 72.3193742 121.26846124 71.015625 119.8671875 C63.7436333 112.03785337 57.36887007 103.56530858 51 95 C50.54979492 94.39639648 50.09958984 93.79279297 49.63574219 93.17089844 C0 26.26390493 0 26.26390493 0 0 Z " fill="#FCFCFE" transform="translate(477,927)"/>
<path d="M0 0 C11.22 0 22.44 0 34 0 C34 122.1 34 244.2 34 370 C22.78 370 11.56 370 0 370 C0 247.9 0 125.8 0 0 Z " fill="#0134A0" transform="translate(954,392)"/>
<path d="M0 0 C31.02 0 62.04 0 94 0 C87.22776458 18.05929445 87.22776458 18.05929445 84.4765625 23.83203125 C84.17348175 24.46876266 83.870401 25.10549408 83.55813599 25.76152039 C82.59006519 27.7833457 81.60945958 29.79860859 80.625 31.8125 C80.11193298 32.86775879 80.11193298 32.86775879 79.58850098 33.94433594 C69.48291192 54.65584833 57.92867485 74.60262336 44 93 C43.30680664 93.91628174 43.30680664 93.91628174 42.59960938 94.85107422 C26.74255849 115.65929518 9.28144321 136.61196647 -11.31640625 152.875 C-14.12666568 155.10030004 -16.83939444 157.41911129 -19.5625 159.75 C-31.89138169 170.01874473 -45.01980698 179.13545969 -59 187 C-59.93900146 187.54019775 -59.93900146 187.54019775 -60.89697266 188.09130859 C-99.16235126 210 -99.16235126 210 -116 210 C-116 208.68 -116 207.36 -116 206 C-115.07703125 205.6596875 -114.1540625 205.319375 -113.203125 204.96875 C-109.59796525 203.63355787 -106.00176633 202.27542765 -102.40771484 200.91064453 C-100.83436493 200.31557303 -99.25922949 199.72519552 -97.68212891 199.14013672 C-76.05541841 191.09330634 -55.73851934 180.47832845 -37 167 C-36.42475586 166.58766113 -35.84951172 166.17532227 -35.25683594 165.75048828 C-23.19474631 157.03977734 -11.53306073 147.53306073 -1 137 C-0.89145019 135.22877114 -0.85312555 133.45321141 -0.84178162 131.67869568 C-0.8319928 130.52458191 -0.82220398 129.37046814 -0.81211853 128.18138123 C-0.80636307 126.90392532 -0.8006076 125.62646942 -0.79467773 124.31030273 C-0.78510436 122.96041561 -0.77509461 121.61053152 -0.76467896 120.26065063 C-0.73756517 116.58522657 -0.71659079 112.90978958 -0.69667697 109.2343204 C-0.6748572 105.39724271 -0.64744896 101.56020515 -0.62062073 97.72315979 C-0.57063946 90.45231693 -0.52572087 83.18145186 -0.48259836 75.91056544 C-0.42405669 66.08883999 -0.35774074 56.26716729 -0.29184818 46.44548893 C-0.18818852 30.96369478 -0.09495592 15.48185564 0 0 Z " fill="#FBFCFD" transform="translate(918,927)"/>
<path d="M0 0 C11.22 0 22.44 0 34 0 C34 79.2 34 158.4 34 240 C22.78 240 11.56 240 0 240 C0 160.8 0 81.6 0 0 Z " fill="#0134A0" transform="translate(500,392)"/>
<path d="M0 0 C10.89 0 21.78 0 33 0 C33 79.2 33 158.4 33 240 C22.11 240 11.22 240 0 240 C0 160.8 0 81.6 0 0 Z " fill="#0033A0" transform="translate(652,392)"/>
<path d="M0 0 C215.82 0 431.64 0 654 0 C654 2.64 654 5.28 654 8 C438.18 8 222.36 8 0 8 C0 5.36 0 2.72 0 0 Z " fill="#FFCD00" transform="translate(417,300)"/>
<path d="M0 0 C38.28 0 76.56 0 116 0 C116 15.51 116 31.02 116 47 C112.94917874 44.96611916 109.89915004 42.93057888 106.87890625 40.8515625 C86.86048842 27.41163534 65.52518206 23.31020924 41.5625 26.6875 C26.69129443 29.75046138 13.46481435 36.32723355 2.390625 46.75 C1 48 1 48 0 48 C0 32.16 0 16.32 0 0 Z " fill="#FFCD01" transform="translate(686,927)"/>
<path d="M0 0 C2.64 1.98 5.28 3.96 8 6 C28.29071668 20.0648343 50.17991183 24.87982255 74.625 21.25 C88.21784611 18.45090898 102.62191326 12.10018291 112.58203125 2.25 C114 1 114 1 116 1 C116 14.2 116 27.4 116 41 C110.12937194 42.95687602 105.20337208 44.49939784 99.25 45.5625 C97.99703125 45.79066406 96.7440625 46.01882813 95.453125 46.25390625 C94.75952881 46.36919678 94.06593262 46.4844873 93.35131836 46.60327148 C91.65579648 46.88935009 89.96420903 47.19910132 88.27563477 47.52368164 C78.32766865 49.29577935 68.5074389 49.35412195 58.4375 49.3125 C57.54915466 49.31100952 56.66080933 49.30951904 55.74554443 49.3079834 C36.18180412 49.24887444 19.38726674 46.3082815 0 42 C0 28.14 0 14.28 0 0 Z " fill="#FECC01" transform="translate(686,1096)"/>
<path d="M0 0 C0.98613281 -0.02449219 1.97226562 -0.04898438 2.98828125 -0.07421875 C10.28367809 -0.10305431 17.65640405 0.87803417 23.40332031 5.78735352 C28.87793425 11.98748283 29.14160973 17.98149939 28.9921875 25.92578125 C28.55263069 32.18592097 27.20900672 36.31620821 22.625 40.6875 C13.56570459 47.54267818 2.66783497 47.42260729 -8.25 46.375 C-15.65760608 45.00704487 -20.25882698 42.1919392 -25.0078125 36.375 C-28.85026532 30.1884093 -27.86877156 21.38310941 -27.25 14.375 C-25.40783878 9.11605012 -21.94276036 5.35089682 -17.25 2.375 C-11.59450197 -0.10658578 -6.06612508 0.00780711 0 0 Z " fill="#03359D" transform="translate(935.25,850.625)"/>
<path d="M0 0 C1.75932861 -0.00447144 1.75932861 -0.00447144 3.55419922 -0.0090332 C8.34076943 0.31612464 11.7464231 0.66453746 15.27587891 4.07836914 C17.06863274 6.62286871 18.58068188 9.20249907 20.0625 11.9375 C20.8652028 13.09372555 21.68523302 14.23836144 22.53125 15.36328125 C23.2015625 16.31589844 23.871875 17.26851562 24.5625 18.25 C25.2534375 19.21550781 25.944375 20.18101563 26.65625 21.17578125 C28.35946154 24.52069948 28.07875554 25.40404771 27.0625 28.9375 C26.17151296 30.78719797 25.20753637 32.6027008 24.19140625 34.38671875 C23.61712891 35.39927734 23.04285156 36.41183594 22.45117188 37.45507812 C21.84853516 38.50115234 21.24589844 39.54722656 20.625 40.625 C20.02623047 41.68267578 19.42746094 42.74035156 18.81054688 43.83007812 C14.34637742 51.65362258 14.34637742 51.65362258 12.0625 53.9375 C8.0043539 54.55602026 3.91193268 54.53988271 -0.1875 54.625 C-1.32058594 54.69138672 -2.45367188 54.75777344 -3.62109375 54.82617188 C-11.78226397 54.97446981 -11.78226397 54.97446981 -14.88110352 52.19287109 C-16.45775026 49.8473579 -17.70108586 47.47727415 -18.9375 44.9375 C-19.85854368 43.45402494 -20.79445969 41.97966473 -21.74609375 40.515625 C-22.62503583 39.07452351 -23.50135634 37.63181971 -24.375 36.1875 C-24.83326172 35.45917969 -25.29152344 34.73085937 -25.76367188 33.98046875 C-26.19099609 33.27019531 -26.61832031 32.55992188 -27.05859375 31.828125 C-27.4445874 31.19938477 -27.83058105 30.57064453 -28.22827148 29.92285156 C-29.46377027 26.46430555 -28.25395082 23.75140132 -26.96728516 20.44213867 C-20.70914329 7.39510737 -15.25998315 -0.06857269 0 0 Z " fill="#0134A0" transform="translate(744.9375,1058.0625)"/>
<path d="M0 0 C3.25315069 0.9031669 6.12984717 2.16568439 9.18457031 3.61694336 C10.93128985 3.98694997 12.68087503 4.34405269 14.43457031 4.67944336 C17.00263731 5.62967688 17.9570842 6.27052833 19.46972656 8.57397461 C20.59397309 11.22001492 21.39764071 13.85176017 22.18457031 16.61694336 C22.56613281 17.7294043 22.94769531 18.84186523 23.34082031 19.98803711 C26.75491518 30.14958297 26.75491518 30.14958297 25.18457031 34.61694336 C23.72206972 37.19793591 22.06739804 39.62180572 20.37207031 42.05444336 C19.93314453 42.69704102 19.49421875 43.33963867 19.04199219 44.00170898 C18.17638589 45.26860677 17.30780452 46.53347776 16.43603516 47.79614258 C14.65705783 50.38444005 12.9201599 52.99939915 11.18457031 55.61694336 C4.7078111 54.8640105 -1.70481843 53.86160746 -8.12792969 52.74194336 C-9.11599609 52.58081055 -10.1040625 52.41967773 -11.12207031 52.25366211 C-12.06888672 52.08737305 -13.01570312 51.92108398 -13.99121094 51.74975586 C-14.84626221 51.60425293 -15.70131348 51.45875 -16.58227539 51.30883789 C-19.1169809 50.52351424 -20.16043211 49.66101391 -21.81542969 47.61694336 C-25.37940883 40.47588221 -29.71144482 30.71706703 -28.81542969 22.61694336 C-25.97700849 18.38129049 -22.37436767 14.75609491 -18.81542969 11.11694336 C-18.31733795 10.60471222 -17.81924622 10.09248108 -17.30606079 9.56472778 C-6.95176131 -0.86373783 -6.95176131 -0.86373783 0 0 Z " fill="#0235A0" transform="translate(697.8154296875,1023.383056640625)"/>
<path d="M0 0 C4.96891256 4.81104214 4.96891256 4.81104214 6.81689453 6.69287109 C8.25765033 8.14847753 9.73783001 9.55292997 11.2265625 10.95922852 C17.97971213 17.70764242 17.97971213 17.70764242 18.72607422 21.69726562 C18.50226184 24.03696583 18.02627651 25.99684305 17.26171875 28.21508789 C16.83246094 29.84510742 16.83246094 29.84510742 16.39453125 31.50805664 C16.06195312 32.46325195 15.729375 33.41844727 15.38671875 34.40258789 C15.05929687 35.36551758 14.731875 36.32844727 14.39453125 37.32055664 C14.02070312 38.27575195 13.646875 39.23094727 13.26171875 40.21508789 C12.95234375 41.26696289 12.64296875 42.31883789 12.32421875 43.40258789 C9.00189852 47.93302456 4.46628887 48.07825821 -0.86328125 49.02758789 C-1.87132812 49.23061523 -2.879375 49.43364258 -3.91796875 49.64282227 C-9.83915159 50.80481605 -15.73357115 51.63459097 -21.73828125 52.21508789 C-24.32551172 48.59969113 -26.84893892 44.9439643 -29.36328125 41.27758789 C-30.09546875 40.25600586 -30.82765625 39.23442383 -31.58203125 38.18188477 C-36.67828558 30.65769794 -36.67828558 30.65769794 -36.84082031 26.74951172 C-36.34484417 24.43903132 -35.62993059 22.40122191 -34.73828125 20.21508789 C-34.32073383 18.78213371 -33.91431181 17.34588701 -33.51953125 15.90649414 C-33.09628805 14.52900629 -32.66922382 13.15268647 -32.23828125 11.77758789 C-32.02558594 11.07182617 -31.81289063 10.36606445 -31.59375 9.63891602 C-29.98031705 4.45712369 -29.98031705 4.45712369 -27.73828125 2.21508789 C-25.9699707 1.62084961 -25.9699707 1.62084961 -23.8515625 1.14477539 C-23.07748047 0.97075195 -22.30339844 0.79672852 -21.50585938 0.61743164 C-20.69568359 0.4434082 -19.88550781 0.26938477 -19.05078125 0.09008789 C-18.25994141 -0.09166992 -17.46910156 -0.27342773 -16.65429688 -0.46069336 C-15.87376953 -0.63213867 -15.09324219 -0.80358398 -14.2890625 -0.98022461 C-13.58434814 -1.13507324 -12.87963379 -1.28992187 -12.15356445 -1.44946289 C-3.96779258 -2.58635267 -3.96779258 -2.58635267 0 0 Z " fill="#0235A1" transform="translate(801.73828125,1026.784912109375)"/>
<path d="M0 0 C22 0 22 0 27.875 5.8125 C29.18847656 7.73046875 29.18847656 7.73046875 30.015625 9.375 C31.93472279 12.96038031 34.17294668 16.06564319 36.625 19.3125 C37.73875 20.859375 38.8525 22.40625 40 24 C40.33 16.08 40.66 8.16 41 0 C46.61 0 52.22 0 58 0 C58 14.85 58 29.7 58 45 C37.91317671 47.11440245 37.91317671 47.11440245 32.69921875 43.33007812 C28.81022375 39.15343556 25.91611287 34.37807653 23.2824707 29.33349609 C21.69839208 26.45121482 19.8243524 23.7365286 18 21 C17.67 28.92 17.34 36.84 17 45 C11.39 45 5.78 45 0 45 C0 30.15 0 15.3 0 0 Z " fill="#03359D" transform="translate(836,851)"/>
<path d="M0 0 C8.64846465 3.37750691 16.47239592 9.47239592 23 16 C23.3962771 23.22838789 22.53104566 30.27189849 21.625 37.4375 C21.43550781 39.06848633 21.43550781 39.06848633 21.2421875 40.73242188 C21.11328125 41.76818359 20.984375 42.80394531 20.8515625 43.87109375 C20.73635254 44.80880615 20.62114258 45.74651855 20.50244141 46.71264648 C20 49 20 49 18 51 C16.23168945 51.59423828 16.23168945 51.59423828 14.11328125 52.0703125 C13.33919922 52.24433594 12.56511719 52.41835938 11.76757812 52.59765625 C10.95740234 52.77167969 10.14722656 52.94570313 9.3125 53.125 C8.52166016 53.30675781 7.73082031 53.48851562 6.91601562 53.67578125 C-4.92976212 56.27774399 -4.92976212 56.27774399 -10.31640625 52.953125 C-11.41232294 52.06902414 -12.49432185 51.16742201 -13.5625 50.25 C-14.64563391 49.35754955 -15.73026102 48.4669081 -16.81640625 47.578125 C-17.33992676 47.14306641 -17.86344727 46.70800781 -18.40283203 46.25976562 C-19.99688603 45.00245614 -21.63285451 43.89447977 -23.33984375 42.796875 C-26 41 -26 41 -27 39 C-29.3562004 19.85877735 -29.3562004 19.85877735 -25.15625 12.98046875 C-22.54759125 10.95380507 -19.93717913 9.50574429 -17 8 C-15.06768852 6.5202083 -13.15076954 5.02009416 -11.25 3.5 C-7.31982432 0.44058181 -5.00608192 -0.62576024 0 0 Z " fill="#0134A0" transform="translate(776,966)"/>
<path d="M0 0 C3.76984996 1.94897316 7.31379902 4.19598123 10.875 6.5 C11.83664062 7.10714844 12.79828125 7.71429687 13.7890625 8.33984375 C20.76185449 12.76185449 20.76185449 12.76185449 22 14 C23.36965694 21.92580884 25.14072595 33.24580307 20.50585938 40.26171875 C16.28257715 44.48065156 11.25668557 47.26749746 6 50 C5.08347656 50.59425781 4.16695312 51.18851563 3.22265625 51.80078125 C-0.46863373 53.79239114 -4.04931118 52.72876784 -8 52 C-9.90458984 51.66548828 -9.90458984 51.66548828 -11.84765625 51.32421875 C-22.67181772 49.32818228 -22.67181772 49.32818228 -25 47 C-25.59423828 44.80444336 -25.59423828 44.80444336 -26.0703125 42.08984375 C-26.24433594 41.09919922 -26.41835938 40.10855469 -26.59765625 39.08789062 C-26.77167969 38.04826172 -26.94570313 37.00863281 -27.125 35.9375 C-27.30675781 34.92494141 -27.48851562 33.91238281 -27.67578125 32.86914062 C-30.38930221 17.04706918 -30.38930221 17.04706918 -27.234375 12.3984375 C-8.90166556 -2.53292019 -8.90166556 -2.53292019 0 0 Z " fill="#0134A0" transform="translate(718,968)"/>
<path d="M0 0 C16.83 0 33.66 0 51 0 C51 4.95 51 9.9 51 15 C46.9594928 18.65872699 44.33478935 20.54800692 39.625 22.875 C38.00464844 23.76251953 38.00464844 23.76251953 36.3515625 24.66796875 C33.59197623 26.16849378 30.81331553 27.60362267 28 29 C27.34 29.33 26.68 29.66 26 30 C34.25 30.33 42.5 30.66 51 31 C51 35.62 51 40.24 51 45 C34.17 45 17.34 45 0 45 C0 40.38 0 35.76 0 31 C3.52683647 27.73636029 5.86951106 26.13573954 10 24 C11.74727144 22.94617539 13.47309018 21.86272945 15.19702148 20.77124023 C17.78005211 19.15181708 20.39312998 17.58076161 23 16 C11.615 15.505 11.615 15.505 0 15 C0 10.05 0 5.1 0 0 Z " fill="#05369D" transform="translate(531,851)"/>
<path d="M0 0 C8.58 0 17.16 0 26 0 C27.75998093 4.19509364 29.51986987 8.39022566 31.27954102 12.58544922 C31.87584401 14.00702016 32.47219661 15.4285703 33.06860352 16.85009766 C33.35598389 17.53507324 33.64336426 18.22004883 33.93945312 18.92578125 C34.22571564 19.60805786 34.51197815 20.29033447 34.80691528 20.99328613 C35.37990721 22.35985614 35.95239854 23.72663616 36.52438354 25.09362793 C37.85506546 28.27379658 39.19182762 31.4508587 40.54150391 34.62304688 C40.99831543 35.70134766 41.45512695 36.77964844 41.92578125 37.890625 C42.32837158 38.83454102 42.73096191 39.77845703 43.14575195 40.75097656 C44 43 44 43 44 45 C37.73 45 31.46 45 25 45 C23 40 23 40 23 37 C16.73 37.33 10.46 37.66 4 38 C3.01 40.31 2.02 42.62 1 45 C-4.94 45 -10.88 45 -17 45 C-16.19090601 40.14543604 -15.28538707 36.85217277 -13.41796875 32.421875 C-13.16251785 31.81039612 -12.90706696 31.19891724 -12.64387512 30.56890869 C-11.83106378 28.62669703 -11.0095955 26.68829755 -10.1875 24.75 C-9.37809319 22.82520001 -8.57050348 20.89964608 -7.76325989 18.97393799 C-7.02500382 17.21545495 -6.28253375 15.45874277 -5.53979492 13.70214844 C-3.64786453 9.15335624 -1.82967535 4.57418836 0 0 Z " fill="#03359D" transform="translate(778,851)"/>
<path d="M0 0 C5.61 0 11.22 0 17 0 C17.02578125 1.83046875 17.0515625 3.6609375 17.078125 5.546875 C17.13439998 7.94794071 17.19174744 10.34898145 17.25 12.75 C17.26417969 13.9565625 17.27835938 15.163125 17.29296875 16.40625 C17.32519531 17.56640625 17.35742188 18.7265625 17.390625 19.921875 C17.41157227 20.99018555 17.43251953 22.05849609 17.45410156 23.15917969 C18.12582799 26.65480077 19.20405561 27.85521801 22 30 C25.13014278 30.63213261 25.13014278 30.63213261 28.5 30.5 C29.6240625 30.5103125 30.748125 30.520625 31.90625 30.53125 C35.69316527 29.88097162 36.65002681 28.98940475 39 26 C39.63828469 23.11126112 39.63828469 23.11126112 39.609375 19.921875 C39.64160156 18.76171875 39.67382812 17.6015625 39.70703125 16.40625 C39.72121094 15.1996875 39.73539063 13.993125 39.75 12.75 C39.77964844 11.52796875 39.80929687 10.3059375 39.83984375 9.046875 C39.91051413 6.03160555 39.95752397 3.01579839 40 0 C45.61 0 51.22 0 57 0 C57.08122319 4.50036622 57.14061723 8.99925368 57.1875 13.5 C57.21263672 14.7684375 57.23777344 16.036875 57.26367188 17.34375 C57.32555497 25.26478652 57.295239 31.70020777 52.30859375 38.20703125 C42.91773486 46.26474107 32.82182699 46.82884493 20.90283203 46.1640625 C13.59687475 45.53414163 7.736709 42.6158398 3 37 C-0.92697885 29.65310553 -0.34881985 21.5241746 -0.1875 13.4375 C-0.17396484 12.14263672 -0.16042969 10.84777344 -0.14648438 9.51367188 C-0.11137656 6.34226635 -0.0575784 3.17107715 0 0 Z " fill="#05369C" transform="translate(597,851)"/>
<path d="M0 0 C5.61 0 11.22 0 17 0 C17 10.23 17 20.46 17 31 C26.57 31 36.14 31 46 31 C46 35.62 46 40.24 46 45 C30.82 45 15.64 45 0 45 C0 30.15 0 15.3 0 0 Z " fill="#04359D" transform="translate(669,851)"/>
<path d="M0 0 C6.9929968 4.30036626 13.62626924 8.82232736 20 14 C19.38100727 19.35991428 18.15303188 24.24587823 16.5 29.375 C16.27441406 30.09816406 16.04882812 30.82132813 15.81640625 31.56640625 C14.13699777 36.86300223 14.13699777 36.86300223 13 38 C11.14630389 38.08737645 9.28932459 38.10698153 7.43359375 38.09765625 C6.30888672 38.09443359 5.18417969 38.09121094 4.02539062 38.08789062 C2.84138672 38.07951172 1.65738281 38.07113281 0.4375 38.0625 C-0.75037109 38.05798828 -1.93824219 38.05347656 -3.16210938 38.04882812 C-6.10812226 38.03699675 -9.05403681 38.02051287 -12 38 C-14.21767713 32.54152107 -16.39486156 27.09486197 -18.25 21.5 C-18.58515625 20.4996875 -18.9203125 19.499375 -19.265625 18.46875 C-20 16 -20 16 -20 14 C-18.48706055 12.703125 -18.48706055 12.703125 -16.38671875 11.25 C-15.2565332 10.46109375 -15.2565332 10.46109375 -14.10351562 9.65625 C-13.30623047 9.1096875 -12.50894531 8.563125 -11.6875 8 C-10.50897461 7.18015625 -10.50897461 7.18015625 -9.30664062 6.34375 C-6.22192565 4.2015139 -3.12491281 2.08327521 0 0 Z " fill="#0134A0" transform="translate(744,1013)"/>
<path d="M0 0 C5.61 0 11.22 0 17 0 C17 14.85 17 29.7 17 45 C11.39 45 5.78 45 0 45 C0 30.15 0 15.3 0 0 Z " fill="#04369D" transform="translate(729,851)"/>
<path d="M0 0 C3.856875 -0.0825 7.71375 -0.165 11.6875 -0.25 C13.4986731 -0.30462402 13.4986731 -0.30462402 15.34643555 -0.36035156 C23.26003274 -0.44252944 23.26003274 -0.44252944 27.1875 1.90625 C30.6216242 5.87325554 31.41045799 8.58728501 31.25 13.97265625 C30.85561554 17.17086771 29.79124293 19.3440191 28 22 C24.38950114 24.62578203 21.91770475 25.36733583 17.48046875 25.29296875 C16.55903076 25.28547607 15.63759277 25.2779834 14.68823242 25.27026367 C13.53299072 25.24295166 12.37774902 25.21563965 11.1875 25.1875 C7.495625 25.125625 3.80375 25.06375 0 25 C0 16.75 0 8.5 0 0 Z " fill="#0639A2" transform="translate(452,248)"/>
<path d="M0 0 C1.27746094 -0.00773438 2.55492187 -0.01546875 3.87109375 -0.0234375 C8.72649017 0.50063703 12.1792144 1.80727632 15.4375 5.5 C17.02143046 9.54782228 17.24210296 13.08595022 16.5625 17.375 C14.89403215 20.7737308 13.76141861 22.7497575 10.3828125 24.51171875 C6.87891414 25.58424165 3.78781069 25.71311369 0.125 25.75 C-1.15246094 25.77835937 -2.42992187 25.80671875 -3.74609375 25.8359375 C-8.05178657 25.29829543 -10.13393103 24.14824641 -13.4375 21.375 C-16.1908575 17.36795234 -15.97453246 13.06564287 -15.4375 8.375 C-12.48924011 1.23710763 -7.27808919 -0.04397637 0 0 Z " fill="#073AA3" transform="translate(674.4375,247.625)"/>
<path d="M0 0 C1.30453125 -0.02578125 2.6090625 -0.0515625 3.953125 -0.078125 C8.87804957 0.34748577 12.11402512 1.58986516 15.6015625 5.12890625 C17.69187025 8.98957669 17.25511353 12.98767214 16.75 17.25 C15.01489742 21.54209586 12.87194744 23.25874799 8.75 25.25 C5.98542385 25.53892087 3.50336016 25.67072 0.75 25.625 C-0.29800781 25.64240234 -0.29800781 25.64240234 -1.3671875 25.66015625 C-5.83876438 25.63484544 -8.71683984 25.01677615 -12.25 22.25 C-15.49599479 17.38100781 -14.96989239 11.93786264 -14.25 6.25 C-11.07025862 0.41062364 -6.08563793 0.07159574 0 0 Z " fill="#0538A2" transform="translate(1019.25,247.75)"/>
<path d="M0 0 C3.856875 -0.0825 7.71375 -0.165 11.6875 -0.25 C13.4986731 -0.30462402 13.4986731 -0.30462402 15.34643555 -0.36035156 C23.24953071 -0.44242038 23.24953071 -0.44242038 27.20703125 1.890625 C30.14721459 5.34966422 30.27018821 7.49686318 30 12 C28.6 15.7 28.6 15.7 26 17 C26.62759865 19.92879371 27.58622659 22.36095629 29 25 C23.67988107 25.34886026 23.67988107 25.34886026 21 25 C19 23.125 19 23.125 18 21 C18 20.34 18 19.68 18 19 C14.37 19 10.74 19 7 19 C7 20.98 7 22.96 7 25 C4.69 25 2.38 25 0 25 C0 16.75 0 8.5 0 0 Z " fill="#0C3EA5" transform="translate(729,248)"/>
<path d="M0 0 C3.856875 -0.0825 7.71375 -0.165 11.6875 -0.25 C13.4986731 -0.30462402 13.4986731 -0.30462402 15.34643555 -0.36035156 C23.16154236 -0.44150668 23.16154236 -0.44150668 27.234375 1.703125 C29.29038108 4.37775238 29.64920149 5.65434247 29.5625 9 C29.56443359 10.2684375 29.56443359 10.2684375 29.56640625 11.5625 C28.77711685 14.9591661 27.9131784 16.04893121 25 18 C21.89960574 18.47773489 18.87730517 18.37704677 15.75 18.25 C14.90953125 18.23195313 14.0690625 18.21390625 13.203125 18.1953125 C11.13492605 18.14830798 9.06731559 18.07656724 7 18 C7 20.31 7 22.62 7 25 C4.69 25 2.38 25 0 25 C0 16.75 0 8.5 0 0 Z " fill="#0236A1" transform="translate(591,248)"/>
<path d="M0 0 C8.91 0 17.82 0 27 0 C27 1.65 27 3.3 27 5 C20.4 5 13.8 5 7 5 C7 6.65 7 8.3 7 10 C13.6 10 20.2 10 27 10 C27 11.65 27 13.3 27 15 C20.4 15 13.8 15 7 15 C7 16.65 7 18.3 7 20 C13.6 20 20.2 20 27 20 C27 21.65 27 23.3 27 25 C18.09 25 9.18 25 0 25 C0 16.75 0 8.5 0 0 Z " fill="#0235A1" transform="translate(523,248)"/>
<path d="M0 0 C5.28 0 10.56 0 16 0 C26 19.14285714 26 19.14285714 26 27 C24.02 27 22.04 27 20 27 C20.44472656 28.05960938 20.88945312 29.11921875 21.34765625 30.2109375 C21.91967696 31.59879101 22.49126944 32.98682108 23.0625 34.375 C23.35705078 35.07367187 23.65160156 35.77234375 23.95507812 36.4921875 C24.69591098 38.30504908 25.35396964 40.15123143 26 42 C25.67 42.66 25.34 43.32 25 44 C12.66541273 28.88853069 12.66541273 28.88853069 7.6875 22.625 C7.15511719 21.95726562 6.62273437 21.28953125 6.07421875 20.6015625 C5 19 5 19 5 17 C6.98 16.67 8.96 16.34 11 16 C10.37351562 15.18015625 9.74703125 14.3603125 9.1015625 13.515625 C8.27587067 12.42721304 7.45035932 11.33866413 6.625 10.25 C6.2125 9.71117187 5.8 9.17234375 5.375 8.6171875 C3.24191283 5.7960077 1.59269724 3.18539448 0 0 Z " fill="#09399A" transform="translate(487,854)"/>
<path d="M0 0 C5.61 0 11.22 0 17 0 C12.93645416 6.24398507 8.65009383 12.18050387 4 18 C6.31 18 8.62 18 11 18 C8.20194957 23.07338815 4.62111765 27.51231705 1.0625 32.0625 C0.44181641 32.86494141 -0.17886719 33.66738281 -0.81835938 34.49414062 C-1.42357422 35.27080078 -2.02878906 36.04746094 -2.65234375 36.84765625 C-3.47206665 37.8996521 -3.47206665 37.8996521 -4.30834961 38.97290039 C-6.09408542 41.11274228 -8.00226067 43.05836623 -10 45 C-8.06375702 38.79522136 -5.74390859 32.89174281 -3 27 C-5.31 27 -7.62 27 -10 27 C-9.37344935 23.33597797 -8.35781607 20.12938799 -6.93359375 16.69921875 C-6.3293457 15.23452148 -6.3293457 15.23452148 -5.71289062 13.74023438 C-5.29201172 12.73283203 -4.87113281 11.72542969 -4.4375 10.6875 C-4.01275391 9.66076172 -3.58800781 8.63402344 -3.15039062 7.57617188 C-2.10430221 5.04910435 -1.05268834 2.52432536 0 0 Z " fill="#06389B" transform="translate(992,854)"/>
<path d="M0 0 C3.742713 1.247571 4.24176725 2.86612659 5.95678711 6.26782227 C6.30104736 6.98381592 6.64530762 7.69980957 7 8.4375 C7.35521729 9.16960693 7.71043457 9.90171387 8.07641602 10.65600586 C13.06681006 21.14034797 14.55276022 30.43345399 15 42 C10.94083514 38.63175682 6.97929772 35.16395579 3.125 31.5625 C2.36445312 30.86253906 1.60390625 30.16257812 0.8203125 29.44140625 C-3.48853342 23.6623747 -1.84333232 16.2989975 -1.0625 9.5625 C-0.96259766 8.64017578 -0.86269531 7.71785156 -0.75976562 6.76757812 C-0.51420423 4.51075195 -0.26078192 2.2551093 0 0 Z " fill="#063AA3" transform="translate(806,993)"/>
<path d="M0 0 C2.64 0 5.28 0 8 0 C9.34070318 2.60060504 10.67273354 5.20504916 12 7.8125 C12.3815625 8.55048828 12.763125 9.28847656 13.15625 10.04882812 C13.5171875 10.76103516 13.878125 11.47324219 14.25 12.20703125 C14.58515625 12.8616333 14.9203125 13.51623535 15.265625 14.19067383 C16 16 16 16 16 19 C16.66 19 17.32 19 18 19 C18.25523437 18.15179688 18.51046875 17.30359375 18.7734375 16.4296875 C20.08494484 12.76247907 21.74643123 9.53425443 23.625 6.125 C24.25664063 4.97257813 24.88828125 3.82015625 25.5390625 2.6328125 C26.02117188 1.76398438 26.50328125 0.89515625 27 0 C29.31 0 31.62 0 34 0 C32.37317535 5.70323584 29.66802013 10.68013903 26.875 15.875 C26.40707031 16.75414062 25.93914063 17.63328125 25.45703125 18.5390625 C24.30880892 20.6949085 23.15496508 22.8477588 22 25 C18.7 25 15.4 25 12 25 C9.99679122 21.02244073 7.99797111 17.04269245 6 13.0625 C5.42765625 11.92619141 4.8553125 10.78988281 4.265625 9.61914062 C3.72421875 8.53955078 3.1828125 7.45996094 2.625 6.34765625 C2.12226562 5.34742432 1.61953125 4.34719238 1.1015625 3.31665039 C0 1 0 1 0 0 Z " fill="#073BA3" transform="translate(934,248)"/>
<path d="M0 0 C0.66 0 1.32 0 2 0 C2.50720912 2.85305129 3.00593634 5.70716814 3.5 8.5625 C3.64308594 9.36236328 3.78617188 10.16222656 3.93359375 10.98632812 C4.3336159 13.31979068 4.67456969 15.65510805 5 18 C5.18304687 19.1859375 5.36609375 20.371875 5.5546875 21.59375 C4.69766868 26.85656981 1.4264257 29.40314526 -2.375 32.9375 C-3.07367187 33.62134766 -3.77234375 34.30519531 -4.4921875 35.00976562 C-9.67684659 40 -9.67684659 40 -12 40 C-11.21892291 24.80939737 -7.08295635 13.25740999 0 0 Z " fill="#0B3DA4" transform="translate(680,994)"/>
<path d="M0 0 C3.25 1.4375 3.25 1.4375 5 4 C5.6807629 7.14420152 5.92700172 9.90272367 5 13 C2.32928556 15.82262664 0.65999271 16.89013585 -3.19140625 17.53125 C-4.30386719 17.5209375 -5.41632812 17.510625 -6.5625 17.5 C-7.67753906 17.5103125 -8.79257812 17.520625 -9.94140625 17.53125 C-13.63292015 16.89006751 -14.81631125 16.00910221 -17 13 C-17.78944538 9.90755187 -17.62403729 7.12018644 -17 4 C-13.14256351 -1.64838914 -6.1558971 -0.80774893 0 0 Z " fill="#FBCB02" transform="translate(942,865)"/>
<path d="M0 0 C3.04517028 0.39798265 6.08469118 0.81758071 9.125 1.25 C9.9809375 1.35957031 10.836875 1.46914062 11.71875 1.58203125 C17.04717389 2.3608009 20.86752991 3.31201071 25 7 C26.87799974 9.58674542 28.38864015 12.29889403 29.875 15.125 C30.2771875 15.85332031 30.679375 16.58164063 31.09375 17.33203125 C34 22.67992666 34 22.67992666 34 25 C21.89418705 21.62624885 12.95046355 14.63137394 4 6 C3.24589844 5.29230469 2.49179687 4.58460937 1.71484375 3.85546875 C0 2 0 2 0 0 Z " fill="#073BA3" transform="translate(685,1083)"/>
<path d="M0 0 C0 4.03031789 -1.32506122 4.78904915 -4.125 7.625 C-12.34735018 15.5907662 -21.8149935 22.10732591 -33 25 C-31.57310866 20.07760235 -29.50863083 16.05651015 -26.8125 11.75 C-26.45091797 11.12609375 -26.08933594 10.5021875 -25.71679688 9.859375 C-23.68143816 6.60840618 -22.28342543 5.11323616 -18.6953125 3.6796875 C-17.47585938 3.45539063 -16.25640625 3.23109375 -15 3 C-13.67809107 2.71751977 -12.35648033 2.43364089 -11.03515625 2.1484375 C-9.71152539 1.88762354 -8.38729807 1.62981886 -7.0625 1.375 C-6.37865234 1.2409375 -5.69480469 1.106875 -4.99023438 0.96875 C-3.32734617 0.64314951 -1.66374639 0.32118656 0 0 Z " fill="#0539A3" transform="translate(803,1083)"/>
<path d="M0 0 C1.07572266 -0.00386719 2.15144531 -0.00773438 3.25976562 -0.01171875 C4.81920898 -0.00978516 4.81920898 -0.00978516 6.41015625 -0.0078125 C7.82180054 -0.00612061 7.82180054 -0.00612061 9.26196289 -0.00439453 C11.91476214 0.12390035 14.35164345 0.53486798 16.9375 1.125 C16.9375 1.785 16.9375 2.445 16.9375 3.125 C15.25624988 4.32042478 13.51501917 5.43212843 11.75 6.5 C8.72578353 8.33801108 6.02498993 10.04648683 3.38671875 12.4140625 C0.9375 14.125 0.9375 14.125 -1.35546875 14.19140625 C-5.33943855 12.6219636 -8.79302604 10.3896627 -12.375 8.0625 C-13.11556641 7.59005859 -13.85613281 7.11761719 -14.61914062 6.63085938 C-16.43801219 5.46912851 -18.2508659 4.29798518 -20.0625 3.125 C-15.32358464 -1.61391536 -6.29064914 -0.02269627 0 0 Z " fill="#0539A2" transform="translate(745.0625,959.875)"/>
<path d="M0 0 C9.9 0 19.8 0 30 0 C30 1.65 30 3.3 30 5 C26.04 5 22.08 5 18 5 C18 11.6 18 18.2 18 25 C16.02 25 14.04 25 12 25 C12 18.4 12 11.8 12 5 C8.04 5 4.08 5 0 5 C0 3.35 0 1.7 0 0 Z " fill="#0033A0" transform="translate(798,248)"/>
<path d="M0 0 C11.51665058 -0.27750965 11.51665058 -0.27750965 16 2 C17.50934217 5.01868434 17.17510672 7.67297229 17 11 C15 14 15 14 12 15 C7.99616868 15.13399703 4.0072645 15.04308887 0 15 C0 10.05 0 5.1 0 0 Z " fill="#F0F3F9" transform="translate(459,253)"/>
<path d="M0 0 C3.0625 1.5625 3.0625 1.5625 5 4 C5.62199068 7.87016423 5.55866253 10.0096437 3.625 13.4375 C-0.46077803 15.86951073 -4.37118195 15.73815039 -9 15 C-11.625 13.5 -11.625 13.5 -13 11 C-13.5612502 8.03253884 -13.39379906 6.10116763 -13 3 C-10.00199954 -1.17113108 -4.671522 -0.73148387 0 0 Z " fill="#F3F6FA" transform="translate(679,253)"/>
<path d="M0 0 C2.34305385 2.41627428 2.42252168 3.28554825 2.625 6.5625 C2.42252168 9.83945175 2.34305385 10.70872572 0 13.125 C-5.1791986 14.74349956 -9.1134843 15.04506026 -14 12.5 C-16 10.0625 -16 10.0625 -16.625 6.5625 C-16 3.0625 -16 3.0625 -14 0.625 C-9.1134843 -1.92006026 -5.1791986 -1.61849956 0 0 Z " fill="#F4F6FB" transform="translate(1027,253.9375)"/>
<path d="M0 0 C1.98 0 3.96 0 6 0 C6 8.25 6 16.5 6 25 C4.02 25 2.04 25 0 25 C0 16.75 0 8.5 0 0 Z " fill="#0033A0" transform="translate(879,248)"/>
<path d="M0 0 C2.10388569 -0.05402274 4.20816714 -0.09280256 6.3125 -0.125 C8.07013672 -0.15980469 8.07013672 -0.15980469 9.86328125 -0.1953125 C13 0 13 0 16 2 C15.125 6.875 15.125 6.875 14 8 C11.64686445 8.07271741 9.29166332 8.08370868 6.9375 8.0625 C5.64714844 8.05347656 4.35679687 8.04445313 3.02734375 8.03515625 C2.02832031 8.02355469 1.02929688 8.01195312 0 8 C0 5.36 0 2.72 0 0 Z " fill="#E5EBF5" transform="translate(598,253)"/>
<path d="M0 0 C4.95 0 9.9 0 15 0 C15.33 1.65 15.66 3.3 16 5 C14 7 14 7 10.7421875 7.1953125 C9.46601562 7.17210937 8.18984375 7.14890625 6.875 7.125 C4.95300781 7.09792969 4.95300781 7.09792969 2.9921875 7.0703125 C1.51105469 7.03550781 1.51105469 7.03550781 0 7 C0 4.69 0 2.38 0 0 Z " fill="#F4F7FB" transform="translate(736,254)"/>
<path d="M0 0 C0.66 0 1.32 0 2 0 C2.50833591 1.24663331 3.00631145 2.49749387 3.5 3.75 C3.7784375 4.44609375 4.056875 5.1421875 4.34375 5.859375 C5 8 5 8 5 12 C2.36 12 -0.28 12 -3 12 C-2.40075776 7.80530429 -1.42500059 3.99000166 0 0 Z " fill="#EFC30A" transform="translate(790,864)"/>
</svg>
