<?xml version="1.0" encoding="UTF-8"?>
<svg version="1.1" xmlns="http://www.w3.org/2000/svg" width="150" height="150">
<path d="M0 0 C2.26685452 1.68622161 4.37461281 3.45620684 6.4765625 5.34375 C7.70826172 6.43623047 7.70826172 6.43623047 8.96484375 7.55078125 C22.24806842 20.02774039 31.07984821 37.58848816 31.8125 55.9453125 C32.13371051 77.23647878 28.10626638 96.0522542 13.4765625 112.34375 C12.74824219 113.16488281 12.01992187 113.98601562 11.26953125 114.83203125 C-1.20742789 128.11525592 -18.76817566 136.94703571 -37.125 137.6796875 C-58.41616628 138.00089801 -77.2319417 133.97345388 -93.5234375 119.34375 C-94.34457031 118.61542969 -95.16570312 117.88710937 -96.01171875 117.13671875 C-109.29494342 104.65975961 -118.12672321 87.09901184 -118.859375 68.7421875 C-119.18058551 47.45102122 -115.15314138 28.6352458 -100.5234375 12.34375 C-99.79511719 11.52261719 -99.06679687 10.70148437 -98.31640625 9.85546875 C-72.64852592 -17.47107913 -30.68115209 -20.13747444 0 0 Z " fill="#FDFDFD" transform="translate(118.5234375,12.65625)"/>
<path d="M0 0 C49.5 0 99 0 150 0 C147.95627304 18.39354267 141.12263221 32.85508828 128 46 C127.31292969 46.69867188 126.62585938 47.39734375 125.91796875 48.1171875 C109.92910399 63.36445371 90.55387223 67.54531447 69.109375 67.2734375 C52.78329759 66.7679397 37.12891265 59.89171938 25 49 C24.17886719 48.27167969 23.35773437 47.54335937 22.51171875 46.79296875 C10.30241187 35.32474271 2.87203534 20.44892966 0 4 C0 2.68 0 1.36 0 0 Z " fill="#0037A7" transform="translate(0,83)"/>
<path d="M0 0 C49.5 0 99 0 150 0 C149 9 149 9 146 17 C99.14 17 52.28 17 4 17 C1 9 1 9 0 0 Z " fill="#063CA9" transform="translate(0,83)"/>
<path d="M0 0 C46.86 0 93.72 0 142 0 C137.30131343 14.09605971 137.30131343 14.09605971 134 17 C129.99918746 18.19652866 126.11309743 18.11398373 121.96118164 18.06689453 C120.74113937 18.08412567 119.52109711 18.10135681 118.26408386 18.11911011 C114.92388534 18.15671261 111.58765847 18.15823685 108.24755406 18.14046717 C105.45671476 18.13023292 102.66622996 18.14484363 99.87542719 18.15941131 C93.2897634 18.19339462 86.70502652 18.18629571 80.11938477 18.15283203 C73.33210785 18.11898903 66.54740337 18.15065164 59.76040751 18.21527779 C53.92652236 18.26871718 48.0934369 18.28321013 42.25933164 18.26624763 C38.77772038 18.25640093 35.29765649 18.2607445 31.81624031 18.30182266 C27.93254496 18.34545522 24.05193542 18.30769621 20.16821289 18.26220703 C19.01944672 18.28559143 17.87068054 18.30897583 16.68710327 18.33306885 C9.1234457 18.15268867 9.1234457 18.15268867 5.98806572 14.93569565 C2.91389961 10.05611609 1.60955699 5.63344945 0 0 Z " fill="#F9FAFC" transform="translate(4,100)"/>
<path d="M0 0 C2.58926331 2.58926331 2.37398043 4.02705279 2.625 7.625 C2.69976562 8.62789062 2.77453125 9.63078125 2.8515625 10.6640625 C2.90054688 11.43492188 2.94953125 12.20578125 3 13 C5.15414768 12.20182667 5.15414768 12.20182667 5.7109375 10.1875 C6.15320873 8.73060655 6.59072282 7.27226038 7.0234375 5.8125 C7.50683594 4.9153125 7.50683594 4.9153125 8 4 C9.32 3.67 10.64 3.34 12 3 C11.67 7.29 11.34 11.58 11 16 C16.445 12.535 16.445 12.535 22 9 C20.31482096 13.2129476 18.56523798 16.32315889 16 20 C16.86625 19.67 17.7325 19.34 18.625 19 C21.95718275 18.01268659 24.55159538 17.83579026 28 18 C28.495 18.99 28.495 18.99 29 20 C28.278125 20.226875 27.55625 20.45375 26.8125 20.6875 C23.46790687 22.24831013 21.48396041 24.3031287 19 27 C22.96 27.99 26.92 28.98 31 30 C28.14521674 31.90318884 26.58058692 32.4619099 23.3125 33.125 C22.10013672 33.37636719 22.10013672 33.37636719 20.86328125 33.6328125 C20.24839844 33.75398438 19.63351563 33.87515625 19 34 C19.95712891 34.47179688 19.95712891 34.47179688 20.93359375 34.953125 C21.75988281 35.38109375 22.58617187 35.8090625 23.4375 36.25 C24.26121094 36.66765625 25.08492187 37.0853125 25.93359375 37.515625 C28 39 28 39 28.78515625 41.171875 C28.85605469 41.77515625 28.92695312 42.3784375 29 43 C28.01 42.505 28.01 42.505 27 42 C25.33727297 41.79777644 23.66945815 41.63588613 22 41.5 C17.22222222 41.11111111 17.22222222 41.11111111 15 40 C15.433125 40.62648437 15.86625 41.25296875 16.3125 41.8984375 C16.869375 42.71570312 17.42625 43.53296875 18 44.375 C18.556875 45.18710937 19.11375 45.99921875 19.6875 46.8359375 C21 49 21 49 21 51 C16.89041233 49.54955729 13.56741255 47.48889248 10 45 C10.30035156 45.51949219 10.60070313 46.03898437 10.91015625 46.57421875 C14.05488851 52.34133791 14.05488851 52.34133791 13.75 56 C13.5025 56.66 13.255 57.32 13 58 C10 55 7 52 4 49 C3.01 52.96 2.02 56.92 1 61 C-0.90318884 58.14521674 -1.4619099 56.58058692 -2.125 53.3125 C-2.29257812 52.50425781 -2.46015625 51.69601563 -2.6328125 50.86328125 C-2.75398438 50.24839844 -2.87515625 49.63351563 -3 49 C-3.25394531 49.56589844 -3.50789063 50.13179687 -3.76953125 50.71484375 C-4.11371094 51.44832031 -4.45789063 52.18179688 -4.8125 52.9375 C-5.14894531 53.66839844 -5.48539063 54.39929688 -5.83203125 55.15234375 C-7 57 -7 57 -10 58 C-10 54.04 -10 50.08 -10 46 C-12.97 47.98 -15.94 49.96 -19 52 C-19.66 51.67 -20.32 51.34 -21 51 C-18.69 47.7 -16.38 44.4 -14 41 C-14.86625 41.309375 -15.7325 41.61875 -16.625 41.9375 C-19.76150738 42.92491899 -22.75067413 43.53581059 -26 44 C-26.33 43.34 -26.66 42.68 -27 42 C-26.443125 41.79375 -25.88625 41.5875 -25.3125 41.375 C-22.07498698 39.44999226 -20.31768859 36.96149098 -18 34 C-21.96 33.01 -25.92 32.02 -30 31 C-26.80107719 29.4005386 -24.64537424 28.57404764 -21.25 27.875 C-20.45078125 27.70742188 -19.6515625 27.53984375 -18.828125 27.3671875 C-18.22484375 27.24601562 -17.6215625 27.12484375 -17 27 C-17.95712891 26.61908203 -17.95712891 26.61908203 -18.93359375 26.23046875 C-19.75988281 25.88628906 -20.58617187 25.54210937 -21.4375 25.1875 C-22.67306641 24.68283203 -22.67306641 24.68283203 -23.93359375 24.16796875 C-26 23 -26 23 -27 20 C-25.20841511 19.97303635 -23.41671527 19.95362083 -21.625 19.9375 C-20.62726562 19.92589844 -19.62953125 19.91429688 -18.6015625 19.90234375 C-16 20 -16 20 -14 21 C-13.67 19.68 -13.34 18.36 -13 17 C-11.35 17.33 -9.7 17.66 -8 18 C-8 16.35 -8 14.7 -8 13 C-6.68 13.99 -5.36 14.98 -4 16 C-2.93222008 12.79666025 -2.18719717 9.60464842 -1.4375 6.3125 C-1.16808594 5.13300781 -0.89867188 3.95351562 -0.62109375 2.73828125 C-0.41613281 1.83464844 -0.21117188 0.93101563 0 0 Z " fill="#D3B016" transform="translate(41,11)"/>
<path d="M0 0 C31.02 0 62.04 0 94 0 C94 0.66 94 1.32 94 2 C75.84768646 15.45826192 54.84690291 19.44364992 32.65625 16.71142578 C21.07202376 14.66827982 9.43522958 8.9238978 0 2 C0 1.34 0 0.68 0 0 Z " fill="#FEFEFE" transform="translate(28,133)"/>
<path d="M0 0 C20.79 0 41.58 0 63 0 C66 8 66 8 67 17 C44.89 17 22.78 17 0 17 C0 11.39 0 5.78 0 0 Z " fill="#073DAA" transform="translate(83,50)"/>
<path d="M0 0 C1.20462891 1.22976562 1.20462891 1.22976562 2.43359375 2.484375 C3.09488281 3.23203125 3.75617188 3.9796875 4.4375 4.75 C5.45650391 5.88695312 5.45650391 5.88695312 6.49609375 7.046875 C8 9 8 9 8 11 C-9.82 11 -27.64 11 -46 11 C-46 5.72 -46 0.44 -46 -5 C-40.57513275 -5.29245185 -35.15047395 -5.54336713 -29.72192383 -5.75683594 C-27.87766191 -5.83510185 -26.03383521 -5.92447627 -24.19067383 -6.02539062 C-21.53244576 -6.16896222 -18.87518448 -6.27179125 -16.21484375 -6.3671875 C-15.39789536 -6.42002899 -14.58094696 -6.47287048 -13.73924255 -6.52731323 C-7.33557144 -6.69534043 -4.3080324 -4.59800662 0 0 Z " fill="#0139A8" transform="translate(129,22)"/>
<path d="M0 0 C0.85722656 0.6290625 1.71445313 1.258125 2.59765625 1.90625 C2.59765625 2.56625 2.59765625 3.22625 2.59765625 3.90625 C-10.27234375 3.90625 -23.14234375 3.90625 -36.40234375 3.90625 C-36.40234375 3.57625 -36.40234375 3.24625 -36.40234375 2.90625 C-26.50234375 2.57625 -16.60234375 2.24625 -6.40234375 1.90625 C-25.07383062 -7.3422435 -44.90133332 -12.39190458 -65.46484375 -5.78125 C-71.77816287 -3.59152806 -71.77816287 -3.59152806 -77.40234375 -0.09375 C-78.53900516 2.69935939 -78.53900516 2.69935939 -79.02734375 5.84375 C-79.82175706 10.00668207 -80.59345438 12.68611439 -83.40234375 15.90625 C-84.06234375 14.58625 -84.72234375 13.26625 -85.40234375 11.90625 C-85.73234375 13.22625 -86.06234375 14.54625 -86.40234375 15.90625 C-88.33984375 16.46875 -88.33984375 16.46875 -90.40234375 16.90625 C-90.73234375 16.57625 -91.06234375 16.24625 -91.40234375 15.90625 C-91.73234375 16.89625 -92.06234375 17.88625 -92.40234375 18.90625 C-94.19368353 18.96016993 -95.98548274 18.99900571 -97.77734375 19.03125 C-98.77507812 19.05445313 -99.7728125 19.07765625 -100.80078125 19.1015625 C-103.40234375 18.90625 -103.40234375 18.90625 -105.40234375 16.90625 C-103.09968542 14.21164983 -100.7597355 11.55306411 -98.40234375 8.90625 C-97.88542969 8.30941406 -97.36851563 7.71257813 -96.8359375 7.09765625 C-71.54207818 -20.35156952 -29.39806448 -18.09111661 0 0 Z " fill="#D8DADE" transform="translate(119.40234375,13.09375)"/>
<path d="M0 0 C31.02 0 62.04 0 94 0 C94 0.66 94 1.32 94 2 C75.84768646 15.45826192 54.84690291 19.44364992 32.65625 16.71142578 C21.07202376 14.66827982 9.43522958 8.9238978 0 2 C0 1.34 0 0.68 0 0 Z M8 1 C17.77123013 10.77123013 33.0431037 13.26881624 46.3125 13.4375 C61.11742307 13.34189988 73.12364016 9.06314962 86 2 C86 1.67 86 1.34 86 1 C60.26 1 34.52 1 8 1 Z " fill="#D2D6DE" transform="translate(28,133)"/>
<path d="M0 0 C2.58926331 2.58926331 2.37398043 4.02705279 2.625 7.625 C2.69976562 8.62789062 2.77453125 9.63078125 2.8515625 10.6640625 C2.90054688 11.43492188 2.94953125 12.20578125 3 13 C3.99 12.67 4.98 12.34 6 12 C5.34 13.98 4.68 15.96 4 18 C4.66 18 5.32 18 6 18 C6.66 16.68 7.32 15.36 8 14 C8 15.98 8 17.96 8 20 C6.02 20.99 6.02 20.99 4 22 C3.34 19.36 2.68 16.72 2 14 C1.67 15.98 1.34 17.96 1 20 C1.66 20.33 2.32 20.66 3 21 C1.5459375 21.4640625 1.5459375 21.4640625 0.0625 21.9375 C-2.84065792 22.69523342 -2.84065792 22.69523342 -4 24 C-3.01 24.66 -2.02 25.32 -1 26 C-1.33 27.32 -1.66 28.64 -2 30 C-3.9375 29.625 -3.9375 29.625 -6 29 C-6.33 28.34 -6.66 27.68 -7 27 C-7.66 28.98 -8.32 30.96 -9 33 C-9.33 32.34 -9.66 31.68 -10 31 C-11.19238281 31.09539063 -12.38476562 31.19078125 -13.61328125 31.2890625 C-15.17964636 31.40161568 -16.74605506 31.51356334 -18.3125 31.625 C-19.09818359 31.68945312 -19.88386719 31.75390625 -20.69335938 31.8203125 C-21.45068359 31.871875 -22.20800781 31.9234375 -22.98828125 31.9765625 C-23.68477783 32.02893066 -24.38127441 32.08129883 -25.09887695 32.13525391 C-27 32 -27 32 -30 30 C-25.71 29.01 -21.42 28.02 -17 27 C-18.464375 26.401875 -19.92875 25.80375 -21.4375 25.1875 C-23.93359375 24.16796875 -23.93359375 24.16796875 -26 23 C-26.33 22.01 -26.66 21.02 -27 20 C-25.20841511 19.97303635 -23.41671527 19.95362083 -21.625 19.9375 C-20.62726562 19.92589844 -19.62953125 19.91429688 -18.6015625 19.90234375 C-16 20 -16 20 -14 21 C-13.67 19.68 -13.34 18.36 -13 17 C-11.35 17.33 -9.7 17.66 -8 18 C-8 16.35 -8 14.7 -8 13 C-6.68 13.99 -5.36 14.98 -4 16 C-2.93222008 12.79666025 -2.18719717 9.60464842 -1.4375 6.3125 C-1.16808594 5.13300781 -0.89867188 3.95351562 -0.62109375 2.73828125 C-0.41613281 1.83464844 -0.21117188 0.93101563 0 0 Z " fill="#C1A62D" transform="translate(41,11)"/>
<path d="M0 0 C0.33 0 0.66 0 1 0 C1.14695312 1.48113281 1.14695312 1.48113281 1.296875 2.9921875 C1.44640625 4.27351563 1.5959375 5.55484375 1.75 6.875 C1.88921875 8.15117187 2.0284375 9.42734375 2.171875 10.7421875 C2.62437336 14.07191653 2.62437336 14.07191653 4.953125 15.2578125 C5.62859375 15.50273438 6.3040625 15.74765625 7 16 C9.47264309 19.70896464 9.76100945 22.701551 9 27 C7.25 30 7.25 30 4 32 C0.86281899 32.21140034 -2.12341198 32.12512276 -5.2578125 31.8828125 C-8.04064888 31.73142526 -8.04064888 31.73142526 -9.8671875 33.4921875 C-10.24101562 33.98976562 -10.61484375 34.48734375 -11 35 C-11.66 34.67 -12.32 34.34 -13 34 C-12.2884375 33.4121875 -12.2884375 33.4121875 -11.5625 32.8125 C-9.64820367 30.59191626 -9.38733012 28.86624291 -9 26 C-10.98 26.66 -12.96 27.32 -15 28 C-15.33 27.01 -15.66 26.02 -16 25 C-18.64 24.67 -21.28 24.34 -24 24 C-24 23.67 -24 23.34 -24 23 C-19.71 23 -15.42 23 -11 23 C-10.34 21.35 -9.68 19.7 -9 18 C-8.34 18.33 -7.68 18.66 -7 19 C-7 19.66 -7 20.32 -7 21 C-5.68 21 -4.36 21 -3 21 C-3 20.01 -3 19.02 -3 18 C-3.99 17.34 -4.98 16.68 -6 16 C-3.94766315 13.7522025 -2.99332739 12.9977758 0 12 C0 8.04 0 4.08 0 0 Z " fill="#E1BB13" transform="translate(42,19)"/>
<path d="M0 0 C0.39832031 0.44988281 0.79664063 0.89976563 1.20703125 1.36328125 C3.25193824 3.22998284 5.14162531 4.11749469 7.6875 5.1875 C8.49574219 5.53167969 9.30398437 5.87585937 10.13671875 6.23046875 C10.75160156 6.48441406 11.36648437 6.73835938 12 7 C12 7.33 12 7.66 12 8 C10.93458984 8.18175781 10.93458984 8.18175781 9.84765625 8.3671875 C8.92855469 8.53476562 8.00945313 8.70234375 7.0625 8.875 C5.68771484 9.11863281 5.68771484 9.11863281 4.28515625 9.3671875 C3.53105469 9.57601562 2.77695313 9.78484375 2 10 C1.67 10.66 1.34 11.32 1 12 C0.01 12 -0.98 12 -2 12 C-3.04655624 14.9901607 -4.04394431 17.98042141 -5 21 C-5.41185547 22.28777344 -5.41185547 22.28777344 -5.83203125 23.6015625 C-8.50380519 32.94619057 -8.7071638 42.34650325 -9 52 C-10.32 52 -11.64 52 -13 52 C-13.71007613 32.57152824 -10.9885856 16.4828784 0 0 Z " fill="#DEDEDE" transform="translate(13,31)"/>
<path d="M0 0 C0.66 0.33 1.32 0.66 2 1 C1.67 4.96 1.34 8.92 1 13 C4.63 10.69 8.26 8.38 12 6 C10.31482096 10.2129476 8.56523798 13.32315889 6 17 C6.86625 16.67 7.7325 16.34 8.625 16 C11.95718275 15.01268659 14.55159538 14.83579026 18 15 C18.33 15.66 18.66 16.32 19 17 C17.9171875 17.3403125 17.9171875 17.3403125 16.8125 17.6875 C13.81096454 18.8734164 13.81096454 18.8734164 11.5625 21.625 C9 24 9 24 5.8125 24.4375 C3 24 3 24 1 22 C-1.06874034 21.3574765 -1.06874034 21.3574765 -3 21 C-3 18.33333333 -3 15.66666667 -3 13 C-3.33 13.66 -3.66 14.32 -4 15 C-4.66 15 -5.32 15 -6 15 C-3.91881919 4.83763838 -3.91881919 4.83763838 -2 1 C-1.34 0.67 -0.68 0.34 0 0 Z " fill="#B79A19" transform="translate(51,14)"/>
<path d="M0 0 C0 0.99 0 1.98 0 3 C0.61875 3.28875 1.2375 3.5775 1.875 3.875 C4 5 4 5 6 7 C6.75 9.5 6.75 9.5 7 12 C6.34 12.66 5.68 13.32 5 14 C4.34 12.68 3.68 11.36 3 10 C2.67 11.32 2.34 12.64 2 14 C0.0625 14.5625 0.0625 14.5625 -2 15 C-2.33 14.67 -2.66 14.34 -3 14 C-3.33 14.99 -3.66 15.98 -4 17 C-5.79133978 17.05391993 -7.58313899 17.09275571 -9.375 17.125 C-10.37273438 17.14820312 -11.37046875 17.17140625 -12.3984375 17.1953125 C-15 17 -15 17 -17 15 C-13.50902879 10.91482093 -9.97017832 6.87882132 -6.25 3 C-5.69828125 2.4225 -5.1465625 1.845 -4.578125 1.25 C-3 0 -3 0 0 0 Z " fill="#947E21" transform="translate(31,15)"/>
<path d="M0 0 C6.95041086 -0.26618595 13.23514355 0.3879491 20 2 C17.14521674 3.90318884 15.58058692 4.4619099 12.3125 5.125 C11.50425781 5.29257812 10.69601563 5.46015625 9.86328125 5.6328125 C9.24839844 5.75398438 8.63351563 5.87515625 8 6 C8.63808594 6.31453125 9.27617188 6.6290625 9.93359375 6.953125 C10.75988281 7.38109375 11.58617187 7.8090625 12.4375 8.25 C13.67306641 8.87648438 13.67306641 8.87648438 14.93359375 9.515625 C17 11 17 11 17.78515625 13.171875 C17.85605469 13.77515625 17.92695312 14.3784375 18 15 C17.34 14.67 16.68 14.34 16 14 C14.29636178 13.77377919 12.58671299 13.59111527 10.875 13.4375 C9.96492188 13.35371094 9.05484375 13.26992188 8.1171875 13.18359375 C7.06917969 13.09271484 7.06917969 13.09271484 6 13 C6 12.34 6 11.68 6 11 C4.68 10.67 3.36 10.34 2 10 C1.66666667 8.66666667 1.33333333 7.33333333 1 6 C0.814375 5.29875 0.62875 4.5975 0.4375 3.875 C0 2 0 2 0 0 Z " fill="#CBAA19" transform="translate(52,39)"/>
<path d="M0 0 C7.72226678 -0.25377585 15.44345805 -0.42875637 23.16894531 -0.54931641 C25.79598161 -0.59957444 28.42273862 -0.66779501 31.04882812 -0.75439453 C34.82752274 -0.87587299 38.60252032 -0.9324402 42.3828125 -0.9765625 C43.55490265 -1.02817535 44.7269928 -1.07978821 45.93460083 -1.13296509 C49.24339655 -1.13523564 51.85479186 -1.03553741 55 0 C59.50359775 4.68216094 61.63971113 10.74267118 63 17 C60.703125 16.8671875 60.703125 16.8671875 58 16 C56.234375 13.3828125 56.234375 13.3828125 54.75 10.125 C54.24984375 9.05507813 53.7496875 7.98515625 53.234375 6.8828125 C52 4 52 4 51 1 C34.17 1 17.34 1 0 1 C0 0.67 0 0.34 0 0 Z " fill="#C4CCDD" transform="translate(83,33)"/>
<path d="M0 0 C6.0546875 -0.1953125 6.0546875 -0.1953125 8 0 C8.66 0.66 9.32 1.32 10 2 C10.66 2 11.32 2 12 2 C12.99 2 13.98 2 15 2 C13.71107323 4.87529818 12.50703617 7.05008298 10 9 C8.34385343 9.38218767 6.67542976 9.71395102 5 10 C4.01 10.556875 4.01 10.556875 3 11.125 C0.35022223 12.28427778 -1.26937322 11.75850744 -4 11 C-1 8 2 5 5 2 C3.35 1.67 1.7 1.34 0 1 C0 0.67 0 0.34 0 0 Z " fill="#AE9112" transform="translate(18,43)"/>
<path d="M0 0 C2.22265625 -0.29296875 2.22265625 -0.29296875 5 0 C7.24609375 2.01171875 7.24609375 2.01171875 9.4375 4.6875 C12.7459004 8.59340415 16.00646919 11.825655 20 15 C20 15.33 20 15.66 20 16 C17.390625 16.8515625 17.390625 16.8515625 14 17 C11.56383467 15.17590606 9.77512405 13.57821284 7.75 11.375 C7.22148437 10.84003906 6.69296875 10.30507812 6.1484375 9.75390625 C3.23211915 6.7117569 1.25312668 4.1108668 0 0 Z " fill="#043595" transform="translate(13,117)"/>
<path d="M0 0 C4.16701418 3.91001771 8.19977901 8.09549222 11.6875 12.625 C11.6875 13.285 11.6875 13.945 11.6875 14.625 C9.46484375 14.91796875 9.46484375 14.91796875 6.6875 14.625 C4.44140625 12.61328125 4.44140625 12.61328125 2.25 9.9375 C-1.0584004 6.03159585 -4.31896919 2.799345 -8.3125 -0.375 C-8.3125 -0.705 -8.3125 -1.035 -8.3125 -1.375 C-4.62348595 -2.94003627 -2.93870872 -2.45341737 0 0 Z " fill="#043595" transform="translate(125.3125,18.375)"/>
<path d="M0 0 C1.65 0 3.3 0 5 0 C3.51064481 4.88581155 0.75513259 7.82712189 -2.75 11.375 C-3.26304687 11.93316406 -3.77609375 12.49132812 -4.3046875 13.06640625 C-5.859375 14.6484375 -5.859375 14.6484375 -9 17 C-12.390625 16.8515625 -12.390625 16.8515625 -15 16 C-14.360625 15.360625 -13.72125 14.72125 -13.0625 14.0625 C-12.61519531 13.61390625 -12.16789062 13.1653125 -11.70703125 12.703125 C-10.37606625 11.37520569 -9.03885731 10.0535437 -7.69921875 8.734375 C-6.89097656 7.93515625 -6.08273438 7.1359375 -5.25 6.3125 C-4.08210938 5.16201172 -4.08210938 5.16201172 -2.890625 3.98828125 C-0.94769385 2.1389301 -0.94769385 2.1389301 0 0 Z " fill="#043595" transform="translate(132,117)"/>
<path d="M0 0 C1.32 0.33 2.64 0.66 4 1 C4 1.66 4 2.32 4 3 C4.66 3 5.32 3 6 3 C6.66 4.32 7.32 5.64 8 7 C8.66 6.67 9.32 6.34 10 6 C13.07692308 11.29230769 13.07692308 11.29230769 12.6875 14.875 C12.460625 15.57625 12.23375 16.2775 12 17 C9 14 6 11 3 8 C2.67 9.32 2.34 10.64 2 12 C1.34 12 0.68 12 0 12 C0 8.04 0 4.08 0 0 Z " fill="#C1A424" transform="translate(42,52)"/>
<path d="M0 0 C0.66 0.33 1.32 0.66 2 1 C1.34 5.29 0.68 9.58 0 14 C0.99 14.33 1.98 14.66 3 15 C1.68 16.32 0.36 17.64 -1 19 C-1.99 18.67 -2.98 18.34 -4 18 C-4 17.01 -4 16.02 -4 15 C-4.66 15 -5.32 15 -6 15 C-3.91881919 4.83763838 -3.91881919 4.83763838 -2 1 C-1.34 0.67 -0.68 0.34 0 0 Z " fill="#DFB915" transform="translate(51,14)"/>
<path d="M0 0 C1.65 0 3.3 0 5 0 C6.17154293 2.28929053 7.33738074 4.58118362 8.5 6.875 C8.83386719 7.52597656 9.16773438 8.17695312 9.51171875 8.84765625 C12 13.7734375 12 13.7734375 12 16 C10.35 16 8.7 16 7 16 C5.82845707 13.71070947 4.66261926 11.41881638 3.5 9.125 C3.16613281 8.47402344 2.83226562 7.82304688 2.48828125 7.15234375 C0 2.2265625 0 2.2265625 0 0 Z " fill="#DFDFDF" transform="translate(4,100)"/>
<path d="M0 0 C1.32 0 2.64 0 4 0 C2.19389405 6.34339651 -0.25627734 11.56938255 -4 17 C-5.32 16.67 -6.64 16.34 -8 16 C-6.57250019 12.20950293 -4.83763458 8.72877544 -2.875 5.1875 C-2.33617187 4.21167969 -1.79734375 3.23585938 -1.2421875 2.23046875 C-0.83226562 1.49441406 -0.42234375 0.75835937 0 0 Z " fill="#DEDEDE" transform="translate(142,100)"/>
<path d="M0 0 C1.5625 1.0625 1.5625 1.0625 3 3 C2.6875 6.6875 2.6875 6.6875 2 10 C1.67 9.34 1.34 8.68 1 8 C-0.19238281 8.09539063 -1.38476562 8.19078125 -2.61328125 8.2890625 C-4.17964636 8.40161568 -5.74605506 8.51356334 -7.3125 8.625 C-8.09818359 8.68945312 -8.88386719 8.75390625 -9.69335938 8.8203125 C-10.45068359 8.871875 -11.20800781 8.9234375 -11.98828125 8.9765625 C-12.68477783 9.02893066 -13.38127441 9.08129883 -14.09887695 9.13525391 C-16 9 -16 9 -19 7 C-18.08476562 6.79503906 -17.16953125 6.59007812 -16.2265625 6.37890625 C-15.03804687 6.10949219 -13.84953125 5.84007812 -12.625 5.5625 C-11.44164062 5.29566406 -10.25828125 5.02882813 -9.0390625 4.75390625 C-6.10505419 4.14365305 -6.10505419 4.14365305 -4 3 C-3.01 2.67 -2.02 2.34 -1 2 C-0.67 1.34 -0.34 0.68 0 0 Z " fill="#86721C" transform="translate(30,34)"/>
<path d="M0 0 C1.65 0 3.3 0 5 0 C5.50404808 2.10320063 6.00310508 4.20759791 6.5 6.3125 C6.7784375 7.48425781 7.056875 8.65601562 7.34375 9.86328125 C8 13 8 13 8 16 C6.35 15.67 4.7 15.34 3 15 C2.49564306 13.0636296 1.99666126 11.12585854 1.5 9.1875 C1.2215625 8.10855469 0.943125 7.02960938 0.65625 5.91796875 C0 3 0 3 0 0 Z " fill="#043596" transform="translate(0,84)"/>
<path d="M0 0 C0.33 0 0.66 0 1 0 C1.14695312 1.48113281 1.14695312 1.48113281 1.296875 2.9921875 C1.44640625 4.27351563 1.5959375 5.55484375 1.75 6.875 C1.88921875 8.15117187 2.0284375 9.42734375 2.171875 10.7421875 C2.64400014 14.08900123 2.64400014 14.08900123 5.078125 15.4453125 C5.71234375 15.62835938 6.3465625 15.81140625 7 16 C7 16.99 7 17.98 7 19 C6.21625 18.835 5.4325 18.67 4.625 18.5 C2.11791961 17.9376293 2.11791961 17.9376293 0 18 C-0.33 18.99 -0.66 19.98 -1 21 C-1.66 20.01 -2.32 19.02 -3 18 C-3.99 17.34 -4.98 16.68 -6 16 C-3.94766315 13.7522025 -2.99332739 12.9977758 0 12 C0 8.04 0 4.08 0 0 Z " fill="#F6CC15" transform="translate(42,19)"/>
<path d="M0 0 C2.475 0.495 2.475 0.495 5 1 C5.50435694 2.9363704 6.00333874 4.87414146 6.5 6.8125 C6.7784375 7.89144531 7.056875 8.97039063 7.34375 10.08203125 C8 13 8 13 8 16 C6.35 16 4.7 16 3 16 C2.01 10.72 1.02 5.44 0 0 Z " fill="#053595" transform="translate(142,50)"/>
<path d="M0 0 C1.32 0 2.64 0 4 0 C3.71653722 1.91789713 3.4228972 3.83429183 3.125 5.75 C2.96257812 6.81734375 2.80015625 7.8846875 2.6328125 8.984375 C2.06776118 11.67708871 1.36577086 13.63572439 0 16 C-1.32 16 -2.64 16 -4 16 C-2.68 10.72 -1.36 5.44 0 0 Z " fill="#053595" transform="translate(146,84)"/>
<path d="M0 0 C6.95041086 -0.26618595 13.23514355 0.3879491 20 2 C17.15541973 3.89638685 15.68537055 4.42576755 12.4375 5.0625 C10.05984465 5.53490771 8.17129671 5.91435164 6 7 C6 6.34 6 5.68 6 5 C4.02 5.33 2.04 5.66 0 6 C0 4.02 0 2.04 0 0 Z " fill="#B79C27" transform="translate(52,39)"/>
<path d="M0 0 C2.58926331 2.58926331 2.37398043 4.02705279 2.625 7.625 C2.69976562 8.62789062 2.77453125 9.63078125 2.8515625 10.6640625 C2.90054688 11.43492188 2.94953125 12.20578125 3 13 C3.99 12.67 4.98 12.34 6 12 C5.34 13.98 4.68 15.96 4 18 C4.66 18 5.32 18 6 18 C6.66 16.68 7.32 15.36 8 14 C8 15.98 8 17.96 8 20 C6.02 20.99 6.02 20.99 4 22 C3.34 19.36 2.68 16.72 2 14 C1.67 15.98 1.34 17.96 1 20 C1.66 20.33 2.32 20.66 3 21 C2.01 21 1.02 21 0 21 C-0.19569589 18.43788925 -0.38180612 15.87567609 -0.5625 13.3125 C-0.61857422 12.59126953 -0.67464844 11.87003906 -0.73242188 11.12695312 C-0.99955159 7.22685936 -1.00887596 3.78888972 0 0 Z " fill="#7D6C22" transform="translate(41,11)"/>
<path d="M0 0 C4.02550319 1.3418344 4.88285636 3.4227573 7 7 C7 7.66 7 8.32 7 9 C5.20866022 9.05391993 3.41686101 9.09275571 1.625 9.125 C0.62726562 9.14820313 -0.37046875 9.17140625 -1.3984375 9.1953125 C-4 9 -4 9 -6 7 C-4.02 4.69 -2.04 2.38 0 0 Z " fill="#DADADA" transform="translate(20,23)"/>
<path d="M0 0 C1.32 0 2.64 0 4 0 C4 5.28 4 10.56 4 16 C2.68 16 1.36 16 0 16 C0 10.72 0 5.44 0 0 Z " fill="#DFDFDF" transform="translate(146,67)"/>
<path d="M0 0 C0.598125 0.20625 1.19625 0.4125 1.8125 0.625 C1.58476744 2.75250156 1.32959182 4.87708056 1.0625 7 C0.85367188 8.77503906 0.85367188 8.77503906 0.640625 10.5859375 C-0.1875 13.625 -0.1875 13.625 -2.265625 15.0390625 C-2.89984375 15.23242188 -3.5340625 15.42578125 -4.1875 15.625 C-4.21446365 13.83341511 -4.23387917 12.04171527 -4.25 10.25 C-4.26160156 9.25226562 -4.27320312 8.25453125 -4.28515625 7.2265625 C-4.1875 4.625 -4.1875 4.625 -3.1875 2.625 C-3.8475 2.295 -4.5075 1.965 -5.1875 1.625 C-2.1875 -0.375 -2.1875 -0.375 0 0 Z " fill="#937E22" transform="translate(35.1875,53.375)"/>
<path d="M0 0 C2.56269497 1.04109483 4.02610343 2.02610343 6 4 C4.02 4 2.04 4 0 4 C0 4.66 0 5.32 0 6 C3.96 6 7.92 6 12 6 C12 6.33 12 6.66 12 7 C8.04 7 4.08 7 0 7 C0.33 7.66 0.66 8.32 1 9 C2.65 9 4.3 9 6 9 C4.68 9.33 3.36 9.66 2 10 C2 10.66 2 11.32 2 12 C2.66 12.33 3.32 12.66 4 13 C3.67 13.33 3.34 13.66 3 14 C3.99 14.66 4.98 15.32 6 16 C5.34 16 4.68 16 4 16 C3.67 16.66 3.34 17.32 3 18 C0 14.25 0 14.25 0 12 C-0.66 11.67 -1.32 11.34 -2 11 C-2 7.7 -2 4.4 -2 1 C-1.34 0.67 -0.68 0.34 0 0 Z " fill="#65550B" transform="translate(52,35)"/>
<path d="M0 0 C0.50559908 1.43554025 1.0042749 2.8735202 1.5 4.3125 C1.7784375 5.11300781 2.056875 5.91351563 2.34375 6.73828125 C3 9 3 9 3 12 C-0.99500618 10.6302836 -3.80009492 8.74277578 -7 6 C-6.02388578 4.99702025 -5.04402202 3.99768827 -4.0625 3 C-3.51722656 2.443125 -2.97195312 1.88625 -2.41015625 1.3125 C-1 0 -1 0 0 0 Z " fill="#D7D7D7" transform="translate(29,15)"/>
<path d="M0 0 C2.475 0.99 2.475 0.99 5 2 C5 5.63 5 9.26 5 13 C4.34 13 3.68 13 3 13 C2.67 12.01 2.34 11.02 2 10 C1.01 10.33 0.02 10.66 -1 11 C-0.814375 9.88625 -0.62875 8.7725 -0.4375 7.625 C0.31680657 4.17431139 0.31680657 4.17431139 -1 2 C-0.67 1.34 -0.34 0.68 0 0 Z " fill="#BFA01D" transform="translate(36,50)"/>
<path d="M0 0 C0.33 0.66 0.66 1.32 1 2 C1.99 2.33 2.98 2.66 4 3 C2.02 3.99 2.02 3.99 0 5 C-0.33 4.34 -0.66 3.68 -1 3 C-1.99 2.67 -2.98 2.34 -4 2 C-3.90460937 3.19238281 -3.80921875 4.38476562 -3.7109375 5.61328125 C-3.59838432 7.17964636 -3.48643666 8.74605506 -3.375 10.3125 C-3.31054688 11.09818359 -3.24609375 11.88386719 -3.1796875 12.69335938 C-3.128125 13.45068359 -3.0765625 14.20800781 -3.0234375 14.98828125 C-2.97106934 15.68477783 -2.91870117 16.38127441 -2.86474609 17.09887695 C-3 19 -3 19 -5 22 C-6.01593448 15.11422188 -5.83854735 8.90188971 -5 2 C-6.32 1.67 -7.64 1.34 -9 1 C-4.545 0.505 -4.545 0.505 0 0 Z " fill="#62551F" transform="translate(46,50)"/>
<path d="M0 0 C-0.66 3.96 -1.32 7.92 -2 12 C-4.5 9.75 -4.5 9.75 -7 7 C-7 5.68 -7 4.36 -7 3 C-2.92857143 0 -2.92857143 0 0 0 Z " fill="#F9F9F9" transform="translate(41,13)"/>
<path d="M0 0 C0.66 0 1.32 0 2 0 C2.13504138 1.93559313 2.23201129 3.873872 2.3125 5.8125 C2.37050781 6.89144531 2.42851563 7.97039063 2.48828125 9.08203125 C2 12 2 12 -0.39453125 13.94921875 C-1.25433594 14.29597656 -2.11414062 14.64273438 -3 15 C-3.66 14.67 -4.32 14.34 -5 14 C-4.505 13.46375 -4.01 12.9275 -3.5 12.375 C-1.60997509 9.38246057 -1.92736382 7.48653658 -2 4 C-1 1.625 -1 1.625 0 0 Z " fill="#A38A1C" transform="translate(39,20)"/>
<path d="M0 0 C3.875 2.625 3.875 2.625 5 6 C3.75 8.1875 3.75 8.1875 2 10 C1.01 10 0.02 10 -1 10 C-1 9.34 -1 8.68 -1 8 C-1.66 8 -2.32 8 -3 8 C-2.67 6.68 -2.34 5.36 -2 4 C-1.34 4.33 -0.68 4.66 0 5 C0 3.35 0 1.7 0 0 Z " fill="#BF9E10" transform="translate(33,24)"/>
<path d="M0 0 C5.53846154 0.61538462 5.53846154 0.61538462 7.875 2.5625 C8.431875 3.2740625 8.431875 3.2740625 9 4 C4.9472484 4.98248524 1.16138263 5.08159574 -3 5 C-2.01 3.35 -1.02 1.7 0 0 Z " fill="#FAFAFA" transform="translate(16,35)"/>
<path d="M0 0 C0.33 0.66 0.66 1.32 1 2 C-0.0828125 2.37125 -0.0828125 2.37125 -1.1875 2.75 C-4.24713266 4.10983674 -6.4673738 5.82917754 -9 8 C-9 7.34 -9 6.68 -9 6 C-9.66 5.67 -10.32 5.34 -11 5 C-10.34 4.67 -9.68 4.34 -9 4 C-9.33 3.34 -9.66 2.68 -10 2 C-6.5980513 -0.09350689 -3.94727588 -0.17942163 0 0 Z " fill="#86752D" transform="translate(69,29)"/>
<path d="M0 0 C0.66 0.33 1.32 0.66 2 1 C2 2.32 2 3.64 2 5 C-0.64 4.67 -3.28 4.34 -6 4 C-6 3.34 -6 2.68 -6 2 C-6.66 1.67 -7.32 1.34 -8 1 C-5.26094655 -0.36952673 -3.02912668 -0.12621361 0 0 Z " fill="#D0AD16" transform="translate(28,33)"/>
<path d="M0 0 C3.08089673 2.77280706 4.68775452 5.06326356 6 9 C2.06326356 7.68775452 -0.22719294 6.08089673 -3 3 C-2.01 2.01 -1.02 1.02 0 0 Z " fill="#756624" transform="translate(56,53)"/>
<path d="M0 0 C2 2 2 2 2.13525391 3.87939453 C2.08288574 4.62302246 2.03051758 5.36665039 1.9765625 6.1328125 C1.89921875 7.34130859 1.89921875 7.34130859 1.8203125 8.57421875 C1.75585938 9.41597656 1.69140625 10.25773437 1.625 11.125 C1.56828125 11.97449219 1.5115625 12.82398438 1.453125 13.69921875 C1.31149023 15.8001345 1.15695674 17.90017334 1 20 C1.66 20.33 2.32 20.66 3 21 C2.01 21 1.02 21 0 21 C-0.19569589 18.43788925 -0.38180612 15.87567609 -0.5625 13.3125 C-0.61857422 12.59126953 -0.67464844 11.87003906 -0.73242188 11.12695312 C-0.99955159 7.22685936 -1.00887596 3.78888972 0 0 Z " fill="#5D511B" transform="translate(41,11)"/>
<path d="M0 0 C0.66 0.33 1.32 0.66 2 1 C1.67 4.3 1.34 7.6 1 11 C-3 9 -3 9 -4 6 C-3.1875 3.375 -3.1875 3.375 -2 1 C-1.34 0.67 -0.68 0.34 0 0 Z " fill="#74693B" transform="translate(51,14)"/>
<path d="M0 0 C0 3.99904969 -1.72586967 5.80200422 -4 9 C-4.33 8.34 -4.66 7.68 -5 7 C-6.65 7.33 -8.3 7.66 -10 8 C-6.97727468 4.74475735 -3.74281699 2.38179263 0 0 Z " fill="#7F7030" transform="translate(62,20)"/>
<path d="M0 0 C1 4 1 4 1 7 C-2 9.1875 -2 9.1875 -5 11 C-5.66 10.67 -6.32 10.34 -7 10 C-3.535 5.05 -3.535 5.05 0 0 Z " fill="#7C6E30" transform="translate(27,52)"/>
<path d="M0 0 C0.66 0.33 1.32 0.66 2 1 C1.34 2.32 0.68 3.64 0 5 C0.66 5.33 1.32 5.66 2 6 C-0.57213134 7.61949011 -1.67669159 8.04408751 -4.75 7.625 C-5.4925 7.41875 -6.235 7.2125 -7 7 C-4.66666667 4.66666667 -2.33333333 2.33333333 0 0 Z " fill="#7C703B" transform="translate(21,47)"/>
<path d="M0 0 C6.0546875 -0.1953125 6.0546875 -0.1953125 8 0 C10 2 10 2 10 5 C8.68 5.33 7.36 5.66 6 6 C5.67 4.68 5.34 3.36 5 2 C3.35 1.67 1.7 1.34 0 1 C0 0.67 0 0.34 0 0 Z " fill="#96853C" transform="translate(18,43)"/>
<path d="M0 0 C0.66 0.33 1.32 0.66 2 1 C1.67 2.65 1.34 4.3 1 6 C-0.98 6 -2.96 6 -5 6 C-4.75 4.125 -4.75 4.125 -4 2 C-2.0625 0.6875 -2.0625 0.6875 0 0 Z " fill="#D9B51A" transform="translate(59,32)"/>
<path d="M0 0 C1.65 0 3.3 0 5 0 C5.33 1.32 5.66 2.64 6 4 C3.625 4.625 3.625 4.625 1 5 C0.34 4.34 -0.32 3.68 -1 3 C-0.67 2.01 -0.34 1.02 0 0 Z " fill="#7C660B" transform="translate(39,43)"/>
<path d="M0 0 C1.37562854 1.28965176 2.70766393 2.62689293 4 4 C4 4.66 4 5.32 4 6 C1.36 5.67 -1.28 5.34 -4 5 C-2.68 3.35 -1.36 1.7 0 0 Z " fill="#FBFBFB" transform="translate(23,26)"/>
<path d="M0 0 C4 6 4 6 3.625 8.6875 C3.41875 9.450625 3.2125 10.21375 3 11 C0.86466828 8.40046573 -0.56459104 6.37441946 -1 3 C-0.67 2.01 -0.34 1.02 0 0 Z " fill="#7B6E32" transform="translate(51,58)"/>
<path d="M0 0 C2.4375 0.75 2.4375 0.75 5 2 C5.8125 4.125 5.8125 4.125 6 6 C5.34 5.67 4.68 5.34 4 5 C2.29636178 4.77377919 0.58671299 4.59111527 -1.125 4.4375 C-2.03507812 4.35371094 -2.94515625 4.26992188 -3.8828125 4.18359375 C-4.58148438 4.12300781 -5.28015625 4.06242187 -6 4 C-6 3.67 -6 3.34 -6 3 C-3.69 3 -1.38 3 1 3 C0.67 2.01 0.34 1.02 0 0 Z " fill="#716A4E" transform="translate(64,48)"/>
<path d="M0 0 C1.65 0 3.3 0 5 0 C3.68 0.33 2.36 0.66 1 1 C1 1.66 1 2.32 1 3 C1.66 3.33 2.32 3.66 3 4 C2.67 4.33 2.34 4.66 2 5 C2.99 5.66 3.98 6.32 5 7 C4.34 7 3.68 7 3 7 C2.67 7.66 2.34 8.32 2 9 C0.4375 7.3125 0.4375 7.3125 -1 5 C-0.6875 2.25 -0.6875 2.25 0 0 Z " fill="#826E18" transform="translate(53,44)"/>
<path d="M0 0 C2.64 0.66 5.28 1.32 8 2 C8 2.99 8 3.98 8 5 C5.125 4.75 5.125 4.75 2 4 C0.625 1.9375 0.625 1.9375 0 0 Z " fill="#706328" transform="translate(14,31)"/>
<path d="M0 0 C3.68754757 0.49831724 5.60490662 1.10067643 8 4 C6.68 4.99 5.36 5.98 4 7 C2.02 3.535 2.02 3.535 0 0 Z " fill="#685E2F" transform="translate(21,22)"/>
<path d="M0 0 C-0.33 1.32 -0.66 2.64 -1 4 C-2.9375 3.6875 -2.9375 3.6875 -5 3 C-5.33 2.01 -5.66 1.02 -6 0 C-3.50907189 -1.24546405 -2.58919267 -0.7767578 0 0 Z " fill="#7F690B" transform="translate(40,37)"/>
<path d="M0 0 C0.99 0.33 1.98 0.66 3 1 C3.33 2.65 3.66 4.3 4 6 C1.525 5.01 1.525 5.01 -1 4 C-1 1 -1 1 0 0 Z " fill="#F7F7F7" transform="translate(28,21)"/>
<path d="M0 0 C0.33 0 0.66 0 1 0 C1 1.65 1 3.3 1 5 C-1.49064888 5.68707555 -3.37886292 6 -6 6 C-5.67 4.68 -5.34 3.36 -5 2 C-3.35 2.33 -1.7 2.66 0 3 C0 2.01 0 1.02 0 0 Z " fill="#8B7825" transform="translate(32,24)"/>
<path d="M0 0 C1.39195915 4.17587745 -0.17676781 6.13474776 -2 10 C-2.33 10 -2.66 10 -3 10 C-3.36923077 4.58461538 -3.36923077 4.58461538 -1.5 1.625 C-1.005 1.08875 -0.51 0.5525 0 0 Z " fill="#D2B744" transform="translate(34,54)"/>
<path d="M0 0 C0.33 0.66 0.66 1.32 1 2 C1.99 2.33 2.98 2.66 4 3 C2.02 3.99 2.02 3.99 0 5 C-0.33 4.34 -0.66 3.68 -1 3 C-2.89533342 2.53476937 -2.89533342 2.53476937 -5.0625 2.375 C-6.361875 2.25125 -7.66125 2.1275 -9 2 C-9 1.67 -9 1.34 -9 1 C-4.545 0.505 -4.545 0.505 0 0 Z " fill="#665509" transform="translate(46,50)"/>
<path d="M0 0 C0.66 0.66 1.32 1.32 2 2 C1.8125 4.0625 1.8125 4.0625 1 6 C0.01 6.33 -0.98 6.66 -2 7 C-1.34 4.69 -0.68 2.38 0 0 Z " fill="#66581B" transform="translate(33,62)"/>
<path d="M0 0 C3.875 2.625 3.875 2.625 5 6 C2 6 2 6 0 5 C0 3.35 0 1.7 0 0 Z " fill="#EDC414" transform="translate(33,24)"/>
</svg>
