<?xml version="1.0" encoding="UTF-8"?>
<svg version="1.1" xmlns="http://www.w3.org/2000/svg" width="150" height="150">
<path d="M0 0 C2.26685452 1.68622161 4.37461281 3.45620684 6.4765625 5.34375 C7.70826172 6.43623047 7.70826172 6.43623047 8.96484375 7.55078125 C22.24806842 20.02774039 31.07984821 37.58848816 31.8125 55.9453125 C32.13371051 77.23647878 28.10626638 96.0522542 13.4765625 112.34375 C12.74824219 113.16488281 12.01992187 113.98601562 11.26953125 114.83203125 C-1.20742789 128.11525592 -18.76817566 136.94703571 -37.125 137.6796875 C-58.41616628 138.00089801 -77.2319417 133.97345388 -93.5234375 119.34375 C-94.34457031 118.61542969 -95.16570312 117.88710937 -96.01171875 117.13671875 C-109.29494342 104.65975961 -118.12672321 87.09901184 -118.859375 68.7421875 C-119.18058551 47.45102122 -115.15314138 28.6352458 -100.5234375 12.34375 C-99.79511719 11.52261719 -99.06679687 10.70148437 -98.31640625 9.85546875 C-72.64852592 -17.47107913 -30.68115209 -20.13747444 0 0 Z " fill="#01257C" transform="translate(118.5234375,12.65625)"/>
<path d="M0 0 C46.86 0 93.72 0 142 0 C135.58124025 19.25627924 123.12775367 33.75377298 105 43 C87.07217835 51.06648822 66.36266928 53.36855165 47.390625 47.328125 C37.70833463 43.53552278 28.79330925 38.99836332 21 32 C20.17886719 31.27167969 19.35773437 30.54335937 18.51171875 29.79296875 C9.28069346 21.12224848 3.99768103 11.99304309 0 0 Z " fill="#CE142A" transform="translate(4,100)"/>
<path d="M0 0 C2.26685452 1.68622161 4.37461281 3.45620684 6.4765625 5.34375 C7.70826172 6.43623047 7.70826172 6.43623047 8.96484375 7.55078125 C18.19586904 16.22150152 23.47888147 25.35070691 27.4765625 37.34375 C-19.3834375 37.34375 -66.2434375 37.34375 -114.5234375 37.34375 C-108.10467775 18.08747076 -95.65119117 3.58997702 -77.5234375 -5.65625 C-51.91977915 -17.17642309 -23.57942655 -15.47627996 0 0 Z " fill="#FECB00" transform="translate(118.5234375,12.65625)"/>
<path d="M0 0 C2.32421875 0.16015625 2.32421875 0.16015625 5 1 C6.51953125 3.37109375 6.51953125 3.37109375 7.8125 6.4375 C10.76211256 12.79689485 14.36000609 17.77557938 19 23 C19.59296875 23.69867188 20.1859375 24.39734375 20.796875 25.1171875 C31.39876665 36.76114542 48.42913065 44.15613031 64.01806641 45.12548828 C84.43479221 46.03178505 102.87984452 41.23761487 118.66796875 27.71484375 C124.56561931 22.08486266 128.96743142 16.06211248 133 9 C133.50789062 8.11054687 134.01578125 7.22109375 134.5390625 6.3046875 C135.71270852 4.21310605 136.86732789 2.11397328 138 0 C139.32 0 140.64 0 142 0 C137.7360636 16.48722074 125.66681716 30.3351964 111.5625 39.4375 C93.15798292 50.03938349 71.66074709 53.52476793 50.875 48.4375 C39.86587844 44.93235367 29.63204436 39.75154438 21 32 C20.17886719 31.27167969 19.35773437 30.54335937 18.51171875 29.79296875 C9.64157317 21.46122351 3.19717117 11.78956869 0 0 Z " fill="#B51629" transform="translate(4,100)"/>
<path d="M0 0 C2.26685452 1.68622161 4.37461281 3.45620684 6.4765625 5.34375 C7.70826172 6.43623047 7.70826172 6.43623047 8.96484375 7.55078125 C17.83498933 15.88252649 24.27939133 25.55418131 27.4765625 37.34375 C25.8265625 37.34375 24.1765625 37.34375 22.4765625 37.34375 C22.02667969 36.32796875 21.57679688 35.3121875 21.11328125 34.265625 C12.39616947 15.32813263 -0.99595816 2.92026737 -20.5234375 -4.65625 C-36.95152193 -10.54870614 -55.59251479 -9.25464133 -71.5234375 -2.65625 C-72.46445313 -2.27210937 -73.40546875 -1.88796875 -74.375 -1.4921875 C-80.86374418 1.46089422 -86.18613192 5.66482915 -91.5234375 10.34375 C-92.2246875 10.93800781 -92.9259375 11.53226563 -93.6484375 12.14453125 C-100.66704433 18.54626834 -104.76265094 26.88773646 -109.00390625 35.26953125 C-109.75607422 36.29626953 -109.75607422 36.29626953 -110.5234375 37.34375 C-111.8434375 37.34375 -113.1634375 37.34375 -114.5234375 37.34375 C-110.2595011 20.85652926 -98.19025466 7.0085536 -84.0859375 -2.09375 C-57.47227981 -17.42449173 -25.74171521 -16.8954911 0 0 Z " fill="#DEB306" transform="translate(118.5234375,12.65625)"/>
<path d="M0 0 C0.66 0 1.32 0 2 0 C2 1.32 2 2.64 2 4 C3.32 4.33 4.64 4.66 6 5 C5.01 5.495 5.01 5.495 4 6 C4 7.32 4 8.64 4 10 C3.401875 9.835 2.80375 9.67 2.1875 9.5 C-0.11344336 8.8885876 -0.11344336 8.8885876 -3 9 C-3.144375 8.38125 -3.28875 7.7625 -3.4375 7.125 C-3.93152225 4.96741678 -3.93152225 4.96741678 -5 3 C-3.35 3 -1.7 3 0 3 C0 2.01 0 1.02 0 0 Z " fill="#CED5E6" transform="translate(32,84)"/>
<path d="M0 0 C2.31 0.33 4.62 0.66 7 1 C7.33 2.98 7.66 4.96 8 7 C7.01 7.33 6.02 7.66 5 8 C4.67 8.66 4.34 9.32 4 10 C3.34 10 2.68 10 2 10 C2 9.01 2 8.02 2 7 C0.68 7 -0.64 7 -2 7 C-2 6.34 -2 5.68 -2 5 C-1.01 5 -0.02 5 1 5 C0.67 3.35 0.34 1.7 0 0 Z " fill="#D3D9E8" transform="translate(49,61)"/>
<path d="M0 0 C1.98 0 3.96 0 6 0 C6.33 0.99 6.66 1.98 7 3 C7.66 3.33 8.32 3.66 9 4 C9 4.66 9 5.32 9 6 C7.68 6 6.36 6 5 6 C4.67 7.32 4.34 8.64 4 10 C3.67 8.68 3.34 7.36 3 6 C1.68 5.67 0.36 5.34 -1 5 C-0.67 3.35 -0.34 1.7 0 0 Z " fill="#D6DCEA" transform="translate(94,62)"/>
<path d="M0 0 C0.66 0.99 1.32 1.98 2 3 C2.99 3.66 3.98 4.32 5 5 C4.67 6.65 4.34 8.3 4 10 C3.401875 9.814375 2.80375 9.62875 2.1875 9.4375 C-0.16408762 8.77906313 -0.16408762 8.77906313 -3 10 C-3 8.68 -3 7.36 -3 6 C-3.66 5.34 -4.32 4.68 -5 4 C-3.68 4 -2.36 4 -1 4 C-0.67 2.68 -0.34 1.36 0 0 Z " fill="#D9DFEC" transform="translate(117,84)"/>
<path d="M0 0 C0.28875 0.61875 0.5775 1.2375 0.875 1.875 C1.93720042 4.13325765 1.93720042 4.13325765 4 6 C3.01 6.33 2.02 6.66 1 7 C0.01 8.485 0.01 8.485 -1 10 C-3.475 9.01 -3.475 9.01 -6 8 C-5.8125 5.125 -5.8125 5.125 -5 2 C-2.4375 0.625 -2.4375 0.625 0 0 Z " fill="#DDE2EE" transform="translate(42,71)"/>
<path d="M0 0 C0.61875 0.33 1.2375 0.66 1.875 1 C3.91018344 2.14193235 3.91018344 2.14193235 6 2 C6.33 3.98 6.66 5.96 7 8 C5.02 8.66 3.04 9.32 1 10 C0.67 9.01 0.34 8.02 0 7 C-0.99 6.34 -1.98 5.68 -3 5 C-2.34 4.67 -1.68 4.34 -1 4 C-0.34786708 1.97536745 -0.34786708 1.97536745 0 0 Z " fill="#E0E4EF" transform="translate(107,71)"/>
<path d="M0 0 C0.66 0.66 1.32 1.32 2 2 C3.31747324 2.69748583 4.64914193 3.36959957 6 4 C5.67 5.65 5.34 7.3 5 9 C3.02 9.33 1.04 9.66 -1 10 C-1 8.68 -1 7.36 -1 6 C-1.99 6 -2.98 6 -4 6 C-4 5.34 -4 4.68 -4 4 C-2.68 4 -1.36 4 0 4 C0 2.68 0 1.36 0 0 Z " fill="#E2E6F0" transform="translate(66,55)"/>
<path d="M0 0 C1.32 1.65 2.64 3.3 4 5 C3.34 5 2.68 5 2 5 C1.67 6.32 1.34 7.64 1 9 C-0.65 8.67 -2.3 8.34 -4 8 C-4.33 6.02 -4.66 4.04 -5 2 C-3.35 1.34 -1.7 0.68 0 0 Z " fill="#EAEDF4" transform="translate(83,56)"/>
</svg>
