<?xml version="1.0" encoding="UTF-8"?>
<svg version="1.1" xmlns="http://www.w3.org/2000/svg" width="1500" height="1500">
<path d="M0 0 C0.95948547 0.09945923 1.91897095 0.19891846 2.90753174 0.3013916 C74.8738991 7.76627512 145.18000276 22.66216855 214 45 C214.78185669 45.2537439 215.56371338 45.50748779 216.3692627 45.7689209 C253.3709612 57.81727511 289.55243461 71.95541468 325 88 C326.10730469 88.49918945 327.21460938 88.99837891 328.35546875 89.51269531 C353.82000671 101.02395659 379.09197565 113.0003656 403.49902344 126.62402344 C408.56293284 129.4100634 413.70107201 132.05876532 418.83935547 134.70458984 C419.56268066 135.0805127 420.28600586 135.45643555 421.03125 135.84375 C421.65580078 136.16537109 422.28035156 136.48699219 422.92382812 136.81835938 C423.60896484 137.20830078 424.29410156 137.59824219 425 138 C426.04696045 138.51151611 427.0939209 139.02303223 428.17260742 139.55004883 C431.17995903 142.15593549 431.43603001 142.50602509 431.94067383 146.18823242 C432.05890968 147.90887378 432.14565721 149.63186218 432.20703125 151.35546875 C432.26248611 152.28036606 432.31794098 153.20526337 432.37507629 154.15818787 C432.54856305 157.16717294 432.68112224 160.17640748 432.8125 163.1875 C432.92332694 165.27079374 433.03645343 167.3539664 433.15185547 169.43701172 C433.42246607 174.44389739 433.66094937 179.45157723 433.88470459 184.46075439 C434.02953215 187.65041091 434.19587906 190.83880117 434.36328125 194.02734375 C434.65790619 200.01635752 434.83449953 206.00622149 435 212 C435.0437229 213.43474486 435.08785831 214.86947719 435.13232422 216.30419922 C437.76671986 302.3282542 435.56084912 388.63754372 368 793 C367.77826111 793.68584167 367.55652222 794.37168335 367.32806396 795.07830811 C354.53607582 834.55561022 338.23060311 872.75461646 320 910 C319.54125488 910.94472168 319.08250977 911.88944336 318.60986328 912.86279297 C295.15247155 961.1206536 265.39157917 1006.59155305 230.43994141 1047.31738281 C228.91525974 1049.09902168 227.40044495 1050.8887341 225.88671875 1052.6796875 C216.74021661 1063.47216272 216.74021661 1063.47216272 211.68286133 1068.31616211 C209.96912536 1070.03089255 208.40128694 1071.81606086 206.828125 1073.66015625 C202.92268852 1078.15112546 198.78092138 1082.36686037 194.5625 1086.5625 C193.85029297 1087.27857422 193.13808594 1087.99464844 192.40429688 1088.73242188 C188.34447092 1092.78487303 184.1870081 1096.65844627 179.84204102 1100.40307617 C177.23152499 1102.66621538 174.71562846 1105.0201279 172.1875 1107.375 C166.6433473 1112.49005227 160.89020796 1117.28627538 155 1122 C153.86916043 1122.92240375 152.73898485 1123.84562196 151.609375 1124.76953125 C85.94689424 1178.23514185 8.10600726 1214.37510848 -73.32617188 1236.27441406 C-74.97461949 1236.72174663 -76.61812383 1237.18843931 -78.25195312 1237.68652344 C-85.62344919 1239.83505357 -92.1796363 1238.11067801 -99.3828125 1236.06640625 C-100.06655441 1235.87329361 -100.75029633 1235.68018097 -101.45475769 1235.48121643 C-103.68042204 1234.84922258 -105.90293493 1234.20702763 -108.125 1233.5625 C-108.89532562 1233.34035828 -109.66565125 1233.11821655 -110.45932007 1232.88934326 C-145.0525786 1222.89251752 -178.53321056 1210.61829924 -211 1195 C-212.11084961 1194.46648926 -213.22169922 1193.93297852 -214.36621094 1193.38330078 C-244.71572732 1178.71648429 -273.8172075 1161.69467928 -300.88720703 1141.5703125 C-302.99032922 1140.00718771 -305.10195013 1138.45613148 -307.21484375 1136.90625 C-314.70862331 1131.37999711 -321.94985071 1125.64781605 -329 1119.56640625 C-331.72785122 1117.23281478 -334.50439767 1114.98561718 -337.3125 1112.75 C-350.17126074 1102.21753928 -361.80721 1090.28854185 -373.5625 1078.5625 C-374.48118362 1077.64783463 -374.48118362 1077.64783463 -375.41842651 1076.71469116 C-381.83389495 1070.32050408 -388.15274169 1063.92553108 -394 1057 C-395.04460847 1055.8079059 -396.09148803 1054.6177981 -397.140625 1053.4296875 C-404.3859504 1045.16559614 -411.33534223 1036.73839249 -418 1028 C-418.56444824 1027.26152832 -419.12889648 1026.52305664 -419.71044922 1025.76220703 C-466.56090508 964.30639541 -502.65970584 895.56803933 -529 823 C-529.47782916 821.69870081 -529.9561941 820.39759824 -530.43505859 819.09667969 C-561.94037721 733.35810444 -580.53777505 642.89118913 -605.125 395.3125 C-605.16370209 394.48005768 -605.20240417 393.64761536 -605.24227905 392.78994751 C-605.48147668 387.55843658 -605.69297583 382.3262909 -605.88571167 377.09286499 C-605.96511611 374.94402597 -606.04728595 372.79528807 -606.13162231 370.64663696 C-607.13951103 344.42216062 -607.18757795 318.19880907 -607.18530273 291.95776367 C-607.18522195 287.05798615 -607.19210527 282.15830309 -607.20581055 277.25854492 C-607.54503981 153.97886749 -607.54503981 153.97886749 -601 141 C-598.52664978 139.30355488 -596.20981549 137.92974089 -593.5625 136.5625 C-592.76811523 136.13767334 -591.97373047 135.71284668 -591.15527344 135.27514648 C-588.44528515 133.83350471 -585.7232066 132.41649724 -583 131 C-581.04534708 129.96917812 -579.09092757 128.93791354 -577.13671875 127.90625 C-570.11718748 124.21958362 -563.06408334 120.60027239 -556 117 C-555.28231445 116.63396667 -554.56462891 116.26793335 -553.82519531 115.89080811 C-481.63072131 79.09984443 -406.31727629 49.0329732 -328 28 C-327.23057068 27.7924408 -326.46114136 27.58488159 -325.668396 27.37103271 C-276.12752164 14.03407739 -225.37608451 5.02379445 -174.30230713 0.22003174 C-172.03435156 0.00328298 -169.76794029 -0.22585453 -167.50146484 -0.45751953 C-112.64625548 -5.96283528 -54.81713624 -5.83970876 0 0 Z " fill="#FEFEFE" transform="translate(848,116)"/>
<path d="M0 0 C3.23449187 -0.00435047 6.46871185 -0.01814072 9.703125 -0.04101562 C69.87214809 -0.45737344 129.46110799 7.71959083 187.8918457 21.86523438 C189.06062759 22.14723694 189.06062759 22.14723694 190.25302124 22.43493652 C198.84421738 24.51680921 207.31124867 26.74103589 215.70800781 29.51904297 C218.51900623 30.41707911 218.51900623 30.41707911 222.3293457 30.24023438 C224.42996033 28.25491698 224.42996033 28.25491698 226.3918457 25.55273438 C227.16657227 24.56015625 227.94129883 23.56757813 228.73950195 22.54492188 C229.36042725 21.74393066 229.36042725 21.74393066 229.99389648 20.92675781 C232.81952846 17.35829974 235.82071246 13.93355196 238.78662109 10.48168945 C241.32283481 7.54346508 241.32283481 7.54346508 243.3293457 4.24023438 C251.41369534 6.33182135 258.95118845 9.50957627 266.57806396 12.8458252 C270.44925434 14.53826329 274.32918744 16.21047311 278.20825195 17.88476562 C279.02886108 18.23940887 279.84947021 18.59405212 280.69494629 18.95944214 C290.16624205 23.0457352 299.68452128 27.01865553 309.2043457 30.99023438 C312.84910728 32.5118187 316.49362136 34.03399443 320.13793945 35.55664062 C321.51065506 36.13016266 321.51065506 36.13016266 322.91110229 36.715271 C333.37521609 41.09053814 343.82076915 45.50962232 354.2668457 49.92773438 C373.59266187 58.10036402 392.95008521 66.19522048 412.3293457 74.24023438 C410.5134971 78.10001168 408.04965678 81.10288077 405.2668457 84.30273438 C404.26478701 85.47005406 403.26349541 86.63803263 402.26293945 87.80664062 C401.7652002 88.38687988 401.26746094 88.96711914 400.75463867 89.56494141 C398.74408884 91.92814678 396.78519928 94.33166967 394.8293457 96.74023438 C391.54110574 100.78007205 388.20193067 104.77097922 384.8293457 108.74023438 C372.41163574 122.5941464 372.41163574 122.5941464 361.8918457 137.80273438 C360.32994986 140.23929189 358.71075543 141.91495786 356.6418457 143.92773438 C352.93609492 147.53915695 349.74019501 151.36321195 346.5559082 155.43554688 C343.89956034 158.78161313 341.15575934 162.04540865 338.3918457 165.30273438 C337.90675537 165.87531982 337.42166504 166.44790527 336.921875 167.0378418 C333.47927654 171.09030354 333.47927654 171.09030354 332.3293457 172.24023438 C332.2159073 174.21129087 332.17247344 176.18639716 332.15576172 178.16064453 C332.14217621 179.43757172 332.1285907 180.7144989 332.11459351 182.03012085 C332.1095216 182.72060894 332.10444969 183.41109703 332.09922409 184.122509 C332.08307594 186.30306411 332.06100967 188.48348612 332.03726196 190.66397095 C332.00361992 193.77681999 331.97198873 196.88967964 331.94174194 200.00256348 C331.40060529 254.21857182 331.40060529 254.21857182 329.3293457 281.24023438 C329.26724915 282.05532471 329.20515259 282.87041504 329.14117432 283.71020508 C325.68702765 328.41293026 319.76017295 373.97470114 306.9543457 417.05273438 C306.6454541 418.09896973 306.3365625 419.14520508 306.01831055 420.22314453 C305.127369 423.23047764 304.22970405 426.23570912 303.3293457 429.24023438 C303.00063477 430.34455811 303.00063477 430.34455811 302.6652832 431.47119141 C286.39975985 485.89292164 262.89046445 538.88374806 228.3293457 584.24023438 C227.86222168 584.85753418 227.39509766 585.47483398 226.91381836 586.11083984 C211.74835494 606.07162173 194.72898981 625.94490137 175.6496582 642.25585938 C173.87946536 643.76976167 172.12749788 645.30500141 170.3840332 646.84960938 C152.84810377 662.29929586 133.56944752 675.42742991 113.5168457 687.36523438 C112.54255615 687.94668213 111.5682666 688.52812988 110.56445312 689.12719727 C109.20090698 689.92951782 109.20090698 689.92951782 107.80981445 690.74804688 C106.99407959 691.22902832 106.17834473 691.71000977 105.33789062 692.20556641 C103.3293457 693.24023438 103.3293457 693.24023438 101.3293457 693.24023438 C101.3293457 715.68023438 101.3293457 738.12023438 101.3293457 761.24023438 C88.96725562 765.73553986 88.96725562 765.73553986 84.0871582 766.95117188 C83.01264404 767.22316406 81.93812988 767.49515625 80.83105469 767.77539062 C79.71674072 768.05253906 78.60242676 768.3296875 77.4543457 768.61523438 C69.19042173 770.71286552 60.95414403 772.8601499 52.7668457 775.24023438 C41.65888372 778.46572353 30.49287656 781.46837713 19.31274414 784.43310547 C17.31086513 784.97469401 15.31401668 785.53520411 13.32250977 786.11376953 C4.60602097 788.62627314 -1.13877119 788.35419421 -9.7331543 785.74023438 C-11.60900425 785.18661677 -13.48533467 784.63462535 -15.36206055 784.08398438 C-16.37284668 783.78621094 -17.38363281 783.4884375 -18.42504883 783.18164062 C-24.32260146 781.47102208 -30.24812777 779.86181392 -36.1706543 778.24023438 C-44.66254097 775.90802553 -53.14460664 773.5482249 -61.6081543 771.11523438 C-72.27086062 768.06874685 -82.97201978 765.15804379 -93.6706543 762.24023438 C-93.6706543 739.80023437 -93.6706543 717.36023437 -93.6706543 694.24023438 C-95.6506543 693.58023438 -97.6306543 692.92023437 -99.6706543 692.24023438 C-103.14338248 690.49426532 -106.4574427 688.47996267 -109.7956543 686.49023438 C-110.76051758 685.9167627 -111.72538086 685.34329102 -112.71948242 684.75244141 C-127.79366581 675.67199357 -142.06768465 665.39632838 -155.6706543 654.24023438 C-156.20174805 653.80678711 -156.7328418 653.37333984 -157.2800293 652.92675781 C-172.75157636 640.24346893 -187.68830082 626.47700852 -200.6706543 611.24023438 C-201.56161055 610.22375761 -202.45362768 609.20821019 -203.34643555 608.19335938 C-223.32268577 585.37799615 -240.20277253 559.85465867 -254.6706543 533.24023438 C-255.09217773 532.47936523 -255.51370117 531.71849609 -255.94799805 530.93457031 C-276.66248993 493.52264922 -291.71546357 451.82910066 -301.6706543 410.24023438 C-301.84790039 409.50675781 -302.02514648 408.77328125 -302.20776367 408.01757812 C-303.24148136 403.72597039 -304.24671188 399.42845123 -305.23413086 395.12597656 C-305.62791866 393.42484851 -306.0351908 391.72685555 -306.4440918 390.02929688 C-314.49393644 356.35844134 -320.08988204 320.58343308 -321.4597168 285.98242188 C-321.6095804 282.31639003 -321.6095804 282.31639003 -322.14813232 279.01960754 C-323.92290293 266.18278776 -323.76142543 253.16699325 -323.56423187 240.23911476 C-323.491757 234.72052834 -323.48756042 229.20131717 -323.47037888 223.68233204 C-323.45167786 218.87774429 -323.40928722 214.07551808 -323.31762695 209.27172852 C-323.22914973 204.56218119 -323.20554115 199.85608378 -323.22400665 195.14578819 C-323.2197549 193.37447323 -323.19299276 191.60304044 -323.1415329 189.83246803 C-322.85494046 179.48429444 -323.82900554 172.76849629 -330.95288086 164.91088867 C-332.62899769 163.17607542 -334.33409492 161.4851799 -336.0761795 159.81674767 C-338.45723123 157.46251811 -340.51140122 154.91217862 -342.6081543 152.30273438 C-343.3094043 151.44035156 -344.0106543 150.57796875 -344.7331543 149.68945312 C-347.05980806 146.74830008 -349.29550275 143.7497052 -351.47924805 140.70117188 C-352.62516377 139.09193014 -352.62516377 139.09193014 -354.6706543 138.24023438 C-355.30100586 137.17675781 -355.30100586 137.17675781 -355.9440918 136.09179688 C-358.06297818 132.59227864 -360.60239455 129.68132228 -363.2956543 126.61523438 C-364.3786438 125.36736745 -365.46066625 124.11866064 -366.54174805 122.86914062 C-367.07396973 122.25441895 -367.60619141 121.63969727 -368.15454102 121.00634766 C-371.74612359 116.82252988 -375.19938432 112.52379422 -378.6706543 108.24023438 C-383.03745865 102.86631118 -387.42383067 97.51447856 -391.91601562 92.24487305 C-404.6706543 77.27917123 -404.6706543 77.27917123 -404.6706543 74.24023438 C-390.02454878 67.64894324 -375.26559082 61.36726065 -360.4206543 55.24023438 C-345.43459207 49.05481151 -330.47685947 42.80699684 -315.5456543 36.49023438 C-313.63558115 35.68236897 -311.7255063 34.87450761 -309.81542969 34.06665039 C-307.03401164 32.89021439 -304.25260312 31.71375597 -301.4712677 30.53712463 C-292.03933418 26.54803897 -282.60260123 22.57009256 -273.14941406 18.6315918 C-267.27484883 16.18202027 -261.41711354 13.70283932 -255.5847168 11.15429688 C-254.46814697 10.67226807 -253.35157715 10.19023926 -252.20117188 9.69360352 C-250.11993747 8.79406688 -248.04381576 7.88256615 -245.97412109 6.95678711 C-245.06573486 6.56692627 -244.15734863 6.17706543 -243.22143555 5.77539062 C-242.43422119 5.42871338 -241.64700684 5.08203613 -240.8359375 4.72485352 C-238.6706543 4.24023438 -238.6706543 4.24023438 -236.50952148 5.01025391 C-234.0107111 6.68165682 -232.46122683 8.68703616 -230.6081543 11.05273438 C-229.8347168 12.0246875 -229.0612793 12.99664062 -228.2644043 13.99804688 C-227.6437207 14.77970215 -227.6437207 14.77970215 -227.01049805 15.57714844 C-224.59714682 18.57272944 -222.10001932 21.497437 -219.6081543 24.42773438 C-219.11887451 25.00434814 -218.62959473 25.58096191 -218.12548828 26.17504883 C-216.97471617 27.53082345 -215.82281419 28.88563892 -214.6706543 30.24023438 C-206.57733074 28.78478463 -198.71854362 26.67369158 -190.7956543 24.49023438 C-176.19492654 20.52522382 -161.51160373 17.19215695 -146.6706543 14.24023438 C-145.39432129 13.985 -144.11798828 13.72976563 -142.80297852 13.46679688 C-118.42990302 8.61941741 -93.97459639 4.93111539 -69.2331543 2.55273438 C-68.00338867 2.43325439 -66.77362305 2.31377441 -65.5065918 2.19067383 C-43.70496379 0.20779394 -21.87464864 0.02507459 0 0 Z " fill="#020101" transform="translate(758.670654296875,369.759765625)"/>
<path d="M0 0 C0.95948547 0.09945923 1.91897095 0.19891846 2.90753174 0.3013916 C74.8738991 7.76627512 145.18000276 22.66216855 214 45 C214.78185669 45.2537439 215.56371338 45.50748779 216.3692627 45.7689209 C253.3709612 57.81727511 289.55243461 71.95541468 325 88 C326.10730469 88.49918945 327.21460938 88.99837891 328.35546875 89.51269531 C353.82000671 101.02395659 379.09197565 113.0003656 403.49902344 126.62402344 C408.56293284 129.4100634 413.70107201 132.05876532 418.83935547 134.70458984 C419.56268066 135.0805127 420.28600586 135.45643555 421.03125 135.84375 C421.65580078 136.16537109 422.28035156 136.48699219 422.92382812 136.81835938 C423.60896484 137.20830078 424.29410156 137.59824219 425 138 C426.04696045 138.51151611 427.0939209 139.02303223 428.17260742 139.55004883 C431.17995903 142.15593549 431.43603001 142.50602509 431.94067383 146.18823242 C432.05890968 147.90887378 432.14565721 149.63186218 432.20703125 151.35546875 C432.26248611 152.28036606 432.31794098 153.20526337 432.37507629 154.15818787 C432.54856305 157.16717294 432.68112224 160.17640748 432.8125 163.1875 C432.92332694 165.27079374 433.03645343 167.3539664 433.15185547 169.43701172 C433.42246607 174.44389739 433.66094937 179.45157723 433.88470459 184.46075439 C434.02953215 187.65041091 434.19587906 190.83880117 434.36328125 194.02734375 C434.65790619 200.01635752 434.83449953 206.00622149 435 212 C435.0437229 213.43474486 435.08785831 214.86947719 435.13232422 216.30419922 C437.76671986 302.3282542 435.56084912 388.63754372 368 793 C367.77826111 793.68584167 367.55652222 794.37168335 367.32806396 795.07830811 C354.53607582 834.55561022 338.23060311 872.75461646 320 910 C319.54125488 910.94472168 319.08250977 911.88944336 318.60986328 912.86279297 C295.15247155 961.1206536 265.39157917 1006.59155305 230.43994141 1047.31738281 C228.91525974 1049.09902168 227.40044495 1050.8887341 225.88671875 1052.6796875 C216.74021661 1063.47216272 216.74021661 1063.47216272 211.68286133 1068.31616211 C209.96912536 1070.03089255 208.40128694 1071.81606086 206.828125 1073.66015625 C202.92268852 1078.15112546 198.78092138 1082.36686037 194.5625 1086.5625 C193.85029297 1087.27857422 193.13808594 1087.99464844 192.40429688 1088.73242188 C188.34447092 1092.78487303 184.1870081 1096.65844627 179.84204102 1100.40307617 C177.23152499 1102.66621538 174.71562846 1105.0201279 172.1875 1107.375 C166.6433473 1112.49005227 160.89020796 1117.28627538 155 1122 C153.86916043 1122.92240375 152.73898485 1123.84562196 151.609375 1124.76953125 C85.94689424 1178.23514185 8.10600726 1214.37510848 -73.32617188 1236.27441406 C-74.97461949 1236.72174663 -76.61812383 1237.18843931 -78.25195312 1237.68652344 C-85.62344919 1239.83505357 -92.1796363 1238.11067801 -99.3828125 1236.06640625 C-100.06655441 1235.87329361 -100.75029633 1235.68018097 -101.45475769 1235.48121643 C-103.68042204 1234.84922258 -105.90293493 1234.20702763 -108.125 1233.5625 C-108.89532562 1233.34035828 -109.66565125 1233.11821655 -110.45932007 1232.88934326 C-145.0525786 1222.89251752 -178.53321056 1210.61829924 -211 1195 C-212.11084961 1194.46648926 -213.22169922 1193.93297852 -214.36621094 1193.38330078 C-244.71572732 1178.71648429 -273.8172075 1161.69467928 -300.88720703 1141.5703125 C-302.99032922 1140.00718771 -305.10195013 1138.45613148 -307.21484375 1136.90625 C-314.70862331 1131.37999711 -321.94985071 1125.64781605 -329 1119.56640625 C-331.72785122 1117.23281478 -334.50439767 1114.98561718 -337.3125 1112.75 C-350.17126074 1102.21753928 -361.80721 1090.28854185 -373.5625 1078.5625 C-374.48118362 1077.64783463 -374.48118362 1077.64783463 -375.41842651 1076.71469116 C-381.83389495 1070.32050408 -388.15274169 1063.92553108 -394 1057 C-395.04460847 1055.8079059 -396.09148803 1054.6177981 -397.140625 1053.4296875 C-404.3859504 1045.16559614 -411.33534223 1036.73839249 -418 1028 C-418.56444824 1027.26152832 -419.12889648 1026.52305664 -419.71044922 1025.76220703 C-466.56090508 964.30639541 -502.65970584 895.56803933 -529 823 C-529.47782916 821.69870081 -529.9561941 820.39759824 -530.43505859 819.09667969 C-561.94037721 733.35810444 -580.53777505 642.89118913 -605.125 395.3125 C-605.16370209 394.48005768 -605.20240417 393.64761536 -605.24227905 392.78994751 C-605.48147668 387.55843658 -605.69297583 382.3262909 -605.88571167 377.09286499 C-605.96511611 374.94402597 -606.04728595 372.79528807 -606.13162231 370.64663696 C-607.13951103 344.42216062 -607.18757795 318.19880907 -607.18530273 291.95776367 C-607.18522195 287.05798615 -607.19210527 282.15830309 -607.20581055 277.25854492 C-607.54503981 153.97886749 -607.54503981 153.97886749 -601 141 C-598.52664978 139.30355488 -596.20981549 137.92974089 -593.5625 136.5625 C-592.76811523 136.13767334 -591.97373047 135.71284668 -591.15527344 135.27514648 C-588.44528515 133.83350471 -585.7232066 132.41649724 -583 131 C-581.04534708 129.96917812 -579.09092757 128.93791354 -577.13671875 127.90625 C-570.11718748 124.21958362 -563.06408334 120.60027239 -556 117 C-555.28231445 116.63396667 -554.56462891 116.26793335 -553.82519531 115.89080811 C-481.63072131 79.09984443 -406.31727629 49.0329732 -328 28 C-327.23057068 27.7924408 -326.46114136 27.58488159 -325.668396 27.37103271 C-276.12752164 14.03407739 -225.37608451 5.02379445 -174.30230713 0.22003174 C-172.03435156 0.00328298 -169.76794029 -0.22585453 -167.50146484 -0.45751953 C-112.64625548 -5.96283528 -54.81713624 -5.83970876 0 0 Z M-158 36 C-159.01550934 36.07334564 -160.03101868 36.14669128 -161.07730103 36.22225952 C-166.80835541 36.64431807 -172.53009455 37.1351214 -178.25 37.6875 C-179.52200256 37.80913513 -179.52200256 37.80913513 -180.81970215 37.93322754 C-242.74022629 43.94875276 -302.95394379 57.95934252 -362.0625 77.0625 C-362.98729156 77.36005188 -363.91208313 77.65760376 -364.86489868 77.96417236 C-375.01007734 81.235284 -384.99895125 84.67561366 -394.85913086 88.72875977 C-398.09043681 90.03660354 -401.33726325 91.17625526 -404.65039062 92.25341797 C-421.20446831 97.64696747 -437.07421033 105.01242532 -453 112 C-454.54929199 112.67796631 -454.54929199 112.67796631 -456.12988281 113.36962891 C-514.71033671 135.99250661 -514.71033671 135.99250661 -566 170 C-566.22085233 172.33524503 -566.38040367 174.64714868 -566.5 176.98828125 C-566.54028824 177.70854996 -566.58057648 178.42881866 -566.62208557 179.1709137 C-566.75340474 181.55118682 -566.87720509 183.93177277 -567 186.3125 C-567.04357635 187.13518372 -567.08715271 187.95786743 -567.13204956 188.80548096 C-567.8905373 203.12560451 -568.56587512 217.44361723 -568.94140625 231.77960205 C-568.98201572 233.31848936 -569.02375999 234.85734699 -569.06640625 236.3961792 C-569.9597612 268.67870807 -570.1062617 300.95900558 -570.12293625 333.25182724 C-570.1249646 336.32142159 -570.12871164 339.39100964 -570.13284302 342.46060181 C-570.15718363 363.22540146 -570.07128925 383.97935297 -569.54296875 404.73828125 C-569.51264494 405.93549112 -569.51264494 405.93549112 -569.48170853 407.15688705 C-569.09677823 421.95096527 -568.55013941 436.74674977 -567.65625 451.51953125 C-567.60722534 452.33726517 -567.55820068 453.15499908 -567.50769043 453.99751282 C-561.16764588 557.41314228 -547.78431444 662.23058042 -516.80126953 761.39746094 C-516.07030323 763.77165373 -515.36859854 766.15127145 -514.68359375 768.5390625 C-491.57768952 848.80582297 -456.41770489 928.12766948 -355.25512695 1065.50952148 C-353.87283187 1067.03607687 -352.49891183 1068.57033304 -351.13964844 1070.11743164 C-344.69139469 1077.42571923 -337.84360939 1084.30874588 -330.94311523 1091.18725586 C-328.93422136 1093.19076986 -326.93075611 1095.19960152 -324.92773438 1097.20898438 C-318.78983562 1103.35040486 -312.66367844 1109.42335301 -306 1115 C-304.88127532 1115.97219229 -303.76406538 1116.94613058 -302.6484375 1117.921875 C-257.62790842 1156.92288931 -203.79685029 1193.0995877 -146.58984375 1211.1484375 C-144.16072234 1211.94715314 -141.8509617 1212.87268357 -139.5 1213.875 C-93.17409662 1232.68567733 -56.73362302 1224.1914258 -12.12890625 1205.6328125 C35.83547036 1185.22145172 79.94254561 1158.38834854 120 1125 C120.57975586 1124.51934082 121.15951172 1124.03868164 121.75683594 1123.54345703 C129.18961985 1117.37360747 136.39452833 1110.9947842 143.46875 1104.41796875 C145.04504823 1102.95828442 146.6306604 1101.50934125 148.21875 1100.0625 C157.55835659 1091.53715121 166.83357664 1082.89147222 175.03515625 1073.24609375 C177.18987305 1070.7829483 179.41795868 1068.4005657 181.65844727 1066.015625 C187.7278543 1059.55171946 193.46009241 1052.9271813 199 1046 C199.98128222 1044.80841891 200.96448045 1043.61841404 201.94921875 1042.4296875 C210.3668001 1032.23808379 218.27249293 1021.72219604 226 1011 C226.53012695 1010.26604004 227.06025391 1009.53208008 227.60644531 1008.77587891 C240.12573813 991.39407706 251.33437407 973.32990817 262.26660156 954.91455078 C263.8022718 952.33246186 265.34786859 949.75675028 266.8984375 947.18359375 C272.03397728 938.62243628 276.69020941 929.92413046 281.04980469 920.94433594 C282.27395586 918.43941818 283.53179958 915.95227244 284.79052734 913.46459961 C286.1551584 910.75929667 287.50159965 908.04514068 288.84570312 905.32958984 C289.64884014 903.70870714 290.45506107 902.08935035 291.26367188 900.47119141 C316.32499893 850.15757652 334.83895576 797.04635005 350 743 C350.18001556 742.36023224 350.36003113 741.72046448 350.54550171 741.06130981 C359.81509214 708.07846768 367.26836644 674.95745308 373.38720703 641.24951172 C373.54751404 640.36715347 373.70782104 639.48479523 373.87298584 638.57569885 C374.16989094 636.93635018 374.46501376 635.29667713 374.75787354 633.65660095 C375.44166009 629.8675952 376.18528028 626.10577979 377.03662109 622.35058594 C378.44919856 616.1004996 379.32889485 609.775333 380.25 603.4375 C380.40757278 602.35929489 380.40757278 602.35929489 380.56832886 601.25930786 C387.59950606 552.94540311 392.69546135 504.5559899 395.53137207 455.81871033 C395.7474923 452.11778959 395.9705275 448.41836681 396.23104763 444.7202425 C396.85599454 435.83325992 397.2843496 426.95604468 397.55419922 418.05004883 C397.58564266 417.02843515 397.58564266 417.02843515 397.61772132 415.98618281 C398.06843048 401.09370275 398.14851214 386.20384069 398.1343255 371.30523658 C398.13170525 367.65798369 398.13416572 364.01073266 398.13571167 360.36347961 C398.13750882 354.23832741 398.13519553 348.11318743 398.13037109 341.98803711 C398.12555719 335.80736497 398.12553889 329.62671703 398.13037109 323.44604492 C398.16222166 281.56720663 398.09283196 239.70295235 396.125 197.85961914 C395.99347187 195.04794844 395.87151282 192.23594815 395.75 189.42382812 C395.66719701 187.58851766 395.58388767 185.75322995 395.5 183.91796875 C395.46455078 183.09950974 395.42910156 182.28105072 395.39257812 181.43778992 C395.28893762 179.28902514 395.15271321 177.14576067 395 175 C394.92821533 173.89495117 394.85643066 172.78990234 394.7824707 171.65136719 C394.21868855 168.84786391 394.21868855 168.84786391 391.85229492 167.17993164 C390.90459229 166.67840576 389.95688965 166.17687988 388.98046875 165.66015625 C387.90998291 165.07999756 386.83949707 164.49983887 385.73657227 163.90209961 C384.56537842 163.29503174 383.39418457 162.68796387 382.1875 162.0625 C380.96245312 161.40886657 379.73842851 160.75331395 378.51538086 160.09594727 C375.96168382 158.7275157 373.40197633 157.37141687 370.83691406 156.02441406 C367.19356606 154.10832368 363.57560566 152.14938136 359.9609375 150.1796875 C314.2711432 125.33590228 266.76359211 103.12736869 217.52832031 86.21484375 C214.8869305 85.305381 212.24863102 84.38876807 209.61230469 83.46484375 C192.1385661 77.34194308 174.73518092 71.28196812 156.77539062 66.72753906 C153.63287288 65.90376154 150.51279776 65.01496819 147.390625 64.1171875 C129.72900616 59.05834406 112.00691783 55.01291393 94.00469971 51.40496826 C90.83233696 50.76412105 87.6647346 50.10037323 84.49609375 49.44140625 C55.19300957 43.44675962 25.59113797 39.40320774 -4.1875 36.6875 C-5.07005463 36.60618835 -5.95260925 36.52487671 -6.86190796 36.44110107 C-31.34442652 34.21883243 -55.77239087 33.81165308 -80.33813477 33.81469727 C-83.6347406 33.81477807 -86.93120611 33.80789066 -90.2277832 33.79418945 C-112.89699657 33.70160289 -135.38980923 34.33740938 -158 36 Z " fill="#020507" transform="translate(848,116)"/>
<path d="M0 0 C1.3555934 -0.00659862 2.71150237 0.01486189 4.06640625 0.05859375 C5.17870605 0.08167603 5.17870605 0.08167603 6.31347656 0.10522461 C44.71711122 1.38137023 78.45601621 17.64194729 105.62890625 44.49609375 C108.80278711 48.03974714 111.71938631 51.73487797 114.62890625 55.49609375 C115.78519531 56.82447266 115.78519531 56.82447266 116.96484375 58.1796875 C121.98220902 64.2445378 123.69751969 68.67771225 123.15234375 76.6015625 C122.45223016 80.47308615 121.41901862 82.70598138 118.62890625 85.49609375 C113.62890625 88.49609375 113.62890625 88.49609375 110.62890625 88.49609375 C110.99242187 89.50192505 110.99242187 89.50192505 111.36328125 90.52807617 C112.46001227 93.57704114 113.54455901 96.6302038 114.62890625 99.68359375 C115.01046875 100.73869141 115.39203125 101.79378906 115.78515625 102.88085938 C116.14609375 103.90244141 116.50703125 104.92402344 116.87890625 105.9765625 C117.2140625 106.91395264 117.54921875 107.85134277 117.89453125 108.81713867 C118.63257126 111.50946348 118.76979681 113.72010944 118.62890625 116.49609375 C119.25796875 116.521875 119.88703125 116.54765625 120.53515625 116.57421875 C126.53597433 116.97186332 131.80867238 117.67706477 136.62890625 121.49609375 C145.76231655 132.67904928 144.43299491 145.4354812 143.11547852 159.21679688 C138.87892778 196.67682447 118.73320839 230.88244492 89.62890625 254.49609375 C64.97865602 273.08750418 35.4649943 283.68506046 4.5703125 283.68139648 C2.5297302 283.68356629 0.48970461 283.70171842 -1.55078125 283.72070312 C-29.15090492 283.84078188 -58.02526208 275.02015648 -80.37109375 258.49609375 C-80.37109375 257.83609375 -80.37109375 257.17609375 -80.37109375 256.49609375 C-67.17109375 256.49609375 -53.97109375 256.49609375 -40.37109375 256.49609375 C-41.36109375 253.52609375 -42.35109375 250.55609375 -43.37109375 247.49609375 C-43.60054687 246.36300781 -43.83 245.22992187 -44.06640625 244.0625 C-45.20183993 241.10895786 -45.20183993 241.10895786 -48.86328125 240.2109375 C-50.32006719 239.92941756 -51.78156538 239.67157566 -53.24609375 239.43359375 C-54.79971437 239.12349016 -56.35182443 238.80572416 -57.90234375 238.48046875 C-58.66546875 238.32126953 -59.42859375 238.16207031 -60.21484375 237.99804688 C-74.07123075 234.77242055 -85.29599778 226.11553211 -95.37109375 216.49609375 C-96.04785156 215.90570312 -96.72460938 215.3153125 -97.421875 214.70703125 C-105.01622883 207.79753899 -111.2124807 197.88862171 -115.37109375 188.49609375 C-115.37109375 187.50609375 -115.37109375 186.51609375 -115.37109375 185.49609375 C-118.83609375 186.48609375 -118.83609375 186.48609375 -122.37109375 187.49609375 C-121.82195313 188.63304687 -121.82195313 188.63304687 -121.26171875 189.79296875 C-117.30548408 198.11990077 -113.57014616 206.53603295 -109.9251709 215.00354004 C-109.13494354 216.83892615 -108.34142644 218.67289473 -107.54785156 220.50683594 C-104.86502965 226.76907502 -102.40422119 232.99287104 -100.37109375 239.49609375 C-124.10262917 220.43256339 -136.31567708 186.77020459 -139.70410156 157.42456055 C-140.63777083 148.03260654 -141.09004642 138.82557072 -139.37109375 129.49609375 C-131.75193603 143.7653058 -129.25008755 161.88776154 -125.37109375 177.49609375 C-122.40109375 176.50609375 -122.40109375 176.50609375 -119.37109375 175.49609375 C-119.57025391 174.62597656 -119.57025391 174.62597656 -119.7734375 173.73828125 C-119.95003906 172.95710937 -120.12664063 172.1759375 -120.30859375 171.37109375 C-120.48261719 170.60539063 -120.65664063 169.8396875 -120.8359375 169.05078125 C-125.82307431 145.24357341 -120.86627328 121.55399324 -107.78564453 101.27929688 C-105.51657824 97.90037172 -103.05523327 95.11169402 -100.12109375 92.30859375 C-98.34698986 90.59386329 -98.34698986 90.59386329 -97.37109375 88.49609375 C-97.63535536 85.40726545 -98.37278032 82.90673299 -99.46875 80.01171875 C-100.37109375 77.49609375 -100.37109375 77.49609375 -100.37109375 73.49609375 C-106.79223167 79.02573755 -112.96526051 84.7831408 -119.10351562 90.62304688 C-131.63807712 102.49609375 -131.63807712 102.49609375 -133.37109375 102.49609375 C-132.87138522 96.33996229 -131.45277985 91.52325435 -128.87109375 85.93359375 C-128.33705933 84.76231934 -128.33705933 84.76231934 -127.79223633 83.56738281 C-111.25978697 48.10313538 -82.58728508 21.84038028 -46.0078125 8.12890625 C-30.85948476 2.67933469 -30.85948476 2.67933469 -25.37109375 4.49609375 C-25.70109375 5.15609375 -26.03109375 5.81609375 -26.37109375 6.49609375 C-23.28491652 6.27552443 -20.20344843 6.01451361 -17.12109375 5.74609375 C-15.81205078 5.65328125 -15.81205078 5.65328125 -14.4765625 5.55859375 C-8.11699247 4.97603772 -5.63263075 0.82890395 0 0 Z " fill="#F7F7F7" transform="translate(760.37109375,586.50390625)"/>
<path d="M0 0 C7.34252091 7.31373265 14.09771994 15.02923944 20.6171875 23.08203125 C23.20755848 26.25417407 25.84682867 29.38043294 28.5 32.5 C32.62124182 37.34939906 36.66991814 42.25161371 40.6875 47.1875 C43.26146392 50.31799666 45.87569086 53.41172461 48.5 56.5 C52.61983299 61.34820125 56.66795964 66.24845845 60.68359375 71.18359375 C63.27787266 74.33785192 65.91606265 77.4520298 68.5625 80.5625 C72.43241802 85.11284316 76.19959897 89.72832835 79.91015625 94.41015625 C82.83220315 98.03130969 85.84821486 101.56954569 88.86328125 105.11328125 C91.78004513 108.54571609 94.65693426 112.00592815 97.5 115.5 C100.78823483 119.53983137 104.12721426 123.53092065 107.5 127.5 C111.61983299 132.34820125 115.66795964 137.24845845 119.68359375 142.18359375 C122.27787266 145.33785192 124.91606265 148.4520298 127.5625 151.5625 C131.42700996 156.10648424 135.18933177 160.71519803 138.89453125 165.390625 C142.31638961 169.6314439 145.85474772 173.77271667 149.38671875 177.921875 C149.81654053 178.43967529 150.2463623 178.95747559 150.68920898 179.4909668 C151.9686895 180.96395415 153.36735978 182.33066509 154.765625 183.69140625 C157.95543027 188.41477175 157.8529352 192.60072311 158.0625 198.1875 C160.46194889 237.5796977 177.68568129 277.39664533 206.74609375 304.63671875 C208 306 208 306 208 308 C208.56074219 308.24105469 209.12148438 308.48210937 209.69921875 308.73046875 C212.47443007 310.2617823 214.50031351 312.14596305 216.8125 314.3125 C220.08581276 317.44318566 220.08581276 317.44318566 223.76830345 320.04409474 C225.74692833 321.22334825 227.37099526 322.36707352 229 324 C229.71097832 327.03451065 229.92432267 329.01393505 229.84178162 332.04219055 C229.84776259 332.84683894 229.85374356 333.65148733 229.85990578 334.480519 C229.87142969 337.17473044 229.83295663 339.86588473 229.79467773 342.55981445 C229.79270306 344.49156116 229.79381185 346.42331312 229.79777527 348.35505676 C229.79978514 353.59885487 229.75860815 358.84153396 229.70975757 364.0850718 C229.66602176 369.56497298 229.66188829 375.04489934 229.65357971 380.52494812 C229.631816 390.90190767 229.57436318 401.27835148 229.50413328 411.65508384 C229.42591289 423.46868686 229.38740906 435.28231441 229.35226524 447.09611189 C229.27908154 471.39769395 229.15594341 495.69881809 229 520 C226.76751905 518.89479018 224.53627474 517.78719588 222.30566406 516.67822266 C221.67890778 516.36824844 221.05215149 516.05827423 220.40640259 515.73890686 C215.33407059 513.21352335 210.50904135 510.44264873 205.75 507.375 C204.95553467 506.86702881 204.16106934 506.35905762 203.3425293 505.83569336 C185.08600519 494.0355909 167.99729628 480.70984264 152 466 C150.3751007 464.56238617 148.75009816 463.12488903 147.125 461.6875 C138.55610068 453.96874345 130.45675581 445.79989816 123 437 C122.1118978 435.98590881 121.2224536 434.9729921 120.33203125 433.9609375 C100.35049955 411.14610508 83.46923486 385.61691339 69 359 C68.36771484 357.85869629 68.36771484 357.85869629 67.72265625 356.69433594 C47.00816436 319.28241484 31.95519073 277.58886628 22 236 C21.82275391 235.26652344 21.64550781 234.53304687 21.46289062 233.77734375 C20.42917294 229.48573601 19.42394242 225.18821686 18.43652344 220.88574219 C18.04273564 219.18461414 17.63546349 217.48662118 17.2265625 215.7890625 C9.17671786 182.11820697 3.58077225 146.3431987 2.2109375 111.7421875 C2.06120257 108.07591357 2.06120257 108.07591357 1.52159119 104.77816772 C0.9710769 100.79049429 0.65937887 96.82344859 0.44360352 92.80712891 C0.40142228 92.02812037 0.35924105 91.24911182 0.31578159 90.44649696 C-0.13685681 81.327172 -0.12557618 72.2141134 -0.09765625 63.0859375 C-0.09578461 61.25078368 -0.09436425 59.41562936 -0.09336853 57.58047485 C-0.08960197 52.8164322 -0.07982388 48.05242142 -0.06866455 43.28839111 C-0.05832229 38.40059846 -0.05384383 33.51280051 -0.04882812 28.625 C-0.03819458 19.08331955 -0.02119131 9.54166245 0 0 Z " fill="#EF1F12" transform="translate(435,544)"/>
<path d="M0 0 C0.33 0 0.66 0 1 0 C1.44132986 77.29427111 1.44132986 77.29427111 -1 108 C-1.09474609 109.22423676 -1.09474609 109.22423676 -1.19140625 110.47320557 C-4.66454007 155.1802268 -10.56691973 200.72688775 -23.375 243.8125 C-23.6838916 244.85873535 -23.9927832 245.9049707 -24.31103516 246.98291016 C-25.2019767 249.99024327 -26.09964165 252.99547475 -27 256 C-27.21914062 256.73621582 -27.43828125 257.47243164 -27.6640625 258.23095703 C-43.92958586 312.65268726 -67.43888125 365.64351368 -102 411 C-102.46712402 411.6172998 -102.93424805 412.23459961 -103.41552734 412.87060547 C-118.58099077 432.83138735 -135.60035589 452.704667 -154.6796875 469.015625 C-156.44988034 470.5295273 -158.20184782 472.06476703 -159.9453125 473.609375 C-177.48124193 489.05906149 -196.75989818 502.18719553 -216.8125 514.125 C-217.78678955 514.70644775 -218.7610791 515.28789551 -219.76489258 515.88696289 C-220.67392334 516.42184326 -221.5829541 516.95672363 -222.51953125 517.5078125 C-223.33526611 517.98879395 -224.15100098 518.46977539 -224.99145508 518.96533203 C-227 520 -227 520 -229 520 C-229.30388792 494.74825994 -229.533026 469.49679448 -229.67355824 444.24359322 C-229.7405493 432.51756741 -229.83185282 420.79267867 -229.98071289 409.06738281 C-230.1104218 398.84568448 -230.19418758 388.62480966 -230.22315043 378.40231121 C-230.24007803 372.99067204 -230.27975588 367.58138838 -230.37449074 362.17050552 C-230.4630195 357.07258338 -230.4898982 351.97797613 -230.47039986 346.87935829 C-230.47396413 345.01280858 -230.49966768 343.1461433 -230.54967117 341.28026009 C-230.89956355 327.54539445 -230.89956355 327.54539445 -227.71279502 323.27515936 C-224.22208873 319.81977175 -220.23039004 317.44498733 -216 315 C-183.67281018 289.52650168 -162.88793827 248.42748313 -158 208 C-157.8842556 206.23546844 -157.7866486 204.46965535 -157.70703125 202.703125 C-157.13775551 190.83013337 -155.01257633 184.69162032 -146.41210938 176.39990234 C-144.32073543 174.32660736 -142.51896947 172.05310729 -140.6875 169.75 C-132.13054141 159.24897389 -123.54242497 148.77684485 -114.76220703 138.46142578 C-111.45589033 134.56666562 -108.26275427 130.59329118 -105.08984375 126.58984375 C-102.16779685 122.96869031 -99.15178514 119.43045431 -96.13671875 115.88671875 C-93.21995487 112.45428391 -90.34306574 108.99407185 -87.5 105.5 C-83.75212202 100.8954642 -79.93016556 96.35980809 -76.0859375 91.8359375 C-73.18755177 88.4194046 -70.328449 84.97495162 -67.5 81.5 C-63.75212202 76.8954642 -59.93016556 72.35980809 -56.0859375 67.8359375 C-53.18755177 64.4194046 -50.328449 60.97495162 -47.5 57.5 C-43.75212202 52.8954642 -39.93016556 48.35980809 -36.0859375 43.8359375 C-33.18755177 40.4194046 -30.328449 36.97495162 -27.5 33.5 C-24.21176205 29.46016481 -20.87266822 25.46918267 -17.5 21.5 C-9.16321438 11.78850929 -9.16321438 11.78850929 -1.3125 1.69140625 C-0.879375 1.13324219 -0.44625 0.57507813 0 0 Z " fill="#260E6A" transform="translate(1089,543)"/>
<path d="M0 0 C2.11461146 0.2671244 4.23023153 0.5236529 6.34655762 0.77679443 C30.63108801 3.7215564 54.73783619 7.95706862 78.52966309 13.64593506 C81.27824407 14.29876736 84.0309635 14.93124295 86.78503418 15.56048584 C96.09128123 17.70400463 105.21135673 19.95170773 114.17956543 23.27532959 C109.83742842 29.35432141 105.04693752 34.94952482 100.13635254 40.5680542 C96.13720444 45.15011549 92.25028519 49.80707846 88.42175293 54.53314209 C85.8770286 57.64533107 83.28338318 60.71259456 80.67956543 63.77532959 C77.30667941 67.74432111 73.96779769 71.73550139 70.67956543 75.77532959 C66.93103897 80.38066209 63.10872297 84.91737403 59.26330566 89.44158936 C56.38411223 92.83487068 53.54752306 96.25800745 50.74206543 99.71282959 C46.78513125 104.57582383 42.71520601 109.33233162 38.62341309 114.08148193 C34.82793176 118.49564725 31.1267863 122.97866157 27.45690918 127.49798584 C24.89752489 130.61929326 22.29362752 133.69982989 19.67956543 136.77532959 C16.30672954 140.74436502 12.96779898 144.7354998 9.67956543 148.77532959 C8.96155762 149.64673584 8.2435498 150.51814209 7.50378418 151.41595459 C5.76666551 153.55304848 4.06990997 155.70609659 2.38659668 157.88470459 C1.42220087 159.09860226 0.4573635 160.31214927 -0.50793457 161.52532959 C-0.94750488 162.1112085 -1.3870752 162.6970874 -1.83996582 163.30072021 C-3.14465332 164.91595459 -3.14465332 164.91595459 -5.82043457 167.27532959 C-10.92074737 167.4039089 -15.83154144 164.81577077 -20.50793457 162.90032959 C-47.95198458 151.98890629 -79.71530784 148.63560579 -108.82043457 154.27532959 C-109.99170898 154.50131836 -109.99170898 154.50131836 -111.18664551 154.73187256 C-124.30782477 157.36572285 -136.53736289 161.49232001 -148.88537598 166.62030029 C-150.82043457 167.27532959 -150.82043457 167.27532959 -153.82043457 167.27532959 C-155.66027832 165.36126709 -155.66027832 165.36126709 -157.75793457 162.65032959 C-158.55070801 161.64743896 -159.34348145 160.64454834 -160.16027832 159.61126709 C-160.58808594 159.06953857 -161.01589355 158.52781006 -161.45666504 157.96966553 C-163.83900716 155.00986346 -166.33413534 152.14780793 -168.82043457 149.27532959 C-173.12133648 144.28695802 -177.32532171 139.23307731 -181.47668457 134.11907959 C-184.21345595 130.79846365 -187.01149842 127.5348925 -189.82043457 124.27532959 C-194.13977729 119.26218186 -198.37140734 114.18995444 -202.54309082 109.05267334 C-205.10247511 105.93136592 -207.70637248 102.85082929 -210.32043457 99.77532959 C-214.44151249 94.92578908 -218.4903494 90.02371994 -222.50793457 85.08782959 C-225.54476227 81.39439049 -228.64004412 77.75234473 -231.73669434 74.10906982 C-234.61588777 70.7157885 -237.45247694 67.29265173 -240.25793457 63.83782959 C-243.71318219 59.59139826 -247.24758781 55.42252409 -250.82043457 51.27532959 C-258.40179058 42.46909057 -265.74265341 33.49237579 -272.82043457 24.27532959 C-271.82043457 22.27532959 -271.82043457 22.27532959 -269.54016113 21.44085693 C-268.52405762 21.16709229 -267.5079541 20.89332764 -266.46105957 20.61126709 C-265.30307861 20.29794434 -264.14509766 19.98462158 -262.95202637 19.6618042 C-261.65850187 19.32334608 -260.36462472 18.98623344 -259.07043457 18.65032959 C-258.40597321 18.47647736 -257.74151184 18.30262512 -257.05691528 18.12350464 C-175.5074699 -3.13519917 -88.45319373 -10.74238103 0 0 Z " fill="#F8F8F8" transform="translate(841.8204345703125,406.72467041015625)"/>
<path d="M0 0 C9 3 9 3 12.45703125 4.24609375 C30.80786091 10.76181325 49.40696375 13.23504361 68.8125 13.25 C69.59656219 13.25067474 70.38062439 13.25134949 71.18844604 13.25204468 C83.02669724 13.23585339 94.44607791 12.80706749 106 10 C106.76006348 9.81775879 107.52012695 9.63551758 108.30322266 9.44775391 C117.32249051 7.22588446 125.99769936 4.44538852 134.59375 0.91796875 C137 0 137 0 139 0 C139 74.25 139 148.5 139 225 C130.42 227.31 121.84 229.62 113 232 C99.62688482 235.77239442 99.62688482 235.77239442 86.3125 239.7421875 C85.37124268 240.02570068 84.42998535 240.30921387 83.46020508 240.60131836 C81.66964106 241.14130971 79.88265411 241.69337674 78.1003418 242.26000977 C69.23400579 244.90910332 62.47742511 243.03867654 53.8125 240.4375 C51.96528045 239.89564445 50.11759587 239.35537254 48.26953125 238.81640625 C47.27260254 238.52523926 46.27567383 238.23407227 45.24853516 237.93408203 C37.98349349 235.8450959 30.68379958 233.87772492 23.38989258 231.89233398 C22.22997803 231.57466064 21.07006348 231.2569873 19.875 230.9296875 C18.86179687 230.65366699 17.84859375 230.37764648 16.8046875 230.09326172 C11.17913317 228.47678121 5.59435921 226.72134129 0 225 C0 150.75 0 76.5 0 0 Z " fill="#E4E4E4" transform="translate(693,885)"/>
<path d="M0 0 C1.61816406 1.31591797 1.61816406 1.31591797 3.015625 2.9921875 C3.53979004 3.60916504 4.06395508 4.22614258 4.60400391 4.86181641 C5.41877197 5.85834229 5.41877197 5.85834229 6.25 6.875 C7.10924072 7.8966626 7.10924072 7.8966626 7.98583984 8.93896484 C9.67049698 10.94873955 11.33785793 12.97158826 13 15 C13.81210937 15.98484375 14.62421875 16.9696875 15.4609375 17.984375 C16.89818966 19.73813395 18.33053065 21.49592978 19.7578125 23.2578125 C22.30253595 26.37000041 24.89614381 29.43729874 27.5 32.5 C30.85452096 36.44646124 34.17221962 40.41642235 37.4375 44.4375 C40.89274151 48.68392382 44.42697834 52.85296294 48 57 C52.31928956 62.01319488 56.55097119 67.0853732 60.72265625 72.22265625 C63.28204054 75.34396367 65.88593791 78.4245003 68.5 81.5 C72.62107792 86.34954051 76.66991483 91.25160964 80.6875 96.1875 C83.7243277 99.8809391 86.81960955 103.52298486 89.91625977 107.16625977 C92.7954532 110.55954109 95.63204237 113.98267786 98.4375 117.4375 C101.89274151 121.68392382 105.42697834 125.85296294 109 130 C113.31928956 135.01319488 117.55097119 140.0853732 121.72265625 145.22265625 C124.28204081 148.34396401 126.88595083 151.42448883 129.5 154.5 C133.74208645 159.4923422 137.92109378 164.53107331 142.05078125 169.6171875 C143.69368873 171.62555135 145.36822283 173.59770799 147.0625 175.5625 C149 178 149 178 149 180 C147.13571887 181.5317007 145.26163251 182.95837667 143.3125 184.375 C132.16393418 192.73642437 122.45840976 201.88535279 114 213 C113.15458799 214.04893713 112.30819125 215.09708118 111.4609375 216.14453125 C102.0220307 228.10551944 85.5091654 250.09776429 87 266 C86.34 266.33 85.68 266.66 85 267 C84.20180463 269.35671551 83.50852775 271.66213375 82.875 274.0625 C82.69324219 274.72572266 82.51148438 275.38894531 82.32421875 276.07226562 C81.87569596 277.71291479 81.43692614 279.35622449 81 281 C77.43468125 278.31048254 74.64247488 275.5613038 71.875 272.0625 C71.09898437 271.09441406 70.32296875 270.12632812 69.5234375 269.12890625 C69.11448242 268.61859863 68.70552734 268.10829102 68.28417969 267.58251953 C66.0673526 264.85068052 63.78149473 262.17784431 61.5 259.5 C58.14503065 255.55393079 54.82776871 251.58356328 51.5625 247.5625 C48.10725849 243.31607618 44.57302166 239.14703706 41 235 C36.68190352 229.98818987 32.45093474 224.91781816 28.28125 219.78125 C25.70157112 216.63616205 23.07368017 213.53520324 20.4375 210.4375 C16.56752514 205.88720681 12.80039911 201.27166922 9.08984375 196.58984375 C6.16779685 192.96869031 3.15178514 189.43045431 0.13671875 185.88671875 C-2.78004513 182.45428391 -5.65693426 178.99407185 -8.5 175.5 C-11.78823483 171.46016863 -15.12721426 167.46907935 -18.5 163.5 C-22.62101634 158.65040619 -26.66991354 153.74839194 -30.6875 148.8125 C-33.26146392 145.68200334 -35.87569086 142.58827539 -38.5 139.5 C-42.62101634 134.65040619 -46.66991354 129.74839194 -50.6875 124.8125 C-53.26146392 121.68200334 -55.87569086 118.58827539 -58.5 115.5 C-62.62101634 110.65040619 -66.66991354 105.74839194 -70.6875 100.8125 C-73.26146392 97.68200334 -75.87569086 94.58827539 -78.5 91.5 C-82.62101634 86.65040619 -86.66991354 81.74839194 -90.6875 76.8125 C-93.261475 73.68198986 -95.87626452 70.58877591 -98.5 67.5 C-99.88332766 65.8664574 -101.26590227 64.2322825 -102.64794922 62.59765625 C-103.54146366 61.54183131 -104.43629812 60.48712189 -105.33251953 59.43359375 C-106.58228845 57.96117297 -107.82258742 56.48073027 -109.0625 55 C-109.77535156 54.154375 -110.48820312 53.30875 -111.22265625 52.4375 C-112.99372439 50.00860655 -113.94186839 47.79456017 -115 45 C-113.71766479 44.46765747 -113.71766479 44.46765747 -112.40942383 43.92456055 C-94.56620417 36.51452873 -76.74284481 29.05939133 -58.94857788 21.53250122 C-56.0683357 20.31496686 -53.18728107 19.09937737 -50.3059082 17.88452148 C-48.42399002 17.09098513 -46.54207269 16.29744674 -44.66015625 15.50390625 C-43.74780716 15.11925705 -42.83545807 14.73460785 -41.89546204 14.33830261 C-36.93251264 12.24403346 -31.97541421 10.13693485 -27.0252533 8.01261902 C-24.30640916 6.84795035 -21.58345306 5.69315653 -18.85934448 4.54086304 C-17.05601665 3.77382641 -15.2584872 2.99320186 -13.46118164 2.2121582 C-12.4014917 1.76573975 -11.34180176 1.31932129 -10.25 0.859375 C-9.34765625 0.47233398 -8.4453125 0.08529297 -7.515625 -0.31347656 C-4.54209552 -1.12496384 -2.90774292 -0.98949878 0 0 Z " fill="#F0F0F0" transform="translate(515,410)"/>
<path d="M0 0 C4.34563433 1.38933659 8.52051282 3.00747853 12.71484375 4.80078125 C13.35383606 5.07306046 13.99282837 5.34533966 14.65118408 5.62586975 C16.02767469 6.21262271 17.40372998 6.80039778 18.77938843 7.38909912 C22.50183916 8.98184081 26.22771367 10.56654237 29.953125 12.15234375 C30.71509689 12.47692566 31.47706879 12.80150757 32.26213074 13.13592529 C39.55931646 16.2426388 46.8714743 19.31297781 54.1875 22.375 C55.43280623 22.89666578 56.67808597 23.41839479 57.92333984 23.94018555 C60.52080153 25.02855902 63.1182932 26.11686083 65.71582031 27.20507812 C66.40212524 27.49261963 67.08843018 27.78016113 67.79553223 28.07641602 C69.33677213 28.722134 70.87803366 29.36780037 72.41931152 30.01342773 C77.61377174 32.18959686 82.80725209 34.36808194 87.99966431 36.5491333 C89.69333922 37.26013028 91.38732405 37.97038951 93.08163452 38.67987061 C95.45236221 39.67269843 97.82199688 40.66809336 100.19140625 41.6640625 C100.89316986 41.95726379 101.59493347 42.25046509 102.31796265 42.55255127 C106.29208681 44.22666279 110.16199202 46.02672153 114 48 C109.81440222 53.81333025 105.27844654 59.23608437 100.59887695 64.65063477 C96.74618748 69.11286309 92.99375644 73.64602507 89.27734375 78.22265625 C86.71795946 81.34396367 84.11406209 84.4245003 81.5 87.5 C78.12716411 91.46903543 74.78823355 95.46017021 71.5 99.5 C67.75212202 104.1045358 63.93016556 108.64019191 60.0859375 113.1640625 C57.18755177 116.5805954 54.328449 120.02504838 51.5 123.5 C47.75212202 128.1045358 43.93016556 132.64019191 40.0859375 137.1640625 C37.18755177 140.5805954 34.328449 144.02504838 31.5 147.5 C27.75212202 152.1045358 23.93016556 156.64019191 20.0859375 161.1640625 C17.18755177 164.5805954 14.328449 168.02504838 11.5 171.5 C7.75212202 176.1045358 3.93016556 180.64019191 0.0859375 185.1640625 C-2.81244823 188.5805954 -5.671551 192.02504838 -8.5 195.5 C-12.24787798 200.1045358 -16.06983444 204.64019191 -19.9140625 209.1640625 C-22.81244823 212.5805954 -25.671551 216.02504838 -28.5 219.5 C-32.24787798 224.1045358 -36.06983444 228.64019191 -39.9140625 233.1640625 C-42.81244823 236.5805954 -45.671551 240.02504838 -48.5 243.5 C-52.24556019 248.10168823 -56.06422008 252.63537071 -59.9074707 257.15527344 C-62.87656763 260.65346999 -65.79620012 264.18688345 -68.6875 267.75 C-71.5602322 271.26858027 -74.46104037 274.75600607 -77.4375 278.1875 C-78.07558594 278.92355469 -78.71367188 279.65960937 -79.37109375 280.41796875 C-81 282 -81 282 -83 282 C-83.60464367 280.04181389 -84.20868482 278.08344174 -84.8125 276.125 C-85.18375 274.92875 -85.555 273.7325 -85.9375 272.5 C-86.54848199 270.48735345 -87.14246415 268.46899725 -87.6875 266.4375 C-89.82328967 258.53507822 -93.37336279 251.30298057 -97 244 C-97.54785156 242.89140625 -98.09570312 241.7828125 -98.66015625 240.640625 C-110.7585913 217.18739394 -129.08074268 197.78869494 -150 182 C-148.47272653 176.94751041 -145.39417992 173.71194411 -141.9375 169.875 C-140.75011496 168.53229887 -139.56392174 167.18854286 -138.37890625 165.84375 C-137.79898926 165.18761719 -137.21907227 164.53148437 -136.62158203 163.85546875 C-133.73897022 160.55708728 -130.99909807 157.14540678 -128.2421875 153.7421875 C-125.69746317 150.62999852 -123.10381775 147.56273503 -120.5 144.5 C-117.12711398 140.53100848 -113.78823226 136.5398282 -110.5 132.5 C-106.75147354 127.8946675 -102.92915754 123.35795556 -99.08374023 118.83374023 C-96.2045468 115.44045891 -93.36795763 112.01732214 -90.5625 108.5625 C-86.60556582 103.69950576 -82.53564058 98.94299797 -78.44384766 94.19384766 C-74.64836633 89.77968234 -70.94722087 85.29666802 -67.27734375 80.77734375 C-64.71795946 77.65603633 -62.11406209 74.5754997 -59.5 71.5 C-56.12716411 67.53096457 -52.78823355 63.53982979 -49.5 59.5 C-45.75147354 54.8946675 -41.92915754 50.35795556 -38.08374023 45.83374023 C-35.2045468 42.44045891 -32.36795763 39.01732214 -29.5625 35.5625 C-26.10725714 31.31607452 -22.57298808 27.14706799 -19 23 C-12.50559042 15.46109261 -6.20948866 7.77572129 0 0 Z " fill="#F0F0F0" transform="translate(1011,408)"/>
<path d="M0 0 C0.33 0.99 0.66 1.98 1 3 C1.99 3.33 2.98 3.66 4 4 C5.65625 5.828125 5.65625 5.828125 7.5 8.25 C11.53205055 13.43617878 15.73126973 18.43951737 19.99609375 23.43359375 C20.44919418 23.99006592 20.90229462 24.54653809 21.36912537 25.11987305 C23.03145781 27.10033016 23.03145781 27.10033016 25.2247467 29.09301758 C32.2454871 36.28151765 33.13828688 41.85530353 33.14648438 51.59169006 C33.11926682 53.33327445 33.09125162 55.07484652 33.0625 56.81640625 C33.06562334 58.64087544 33.07286394 60.46534169 33.08398438 62.28977966 C33.10285562 67.07565243 33.06923831 71.85969164 33.02325439 76.64532471 C32.97729126 82.4112245 32.9928252 88.17721121 32.99928284 93.94324398 C33.00315652 98.44096933 32.99860999 102.93806835 32.96508789 107.4356842 C32.9134129 115.57150583 32.99486721 123.67104548 33.4375 131.79663086 C33.47673584 132.52051026 33.51597168 133.24438967 33.55639648 133.99020481 C33.82378143 138.36872747 34.34397126 142.66429837 35 147 C35.12177593 148.69367624 35.21910276 150.38933082 35.2890625 152.0859375 C36.83583094 182.28240416 41.64244948 212.42449559 47.1875 242.125 C47.52539551 243.94112793 47.52539551 243.94112793 47.87011719 245.79394531 C49.29304592 253.11924026 51.07349181 260.28753661 53.06518555 267.47412109 C54.03603507 271.13591497 54.84255355 274.79382124 55.625 278.5 C58.72404815 292.26229763 63.49692536 305.64544133 68 319 C68.41588379 320.23379395 68.83176758 321.46758789 69.26025391 322.73876953 C74.98801112 339.57131569 81.57595318 355.84840477 89 372 C89.74649756 373.65737026 90.49261445 375.31491205 91.23828125 376.97265625 C113.61190054 426.07230277 147.73763325 473.92698826 189 509 C189.93328125 509.81082031 190.8665625 510.62164063 191.828125 511.45703125 C213.12375699 529.86426703 236.79524891 546.39762445 262 559 C262 581.11 262 603.22 262 626 C261.67 626 261.34 626 261 626 C261 616.1 261 606.2 261 596 C259.02 595.34 257.04 594.68 255 594 C253.68281818 593.37579903 252.38299618 592.71276722 251.109375 592.00390625 C250.4095752 591.6162207 249.70977539 591.22853516 248.98876953 590.82910156 C247.88057861 590.20213379 247.88057861 590.20213379 246.75 589.5625 C245.96351074 589.1200293 245.17702148 588.67755859 244.36669922 588.22167969 C223.27849808 576.27323843 203.33972126 563.01504674 184.73828125 547.44580078 C183.10948266 546.09106128 181.46622667 544.75772062 179.8125 543.43359375 C175.1721853 539.70747149 170.78300972 535.9324995 166.6484375 531.65234375 C164.97991743 529.97986984 163.24075093 528.46303507 161.4375 526.9375 C153.05587024 519.70179619 145.03067211 511.68155543 137.8828125 503.22265625 C136.31681693 501.37400172 134.72628072 499.55696541 133.1171875 497.74609375 C125.23993226 488.84379761 117.96564184 479.62931058 111 470 C110.49581543 469.30616211 109.99163086 468.61232422 109.47216797 467.89746094 C102.6404473 458.46617408 96.20396404 448.85401032 90.15722656 438.90136719 C89.0594022 437.09760008 87.94912343 435.3021259 86.8359375 433.5078125 C68.21020316 403.26063935 53.88095106 371.2363485 41.71417236 337.95178223 C41.04196186 336.11467876 40.36465535 334.27944226 39.68701172 332.44433594 C33.78869427 316.38715052 29.10915217 300.12855499 24.90234375 283.55224609 C24.06252074 280.24612465 23.20567802 276.94494526 22.34375 273.64453125 C8.23677913 219.16808257 1.7592608 162.28207031 -0.125 106.125 C-0.16702545 104.91175049 -0.2090509 103.69850098 -0.25234985 102.44848633 C-0.86490635 84.46533726 -1.18852424 66.49350153 -1.1875 48.5 C-1.18840637 47.48568909 -1.18931274 46.47137817 -1.19024658 45.42633057 C-1.1886983 30.26528267 -0.69985503 15.14408852 0 0 Z " fill="#9A9A9A" transform="translate(403,505)"/>
<path d="M0 0 C1.05448041 9.91532109 1.16351158 19.7815588 1.16796875 29.73828125 C1.17119805 31.46616135 1.17456323 33.19404119 1.17805481 34.92192078 C1.18402011 38.54699328 1.18589819 42.17204208 1.18530273 45.79711914 C1.18522266 49.4257519 1.19197577 53.05425522 1.20581055 56.68286133 C1.41667659 112.88179762 -1.77612004 169.39234305 -12.36767578 224.67529297 C-12.99214488 227.95869843 -13.59071097 231.24591564 -14.18359375 234.53515625 C-18.98880094 260.85562406 -25.98926318 286.48642489 -34 312 C-34.33112793 313.05670898 -34.66225586 314.11341797 -35.00341797 315.20214844 C-56.43871131 382.98078548 -90.88414586 446.92903064 -138.83984375 499.62109375 C-140.26068265 501.18581506 -141.66995103 502.76113529 -143.06640625 504.34765625 C-151.474979 513.87117787 -160.38776333 523.16367406 -170.09765625 531.375 C-172.34853609 533.29772282 -174.51069912 535.30636031 -176.6875 537.3125 C-181.92768477 542.02866629 -187.43636206 546.33775402 -193.07763672 550.55761719 C-195.16544003 552.12413255 -197.24035842 553.70700712 -199.31640625 555.2890625 C-247.88716749 592 -247.88716749 592 -261 592 C-261 579.79 -261 567.58 -261 555 C-257.844375 553.22625 -254.68875 551.4525 -251.4375 549.625 C-233.24537784 539.28112159 -216.13191341 527.33839954 -200 514 C-199.01902344 513.19304688 -198.03804687 512.38609375 -197.02734375 511.5546875 C-183.64805201 500.44816666 -170.40981836 488.63798214 -159.08203125 475.41796875 C-157.47197452 473.54812801 -155.84436702 471.70184781 -154.19921875 469.86328125 C-141.20809819 455.25030048 -129.39310278 439.5666425 -119 423 C-118.45939941 422.13906738 -117.91879883 421.27813477 -117.36181641 420.39111328 C-95.72130575 385.66536656 -79.42222764 349.3132759 -66.23779297 310.62402344 C-65.22649136 307.66312381 -64.1998838 304.70879511 -63.16015625 301.7578125 C-56.7700851 283.43203032 -52.0649893 264.59327972 -48.49462891 245.53125 C-47.97769166 242.8858377 -47.40828995 240.25637467 -46.82421875 237.625 C-38.67372183 200.74232932 -34.92523613 162.92311371 -32.8125 125.25 C-32.77025299 124.51065216 -32.72800598 123.77130432 -32.68447876 123.009552 C-32.06379794 111.58583412 -31.96912116 100.17756438 -32.00632286 88.74015045 C-32.01172735 86.37122835 -32.01055824 84.0024082 -32.00679016 81.63348389 C-32.00554107 80.84571186 -32.00429197 80.05793983 -32.00300503 79.24629593 C-32.00018279 77.64627643 -31.99699558 76.04625753 -31.9934473 74.44623947 C-31.98727587 69.69050836 -32.02827461 64.93803083 -32.10345936 60.18292999 C-32.14077693 57.17497294 -32.13628069 54.16802262 -32.12188148 51.15991211 C-32.12392762 49.75299336 -32.1432867 48.34597115 -32.18169212 46.9395752 C-32.39389551 38.82338878 -31.68366467 33.93069187 -26.12133789 27.80029297 C-24.42773133 26.18590675 -22.72197466 24.58409258 -21 23 C-19.94794043 21.75117073 -18.91650992 20.48363523 -17.93359375 19.1796875 C-17.51513184 18.62877441 -17.09666992 18.07786133 -16.66552734 17.51025391 C-16.05765381 16.70080322 -16.05765381 16.70080322 -15.4375 15.875 C-3.24581496 0 -3.24581496 0 0 0 Z " fill="#9A9A9A" transform="translate(1121,508)"/>
<path d="M0 0 C0.70382812 0.4125 1.40765625 0.825 2.1328125 1.25 C4.24022268 2.48253232 6.34980161 3.71136019 8.4609375 4.9375 C10.76721087 6.2772016 13.06097735 7.63312402 15.3515625 9 C37.13535778 21.81988872 56.71699516 26.6111854 82 27 C83.34569019 30.89167518 84.67436 34.78895398 86 38.6875 C86.57234375 40.34168945 86.57234375 40.34168945 87.15625 42.02929688 C87.5171875 43.09599609 87.878125 44.16269531 88.25 45.26171875 C88.75273438 46.73064575 88.75273438 46.73064575 89.265625 48.22924805 C89.9997646 50.99911186 90.31843229 53.15358636 90 56 C87.7265625 57.703125 87.7265625 57.703125 84.625 59.25 C78.19097646 62.74362173 73.1629922 66.8370078 68 72 C67.38640625 72.61359375 66.7728125 73.2271875 66.140625 73.859375 C53.47320715 87.45651159 45.22620358 105.68713715 39 123 C32.18434503 122.03540079 25.48363327 120.74936091 18.8125 119.0625 C17.54019531 118.74410156 16.26789062 118.42570313 14.95703125 118.09765625 C13.98121094 117.73542969 13.00539063 117.37320313 12 117 C10.8676361 113.6029083 11.1914783 112.43267502 11.9375 109 C15.18636768 90.55266227 13.37764486 70.84233018 5 54 C4.57243408 53.12263184 4.57243408 53.12263184 4.13623047 52.22753906 C-1.5285835 40.69377368 -8.60775245 30.74583586 -17 21 C-15.70176525 17.18437605 -14.25033142 14.92909121 -11.3125 12.1875 C-7.28713333 8.32403107 -3.61438059 4.24689719 0 0 Z " fill="#74716E" transform="translate(783,650)"/>
<path d="M0 0 C3.98031597 2.11837545 7.40878924 4.50826485 10.7890625 7.484375 C11.38203125 7.99613281 11.975 8.50789063 12.5859375 9.03515625 C25.97007895 21.44213693 32.96777892 41.55461281 33.953125 59.46679688 C35.15319442 93.0887418 35.15319442 93.0887418 24.7890625 104.484375 C20.98418232 108.07462091 17.25183726 108.7627856 12.1015625 108.984375 C-2.33662061 108.44294313 -13.08315899 101.37118131 -22.8515625 91.25390625 C-37.91826311 73.56799445 -40.76972409 49.86661297 -39.2109375 27.484375 C-38.0277523 17.17545813 -34.5164535 7.95978672 -27.2109375 0.484375 C-18.49285831 -6.14136519 -9.49107393 -4.36540351 0 0 Z " fill="#05080A" transform="translate(1075.2109375,254.515625)"/>
<path d="M0 0 C4.82601677 4.59620645 8.4469633 10.00965267 8.79296875 16.79296875 C8.85065642 28.29589097 7.8609286 37.05221549 0.625 46.5 C-1.89196594 48.77369042 -4.55942323 50.62294882 -7.375 52.5 C-8.035 53.16 -8.695 53.82 -9.375 54.5 C-8.1065625 55.180625 -8.1065625 55.180625 -6.8125 55.875 C0.86136797 61.10961063 5.33668171 71.17790852 10.0625 78.9375 C10.60729004 79.82630859 11.15208008 80.71511719 11.71337891 81.63085938 C12.2191748 82.47326172 12.7249707 83.31566406 13.24609375 84.18359375 C13.7042749 84.94212646 14.16245605 85.70065918 14.63452148 86.48217773 C15.625 88.5 15.625 88.5 15.625 91.5 C13.04432437 92.19918305 10.46127153 92.88461049 7.875 93.5625 C6.78058594 93.86124023 6.78058594 93.86124023 5.6640625 94.16601562 C-1.02206453 95.89833036 -1.02206453 95.89833036 -4.375 94.5 C-5.80371094 92.72509766 -5.80371094 92.72509766 -7.109375 90.4140625 C-7.59744629 89.57012939 -8.08551758 88.72619629 -8.58837891 87.85668945 C-9.09546387 86.95523193 -9.60254883 86.05377441 -10.125 85.125 C-16.5743379 72.22105011 -16.5743379 72.22105011 -26.375 62.5 C-31.98203213 62.28622279 -31.98203213 62.28622279 -37.375 63.5 C-37.38958252 64.73153809 -37.40416504 65.96307617 -37.41918945 67.23193359 C-37.47705652 71.79066358 -37.55428932 76.34889357 -37.63745117 80.90722656 C-37.67075528 82.88207906 -37.69876997 84.857028 -37.72143555 86.83203125 C-37.75488122 89.66708577 -37.80719046 92.501252 -37.86328125 95.3359375 C-37.86967117 96.22243988 -37.8760611 97.10894226 -37.88264465 98.02230835 C-37.90243881 98.84300812 -37.92223297 99.66370789 -37.94262695 100.50927734 C-37.95373001 101.23319672 -37.96483307 101.95711609 -37.97627258 102.70297241 C-38.375 104.5 -38.375 104.5 -41.375 106.5 C-43.02464445 107.09148436 -44.69397187 107.62969707 -46.375 108.125 C-47.674375 108.51558594 -47.674375 108.51558594 -49 108.9140625 C-51.375 109.5 -51.375 109.5 -54.375 109.5 C-54.39853662 100.4655666 -54.4161195 91.43114431 -54.42681217 82.39668655 C-54.43195317 78.19820293 -54.43888317 73.99974079 -54.45043945 69.80126953 C-54.50530619 49.34051624 -54.32053285 28.94359289 -53.375 8.5 C-9.75879245 -4.33724109 -9.75879245 -4.33724109 0 0 Z " fill="#05080A" transform="translate(546.375,237.5)"/>
<path d="M0 0 C6.30417167 -0.349746 11.84539417 0.95927604 17.9375 2.5 C18.90751953 2.73847656 19.87753906 2.97695313 20.87695312 3.22265625 C23.25318032 3.80793388 25.62732042 4.40053251 28 5 C27.71125 6.27875 27.4225 7.5575 27.125 8.875 C26.94404785 9.69991943 26.7630957 10.52483887 26.57666016 11.37475586 C26.20535469 13.0651232 25.82548471 14.7536436 25.43505859 16.43969727 C22.72378272 28.76379067 21.04524284 45.88003114 28 57 C30.48030692 60.20925208 33.10845474 63.15758294 36 66 C32.07420365 69.26524171 28.00395415 72.10216833 23.6875 74.8125 C23.06166016 75.23208984 22.43582031 75.65167969 21.79101562 76.08398438 C17.69085836 78.6365951 14.9988068 79.44457007 10.0612793 78.48168945 C9.38105713 78.32273193 8.70083496 78.16377441 8 78 C6.57428034 77.72233981 5.14849697 77.44500661 3.72265625 77.16796875 C2.16905505 76.84217313 0.61568089 76.5152935 -0.9375 76.1875 C-21.14321788 72.05593693 -41.51164325 69.28731751 -62 67 C-62.83698386 64.54285453 -63.66972424 62.08441143 -64.5 59.625 C-64.73847656 58.92632813 -64.97695313 58.22765625 -65.22265625 57.5078125 C-67 52.2265625 -67 52.2265625 -67 50 C-64.40425596 48.70212798 -62.07273623 48.59887983 -59.1875 48.25 C-41.81695388 45.64537566 -28.17618258 37.15825006 -16 25 C-15.40316406 24.41476562 -14.80632813 23.82953125 -14.19140625 23.2265625 C-8.11022803 16.73338034 -3.86940627 7.95597309 0 0 Z " fill="#75716E" transform="translate(790,777)"/>
<path d="M0 0 C14.08068546 1.17112892 14.08068546 1.17112892 18.15527344 5.05371094 C19.72849737 7.93557613 20.82220649 10.76436886 21.875 13.875 C22.5651289 15.64067555 23.25537267 17.4063075 23.94799805 19.17100525 C24.73003681 21.19535448 25.48036425 23.22962953 26.22753906 25.26708984 C28.63022877 31.76063359 31.26433634 38.16157927 33.86917114 44.57597351 C37.97243729 54.69492962 41.97554965 64.84740934 46 75 C46.33 53.88 46.66 32.76 47 11 C58 13 58 13 61 14 C61.99462623 35.41814189 62.126809 56.79027623 62.06866455 78.22619629 C62.0582134 82.50495895 62.05382157 86.78372811 62.04882812 91.0625 C62.03828015 99.37501702 62.02134214 107.6875037 62 116 C61.06212646 115.84039795 60.12425293 115.6807959 59.15795898 115.51635742 C57.27026063 115.20770013 55.37524829 114.93530392 53.47265625 114.73828125 C49.25132037 113.99253472 46.76393684 113.02073591 44.15234375 109.53125 C42.21540129 105.75810441 40.59262572 101.92776492 39 98 C38.25897978 96.25155555 37.51533454 94.50422208 36.76953125 92.7578125 C34.61910372 87.68544325 32.52008278 82.59318379 30.43261719 77.49462891 C28.0516423 71.68664075 25.64962158 65.88736913 23.24911499 60.08743286 C22.44722963 58.14852563 21.64688894 56.20898729 20.84692383 54.26928711 C20.3598999 53.08987549 19.87287598 51.91046387 19.37109375 50.6953125 C18.93724365 49.64359863 18.50339355 48.59188477 18.05639648 47.50830078 C17.41529677 45.98607789 16.73867061 44.47734123 16 43 C15.25966349 50.8968502 14.81772052 58.74259436 14.68359375 66.671875 C14.66281265 67.72030579 14.64203156 68.76873657 14.62062073 69.84893799 C14.55601325 73.14923503 14.49665991 76.44960128 14.4375 79.75 C14.39422999 82.00781923 14.35061324 84.26563184 14.30664062 86.5234375 C14.2004251 92.01555502 14.09850575 97.50773907 14 103 C8.58201328 102.30834212 3.3177215 101.24200752 -2 100 C-1.85881231 89.70826548 -1.71281395 79.41660509 -1.5625 69.125 C-1.55147877 68.37020607 -1.54045753 67.61541214 -1.52910233 66.83774567 C-1.20228457 44.55252243 -0.81553211 22.27372905 0 0 Z " fill="#06090B" transform="translate(962,226)"/>
<path d="M0 0 C2.07014454 0.20434903 4.13248666 0.48973519 6.1875 0.8125 C7.31542969 0.98394531 8.44335938 1.15539062 9.60546875 1.33203125 C10.72566406 1.55246094 11.84585938 1.77289063 13 2 C14.60294922 2.28423828 14.60294922 2.28423828 16.23828125 2.57421875 C19 4 19 4 20.6640625 7.375 C21.13719322 8.90835797 21.57960054 10.45135426 22 12 C22.26393555 12.90363281 22.52787109 13.80726563 22.79980469 14.73828125 C23.68610043 17.81838845 24.53343456 20.90738759 25.375 24 C27.31497757 31.03597734 29.2760239 38.04823366 31.5 45 C33.92532611 52.60778191 36.06191787 60.2849392 38.18774414 67.98120117 C40.82014319 77.46971539 43.62748703 86.90248038 46.51098633 96.31762695 C46.9986145 97.93350708 46.9986145 97.93350708 47.49609375 99.58203125 C47.78669678 100.53311768 48.0772998 101.4842041 48.37670898 102.46411133 C49 105 49 105 49 109 C47.31185763 108.88399745 45.62449113 108.75668975 43.9375 108.625 C42.99777344 108.55539062 42.05804687 108.48578125 41.08984375 108.4140625 C39.56037109 108.20910156 39.56037109 108.20910156 38 108 C36.79214844 107.86207031 35.58429688 107.72414063 34.33984375 107.58203125 C31 106 31 106 29.89916992 104.01074219 C28.98602704 101.38250805 28.27799779 98.76696771 27.625 96.0625 C27.37878906 95.14275391 27.13257813 94.22300781 26.87890625 93.27539062 C26.42331316 91.56878372 25.98006525 89.85879919 25.55322266 88.14477539 C25.1058005 86.41017537 24.56648246 84.69944739 24 83 C22.75911621 82.78065796 22.75911621 82.78065796 21.49316406 82.55688477 C18.41418769 82.01194659 15.3354384 81.46574748 12.25683594 80.91870117 C10.92619602 80.68252068 9.59546764 80.44683805 8.26464844 80.21166992 C6.34807332 79.87290309 4.43184478 79.53217729 2.515625 79.19140625 C1.36352539 78.98717041 0.21142578 78.78293457 -0.97558594 78.57250977 C-3.34852151 78.12332233 -5.6682664 77.62296316 -8 77 C-8.11214844 77.65355469 -8.22429688 78.30710937 -8.33984375 78.98046875 C-9.18338422 82.83879292 -10.36284441 86.55223499 -11.5625 90.3125 C-11.79646484 91.05306641 -12.03042969 91.79363281 -12.27148438 92.55664062 C-12.84531972 94.37183405 -13.42234011 96.18602006 -14 98 C-20.11485027 98.09706112 -25.93303301 97.77040851 -32 97 C-31.38595809 92.80762983 -30.44546312 88.92625694 -29.13671875 84.8984375 C-28.7504834 83.70412109 -28.36424805 82.50980469 -27.96630859 81.27929688 C-27.54025745 79.97779307 -27.11398127 78.67636292 -26.6875 77.375 C-26.2428075 76.0085266 -25.7983132 74.64198868 -25.35400391 73.27539062 C-18.50014573 52.23593575 -11.54179906 31.22618851 -4.3125 10.3125 C-3.98556152 9.36246094 -3.65862305 8.41242188 -3.32177734 7.43359375 C-3.02609863 6.58539063 -2.73041992 5.7371875 -2.42578125 4.86328125 C-2.17223877 4.13407471 -1.91869629 3.40486816 -1.6574707 2.65356445 C-1 1 -1 1 0 0 Z " fill="#05080A" transform="translate(902,214)"/>
<path d="M0 0 C8.72127014 21.69899636 16.32564426 43.82733917 23.76333618 65.99346924 C24.29063599 67.56483757 24.81923404 69.13577092 25.34921265 70.70623779 C27.94158946 78.400309 30.47551333 86.00772079 32 94 C29.93918639 94.50690584 27.87626474 95.00524619 25.8125 95.5 C24.66394531 95.7784375 23.51539063 96.056875 22.33203125 96.34375 C19.43181171 96.91495385 16.93903615 97.13283779 14 97 C12.99263372 94.06497405 11.99539496 91.12660539 11 88.1875 C10.71382812 87.35412109 10.42765625 86.52074219 10.1328125 85.66210938 C9.86210938 84.85966797 9.59140625 84.05722656 9.3125 83.23046875 C9.06113281 82.49207764 8.80976562 81.75368652 8.55078125 80.99291992 C8 79 8 79 8 76 C7.14245117 76.21205078 6.28490234 76.42410156 5.40136719 76.64257812 C2.21166024 77.4289865 -0.9790064 78.21124142 -4.17041016 78.99072266 C-5.55004811 79.32858656 -6.92928589 79.66808901 -8.30810547 80.00927734 C-10.29290858 80.50011186 -12.27908799 80.98498744 -14.265625 81.46875 C-15.45961914 81.76201172 -16.65361328 82.05527344 -17.88378906 82.35742188 C-21 83 -21 83 -25 83 C-25.10957031 83.64324219 -25.21914063 84.28648437 -25.33203125 84.94921875 C-26.63305072 92.363972 -28.25393834 99.67818143 -30 107 C-31.89385437 107.50744423 -33.79018666 108.00564574 -35.6875 108.5 C-36.74324219 108.7784375 -37.79898438 109.056875 -38.88671875 109.34375 C-41.71142672 109.9391715 -44.12836708 110.12786492 -47 110 C-46.64051835 104.69764562 -45.80376497 100.05421157 -44.16796875 94.9921875 C-42.0680794 88.31743835 -40.28077551 81.59397382 -38.5625 74.8125 C-36.04497615 64.99549611 -33.44840193 55.21079945 -30.69189453 45.45849609 C-29.88024095 42.57446238 -29.07861387 39.68771678 -28.27734375 36.80078125 C-26.79205693 31.45366945 -25.29348815 26.11047383 -23.78271484 20.77050781 C-23.30087259 19.06497262 -22.82148665 17.35873847 -22.34619141 15.65136719 C-21.82518908 13.78528774 -21.28852203 11.92359913 -20.75 10.0625 C-20.47671875 9.10472656 -20.2034375 8.14695313 -19.921875 7.16015625 C-19 5 -19 5 -16 3 C-13.84988416 2.39597261 -11.67981917 1.86104076 -9.5 1.375 C-8.3553125 1.11460937 -7.210625 0.85421875 -6.03125 0.5859375 C-3 0 -3 0 0 0 Z " fill="#05080A" transform="translate(611,218)"/>
<path d="M0 0 C3.21891748 9.45764414 6.32998664 18.92341074 9.10205078 28.5222168 C11.14805172 35.58214273 13.372507 42.58207459 15.6015625 49.5859375 C16.74266368 53.173779 17.8479547 56.77111938 18.9375 60.375 C20.15608068 64.38335263 21.45199004 68.35820453 22.80078125 72.32421875 C23.12119385 73.2692627 23.44160645 74.21430664 23.77172852 75.18798828 C24.41390787 77.07494105 25.06136501 78.96010755 25.71459961 80.84326172 C26.00987549 81.71096191 26.30515137 82.57866211 26.609375 83.47265625 C26.87717773 84.24875244 27.14498047 85.02484863 27.42089844 85.82446289 C28 88 28 88 28 92 C22.39 93.65 16.78 95.3 11 97 C8.86691623 90.7023241 6.87756574 84.37839707 5 78 C-0.79324519 79.12127326 -6.01266827 80.62280642 -11.4375 82.9453125 C-14 84 -14 84 -16.75 84.8671875 C-22.34888692 86.69619047 -22.34888692 86.69619047 -25.875 91.25 C-26.30589291 92.81904453 -26.6688786 94.40691241 -27 96 C-27.42850711 98.03049714 -27.86706024 100.0573399 -28.32666016 102.08105469 C-28.64522482 103.5032298 -28.93884242 104.93127358 -29.20458984 106.36425781 C-30.03387227 110.18392716 -30.7930178 111.82917563 -33.83984375 114.34375 C-39.07771331 117.08893751 -39.07771331 117.08893751 -41.75 118.25 C-42.88695312 118.75273437 -42.88695312 118.75273437 -44.046875 119.265625 C-46 120 -46 120 -48 120 C-47.39260695 116.08132355 -46.61669787 112.29220937 -45.58203125 108.46484375 C-45.15954102 106.89645752 -45.15954102 106.89645752 -44.72851562 105.29638672 C-44.42623047 104.1879541 -44.12394531 103.07952148 -43.8125 101.9375 C-43.49861328 100.78008301 -43.18472656 99.62266602 -42.86132812 98.43017578 C-39.46958228 85.9715053 -35.93828444 73.55518136 -32.28125 61.171875 C-29.31348696 51.10679033 -26.44187161 41.03431617 -23.8125 30.875 C-23.55936035 29.92012695 -23.3062207 28.96525391 -23.04541016 27.98144531 C-21.96295643 23.87687258 -20.93087892 19.80031475 -20.16015625 15.625 C-18.33318505 6.89916739 -18.33318505 6.89916739 -14.15625 4.08203125 C-11.12414687 2.79338742 -8.18354875 1.83069275 -5 1 C-3 0 -3 0 0 0 Z " fill="#05080A" transform="translate(456,258)"/>
<path d="M0 0 C5.28 0 10.56 0 16 0 C16.02505615 1.8759082 16.0501123 3.75181641 16.07592773 5.68457031 C16.16029213 11.92708012 16.24853445 18.16952602 16.33933926 24.41194534 C16.39418101 28.1915963 16.44753256 31.97125531 16.49731445 35.75097656 C16.54553769 39.40798448 16.59788949 43.06491337 16.65294075 46.72182465 C16.67310546 48.10742946 16.69185612 49.49305569 16.70907402 50.87870026 C15.86481868 68.62289615 15.86481868 68.62289615 23 84 C27.77210704 87.1537403 33.515874 86.60768017 39 86 C43.22841647 83.7166551 44.57093548 81.48427508 46 77 C46.20386404 74.41979621 46.31090943 71.94382732 46.31884766 69.36401367 C46.33391609 68.23638107 46.33391609 68.23638107 46.34928894 67.08596802 C46.38005859 64.61330902 46.39713858 62.140758 46.4140625 59.66796875 C46.43277917 57.94874649 46.45235296 56.22953337 46.4727478 54.5103302 C46.52402234 49.99440911 46.56367307 45.47845824 46.60089111 40.96240234 C46.64096011 36.35051132 46.69203924 31.73874362 46.7421875 27.12695312 C46.83889147 18.08471354 46.92229587 9.04242284 47 0 C52.28 0 57.56 0 63 0 C63.66723689 17.51496842 64.11905916 35.02265432 64.17724609 52.55108643 C64.18402045 54.37544348 64.19421056 56.19979142 64.20800781 58.02410889 C64.42117282 88.54947886 64.42117282 88.54947886 56.46484375 97.78125 C49.50688147 104.24787554 41.81384132 105.5661901 32.625 105.5 C31.6954248 105.49355469 30.76584961 105.48710937 29.80810547 105.48046875 C20.46203625 105.23067052 14.57903549 102.97165502 8.0625 96.1875 C-1.19425122 84.49704893 -0.29597302 68.39588299 -0.1953125 54.19921875 C-0.19157175 52.62596315 -0.18872981 51.05270519 -0.18673706 49.47944641 C-0.17918407 45.38438219 -0.15960967 41.28946503 -0.1373291 37.19445801 C-0.11668865 32.99749744 -0.10769685 28.80051257 -0.09765625 24.60351562 C-0.07635385 16.4022695 -0.0412422 8.20117011 0 0 Z " fill="#05080A" transform="translate(732,199)"/>
<path d="M0 0 C-0.00902344 0.70382812 -0.01804687 1.40765625 -0.02734375 2.1328125 C0.37884425 15.6606389 6.85869564 26.00626429 16.1328125 35.35546875 C20.13242279 39.0444826 24.37197274 42.14889427 29 45 C27.72036341 48.70200542 26.32322986 51.04092005 23.5234375 53.76953125 C22.853125 54.43017578 22.1828125 55.09082031 21.4921875 55.77148438 C20.79351563 56.44501953 20.09484375 57.11855469 19.375 57.8125 C18.31539062 58.85180664 18.31539062 58.85180664 17.234375 59.91210938 C15.49618194 61.61506879 13.75136939 63.31061192 12 65 C10.42412109 64.29423828 10.42412109 64.29423828 8.81640625 63.57421875 C-12.26372993 54.19578094 -32.92733456 50.05176966 -55.4375 57.84375 C-61.09145711 60.18610366 -66.27723695 63.43673664 -71.49609375 66.609375 C-74 68 -74 68 -76 68 C-76.7266797 66.09021367 -77.43075588 64.17181485 -78.125 62.25 C-78.51945313 61.18265625 -78.91390625 60.1153125 -79.3203125 59.015625 C-80 56 -80 56 -79.46875 53.97265625 C-77.34958143 51.1264325 -74.90848469 48.65835748 -72.375 46.1875 C-71.83157959 45.65125 -71.28815918 45.115 -70.72827148 44.5625 C-67.31353078 41.21612501 -63.82208791 37.9967449 -60.1796875 34.8984375 C-57.86227065 32.88004218 -55.6177744 30.79637017 -53.37231445 28.69873047 C-47.97062877 23.65319128 -42.47676737 18.83750617 -36.68359375 14.23828125 C-33.7807553 11.81713651 -31.1360706 9.20808323 -28.4375 6.5625 C-19.94060183 -1.18926708 -11.0255671 -0.31106616 0 0 Z " fill="#75716E" transform="translate(746,600)"/>
<path d="M0 0 C9.57306532 3.5269188 16.89588883 8.69786482 24 16 C24.71929688 16.69867188 25.43859375 17.39734375 26.1796875 18.1171875 C34.45703757 26.64441984 39.63839276 38.14062261 40.125 50.0625 C40.08375 50.701875 40.0425 51.34125 40 52 C38.33187581 51.33698875 36.66556142 50.66942318 35 50 C33.63681641 49.47986328 33.63681641 49.47986328 32.24609375 48.94921875 C27.7777663 46.94188945 24.7059078 45.54268615 22.609375 40.9609375 C21.99407991 38.69268864 21.41330476 36.41479707 20.8671875 34.12890625 C19.08169227 27.68664645 15.01409985 24.40660722 9.4375 21.0625 C6.13995922 19.23445155 3.77632384 18.68369253 0 19 C-1.35837426 20.14182348 -1.35837426 20.14182348 -1.25 23.1875 C-0.72037621 31.26426281 4.2393645 35.65025897 9.75 41 C10.4409375 41.68578125 11.131875 42.3715625 11.84375 43.078125 C15.0590746 46.24509885 18.31297182 49.31144652 21.765625 52.21875 C31.81835104 60.70949869 40.83689134 74.59252931 42 88 C43.12360111 104.44381305 43.12360111 104.44381305 38 111 C35.21954929 114.17765795 33.06576628 115.27188198 28.9375 115.5625 C16.51503757 114.92386594 5.22426165 106.59213081 -3.1875 98 C-11.86167575 87.71618338 -17.48079198 74.46217549 -17 61 C-15.04096255 61.47627975 -13.08278903 61.95611423 -11.125 62.4375 C-10.03445313 62.70433594 -8.94390625 62.97117187 -7.8203125 63.24609375 C-5 64 -5 64 -3 65 C-2.1821245 67.51585615 -1.44985286 70.01417212 -0.75 72.5625 C2.09546782 82.26023143 6.26098817 89.27580925 15.375 94.3125 C18.866923 95.22705126 21.50898258 94.8056194 25 94 C26.74092738 90.51814525 26.45083975 86.80709123 26 83 C22.87737944 74.58250111 15.62684073 68.64380153 9 63 C-4.81360849 51.22878514 -15.26698899 38.00067695 -17.28515625 19.3671875 C-17.52540599 12.53573847 -16.0440442 7.27047072 -12.4375 1.5 C-8.30252754 -1.04459844 -4.70173153 -0.9008567 0 0 Z " fill="#05080A" transform="translate(1135,283)"/>
<path d="M0 0 C9.55139371 4.95498923 13.87671044 13.17566898 17.1640625 23.125 C17.1640625 24.115 17.1640625 25.105 17.1640625 26.125 C11.8840625 28.105 6.6040625 30.085 1.1640625 32.125 C-0.984375 27.53515625 -0.984375 27.53515625 -3.1328125 22.9453125 C-4.91374198 19.99615863 -5.60644809 19.1104692 -8.8359375 18.125 C-14.41560629 17.22393548 -19.42537961 17.27930134 -24.2109375 20.5 C-31.52503255 26.86985737 -34.30518478 36.49527758 -35.05712891 45.88793945 C-36.0988633 64.9148374 -36.0988633 64.9148374 -29.36328125 82.23046875 C-26.19462039 85.50400255 -23.35901987 86.50941051 -18.8359375 86.75 C-14.15406789 86.39531291 -10.17013821 85.59778607 -6.8359375 82.125 C-3.31189281 76.44420741 -0.85676904 70.48160626 1.1640625 64.125 C2.89423758 64.57951184 4.62316127 65.03878857 6.3515625 65.5 C7.79595703 65.88285156 7.79595703 65.88285156 9.26953125 66.2734375 C11.98616457 67.07266296 14.55543425 68.0281362 17.1640625 69.125 C14.84820161 80.76524816 10.84299967 91.65139029 1.1640625 99.125 C-7.92480364 104.83697517 -17.72616935 106.42720442 -28.29296875 104.73046875 C-36.10385438 102.6101758 -41.65398469 97.6202806 -45.88671875 90.83984375 C-55.11835033 73.77552426 -55.62117356 52.1907713 -50.16015625 33.73828125 C-44.42576062 18.09133151 -36.69855852 7.41532057 -21.51953125 -0.0078125 C-15.05316826 -2.09737958 -6.46636738 -1.99513264 0 0 Z " fill="#04080A" transform="translate(701.8359375,202.875)"/>
<path d="M0 0 C0.928125 0.50853516 0.928125 0.50853516 1.875 1.02734375 C7.74478646 4.58210667 11.77717065 10.74886974 13.6640625 17.30859375 C13.77492188 17.86675781 13.88578125 18.42492188 14 19 C11.94175571 19.84378975 9.87820214 20.67463622 7.8125 21.5 C6.66394531 21.9640625 5.51539063 22.428125 4.33203125 22.90625 C1.23806603 23.92185406 -0.80065357 24.56326522 -4 24 C-5.30078125 22.390625 -5.30078125 22.390625 -6.3125 20.25 C-8.9821764 15.55935362 -11.82165626 13.49017086 -17 12 C-23.45504557 10.91663571 -28.68228573 12.21926222 -34 16 C-41.32633085 22.24892925 -42.87683225 30.32416961 -43.75 39.5625 C-44.27471437 49.30393638 -43.47565499 56.65545131 -38 65 C-35.19168137 68.00792952 -32.10022558 70.76187033 -27.8984375 71.23828125 C-21.71959905 71.42001179 -16.99650599 70.82779536 -12 67 C-7.62915683 62.522314 -5.26908613 58.09161343 -4 52 C-1.0703125 52.48828125 1.859375 52.9765625 4.7890625 53.46484375 C5.84867188 53.64144531 6.90828125 53.81804687 8 54 C10 54.33333333 12 54.66666667 14 55 C13.81221651 63.26247359 9.25765835 70.40433774 3.81640625 76.41015625 C-5.66631564 85.20262802 -15.36838216 88.46023728 -28.2421875 88.24609375 C-37.80903418 87.61957468 -46.0324765 84.14453993 -52.75390625 77.18359375 C-62.79191967 64.73041921 -63.07969217 49.28043907 -62 34 C-59.84823416 21.67960362 -53.67168467 10.93891484 -44 3 C-32.08790523 -5.1986922 -12.65670125 -8.26504414 0 0 Z " fill="#040709" transform="translate(839,1197)"/>
<path d="M0 0 C18.415506 1.15096913 18.415506 1.15096913 26.171875 2.15625 C27.02759094 2.2634436 27.88330688 2.37063721 28.76495361 2.4810791 C30.53598321 2.7039435 32.30671982 2.92914906 34.07714844 3.15673828 C36.78770703 3.50484254 39.49920725 3.84474901 42.2109375 4.18359375 C43.94797605 4.40317659 45.68495754 4.62321142 47.421875 4.84375 C48.22598816 4.94482056 49.03010132 5.04589111 49.85858154 5.15002441 C53.31954592 5.59738717 56.60840143 6.15210036 60 7 C60 11.95 60 16.9 60 22 C51.06889455 21.49255083 42.24979858 20.60668472 33.375 19.5 C32.31990234 19.36940186 31.26480469 19.23880371 30.17773438 19.10424805 C26.02436916 18.57570488 22.06904405 18.01726101 18 17 C18 23.93 18 30.86 18 38 C20.59875 38.28875 23.1975 38.5775 25.875 38.875 C26.7422168 38.97135742 27.60943359 39.06771484 28.50292969 39.16699219 C29.25993164 39.25110352 30.01693359 39.33521484 30.796875 39.421875 C31.64958984 39.51662109 32.50230469 39.61136719 33.38085938 39.70898438 C34.24517578 39.80501953 35.10949219 39.90105469 36 40 C38.56787109 40.28531901 41.13574219 40.57063802 43.70361328 40.85595703 C44.90219971 40.9891333 44.90219971 40.9891333 46.125 41.125 C47.6484375 41.29427083 49.171875 41.46354167 50.6953125 41.6328125 C52.33113281 41.81457031 52.33113281 41.81457031 54 42 C54 46.95 54 51.9 54 57 C46.7523141 57.17473457 39.8068649 56.50517457 32.625 55.5625 C31.54605469 55.42779297 30.46710937 55.29308594 29.35546875 55.15429688 C21.41432371 54.1381079 21.41432371 54.1381079 18 53 C18 65.21 18 77.42 18 90 C9 90 9 90 0 88 C0 58.96 0 29.92 0 0 Z " fill="#040709" transform="translate(684,1190)"/>
<path d="M0 0 C6.27 0.33 12.54 0.66 19 1 C21.06384876 5.39209605 23.12711434 9.78445701 25.18896484 14.17749023 C25.88882959 15.66820537 26.58901779 17.1587687 27.28955078 18.64916992 C30.93308856 26.40143327 34.56684633 34.15152757 38 42 C44.15344129 30.40722047 50.18888103 18.76832751 56 7 C60.99128285 6.91319508 65.56993712 7.10362493 70.5 8 C71.5415625 8.185625 72.583125 8.37125 73.65625 8.5625 C74.4296875 8.706875 75.203125 8.85125 76 9 C74.62732856 13.62226096 72.67262527 17.61048496 70.25 21.75 C65.91323117 29.30668628 61.75127338 36.95154184 57.625 44.625 C57.01817383 45.75131836 56.41134766 46.87763672 55.78613281 48.03808594 C53.38093246 52.51258417 53.38093246 52.51258417 51 57 C50.45287354 57.89267578 49.90574707 58.78535156 49.34204102 59.70507812 C47.46857983 64.30472015 47.52127868 68.50659602 47.48828125 73.4296875 C47.47033005 74.42001984 47.45237885 75.41035217 47.43388367 76.43069458 C47.37991099 79.57875371 47.34592644 82.72666233 47.3125 85.875 C47.27931546 88.01564588 47.24482475 90.15627194 47.20898438 92.296875 C47.12419222 97.53111501 47.05578735 102.76537481 47 108 C44.52039864 107.85975781 42.04147598 107.7130815 39.5625 107.5625 C38.85544922 107.52318359 38.14839844 107.48386719 37.41992188 107.44335938 C32.11328125 107.11328125 32.11328125 107.11328125 31 106 C30.14007042 99.10233384 29.90348141 92.23714631 30.28125 85.30078125 C31.15915335 64.0658305 24.2269179 49.44859318 14.22070312 31.12695312 C10.89549498 25.0079104 7.92299819 18.72779358 4.9375 12.4375 C4.43178467 11.39682373 3.92606934 10.35614746 3.4050293 9.28393555 C2.95039307 8.34332275 2.49575684 7.40270996 2.02734375 6.43359375 C1.63281006 5.61947021 1.23827637 4.80534668 0.83178711 3.96655273 C0 2 0 2 0 0 Z " fill="#05080A" transform="translate(804,200)"/>
<path d="M0 0 C-2.30105933 7.22004517 -5.04392962 14.18624493 -7.9375 21.1875 C-8.91493328 23.56865316 -9.89146001 25.9501786 -10.8671875 28.33203125 C-11.11962723 28.94784058 -11.37206696 29.5636499 -11.63215637 30.19812012 C-14.65140161 37.57337203 -17.60784954 44.97368849 -20.5625 52.375 C-20.82175262 53.02415375 -21.08100525 53.6733075 -21.34811401 54.34213257 C-22.5147418 57.26346066 -23.68070732 60.18505164 -24.84594727 63.10693359 C-26 66 -26 66 -27.14331055 68.2668457 C-28.44947718 72.43399745 -28.19056583 76.4939131 -28.140625 80.83203125 C-28.1577941 82.78454087 -28.17874623 84.73702022 -28.203125 86.68945312 C-28.23650411 89.75272314 -28.25005473 92.80920222 -28.19921875 95.87231445 C-27.96273721 112.53754454 -27.96273721 112.53754454 -31.43969727 116.74017334 C-34.92562567 119.57494155 -40.35459494 123 -45 123 C-44.95697754 121.75726318 -44.91395508 120.51452637 -44.86962891 119.23413086 C-43.38457673 86.00184883 -43.38457673 86.00184883 -58.12109375 57.27246094 C-60.58420675 54.29342562 -62.74779883 51.15107331 -64.91650391 47.9543457 C-65.85525607 46.57575971 -66.81452478 45.21081093 -67.79833984 43.86401367 C-70.21343011 40.52162765 -71 39.26331852 -71 35 C-69.43945312 33.62792969 -69.43945312 33.62792969 -67.28125 32.421875 C-66.13076172 31.76445312 -66.13076172 31.76445312 -64.95703125 31.09375 C-64.14621094 30.6503125 -63.33539063 30.206875 -62.5 29.75 C-61.68917969 29.29109375 -60.87835938 28.8321875 -60.04296875 28.359375 C-58.03580331 27.22591687 -56.02180882 26.10706053 -54 25 C-49.76902982 28.62233874 -47.52672124 33.10454581 -44.9375 37.9375 C-44.07230914 39.53032538 -43.20644162 41.12278343 -42.33984375 42.71484375 C-41.93749512 43.4610498 -41.53514648 44.20725586 -41.12060547 44.97607422 C-40.19845755 46.64156577 -39.20411833 48.2668786 -38.19140625 49.87890625 C-37 52 -37 52 -37 55 C-36.34 55 -35.68 55 -35 55 C-34.66935547 53.46279297 -34.66935547 53.46279297 -34.33203125 51.89453125 C-32.84690268 45.96575195 -30.60928694 40.31017625 -28.42407227 34.6105957 C-27.69391511 32.70424902 -26.97242489 30.79479065 -26.25195312 28.88476562 C-24.87124205 25.24178984 -23.44181968 21.61926166 -22 18 C-21.58588867 16.93040039 -21.17177734 15.86080078 -20.74511719 14.75878906 C-18.93662969 10.37752143 -17.77513256 7.60601273 -13.9921875 4.6484375 C-12.96351563 4.22820312 -11.93484375 3.80796875 -10.875 3.375 C-9.84117187 2.92898438 -8.80734375 2.48296875 -7.7421875 2.0234375 C-2.32061069 0 -2.32061069 0 0 0 Z " fill="#04080A" transform="translate(420,272)"/>
<path d="M0 0 C8.23379925 2.80853385 13.42307286 8.87030441 17.25 16.48828125 C21.51511468 26.57088691 22.36348905 36.11064178 22.375 47 C22.39949219 48.21945312 22.42398437 49.43890625 22.44921875 50.6953125 C22.47701456 59.27495396 21.48564636 65.91681427 15.8125 72.5625 C11.71362764 74.6574792 8.5045955 74.92657819 4 74 C-5.11096703 70.24035397 -10.41108979 64.11227469 -14.1875 55.1875 C-14.8094905 53.46466439 -15.41374305 51.73532058 -16 50 C-16.30035156 49.20335937 -16.60070313 48.40671875 -16.91015625 47.5859375 C-21.01711851 35.24594858 -20.58952433 19.12429459 -16 7 C-11.99561088 0.26305604 -7.4675462 -0.99023624 0 0 Z " fill="#FCFCFC" transform="translate(1071,270)"/>
<path d="M0 0 C0.4125 0.88300781 0.825 1.76601563 1.25 2.67578125 C11.55697681 24.29529358 27.2036123 40.99544342 49.703125 49.96484375 C52.30028427 50.78030252 54.7637735 51.40356486 57.421875 51.94140625 C58.18910889 52.09955811 58.95634277 52.25770996 59.74682617 52.4206543 C61.25946458 52.71744081 62.77829263 52.98463574 64.30200195 53.21801758 C66.41015625 53.6171875 66.41015625 53.6171875 70 55 C72.331244 58.8253816 73.1216703 62.40221348 74.07055664 66.74560547 C74.24599503 67.54545868 74.42143341 68.34531189 74.60218811 69.16940308 C74.73346603 69.77350006 74.86474396 70.37759705 75 71 C69.43839753 71.47023867 63.88051361 71.84594889 58.30688477 72.14135742 C56.41917581 72.25394859 54.53272549 72.3906767 52.64868164 72.5534668 C43.06298835 73.36607274 35.19081112 73.89007595 27.41481018 67.56962585 C24.98364756 65.34562998 22.67924366 63.05381194 20.46789551 60.61114502 C19.10635976 59.11673923 17.64782937 57.71230218 16.18383789 56.31811523 C14.09565711 54.10153876 13.31427554 52.99235774 12.5859375 50.1171875 C11.34980132 45.92680722 9.77868357 41.94793558 8.0390625 37.9453125 C7.62766022 36.9972171 7.62766022 36.9972171 7.20794678 36.02996826 C6.34992506 34.06033847 5.48746777 32.0926863 4.625 30.125 C4.05435574 28.81394643 3.48404131 27.50274926 2.9140625 26.19140625 C-0.02382492 19.44629755 -3.01265934 12.73030523 -6.13916016 6.06982422 C-7 4 -7 4 -7 2 C-4.35261084 0.5393715 -3.10551666 0 0 0 Z " fill="#76726F" transform="translate(645,772)"/>
<path d="M0 0 C0.72638729 2.07710746 1.43053408 4.16200312 2.125 6.25 C2.71667969 7.99023438 2.71667969 7.99023438 3.3203125 9.765625 C4 13 4 13 3.34375 15.1484375 C1.77420576 17.31112346 0.11384813 19.34518923 -1.625 21.375 C-17.39769669 40.92627376 -23.04327203 64.4072493 -20.79492188 89.26757812 C-20.31782042 93.53143758 -19.69932873 97.76656359 -19 102 C-21.97 102.99 -21.97 102.99 -25 104 C-27.51554214 96.04582764 -29.89646033 88.06445646 -32.05541992 80.00610352 C-33.09954411 76.1262468 -34.21232255 72.31035346 -35.53515625 68.515625 C-39.45721776 56.86434463 -38.79844774 47.86552217 -36 36 C-35.62448523 34.31420576 -35.2507441 32.62801532 -34.87890625 30.94140625 C-34.58617482 29.62755127 -34.29329671 28.31372891 -34 27 C-33.01 27 -32.02 27 -31 27 C-29.11745383 25.70661299 -29.11745383 25.70661299 -27.25 23.9375 C-26.19039062 22.97650391 -26.19039062 22.97650391 -25.109375 21.99609375 C-22.61289444 19.63368344 -20.19324526 17.20587843 -17.78515625 14.75390625 C-15.26984789 12.28262955 -12.60068287 10.00667831 -9.92578125 7.7109375 C-8.07187039 6.06385239 -6.34624299 4.34656208 -4.625 2.5625 C-2 0 -2 0 0 0 Z " fill="#75716E" transform="translate(660,660)"/>
<path d="M0 0 C13.0441818 15.04428967 20.74165843 41.34605172 20 61 C19.443125 60.278125 18.88625 59.55625 18.3125 58.8125 C11.67974339 50.74563386 6.13952199 48.57563795 -4 47 C-6.76093265 37.69140099 -9.50683753 28.38483109 -12 19 C-11.45730469 18.76925781 -10.91460938 18.53851562 -10.35546875 18.30078125 C-7.08283466 16.80893184 -4.50499843 15.55386925 -2.0625 12.875 C-0.50746747 8.66726491 -0.25093511 4.45626144 0 0 Z " fill="#74706D" transform="translate(883,656)"/>
<path d="M0 0 C2.36497439 1.86708505 3.66030715 3.32061431 5 6 C5.37381854 11.60727817 5.18490827 15.16772538 2 20 C-1.72966648 23.46615744 -5.52061998 25.18064996 -10.3125 26.6875 C-11.25125977 27.00557617 -11.25125977 27.00557617 -12.20898438 27.33007812 C-16.93126617 28.86542513 -20.92238541 29.36529818 -26 30 C-26 21.75 -26 13.5 -26 5 C-8.08823529 -0.97058824 -8.08823529 -0.97058824 0 0 Z " fill="#FCFCFC" transform="translate(534,254)"/>
<path d="M0 0 C0.66 0 1.32 0 2 0 C3.29016923 4.46336026 4.57163403 8.92909483 5.84521484 13.3972168 C6.27937289 14.91579869 6.7158715 16.43371351 7.15478516 17.95092773 C7.78649561 20.13613022 8.40965584 22.32362018 9.03125 24.51171875 C9.22811401 25.18587326 9.42497803 25.86002777 9.62780762 26.55461121 C10.63292955 30.12627142 11.22483217 33.28714655 11 37 C3.80729161 36.53752467 -3.0030827 35.74922933 -10 34 C-9.42834741 29.23974086 -8.4748238 24.94701652 -6.93359375 20.41015625 C-6.53076172 19.21455078 -6.12792969 18.01894531 -5.71289062 16.78710938 C-5.29201172 15.55798828 -4.87113281 14.32886719 -4.4375 13.0625 C-4.00790487 11.79380883 -3.57886341 10.52493004 -3.15039062 9.25585938 C-2.10568206 6.16868688 -1.05540218 3.08352965 0 0 Z " fill="#F6F6F6" transform="translate(910,241)"/>
<path d="M0 0 C2 1 2 1 3.14501953 3.83569336 C3.55349121 5.07456299 3.96196289 6.31343262 4.3828125 7.58984375 C4.60194305 8.2495668 4.82107361 8.90928986 5.04684448 9.58900452 C5.50920133 10.98582745 5.96793656 12.38385355 6.42333984 13.78295898 C7.12181386 15.92771653 7.83137753 18.06854754 8.54296875 20.20898438 C12 30.68896648 12 30.68896648 12 33 C9.62734939 33.67617524 7.25244645 34.34108226 4.875 35 C3.87726562 35.28617187 3.87726562 35.28617187 2.859375 35.578125 C-1.22421605 36.69911078 -4.78575413 37.08355382 -9 37 C-7.76023399 28.36654287 -5.80611553 20.12054818 -3.375 11.75 C-2.88773438 10.04263672 -2.88773438 10.04263672 -2.390625 8.30078125 C-1.59957964 5.53212251 -0.8026466 2.76531321 0 0 Z " fill="#F6F6F6" transform="translate(601,245)"/>
<path d="M0 0 C0.66 0 1.32 0 2 0 C2.13575439 0.54825439 2.27150879 1.09650879 2.41137695 1.66137695 C5.80517296 15.42349446 5.80517296 15.42349446 9.51953125 29.1015625 C10 31 10 31 10 33 C7.23174812 34.17314026 4.46071514 35.33870215 1.6875 36.5 C0.90181641 36.83386719 0.11613281 37.16773438 -0.69335938 37.51171875 C-1.45068359 37.82753906 -2.20800781 38.14335937 -2.98828125 38.46875 C-3.68477783 38.76201172 -4.38127441 39.05527344 -5.09887695 39.35742188 C-7 40 -7 40 -10 40 C-6.94079573 26.59348716 -3.51754357 13.29300158 0 0 Z " fill="#F5F5F6" transform="translate(446,286)"/>
<path d="M0 0 C5.61 0 11.22 0 17 0 C17 5.61 17 11.22 17 17 C11.39 17 5.78 17 0 17 C0 11.39 0 5.78 0 0 Z " fill="#040709" transform="translate(745,1268)"/>
<path d="M0 0 C0 5.61 0 11.22 0 17 C-1.69125 17.33 -3.3825 17.66 -5.125 18 C-6.07632813 18.185625 -7.02765625 18.37125 -8.0078125 18.5625 C-11 19 -11 19 -17 19 C-17 13.72 -17 8.44 -17 3 C-5.625 0 -5.625 0 0 0 Z " fill="#070A0C" transform="translate(885,1256)"/>
<path d="M0 0 C-1.74805687 2.47139075 -3.22614274 3.81835946 -6.20507812 4.51757812 C-8.88615822 4.84274345 -11.55538541 5.06884944 -14.25 5.25 C-15.18585937 5.32734375 -16.12171875 5.4046875 -17.0859375 5.484375 C-19.38984909 5.67244942 -21.69375053 5.84370871 -24 6 C-23.67 4.35 -23.34 2.7 -23 1 C-19.54260157 0.63627421 -16.0839992 0.28564602 -12.625 -0.0625 C-11.14773438 -0.2181543 -11.14773438 -0.2181543 -9.640625 -0.37695312 C-8.69960938 -0.47041016 -7.75859375 -0.56386719 -6.7890625 -0.66015625 C-5.91975098 -0.74918213 -5.05043945 -0.83820801 -4.15478516 -0.92993164 C-2 -1 -2 -1 0 0 Z " fill="#726E6C" transform="translate(757,588)"/>
</svg>
